<svg xmlns="http://www.w3.org/2000/svg" version="1.2" baseProfile="tiny" width="64" height="64"><path d="M14 1h1v1h-1zm1 1h1v1h-1zm1 0h1v1h-1zm-3 2h1v1h-1zm2 0h1v1h-1zm-3 1h1v1h-1zm1 0h1v1h-1zm9 1h1v1h-1zM3 8h1v1H3zm4 0h1v1H7zm2 1h1v1H9zm2 0h1v1h-1zm4 2h1v1h-1zm16 0h1v1h-1zm-18 1h1v1h-1zm26 0h1v1h-1zM5 14h1v1H5zm8 0h1v1h-1zm2 0h1v1h-1zm3 0h1v1h-1zm-2 1h1v1h-1zm26 0h1v1h-1zm-13 2h1v1h-1zM9 18h1v1H9zm10 0h1v1h-1zm10 1h1v1h-1zm10 0h1v1h-1zm1 0h1v1h-1zm-26 1h1v1h-1zm4 0h1v1h-1zm26 0h1v1h-1zm-32 1h1v1h-1zm3 0h1v1h-1zm2 0h1v1h-1zm23 0h1v1h-1zm-25 1h1v1h-1zm1 0h1v1h-1zm-5 1h1v1h-1zm3 0h1v1h-1zm29 2h1v1h-1zm4 0h1v1h-1zm-3 1h1v1h-1zm-34 1h1v1h-1zm34 0h1v1h-1zm2 0h1v1h-1zm-36 1h1v1h-1zm0 1h1v1h-1zm36 0h1v1h-1zm-36 1h1v1h-1zm36 1h1v1h-1zM8 32h1v1H8zm15 0h1v1h-1zm16 1h1v1h-1zM8 34h1v1H8zm1 0h1v1H9zm2 0h1v1h-1zm28 0h1v1h-1zm-3 1h1v1h-1zm-1 2h1v1h-1zm3 0h1v1h-1zm-25 1h1v1h-1zm-1 1h1v1h-1zm27 0h1v1h-1zm2 0h1v1h-1zm3 0h1v1h-1zm-22 1h1v1h-1zm-5 2h1v1h-1zm6 0h1v1h-1zm2 0h1v1h-1zm-9 1h1v1h-1zm1 0h1v1h-1zm3 0h1v1h-1zm4 0h1v1h-1zm21 0h1v1h-1zm-33 1h1v1h-1zm2 0h1v1h-1zm6 0h1v1h-1zm23 0h1v1h-1zm-19 1h1v1h-1zm10 0h1v1h-1zm2 0h1v1h-1zm7 0h1v1h-1zm-13 1h1v1h-1zm-12 1h1v1h-1zm5 0h1v1h-1zm20 0h1v1h-1zm-21 1h1v1h-1zm10 0h1v1h-1zm2 0h1v1h-1zm2 0h1v1h-1zm3 0h1v1h-1zm-9 1h1v1h-1zm11 0h1v1h-1zm3 0h1v1h-1zm-32 1h1v1h-1zm30 1h1v1h-1zm-3 5h1v1h-1zm1 0h1v1h-1zm-15 3h1v1h-1zm5 0h1v1h-1zm3 0h1v1h-1zm-9 1h1v1h-1zm4 1h1v1h-1zm7 1h1v1h-1z" fill="#ccc"/><path d="M16 1h1v1h-1zm-3 1h1v1h-1zm8 3h1v1h-1zm-8 1h1v1h-1zm6 0h1v1h-1zM7 7h1v1H7zm2 1h1v1H9zm5 1h1v1h-1zm11 1h1v1h-1zm-13 1h1v1h-1zm12 0h1v1h-1zm12 0h1v1h-1zm-16 1h1v1h-1zM3 13h1v1H3zm34 0h1v1h-1zm1 0h1v1h-1zM8 14h1v1H8zm31 0h1v1h-1zM9 15h1v1H9zm8 0h1v1h-1zm-1 2h1v1h-1zm-4 1h1v1h-1zm32 0h1v1h-1zm1 1h1v1h-1zm-16 1h1v1h-1zm4 0h1v1h-1zm10 0h1v1h-1zm-13 1h1v1h-1zm11 0h1v1h-1zm-29 1h1v1h-1zm1 0h1v1h-1zm1 0h1v1h-1zm14 0h1v1h-1zm-15 1h1v1h-1zm32 1h1v1h-1zm-35 1h1v1h-1zm35 0h1v1h-1zm-20 1h1v1h-1zm1 0h1v1h-1zm-1 1h1v1h-1zm20 0h1v1h-1zm-2 1h1v1h-1zm-19 1h1v1h-1zm21 0h1v1h-1zm-22 2h1v1h-1zm-13 1h1v1h-1zm11 0h1v1h-1zM8 33h1v1H8zm33 1h1v1h-1zm-20 1h2v1h-2zm24 0h1v1h-1zm-8 2h1v1h-1zm-25 1h1v1h-1zm10 0h1v1h-1zm23 0h1v1h-1zm-23 1h1v1h-1zm1 0h1v1h-1zm-11 1h1v1h-1zm2 0h1v1h-1zm30 0h1v1h-1zm-32 1h1v1h-1zm11 0h1v1h-1zm-7 1h1v1h-1zm2 1h1v1h-1zm7 0h1v1h-1zm-8 1h1v1h-1zm6 0h1v1h-1zm18 0h1v1h-1zm-26 1h1v1h-1zm15 0h1v1h-1zm7 0h1v1h-1zm-19 1h1v1h-1zm13 0h1v1h-1zm1 0h1v1h-1zm1 0h1v1h-1zm1 0h1v1h-1zm1 0h1v1h-1zm-21 1h1v1h-1zm0 1h1v1h-1zm13 0h1v1h-1zm1 0h1v1h-1zm4 1h1v1h-1zm1 0h1v1h-1zm4 0h1v1h-1zm-26 3h1v1h-1zm26 4h1v1h-1zm-25 1h1v1h-1zm24 0h1v1h-1zm-5 1h1v1h-1zm-8 1h1v1h-1zm1 0h1v1h-1zm16 0h1v1h-1zm-13 1h1v1h-1zm10 0h1v1h-1zm2 0h1v1h-1zm1 0h1v1h-1zm-11 1h1v1h-1zm1 0h1v1h-1z" fill="#aaa"/><path d="M16 4h1v1h-1zm2 1h1v1h-1zm2 0h1v1h-1zm2 2h1v1h-1zm-9 4h1v1h-1zm6 0h1v1h-1zm-2 2h1v1h-1zm-1 1h1v1h-1zm19 6h1v1h-1zm5 0h1v1h-1zm4 1h1v1h-1zm1 0h1v1h-1zm-35 1h1v1h-1zm1 0h1v1h-1zm15 2h1v1h-1zm-1 1h1v1h-1zm-1 1h1v1h-1zm-1 2h1v1h-1zm-1 2h1v1h-1zm20 0h1v1h-1zm-4 4h1v1h-1zm-1 4h1v1h-1zm-24 2h1v1h-1zm32 1h1v1h-1zm-32 1h1v1h-1zm31 0h1v1h-1zm1 0h1v1h-1zm-33 1h1v1h-1zm3 0h1v1h-1zm31 1h1v1h-1zm-32 1h1v1h-1zm15 0h1v1h-1zm9 1h1v1h-1zm1 0h1v1h-1zm3 2h1v1h-1zm1 2h1v2h-1zm-32 3h1v1h-1zm5 1h1v1h-1zm-5 1h1v1h-1zm30 1h1v1h-1zm0 2h1v1h-1zm0 1h1v1h-1zm-8 1h1v1h-1zm4 1h1v1h-1z" fill="#777"/><path d="M17 5h1v1h-1zm1 1h1v1h-1zm0 2h1v1h-1zm3 3h1v1h-1zM8 13h1v1H8zm2 0h1v1h-1zm3 2h1v1h-1zm30 14h1v1h-1zm-10 1h1v1h-1zm0 1h1v1h-1zm3 6h1v1h-1zm6 0h1v1h-1zm-3 1h1v1h-1zM13 50h1v1h-1zm2 4h1v1h-1zm-1 1h1v1h-1zm1 0h1v1h-1zm-2 1h1v1h-1zm5 1h1v1h-1zm19 0h1v1h-1z" fill="#111"/><path d="M17 6h1v1h-1zm1 1h1v1h-1zm1 1h1v2h-1zm1 1h1v1h-1zm0 1h1v1h-1zm1 0h1v1h-1zM7 11h1v1H7zm13 0h1v1h-1zM8 12h1v1H8zm1 1h1v1H9zm1 1h2v1h-2zm1 1h1v1h-1zm1 0h1v2h-1zm1 1h1v1h-1zm1 0h1v1h-1zm-1 1h1v1h-1zm1 0h1v1h-1zm1 0h1v1h-1zm-1 1h1v1h-1zm28 11h1v1h-1zm-1 6h1v1h-1zM13 51h1v1h-1zm3 4h1v2h-1zm-2 1h1v1h-1zm1 0h1v1h-1zm2 0h1v1h-1z"/><path d="M17 1h1v1h-1zm-2 4h1v1h-1zM4 7h1v1H4zm4 0h1v1H8zm6 0h1v1h-1zm6 0h1v1h-1zm3 0h1v1h-1zM6 8h1v1H6zM4 9h1v1H4zm-2 1h1v1H2zm4 0h1v1H6zm2 0h1v1H8zm-6 1h1v1H2zm30 0h1v1h-1zm1 0h1v1h-1zm2 0h1v1h-1zm-3 1h1v1h-1zm5 0h1v1h-1zm1 0h1v1h-1zm-24 1h1v1h-1zm4 0h1v1h-1zm18 0h1v1h-1zm-19 1h1v1h-1zM4 15h1v1H4zm2 0h1v1H6zm-1 1h1v1H5zm15 0h1v1h-1zm-3 1h1v1h-1zm3 0h1v1h-1zm8 0h1v1h-1zm-10 1h1v1h-1zm9 0h1v1h-1zm18 0h1v1h-1zm-28 1h1v1h-1zm1 0h1v1h-1zm1 0h1v1h-1zm8 0h1v1h-1zm7 0h1v1h-1zm10 0h1v1h-1zm-28 1h1v1h-1zm1 0h1v1h-1zm11 0h1v1h-1zm2 0h1v1h-1zm1 0h1v1h-1zm-20 1h1v1h-1zm5 0h1v1h-1zm2 0h1v1h-1zm11 0h1v1h-1zm7 0h1v1h-1zm3 0h1v1h-1zm7 0h1v1h-1zm-29 1h1v1h-1zm15 0h1v1h-1zm-17 1h1v1h-1zm10 1h1v1h-1zm4 0h1v1h-1zm15 0h1v1h-1zm2 0h1v1h-1zM9 25h1v1H9zm0 1h1v1H9zm17 1h1v1h-1zm22 0h1v1h-1zm-26 1h1v1h-1zm26 0h1v1h-1zm-15 1h1v1h-1zm-12 1h1v1h-1zm28 0h1v1h-1zm0 1h1v1h-1zm-16 1h1v1h-1zm-10 1h1v1h-1zm17 0h1v1h-1zm6 0h1v1h-1zM8 35h1v1H8zm40 0h1v1h-1zm-36 1h1v1h-1zm11 0h1v1h-1zm25 0h1v1h-1zm-37 1h1v1h-1zm10 0h1v1h-1zm2 0h1v1h-1zm20 0h1v1h-1zm4 0h1v1h-1zm-26 1h1v1h-1zm23 0h1v1h-1zm3 0h1v1h-1zm-11 1h1v1h-1zm4 0h1v1h-1zm6 0h1v1h-1zm-22 1h1v1h-1zm-11 1h1v1h-1zm25 0h1v1h-1zm1 0h1v1h-1zm1 0h1v1h-1zm-25 1h1v1h-1zm31 0h1v1h-1zm-25 1h1v1h-1zm5 0h1v1h-1zm14 1h1v1h-1zm-27 1h1v2h-1zm25 0h1v1h-1zm1 0h1v1h-1zm-20 1h1v1h-1zm25 0h1v1h-1zm2 0h1v1h-1zm-33 1h1v1h-1zm11 0h1v1h-1zm14 0h1v1h-1zm1 0h1v1h-1zm-26 1h1v1h-1zm20 0h1v1h-1zm2 0h1v1h-1zm2 0h1v1h-1zm1 0h1v1h-1zm-11 1h1v1h-1zm1 0h1v1h-1zm1 0h1v1h-1zm13 0h1v1h-1zm-4 6h1v1h-1zm-2 1h1v1h-1zm-16 1h1v1h-1zm2 1h1v1h-1zm7 0h1v1h-1zm9 0h1v1h-1zm4 0h1v1h-1zm-21 1h1v1h-1zm7 1h1v1h-1zm7 1h1v1h-1zm-4 1h1v1h-1zm3 0h1v1h-1z" fill="#ddd"/><path d="M12 6h1v1h-1zm4 1h1v1h-1zm-6 1h1v1h-1zm3 0h1v1h-1zm8 0h1v1h-1zm-11 2h1v1h-1zm6 0h1v1h-1zm10 0h1v1h-1zm1 0h2v1h-2zm10 1h1v1h-1zm1 0h1v1h-1zM4 12h1v1H4zm2 0h1v1H6zm5 0h1v1h-1zm10 0h1v1h-1zm9 0h1v1h-1zm1 0h1v1h-1zm-19 1h1v1h-1zm26 1h1v1h-1zm3 0h1v1h-1zm-1 1h1v1h-1zM7 16h1v1H7zm10 0h1v1h-1zM6 17h1v1H6zm2 0h1v1H8zm2 0h1v1h-1zm8 0h1v1h-1zm9 0h1v1h-1zm3 0h1v1h-1zM7 18h1v1H7zm13 0h1v1h-1zm9 0h1v1h-1zm-18 1h1v1h-1zm17 0h1v1h-1zm13 0h1v1h-1zm-22 1h1v1h-1zm18 1h1v1h-1zm1 0h1v1h-1zm5 1h1v1h-1zm-17 1h1v1h-1zM9 24h1v1H9zm34 0h1v1h-1zm4 0h1v1h-1zm-23 1h1v1h-1zm4 0h1v1h-1zm-1 1h1v1h-1zm16 0h1v1h-1zm4 0h1v1h-1zm1 0h1v1h-1zM9 27h1v1H9zm0 1h1v1H9zm35 0h1v1h-1zM9 29h1v1H9zm23 0h1v1h-1zm16 0h1v1h-1zm1 0h1v1h-1zm-25 1h1v1h-1zm24 0h1v1h-1zM8 31h1v1H8zm40 0h1v1h-1zm-16 1h1v1h-1zm16 0h1v1h-1zm1 0h1v1h-1zM9 33h1v1H9zm2 0h1v1h-1zm37 0h1v1h-1zm1 0h1v1h-1zm-39 1h1v1h-1zm13 0h1v1h-1zm14 0h1v1h-1zm9 0h1v1h-1zm2 0h1v1h-1zm-38 1h1v1h-1zm13 0h1v1h-1zm20 1h1v1h-1zm-8 2h1v1h-1zm11 0h1v1h-1zm-7 2h1v1h-1zm1 0h1v1h-1zm1 0h1v1h-1zm5 0h1v1h-1zm-32 2h1v1h-1zm4 0h1v1h-1zm24 1h1v1h-1zm-23 1h1v1h-1zm9 0h1v1h-1zm-12 1h1v1h-1zm7 0h1v1h-1zm19 0h1v1h-1zm-16 1h1v1h-1zm2 0h1v1h-1zm1 0h1v1h-1zm16 0h1v2h-1zm-28 1h1v1h-1zm8 0h1v1h-1zm17 0h1v1h-1zm-21 1h1v1h-1zm21 2h1v1h-1zm2 0h1v1h-1zm-3 2h1v1h-1zm-1 1h1v1h-1zm-30 1h1v1h-1zm29 0h1v1h-1zm3 1h1v1h-1zm-7 2h1v1h-1zm5 0h1v1h-1zm-7 1h1v1h-1zm9 1h1v1h-1zm-1 1h1v1h-1zm-14 1h1v1h-1zm11 0h1v1h-1zm-8 1h1v1h-1zm7 0h1v1h-1z" fill="#eee"/><path d="M17 7h1v1h-1zm2 0h1v1h-1zm3 4h1v1h-1zM7 12h1v1H7zm5 2h1v1h-1zm20 16h1v1h-1zm0 1h1v1h-1zm4 7h1v1h-1zm-10 7h1v1h-1zm-13 7h1v1h-1zm0 3h1v1h-1zm-1 1h1v1h-1zm4 1h1v1h-1z" fill="#333"/><g fill="#fff"><path d="M0 0h12v3H0zm12 0h2v1h-2zm2 0h4v1h-4zm4 0h2v1h-2zm2 0h44v1H20zm-8 1h2v1h-2zm6 0h1v1h-1zm1 0h2v1h-2zm2 0h43v1H21zm-9 1h1v1h-1zm7 0h2v1h-2zm2 0h1v1h-1zm1 0h42v1H22zM0 3h10v2H0zm10 0h1v4h-1zm1 0h1v4h-1zm3 0h1v4h-1zm1 0h1v1h-1zm1 0h1v1h-1zm1 0h1v1h-1zm3 0h1v1h-1zm1 0h1v1h-1zm1 0h1v2h-1zm1 0h41v1H23zm-5 1h1v1h-1zm3 0h1v1h-1zm2 0h1v1h-1zm1 0h40v2H24zM0 5h4v1H0zm4 0h1v1H4zm1 0h1v1H5zm1 0h1v2H6zm1 0h1v1H7zm1 0h1v1H8zm1 0h1v1H9zm10 0h1v1h-1zm3 0h1v1h-1zm1 0h1v1h-1zM0 6h3v1H0zm3 0h1v1H3z"/><path d="M4 6h5v1H4zm5 0h2v1H9zm6 0h1v2h-1zm5 0h1v1h-1zm3 0h1v1h-1zm1 0h1v1h-1zm1 0h39v1H25zM0 7h2v1H0zm2 0h1v1H2zm1 0h1v1H3zm6 0h1v1H9zm1 0h1v1h-1zm1 0h1v1h-1zm1 0h1v3h-1zm9 0h1v1h-1zm3 0h1v1h-1zm1 0h1v1h-1zm1 0h38v1H26zM0 8h1v2H0zm1 0h1v1H1zm1 0h1v1H2z"/><path d="M11 8h2v1h-2zm4 0h1v1h-1zm1 0h1v2h-1zm8 0h1v1h-1zm1 0h1v2h-1zm1 0h1v1h-1zm1 0h3v1h-3zm3 0h34v1H30zM1 9h1v4H1zm1 0h1v1H2zm3 0h1v1H5zm1 0h1v1H6zm1 0h2v1H7zm6 0h1v1h-1zm4 0h1v1h-1zm5 0h1v1h-1zm4 0h4v1h-4zm4 0h1v1h-1zm1 0h2v1h-2zm2 0h1v1h-1zm1 0h1v2h-1zm1 0h1v1h-1zm1 0h1v1h-1zm1 0h1v1h-1zm1 0h26v1H38zM0 10h1v3H0zm4 0h1v2H4zm1 0h1v1H5zm4 0h1v1H9zm4 0h1v1h-1zm1 0h1v1h-1zm3 0h1v2h-1zm6 0h1v1h-1zm6 0h1v1h-1z"/><path d="M30 10h9v1h-9zm9 0h1v1h-1zm1 0h24v1H40zM5 11h1v3H5zm5 0h2v1h-2zm4 0h1v1h-1zm4 0h1v1h-1zm16 0h1v1h-1zm5 0h1v1h-1zm1 0h1v1h-1zm1 0h23v1H41zM2 12h1v1H2zm10 0h1v1h-1zm3 0h1v1h-1zm7 0h1v1h-1zm1 0h1v1h-1zm1 0h6v1h-6zm16 0h1v1h-1zm1 0h1v1h-1zm1 0h22v1H42zM0 13h1v51H0zm1 0h1v1H1zm1 0h1v2H2zm4 0h1v2H6zm7 0h1v1h-1zm6 0h1v1h-1zm1 0h4v1h-4zm4 0h1v1h-1zm1 0h1v1h-1zm1 0h1v1h-1zm1 0h1v1h-1zm1 0h1v1h-1zm1 0h5v1h-5zm5 0h1v1h-1zm1 0h1v1h-1zm5 0h1v1h-1zm1 0h1v1h-1zm1 0h1v1h-1zm1 0h1v2h-1zm1 0h1v2h-1zm1 0h19v2H45zM1 14h1v1H1zm2 0h1v2H3zm4 0h1v1H7zm7 0h1v1h-1zm5 0h1v1h-1zm1 0h3v1h-3zm3 0h8v1h-8zm8 0h2v1h-2zm2 0h1v1h-1zm1 0h4v1h-4zm8 0h1v1h-1zM1 15h1v49H1zm1 0h1v1H2zm5 0h1v1H7zm1 0h1v1H8zm7 0h1v1h-1zm5 0h1v1h-1zm1 0h1v1h-1zm1 0h5v1h-5zm5 0h1v1h-1zm1 0h1v2h-1zm1 0h1v1h-1zm1 0h1v1h-1zm1 0h4v1h-4zm4 0h1v1h-1zm1 0h1v1h-1zm1 0h1v1h-1zm1 0h2v1h-2zm5 0h1v1h-1zm1 0h1v1h-1zm1 0h1v1h-1zm1 0h18v2H46zM2 16h1v48H2zm1 0h1v1H3zm1 0h1v1H4zm4 0h1v1H8zm1 0h1v1H9zm9 0h1v1h-1zm3 0h1v4h-1zm1 0h1v2h-1zm1 0h3v1h-3zm3 0h1v1h-1zm1 0h1v1h-1zm2 0h2v1h-2zm2 0h1v1h-1zm1 0h1v1h-1zm1 0h5v1h-5zm5 0h1v2h-1zm1 0h1v1h-1zm1 0h2v1h-2zm4 0h1v1h-1zm1 0h1v1h-1zM3 17h1v47H3zm1 0h1v1H4zm1 0h1v1H5zm4 0h1v1H9zm14 0h2v6h-2zm2 0h1v1h-1zm1 0h1v3h-1zm5 0h1v1h-1zm1 0h1v1h-1zm1 0h1v2h-1zm1 0h1v1h-1zm1 0h1v1h-1z"/><path d="M36 17h3v1h-3zm3 0h1v1h-1zm1 0h2v1h-2zm2 0h1v1h-1zm3 0h1v1h-1zm1 0h1v1h-1zm1 0h17v1H47zM4 18h1v46H4zm1 0h1v1H5zm1 0h1v1H6zm4 0h1v1h-1zm1 0h1v1h-1zm5 0h1v2h-1zm1 0h1v1h-1zm5 0h1v1h-1zm3 0h1v1h-1zm3 0h1v1h-1zm3 0h1v1h-1zm1 0h10v1H32zm10 0h1v1h-1zm1 0h1v2h-1zm3 0h1v2h-1zm1 0h1v2h-1zm1 0h16v3H48zM5 19h1v45H5zm1 0h1v1H6zm1 0h1v1H7zm1 0h1v1H8zm4 0h1v1h-1zm3 0h1v1h-1zm5 0h1v1h-1zm2 0h3v4h-3zm3 0h1v2h-1zm6 0h1v1h-1zm1 0h1v1h-1zm1 0h1v1h-1zm9 0h1v1h-1zM6 20h1v12H6zm1 0h1v1H7zm1 0h1v1H8zm1 0h1v1H9zm6 0h1v1h-1zm5 0h1v1h-1zm1 0h1v1h-1zm5 0h1v1h-1zm1 0h1v1h-1zm19 0h1v1h-1z"/><path d="M47 20h17v1H47zM7 21h1v2H7zm1 0h1v1H8zm1 0h1v1H9zm4 0h1v1h-1zm1 0h1v1h-1zm5 0h1v1h-1zm1 0h1v1h-1zm1 0h5v1h-5zm5 0h1v1h-1zm1 0h1v1h-1zm1 0h1v1h-1zm19 0h1v1h-1zm1 0h1v1h-1zm1 0h15v2H49zM8 22h1v9H8zm1 0h1v1H9zm9 0h1v1h-1zm1 0h1v1h-1zm1 0h5v1h-5zm5 0h1v1h-1zm1 0h1v1h-1zm1 0h1v1h-1zm6 0h1v1h-1zm1 0h8v1h-8zm8 0h1v1h-1zm5 0h1v1h-1z"/><path d="M48 22h16v1H48zM7 23h1v7H7zm2 0h1v1H9zm7 0h1v1h-1zm1 0h1v17h-1zm1 0h2v1h-2zm2 0h2v4h-2zm2 0h1v1h-1zm1 0h1v1h-1zm1 0h1v1h-1zm1 0h1v1h-1zm6 0h3v1h-3zm3 0h1v1h-1zm1 0h1v1h-1zm1 0h2v1h-2zm2 0h1v1h-1zm1 0h1v1h-1zm1 0h3v1h-3zm3 0h1v1h-1zm4 0h1v1h-1zm1 0h2v1h-2zm2 0h14v3H50z"/><path d="M11 24h12v1H11zm12 0h1v1h-1zm1 0h1v1h-1zm6 0h2v1h-2zm2 0h1v1h-1zm1 0h9v2h-9zm9 0h1v1h-1zm6 0h1v1h-1zm1 0h1v1h-1zm-38 1h1v7h-1zm1 0h1v1h-1zm1 0h1v1h-1zm1 0h2v1h-2zm2 0h6v2h-6zm6 0h1v1h-1zm1 0h1v1h-1zm6 0h1v1h-1zm1 0h1v1h-1z"/><path d="M31 25h11v1H31zm11 0h1v1h-1zm4 0h1v1h-1zm2 0h1v1h-1zm1 0h1v1h-1zm-37 1h1v1h-1zm1 0h9v1h-9zm9 0h1v1h-1zm1 0h1v1h-1zm5 0h1v1h-1zm1 0h1v1h-1zm1 0h11v1H30zm11 0h2v1h-2zm5 0h1v1h-1zm3 0h1v1h-1zm1 0h1v1h-1zm1 0h13v3H51zm-39 1h1v1h-1zm1 0h8v1h-8zm8 0h1v1h-1zm1 0h1v1h-1zm5 0h1v1h-1zm1 0h1v1h-1zm1 0h3v1h-3zm3 0h1v1h-1zm1 0h1v1h-1zm1 0h7v1h-7zm7 0h1v1h-1zm1 0h1v1h-1zm1 0h1v1h-1zm4 0h1v1h-1zm2 0h1v1h-1z"/><path d="M50 27h14v2H50zm-38 1h1v2h-1zm1 0h7v2h-7zm7 0h1v1h-1zm1 0h1v2h-1zm5 0h1v1h-1zm1 0h1v1h-1zm1 0h2v3h-2zm2 0h1v1h-1zm1 0h1v1h-1zm1 0h2v1h-2zm2 0h1v1h-1zm1 0h5v1h-5zm5 0h1v1h-1zm1 0h1v1h-1zm6 0h1v8h-1zm2 0h1v1h-1zm-29 1h1v1h-1zm5 0h1v1h-1zm1 0h1v1h-1z"/><path d="M27 29h3v2h-3zm3 0h1v1h-1zm1 0h1v1h-1zm3 0h1v1h-1zm1 0h1v1h-1zm1 0h3v1h-3zm3 0h1v1h-1zm1 0h1v1h-1zm1 0h1v1h-1zm3 0h1v6h-1zm6 0h1v7h-1zm1 0h1v5h-1zm1 0h12v35H52zM7 30h1v1H7zm2 0h1v1H9zm3 0h1v1h-1zm1 0h6v3h-6zm6 0h1v1h-1zm1 0h1v2h-1zm5 0h1v1h-1zm1 0h1v1h-1zm4 0h1v1h-1zm1 0h1v1h-1zm3 0h1v1h-1zm1 0h1v2h-1zm1 0h1v2h-1zm1 0h3v1h-3zm3 0h1v2h-1zm1 0h1v1h-1zM7 31h1v5H7zm5 0h1v1h-1zm7 0h1v1h-1zm5 0h1v8h-1zm1 0h1v2h-1zm1 0h3v9h-3zm3 0h1v1h-1zm1 0h1v2h-1zm1 0h1v1h-1zm3 0h1v1h-1zm3 0h1v1h-1zm1 0h1v1h-1zm1 0h1v1h-1zm2 0h1v2h-1z"/><path d="M42 31h3v1h-3zM6 32h1v1H6zm5 0h1v1h-1zm1 0h8v1h-8zm8 0h1v1h-1zm9 0h1v12h-1zm2 0h1v1h-1zm3 0h1v1h-1zm1 0h1v1h-1zm1 0h1v1h-1zm1 0h1v1h-1zm1 0h3v1h-3zm4 0h1v1h-1zm1 0h1v1h-1zM6 33h2v1H6zm6 0h1v3h-1zm1 0h1v1h-1zm1 0h6v1h-6zm6 0h1v1h-1zm5 0h1v5h-1zm5 0h1v1h-1zm1 0h1v1h-1zm1 0h2v1h-2zm2 0h1v1h-1zm1 0h1v1h-1zm1 0h1v1h-1zm1 0h1v1h-1zm1 0h1v1h-1zm3 0h1v1h-1zm1 0h1v1h-1zm1 0h1v1h-1zM6 34h1v2H6zm7 0h1v1h-1zm1 0h4v2h-4zm4 0h1v1h-1zm1 0h1v3h-1zm1 0h1v1h-1zm10 0h2v9h-2zm2 0h1v1h-1zm1 0h1v1h-1zm1 0h1v1h-1zm1 0h1v1h-1zm1 0h1v1h-1zm6 0h1v1h-1zm1 0h1v1h-1zm6 0h1v1h-1zm2 0h13v30H51zm-38 1h1v1h-1z"/><path d="M18 35h2v2h-2zm2 0h1v1h-1zm12 0h2v1h-2zm2 0h1v1h-1zm1 0h1v1h-1zm4 0h1v1h-1zm4 0h1v1h-1zm1 0h1v1h-1zm2 0h1v1h-1zm3 0h1v1h-1zM6 36h1v28H6zm1 0h1v1H7zm1 0h1v1H8zm1 0h1v1H9zm4 0h1v2h-1zm1 0h1v2h-1z"/><path d="M15 36h5v1h-5zm5 0h1v1h-1zm12 0h1v7h-1zm1 0h1v1h-1zm1 0h1v3h-1zm1 0h1v1h-1zm9 0h1v1h-1zm2 0h1v1h-1zm1 0h1v1h-1zm2 0h1v2h-1zm1 0h1v1h-1zM7 37h1v27H7zm1 0h1v1H8zm1 0h1v2H9zm1 0h1v1h-1zm5 0h1v1h-1zm1 0h3v1h-3zm3 0h1v1h-1zm1 0h1v2h-1zm13 0h1v1h-1zm11 0h1v1h-1zm2 0h1v1h-1zm2 0h1v1h-1zm2 0h14v27H50zM8 38h1v15H8zm2 0h1v1h-1zm1 0h1v2h-1zm3 0h1v2h-1zm1 0h1v1h-1zm1 0h1v3h-1zm2 0h1v2h-1zm1 0h1v1h-1z"/><path d="M25 38h8v2h-8zm8 0h1v1h-1zm10 0h1v4h-1zm5 0h1v1h-1zm1 0h1v1h-1zM9 39h1v12H9zm1 0h1v1h-1zm5 0h1v1h-1zm4 0h1v2h-1zm1 0h1v1h-1zm1 0h1v1h-1zm3 0h1v1h-1zm9 0h1v4h-1zm1 0h1v1h-1zm1 0h1v1h-1zm7 0h1v1h-1zm5 0h1v1h-1zm1 0h1v1h-1zm1 0h1v1h-1zm-39 1h1v2h-1zm1 0h1v1h-1zm4 0h1v1h-1zm2 0h1v1h-1zm1 0h1v1h-1zm2 0h1v1h-1zm1 0h1v3h-1zm4 0h1v1h-1zm1 0h1v1h-1z"/><path d="M27 40h8v1h-8zm8 0h1v1h-1zm1 0h1v1h-1zm1 0h1v1h-1zm5 0h2v1h-2zm5 0h1v1h-1zm1 0h1v1h-1zm1 0h15v5H49zm-38 1h1v1h-1zm5 0h1v1h-1zm1 0h2v1h-2zm2 0h1v1h-1zm1 0h1v1h-1zm2 0h1v1h-1zm3 0h1v1h-1zm1 0h1v2h-1zm1 0h1v1h-1zm1 0h8v1h-8zm8 0h1v1h-1zm1 0h1v2h-1zm4 0h1v1h-1zm1 0h1v1h-1zm4 0h1v1h-1zm1 0h1v1h-1z"/><path d="M48 41h16v1H48zm-38 1h1v1h-1zm1 0h1v1h-1zm8 0h4v1h-4zm8 0h1v1h-1zm1 0h1v1h-1zm6 0h5v1h-5zm5 0h1v1h-1zm1 0h1v1h-1zm1 0h1v1h-1zm1 0h1v1h-1zm1 0h1v1h-1zm4 0h1v2h-1zm1 0h1v1h-1zm-38 1h1v1h-1zm1 0h1v1h-1zm11 0h1v1h-1zm1 0h1v1h-1zm4 0h3v1h-3zm3 0h1v1h-1zm1 0h1v1h-1zm1 0h5v1h-5zm5 0h1v1h-1zm1 0h1v1h-1zm1 0h3v1h-3zm9 0h16v2H48zm-38 1h1v1h-1zm1 0h1v1h-1zm7 0h1v2h-1zm11 0h1v1h-1zm1 0h8v1h-8zm8 0h2v1h-2zm6 0h1v1h-1zm3 0h1v1h-1zm-37 1h1v3h-1zm1 0h1v1h-1zm1 0h1v5h-1zm5 0h1v1h-1zm2 0h3v1h-3zm3 0h1v1h-1zm25 0h1v1h-1zm1 0h1v1h-1zm1 0h1v1h-1zm-38 1h1v2h-1zm9 0h1v1h-1zm1 0h5v1h-5zm6 0h1v1h-1zm14 0h1v1h-1zm1 0h1v1h-1zm5 0h1v1h-1zm1 0h1v1h-1zm1 0h15v18H49zm-34 1h1v5h-1zm1 0h1v1h-1zm10 0h1v1h-1zm1 0h11v1H27zm13 0h1v1h-1zm1 0h1v1h-1zm5 0h1v1h-1zm1 0h1v1h-1z"/><path d="M48 47h16v17H48zm-38 1h1v2h-1zm1 0h1v1h-1zm5 0h1v1h-1zm1 0h3v1h-3zm3 0h1v1h-1zm25 0h1v4h-1zm1 0h1v1h-1zm1 0h1v1h-1zm-36 1h1v1h-1zm5 0h1v1h-1zm1 0h3v1h-3zm3 0h5v1h-5zm5 0h1v1h-1zm1 0h1v1h-1zm20 0h1v1h-1z"/><path d="M47 49h17v15H47zm-37 1h1v1h-1zm1 0h1v1h-1zm5 0h1v2h-1zm1 0h3v1h-3zm3 0h2v1h-2zm2 0h1v1h-1zm1 0h2v1h-2zm2 0h1v1h-1zm1 0h16v1H26zm20 0h1v1h-1zM9 51h2v1H9zm2 0h1v1h-1zm6 0h1v1h-1zm1 0h9v2h-9zm9 0h4v1h-4zm4 0h3v1h-3zm3 0h6v1h-6zm6 0h1v1h-1zm1 0h1v1h-1zm3 0h1v1h-1z"/><path d="M46 51h18v13H46zM9 52h1v1H9zm1 0h1v1h-1zm6 0h1v1h-1zm1 0h1v1h-1zm10 0h12v1H27zm12 0h1v1h-1zm1 0h1v1h-1zm4 0h1v2h-1zm1 0h1v1h-1zM8 53h1v3H8zm1 0h1v3H9zm1 0h1v1h-1zm6 0h1v1h-1zm1 0h1v1h-1zm1 0h1v1h-1zm1 0h19v1H19zm19 0h1v1h-1zm1 0h1v1h-1zm4 0h1v1h-1z"/><path d="M45 53h19v11H45zm-28 1h1v1h-1zm1 0h1v1h-1zm1 0h1v1h-1zm1 0h15v1H20zm15 0h2v1h-2zm2 0h1v1h-1zm1 0h1v1h-1zm5 0h1v2h-1zm1 0h1v1h-1zm-34 1h1v1h-1zm8 0h1v1h-1zm1 0h1v1h-1zm1 0h1v1h-1zm1 0h15v1H21zm15 0h1v1h-1zm1 0h1v1h-1zm7 0h1v1h-1zM8 56h1v8H8zm1 0h1v1H9zm1 0h1v1h-1zm9 0h1v1h-1zm1 0h1v1h-1zm1 0h1v1h-1zm1 0h1v1h-1zm1 0h6v1h-6zm6 0h1v1h-1zm1 0h1v1h-1zm1 0h2v1h-2zm2 0h1v1h-1zm1 0h1v1h-1zm1 0h1v1h-1zm7 0h1v1h-1zm1 0h1v1h-1z"/><path d="M44 56h20v2H44zM9 57h1v7H9zm1 0h1v2h-1zm1 0h1v1h-1zm10 0h3v1h-3zm3 0h1v1h-1zm1 0h1v1h-1zm1 0h2v1h-2zm2 0h1v1h-1zm1 0h4v1h-4zm4 0h1v1h-1zm1 0h1v1h-1zm5 0h1v2h-1zm3 0h1v1h-1z"/><path d="M43 57h21v1H43zm-32 1h1v1h-1zm1 0h1v1h-1zm1 0h1v1h-1zm1 0h1v6h-1zm1 0h1v1h-1zm1 0h2v1h-2zm2 0h1v1h-1zm5 0h1v1h-1zm1 0h3v1h-3zm3 0h1v1h-1zm1 0h1v1h-1zm6 0h1v3h-1zm1 0h1v2h-1zm1 0h1v1h-1zm4 0h1v1h-1zm3 0h1v2h-1zm1 0h1v2h-1zm-34 1h2v5h-2zm2 0h1v1h-1z"/><path d="M13 59h8v1h-8zm13 0h1v1h-1zm1 0h2v1h-2zm2 0h1v1h-1zm7 0h1v1h-1zm3 0h1v1h-1zm-27 1h3v4h-3zm3 0h4v1h-4zm4 0h1v1h-1zm1 0h1v1h-1zm1 0h2v1h-2zm2 0h1v1h-1zm6 0h1v1h-1zm1 0h2v1h-2zm5 0h1v1h-1zm1 0h1v1h-1zm6 0h1v1h-1zm1 0h1v1h-1zm1 0h20v4H44zm-29 1h6v3h-6zm6 0h1v1h-1zm1 0h1v1h-1zm1 0h3v1h-3zm3 0h1v2h-1zm13 0h3v1h-3zm3 0h1v1h-1z"/><path d="M43 61h21v3H43zm-22 1h3v2h-3zm3 0h1v1h-1zm1 0h1v1h-1zm2 0h2v1h-2zm2 0h1v1h-1zm3 0h1v1h-1zm1 0h1v1h-1zm5 0h1v1h-1zm1 0h2v1h-2zm2 0h1v1h-1z"/><path d="M42 62h22v2H42zm-18 1h3v1h-3zm3 0h1v1h-1zm1 0h1v1h-1zm1 0h1v1h-1zm1 0h3v1h-3zm3 0h1v1h-1zm1 0h4v1h-4zm4 0h1v1h-1zm1 0h1v1h-1z"/><path d="M40 63h24v1H40z"/></g><path d="M15 1h1v1h-1zm-1 1h1v1h-1zm4 0h1v1h-1zm1 1h1v1h-1zm1 1h1v1h-1zm-4 2h1v1h-1zM5 7h1v1H5zm5 2h1v1h-1zm1 1h1v1h-1zm5 1h1v1h-1zm7 0h1v1h-1zM3 12h1v1H3zm11 0h1v1h-1zm5 0h1v1h-1zm-4 1h1v1h-1zM4 14h1v1H4zm1 1h1v1H5zm9 0h1v1h-1zm5 0h1v1h-1zM6 16h1v1H6zm10 0h1v1h-1zm-8 2h1v1H8zm1 1h1v1H9zm4 0h1v1h-1zm-3 1h1v1h-1zm2 0h1v1h-1zm1 0h1v1h-1zm21 0h1v1h-1zm2 0h1v1h-1zm1 0h1v1h-1zm1 0h1v1h-1zm1 0h1v1h-1zm2 0h1v1h-1zm1 0h1v1h-1zm3 0h1v1h-1zm-13 1h1v1h-1zm10 0h1v1h-1zm4 1h1v1h-1zm-36 1h1v1h-1zm17 0h1v1h-1zm19 0h1v1h-1zm-1 5h1v1h-1zm-2 2h1v1h-1zm2 0h1v1h-1zM9 32h1v1H9zm13 1h1v1h-1zm23 3h1v1h-1zm-7 2h1v1h-1zm0 2h1v1h-1zm-24 1h1v1h-1zm30 0h1v1h-1zm-1 2h1v1h-1zm-1 1h1v1h-1zm-14 1h1v1h-1zm16 0h1v1h-1zm1 0h1v1h-1zm1 0h1v1h-1zm-32 1h1v1h-1zm26 0h1v1h-1zm4 1h1v1h-1zm-20 1h1v1h-1zm1 0h1v1h-1zm9 1h1v1h-1zm-17 6h1v1h-1zm2 2h1v1h-1zm22 0h1v1h-1zm-21 1h1v1h-1zm12 0h1v1h-1zm5 0h1v1h-1zm-6 3h1v1h-1z" fill="#888"/><path d="M12 3h1v1h-1zm0 1h1v1h-1zm7 0h1v1h-1zm-6 3h1v1h-1zM5 8h1v1H5zm3 0h1v1H8zm9 0h1v1h-1zm5 0h1v1h-1zm-7 1h1v1h-1zm3 1h1v1h-1zM6 11h1v1H6zm20 0h1v1h-1zm1 0h1v1h-1zm1 0h1v1h-1zm1 0h1v1h-1zm1 0h1v1h-1zm-12 1h1v1h-1zm15 0h1v1h-1zm1 0h1v1h-1zM4 13h1v1H4zm3 0h1v1H7zm33 1h1v1h-1zm1 1h1v1h-1zm-31 1h1v1h-1zm32 0h1v1h-1zm1 0h1v1h-1zm0 1h1v1h-1zm1 0h1v1h-1zm-9 2h1v1h-1zm1 0h1v1h-1zm1 0h2v1h-2zm-5 1h1v1h-1zm-22 1h1v1h-1zm25 0h1v1h-1zm-23 2h1v1h-1zm18 0h1v1h-1zm14 0h1v1h-1zm0 2h1v1h-1zm-34 1h1v1h-1zm15 2h1v1h-1zm21 0h1v1h-1zm-25 3h1v1h-1zm25 1h1v1h-1zm-36 1h1v1h-1zm-1 2h1v1H9zm33 0h1v1h-1zm-21 1h1v1h-1zm1 1h1v1h-1zm23 0h1v1h-1zm-22 1h1v1h-1zm22 1h1v1h-1zm-22 1h1v1h-1zm-8 1h1v1h-1zm9 0h1v1h-1zm-11 3h1v1h-1zm14 0h1v1h-1zm18 0h1v1h-1zm-14 1h2v1h-2zm2 0h1v1h-1zm2 0h1v1h-1zm-20 1h1v1h-1zm21 0h1v1h-1zm-14 1h1v1h-1zm1 1h1v1h-1zm6 0h1v1h-1zm1 0h1v1h-1zm1 0h1v1h-1zm9 0h1v1h-1zm-27 1h1v1h-1zm1 0h1v1h-1zm17 0h1v1h-1zm7 0h1v1h-1zm2 0h1v1h-1zm-25 3h1v1h-1zm28 0h1v1h-1zm-1 2h1v1h-1zm-3 1h1v1h-1zm-28 1h1v1h-1zm27 1h1v1h-1zm-19 1h1v1h-1zm11 0h1v1h-1zm-8 1h1v1h-1zm15 0h1v1h-1zm-12 1h1v1h-1zm1 0h1v1h-1zm8 1h1v1h-1zm2 1h1v1h-1z" fill="#bbb"/><path d="M17 2h1v1h-1zM4 8h1v1H4zm18 2h1v1h-1zm2 0h1v1h-1zm11 2h1v1h-1zm1 0h1v1h-1zm-25 1h1v1h-1zm32 8h1v1h-1zm1 1h1v1h-1zM9 31h1v1H9zm31 4h1v1h-1zm-29 1h1v1h-1zm30 2h1v1h-1zm-28 1h1v1h-1zm24 0h1v1h-1zm-24 4h1v1h-1zm13 1h1v1h-1zm15 1h1v1h-1zm3 3h1v1h-1zm-30 3h1v1h-1zm28 2h1v1h-1zm-31 1h1v1h-1zm30 0h1v1h-1zm-3 2h1v1h-1zm-5 5h1v1h-1z" fill="#666"/><path d="M13 3h1v1h-1zm5 0h1v1h-1zm-1 1h1v1h-1zm4 2h1v1h-1zM6 7h1v1H6zm8 1h1v1h-1zM3 9h1v1H3zm20 0h1v1h-1zm1 0h1v1h-1zM3 10h1v1H3zm4 0h1v1H7zm5 0h1v1h-1zm3 0h1v1h-1zM3 11h1v1H3zm6 0h1v1H9zm16 0h1v1h-1zm-15 1h1v1h-1zm6 0h1v1h-1zm1 0h1v1h-1zm-1 1h1v1h-1zm2 2h1v1h-1zM7 17h1v1H7zm4 0h1v1h-1zm8 0h1v1h-1zm-4 1h1v1h-1zm15 0h1v1h-1zm-20 1h1v1h-1zm20 0h1v1h-1zm1 2h1v1h-1zm2 0h1v1h-1zm1 0h1v1h-1zm-5 1h1v1h-1zm1 0h1v1h-1zm1 0h1v1h-1zm-3 1h1v2h-1zm1 0h1v1h-1zm-19 1h1v1h-1zm17 0h1v1h-1zm-1 1h1v1h-1zm1 0h1v1h-1zm18 1h1v1h-1zm-22 1h1v1h-1zm1 0h1v1h-1zm0 1h1v1h-1zm18 0h1v1h-1zm-20 1h1v1h-1zm1 0h1v1h-1zm0 1h1v1h-1zm23 0h1v1h-1zm-36 1h1v1h-1zm12 0h1v1h-1zm23 0h1v1h-1zm-23 1h1v1h-1zm23 0h1v1h-1zm-24 1h1v1h-1zm24 0h1v1h-1zm-24 1h1v1h-1zm1 0h1v1h-1zm23 0h1v1h-1zm-34 1h1v1h-1zm-1 1h1v1h-1zm12 0h1v1h-1zm-10 1h1v1h-1zm29 0h1v1h-1zm4 3h1v1h-1zm-33 2h1v1h-1zm12 0h1v1h-1zm-5 1h1v1h-1zm25 0h1v1h-1zm2 0h1v1h-1zm-31 1h1v1h-1zm6 0h1v1h-1zm1 0h1v1h-1zm2 0h1v1h-1zm1 0h1v1h-1zm0 1h1v1h-1zm15 0h1v1h-1zm-24 1h1v1h-1zm1 0h1v1h-1zm20 0h1v1h-1zm6 0h1v1h-1zm-24 1h1v1h-1zm1 0h1v1h-1zm1 0h1v1h-1zm5 1h1v1h-1zm15 0h1v1h-1zm-6 1h1v1h-1zm1 0h1v1h-1zm3 0h1v1h-1zm4 0h1v1h-1zm-29 1h1v1h-1zm28 2h1v1h-1zm-1 1h1v1h-1zm-1 1h1v1h-1zm0 1h1v1h-1zm-19 3h1v1h-1zm10 1h1v1h-1zm7 0h1v1h-1zm-2 2h1v1h-1z" fill="#999"/><path d="M16 5h1v1h-1zm-2 14h1v1h-1zm27 17h1v1h-1zm-1 1h1v1h-1zm-26 6h1v1h-1zm29 5h1v1h-1zm-31 3h1v1h-1zm0 1h1v1h-1zm1 1h1v1h-1zm2 0h1v1h-1zm-2 1h1v1h-1zm-1 1h1v1h-1zm29 0h1v1h-1zm-27 2h1v1h-1zm1 0h1v1h-1zm17 4h1v1h-1z" fill="#444"/><path d="M20 8h1v1h-1zm-1 2h1v1h-1zM8 11h1v1H8zm1 1h1v1H9zm0 2h1v1H9zm1 1h1v1h-1zm1 1h1v1h-1zm1 1h1v1h-1zm1 1h1v1h-1zm24 17h1v1h-1zm-1 1h1v1h-1zm3 0h1v1h-1zm1 0h1v1h-1zm2 0h1v1h-1zm-3 1h1v1h-1zm-1 2h1v1h-1zM14 52h1v1h-1zm0 1h1v1h-1zm0 1h1v1h-1zm3 3h1v1h-1zm15 2h1v1h-1z" fill="#222"/><path d="M23 8h1v1h-1zm-5 1h1v1h-1zm3 0h1v1h-1zm18 4h1v1h-1zm-24 3h1v1h-1zm4 0h1v1h-1zm-8 4h1v1h-1zm34 2h1v1h-1zm0 1h1v1h-1zm-5 11h1v1h-1zm-2 1h1v2h-1zm-1 1h1v1h-1zm3 2h1v1h-1zm2 0h1v1h-1zm-26 6h1v1h-1zm11 1h1v1h-1zm-15 8h1v2h-1zm6 3h1v1h-1zm-5 1h1v1h-1zm19 3h1v1h-1zm6 0h1v1h-1z" fill="#555"/></svg>