<svg height="64" xmlns="http://www.w3.org/2000/svg" version="1.2" baseProfile="tiny" width="64"><g fill="#fff"><path d="M0 0h11v2H0zm11 0h1v6h-1zm1 0h1v1h-1zm1 0h1v1h-1zm1 0h3v1h-3zm3 0h1v1h-1zm1 0h1v1h-1zm1 0h1v1h-1zm1 0h43v1H20zm43 0h1v63h-1zM12 1h1v1h-1zm1 0h1v1h-1zm5 0h1v1h-1zm1 0h1v1h-1zm1 0h1v2h-1zm1 0h42v1H21zM0 2h11v1H0zm12 0h1v1h-1zm7 0h1v1h-1zm2 0h1v1h-1zm1 0h41v1H22zM0 3h9v1H0zm9 0h2v1H9zm5 0h1v3h-1zm1 0h1v1h-1zm1 0h1v1h-1zm1 0h1v1h-1zm3 0h2v1h-2zm2 0h1v1h-1zm1 0h40v1H23zM0 4h9v1H0zm9 0h2v1H9zm9 0h1v1h-1zm3 0h1v1h-1zm1 0h1v1h-1zm1 0h1v1h-1zm1 0h39v1H24zM0 5h3v1H0zm3 0h1v2H3zm1 0h1v1H4zm1 0h2v1H5zm2 0h1v1H7zm1 0h1v1H8zm1 0h2v1H9zm10 0h1v1h-1zm3 0h41v1H22zM0 6h2v1H0z"/><path d="M2 6h6v1H2zm6 0h1v1H8zm1 0h1v1H9zm1 0h1v1h-1zm1 0h1v2h-1zm3 0h1v1h-1zm1 0h1v1h-1zm5 0h1v1h-1zm3 0h40v1H23zM0 7h1v2H0zm1 0h2v1H1zm2 0h1v1H3zm6 0h1v1H9z"/><path d="M10 7h2v1h-2zm2 0h1v2h-1zm3 0h1v1h-1zm6 0h1v1h-1zm3 0h39v1H24zM1 8h1v1H1zm1 0h1v1H2zm9 0h1v1h-1zm4 0h1v1h-1zm1 0h1v1h-1zm8 0h1v1h-1zm1 0h1v1h-1zm1 0h1v1h-1zm1 0h2v1h-2zm2 0h1v1h-1zm1 0h33v1H30zM0 9h1v1H0zm1 0h1v3H1zm1 0h1v1H2zm3 0h3v1H5zm3 0h1v1H8zm4 0h1v1h-1zm1 0h1v1h-1zm3 0h1v1h-1zm1 0h1v1h-1zm5 0h1v1h-1zm3 0h4v1h-4zm4 0h1v1h-1zm1 0h1v1h-1zm1 0h1v1h-1zm1 0h1v1h-1zm1 0h1v1h-1zm1 0h1v1h-1zm1 0h1v1h-1zm1 0h1v1h-1zm1 0h1v1h-1zm1 0h25v1H38zM0 10h1v2H0zm4 0h1v1H4zm1 0h1v1H5zm4 0h1v1H9zm4 0h1v1h-1zm1 0h1v1h-1zm3 0h1v1h-1zm6 0h1v1h-1zm6 0h1v1h-1zm1 0h8v1h-8zm8 0h25v1H38zM4 11h1v1H4zm1 0h1v2H5zm5 0h1v1h-1zm1 0h1v1h-1zm3 0h1v1h-1zm3 0h1v1h-1zm1 0h1v1h-1zm16 0h1v1h-1zm5 0h24v1H39zM0 12h1v1H0zm1 0h1v1H1zm1 0h1v1H2zm10 0h1v1h-1zm3 0h1v1h-1zm7 0h1v1h-1zm1 0h1v1h-1zm1 0h5v2h-5zm5 0h1v2h-1zm11 0h1v1h-1zm1 0h1v1h-1zm1 0h21v1H42zM0 13h2v50H0zm2 0h1v1H2zm3 0h1v1H5zm1 0h1v1H6zm7 0h1v1h-1zm6 0h1v1h-1zm1 0h3v1h-3zm3 0h1v10h-1zm7 0h3v1h-3zm3 0h1v5h-1zm1 0h1v1h-1zm1 0h1v1h-1zm5 0h1v1h-1zm1 0h1v1h-1zm1 0h1v1h-1zm1 0h1v1h-1zm1 0h1v1h-1zm1 0h18v1H45zM2 14h1v49H2zm1 0h1v1H3zm3 0h1v1H6zm1 0h1v1H7zm7 0h1v1h-1zm5 0h1v1h-1zm1 0h2v1h-2zm2 0h1v1h-1zm2 0h6v1h-6zm6 0h1v2h-1zm1 0h1v1h-1zm1 0h1v2h-1zm2 0h3v2h-3zm3 0h1v2h-1zm5 0h1v1h-1zm1 0h1v1h-1zm1 0h1v1h-1zm1 0h18v1H45zM3 15h1v48H3zm4 0h1v1H7zm1 0h1v1H8zm7 0h1v1h-1z"/><path d="M20 15h6v1h-6zm6 0h1v4h-1zm1 0h2v1h-2zm2 0h1v1h-1zm2 0h3v1h-3zm7 0h1v1h-1zm1 0h1v1h-1zm4 0h1v1h-1zm1 0h1v1h-1zm1 0h1v1h-1zm1 0h17v1H46zM4 16h1v47H4zm4 0h1v1H8zm1 0h1v1H9zm9 0h1v1h-1zm3 0h4v1h-4z"/><path d="M25 16h2v1h-2zm2 0h3v1h-3zm3 0h1v1h-1zm1 0h1v1h-1zm1 0h1v1h-1zm2 0h3v2h-3zm3 0h1v2h-1zm1 0h1v1h-1zm1 0h1v1h-1zm1 0h1v2h-1zm1 0h1v2h-1zm3 0h19v1H44zM5 17h1v46H5zm4 0h1v1H9zm12 0h3v2h-3zm3 0h2v1h-2zm7 0h2v1h-2zm7 0h1v1h-1zm1 0h1v1h-1zm3 0h1v1h-1zm3 0h18v1H45zM6 18h1v13H6zm4 0h1v1h-1zm1 0h1v1h-1zm5 0h1v1h-1zm1 0h1v1h-1zm7 0h2v1h-2zm4 0h1v1h-1zm3 0h1v1h-1zm1 0h9v1h-9zm9 0h2v1h-2zm2 0h1v1h-1zm3 0h17v1H46zM7 19h1v3H7zm1 0h1v1H8zm4 0h1v1h-1zm3 0h1v1h-1zm1 0h1v1h-1zm4 0h1v1h-1zm1 0h3v3h-3zm3 0h2v2h-2zm2 0h1v1h-1zm5 0h1v1h-1zm1 0h1v1h-1zm1 0h1v1h-1zm9 0h1v1h-1zm1 0h1v1h-1zm3 0h17v1H46zM8 20h1v10H8zm1 0h1v1H9zm6 0h1v1h-1z"/><path d="M20 20h4v2h-4zm6 0h1v1h-1zm1 0h1v1h-1zm19 0h1v1h-1zm1 0h16v1H47zM9 21h1v1H9zm4 0h1v1h-1zm1 0h1v1h-1z"/><path d="M19 21h6v1h-6zm6 0h1v2h-1zm1 0h1v1h-1zm1 0h1v1h-1zm1 0h1v1h-1zm19 0h16v1H47zM7 22h1v1H7zm2 0h1v1H9zm9 0h6v1h-6z"/><path d="M24 22h2v1h-2zm2 0h1v1h-1zm1 0h1v1h-1zm6 0h1v1h-1zm1 0h7v5h-7zm7 0h1v3h-1zm1 0h1v1h-1zm5 0h1v1h-1zm1 0h15v1H48zM7 23h1v6H7zm2 0h1v1H9zm7 0h1v1h-1zm1 0h1v16h-1zm1 0h1v1h-1zm1 0h1v1h-1zm1 0h1v4h-1zm1 0h2v1h-2zm2 0h2v1h-2zm2 0h1v1h-1zm6 0h2v3h-2zm2 0h1v3h-1zm9 0h1v1h-1zm1 0h1v1h-1zm4 0h1v1h-1zm1 0h1v1h-1zm1 0h1v1h-1zm1 0h13v2H50z"/><path d="M11 24h11v1H11zm11 0h2v1h-2zm2 0h1v1h-1zm6 0h1v3h-1zm12 0h1v1h-1zm6 0h15v1H48zm-37 1h1v6h-1zm1 0h1v1h-1zm1 0h1v1h-1zm1 0h1v1h-1zm1 0h1v1h-1zm1 0h5v2h-5zm5 0h2v1h-2zm2 0h1v1h-1z"/><path d="M29 25h12v1H29zm12 0h1v1h-1zm1 0h1v1h-1zm4 0h1v1h-1zm2 0h1v1h-1zm1 0h1v1h-1zm1 0h13v3H50zm-38 1h1v1h-1zm1 0h8v1h-8zm8 0h1v3h-1zm1 0h1v1h-1zm1 0h1v1h-1zm5 0h12v1H28zm13 0h1v1h-1zm1 0h1v1h-1zm4 0h1v1h-1z"/><path d="M49 26h14v1H49zm-37 1h1v1h-1zm1 0h7v2h-7zm7 0h2v1h-2zm2 0h1v1h-1zm5 0h4v1h-4zm4 0h1v2h-1zm1 0h1v1h-1zm1 0h1v1h-1zm1 0h6v1h-6zm6 0h2v1h-2zm2 0h1v1h-1zm1 0h1v1h-1zm4 0h1v1h-1zm2 0h1v1h-1zm-37 1h1v1h-1zm8 0h1v1h-1zm6 0h3v1h-3zm3 0h1v2h-1zm1 0h1v2h-1zm2 0h1v1h-1zm1 0h6v1h-6zm6 0h2v1h-2zm2 0h1v2h-1zm6 0h1v7h-1zm2 0h1v1h-1zm1 0h13v1H50zM7 29h1v1H7zm5 0h1v2h-1zm1 0h6v3h-6zm6 0h2v1h-2zm2 0h1v1h-1zm4 0h1v1h-1zm1 0h1v1h-1zm1 0h2v11h-2zm4 0h1v1h-1zm3 0h4v1h-4zm4 0h2v1h-2zm2 0h1v1h-1zm4 0h1v5h-1zm6 0h13v1H50zM7 30h1v1H7zm1 0h1v1H8zm1 0h1v1H9zm10 0h1v1h-1zm1 0h1v1h-1z"/><path d="M25 30h4v1h-4zm4 0h1v13h-1zm1 0h1v1h-1zm1 0h1v1h-1zm3 0h1v1h-1zm1 0h4v1h-4zm4 0h2v2h-2zm2 0h1v1h-1zm9 0h13v1H50zM6 31h1v2H6zm1 0h1v4H7zm4 0h7v1h-7zm8 0h1v1h-1zm1 0h1v1h-1zm4 0h4v1h-4zm6 0h1v1h-1zm1 0h1v1h-1zm3 0h1v1h-1zm1 0h2v1h-2zm2 0h1v2h-1zm1 0h1v1h-1zm3 0h1v1h-1zm1 0h2v1h-2zm8 0h13v1H50zm-39 1h1v1h-1zm1 0h7v1h-7zm7 0h1v4h-1zm1 0h1v1h-1zm4 0h5v1h-5zm6 0h1v1h-1zm1 0h1v10h-1zm3 0h2v1h-2z"/><path d="M36 32h4v1h-4zm4 0h1v1h-1zm1 0h1v1h-1zm1 0h1v1h-1zm1 0h1v1h-1zm7 0h13v3H50zM6 33h1v1H6zm6 0h7v1h-7zm8 0h1v2h-1zm4 0h5v1h-5zm6 0h1v1h-1zm2 0h1v9h-1zm1 0h1v2h-1zm1 0h1v1h-1zm1 0h1v1h-1zm1 0h1v1h-1zm1 0h1v1h-1zm1 0h1v1h-1zm3 0h1v1h-1zm1 0h1v1h-1zm1 0h1v1h-1zM6 34h1v1H6zm6 0h5v1h-5zm6 0h1v1h-1zm6 0h7v1h-7zm10 0h2v1h-2zm2 0h1v1h-1zm6 0h2v1h-2zm2 0h1v1h-1zm5 0h1v1h-1zM6 35h1v1H6zm1 0h1v28H7zm5 0h7v1h-7zm8 0h1v1h-1z"/><path d="M24 35h9v1h-9zm9 0h2v1h-2zm2 0h1v1h-1zm4 0h1v1h-1zm4 0h1v1h-1zm1 0h1v2h-1zm2 0h1v1h-1zm1 0h1v1h-1zm2 0h1v1h-1zm1 0h13v28H50zM6 36h2v27H6zm2 0h1v16H8zm1 0h1v1H9zm4 0h6v1h-6zm6 0h1v1h-1zm1 0h1v1h-1zm4 0h8v2h-8zm9 0h1v2h-1zm1 0h1v2h-1zm1 0h1v1h-1zm11 0h1v1h-1zm1 0h1v1h-1z"/><path d="M49 36h14v1H49zM9 37h1v1H9zm1 0h1v1h-1zm3 0h1v1h-1zm1 0h1v1h-1zm1 0h1v1h-1zm1 0h2v1h-2zm2 0h2v2h-2zm2 0h1v1h-1zm24 0h1v1h-1zm2 0h1v1h-1zm2 0h1v1h-1zm1 0h14v1H49zM9 38h1v1H9zm1 0h1v1h-1zm1 0h1v1h-1zm3 0h1v1h-1zm1 0h1v1h-1zm1 0h1v2h-1zm4 0h1v1h-1zm4 0h8v1h-8zm9 0h1v1h-1zm1 0h1v4h-1zm9 0h1v3h-1zm5 0h1v1h-1zm1 0h1v1h-1zM9 39h2v1H9zm2 0h1v1h-1zm3 0h1v1h-1zm1 0h1v1h-1zm2 0h2v2h-2zm2 0h1v1h-1zm1 0h1v1h-1zm1 0h1v1h-1zm3 0h1v1h-1zm1 0h8v1h-8z"/><path d="M33 39h2v3h-2zm2 0h1v3h-1zm7 0h1v1h-1zm5 0h1v1h-1zm1 0h15v2H48zM9 40h1v10H9zm1 0h1v1h-1zm1 0h1v1h-1zm4 0h1v1h-1zm1 0h2v1h-2zm3 0h2v2h-2zm2 0h1v2h-1z"/><path d="M25 40h9v1h-9zm11 0h1v2h-1zm1 0h1v1h-1zm5 0h1v2h-1zm5 0h16v1H47zm-37 1h1v1h-1zm1 0h1v1h-1zm5 0h1v1h-1zm1 0h1v1h-1zm1 0h1v1h-1zm4 0h1v2h-1zm3 0h1v1h-1zm1 0h9v1h-9zm11 0h1v1h-1zm4 0h1v1h-1zm2 0h1v1h-1zm3 0h17v1H46zm-36 1h1v2h-1zm1 0h1v2h-1zm8 0h3v1h-3zm7 0h1v1h-1zm1 0h1v1h-1zm1 0h1v1h-1zm2 0h8v2h-8zm8 0h1v1h-1zm1 0h1v1h-1zm1 0h1v1h-1zm1 0h1v1h-1zm1 0h1v1h-1zm1 0h1v1h-1zm4 0h16v1H47zm-25 1h1v1h-1zm1 0h1v1h-1zm4 0h2v1h-2zm2 0h1v1h-1zm9 0h1v1h-1zm1 0h2v1h-2zm2 0h1v1h-1zm6 0h16v1H47zm-37 1h1v1h-1zm1 0h1v1h-1zm7 0h1v1h-1zm11 0h1v1h-1zm1 0h7v1h-7zm7 0h1v1h-1zm1 0h1v1h-1zm1 0h1v1h-1zm5 0h1v1h-1zm3 0h1v1h-1zm1 0h15v1H48zm-38 1h2v1h-2zm2 0h1v4h-1zm5 0h1v1h-1zm1 0h3v1h-3zm3 0h1v1h-1zm1 0h1v1h-1zm25 0h1v1h-1zm1 0h15v18H48zm-38 1h2v1h-2zm10 0h1v1h-1zm1 0h4v1h-4zm4 0h1v1h-1zm2 0h1v1h-1zm14 0h1v1h-1zm1 0h1v1h-1z"/><path d="M47 46h16v1H47zm-37 1h2v1h-2zm5 0h1v4h-1zm1 0h1v1h-1zm10 0h1v1h-1zm1 0h10v1H27zm10 0h1v1h-1zm3 0h1v1h-1zm1 0h1v1h-1zm5 0h17v1H46zm-36 1h1v1h-1zm1 0h1v1h-1zm5 0h1v1h-1zm1 0h2v2h-2zm2 0h1v5h-1zm1 0h1v1h-1zm25 0h1v3h-1zm1 0h1v1h-1zm1 0h1v1h-1zm-37 1h1v2h-1zm1 0h1v1h-1zm1 0h1v1h-1zm4 0h1v1h-1zm4 0h4v5h-4zm4 0h1v7h-1zm1 0h1v1h-1zm1 0h1v1h-1zm20 0h1v1h-1zm1 0h16v14H47z"/><path d="M9 50h2v1H9zm2 0h1v1h-1zm5 0h1v1h-1zm1 0h2v1h-2zm8 0h1v1h-1zm1 0h15v1H26zm15 0h1v1h-1zm5 0h1v1h-1zM9 51h1v1H9zm1 0h1v1h-1zm1 0h1v1h-1zm4 0h1v1h-1zm1 0h1v1h-1zm1 0h1v1h-1zm1 0h8v1h-8zm8 0h1v7h-1zm1 0h3v1h-3zm3 0h1v1h-1zm1 0h2v1h-2zm2 0h1v1h-1zm1 0h5v1h-5zm5 0h1v1h-1zm1 0h1v1h-1zm1 0h1v1h-1zm3 0h1v1h-1zm1 0h18v12H45zM8 52h2v1H8zm2 0h1v1h-1z"/><path d="M16 52h22v1H16zm22 0h2v1h-2zm2 0h1v1h-1zm4 0h19v1H44zM8 53h1v2H8zm1 0h1v2H9zm1 0h1v1h-1zm6 0h1v1h-1zm1 0h20v1H17zm20 0h2v1h-2zm2 0h1v1h-1zm4 0h1v1h-1zm1 0h19v1H44zm-27 1h2v1h-2zm2 0h1v1h-1zm1 0h14v1H20zm14 0h1v1h-1zm1 0h1v1h-1zm1 0h1v1h-1zm1 0h1v1h-1zm1 0h1v1h-1zm5 0h20v1H43zM8 55h1v1H8zm1 0h1v8H9zm1 0h1v1h-1zm8 0h2v1h-2zm2 0h1v1h-1zm1 0h14v1H21zm14 0h1v1h-1zm1 0h1v1h-1zm1 0h1v1h-1zm6 0h20v2H43z"/><path d="M8 56h2v7H8zm2 0h1v1h-1zm9 0h1v1h-1zm1 0h1v1h-1zm1 0h1v1h-1zm1 0h1v1h-1zm1 0h5v1h-5zm5 0h1v1h-1zm1 0h1v1h-1zm1 0h1v1h-1zm1 0h1v1h-1zm1 0h2v1h-2zm2 0h1v1h-1zm1 0h1v1h-1zm7 0h21v1H42zm-32 1h1v1h-1zm1 0h1v1h-1zm10 0h2v1h-2zm2 0h1v1h-1zm1 0h1v1h-1zm1 0h1v1h-1zm2 0h5v1h-5zm5 0h1v1h-1zm1 0h1v1h-1zm1 0h1v1h-1zm5 0h1v1h-1zm3 0h1v1h-1zm1 0h20v1H43zm-33 1h1v1h-1zm1 0h2v1h-2zm2 0h2v1h-2zm2 0h1v2h-1zm1 0h1v1h-1zm1 0h1v1h-1zm1 0h1v1h-1zm5 0h1v2h-1zm1 0h2v1h-2zm2 0h1v1h-1zm1 0h1v1h-1zm1 0h1v1h-1zm6 0h1v2h-1zm1 0h1v1h-1zm1 0h1v1h-1zm3 0h1v1h-1zm1 0h1v1h-1zm3 0h20v1H43zm-33 1h1v4h-1z"/><path d="M11 59h9v4h-9zm9 0h1v4h-1zm6 0h1v1h-1zm1 0h1v1h-1zm1 0h1v1h-1zm1 0h1v1h-1zm6 0h1v1h-1zm1 0h1v1h-1zm3 0h1v1h-1zm4 0h20v4H43zm-22 1h1v3h-1zm1 0h1v3h-1zm1 0h1v1h-1zm6 0h1v1h-1zm1 0h1v1h-1zm1 0h1v1h-1zm3 0h1v1h-1zm1 0h1v1h-1zm1 0h1v1h-1z"/><path d="M42 60h21v3H42zm-19 1h2v2h-2zm2 0h1v2h-1zm1 0h1v1h-1zm13 0h2v1h-2z"/><path d="M41 61h22v2H41zm-15 1h1v1h-1zm1 0h1v1h-1zm1 0h1v1h-1zm1 0h1v1h-1zm3 0h1v1h-1zm1 0h1v1h-1zm5 0h1v1h-1zm1 0h1v1h-1zm1 0h1v1h-1zM0 63h26v1H0zm26 0h1v1h-1zm1 0h2v1h-2zm2 0h1v1h-1zm1 0h2v1h-2zm2 0h5v1h-5zm5 0h1v1h-1zm1 0h1v1h-1zm1 0h1v1h-1zm1 0h23v1H40zm23 0h1v1h-1z"/></g><path d="M17 1h1v1h-1zm-2 4h1v1h-1zM4 7h1v1H4zm4 0h1v1H8zm6 0h1v1h-1zm6 0h1v1h-1zm3 0h1v1h-1zM6 8h1v1H6zM4 9h1v1H4zm-2 1h1v1H2zm4 0h1v1H6zm2 0h1v1H8zm-6 1h1v1H2zm30 0h1v1h-1zm1 0h1v1h-1zm2 0h1v1h-1zm-3 1h1v1h-1zm5 0h1v1h-1zm1 0h1v1h-1zm-24 1h1v1h-1zm4 0h1v1h-1zm18 0h1v1h-1zm-19 1h1v1h-1zM4 15h1v1H4zm2 0h1v1H6zm-1 1h1v1H5zm15 0h1v1h-1zm-3 1h1v1h-1zm3 0h1v1h-1zm8 0h1v1h-1zm-10 1h1v1h-1zm9 0h1v1h-1zm18 0h1v1h-1zm-28 1h2v1h-2zm2 0h1v1h-1zm8 0h1v1h-1zm7 0h1v1h-1zm10 0h1v1h-1zm-28 1h1v1h-1zm1 0h1v1h-1zm11 0h1v1h-1zm2 0h1v1h-1zm1 0h1v1h-1zm-20 1h1v1h-1zm5 0h1v1h-1zm2 0h1v1h-1zm11 0h1v1h-1zm7 0h1v1h-1zm3 0h1v1h-1zm7 0h1v1h-1zm-29 1h1v1h-1zm15 0h1v1h-1zm-17 1h1v1h-1zm10 1h1v1h-1zm4 0h1v1h-1zm15 0h1v1h-1zm2 0h1v1h-1zM9 25h1v1H9zm0 1h1v1H9zm17 1h1v1h-1zm22 0h1v1h-1zm-26 1h1v1h-1zm26 0h1v1h-1zm-15 1h1v1h-1zm-12 1h1v1h-1zm28 0h1v1h-1zm0 1h1v1h-1zm-16 1h1v1h-1zm-10 1h1v1h-1zm17 0h1v1h-1zm6 0h1v1h-1zM8 35h1v1H8zm40 0h1v1h-1zm-36 1h1v1h-1zm11 0h1v1h-1zm25 0h1v1h-1zm-37 1h1v1h-1zm10 0h1v1h-1zm2 0h1v1h-1zm20 0h1v1h-1zm4 0h1v1h-1zm-26 1h1v1h-1zm23 0h1v1h-1zm3 0h1v1h-1zm-11 1h1v1h-1zm4 0h1v1h-1zm6 0h1v1h-1zm-22 1h1v1h-1zm-11 1h1v1h-1zm25 0h1v1h-1zm1 0h1v1h-1zm1 0h1v1h-1zm-25 1h1v1h-1zm31 0h1v1h-1zm-25 1h1v1h-1zm5 0h1v1h-1zm14 1h1v1h-1zm-27 1h1v1h-1zm25 0h1v1h-1zm1 0h1v1h-1zm-26 1h1v1h-1zm6 0h1v1h-1zm25 0h1v1h-1zm2 0h1v1h-1zm-33 1h1v1h-1zm11 0h1v1h-1zm14 0h1v1h-1zm1 0h1v1h-1zm-26 1h1v1h-1zm20 0h1v1h-1zm4 0h1v1h-1zm1 0h1v1h-1zm-11 1h1v1h-1zm1 0h1v1h-1zm1 0h1v1h-1zm13 0h1v1h-1zm-4 6h1v1h-1zm-2 1h1v1h-1zm-16 1h1v1h-1zm2 1h1v1h-1zm7 0h1v1h-1zm9 0h1v1h-1zm4 0h1v1h-1zm-21 1h1v1h-1zm7 1h1v1h-1zm7 1h1v1h-1zm-4 1h1v1h-1zm3 0h1v1h-1z" fill="#ddd"/><path d="M13 3h1v1h-1zm5 0h1v1h-1zm-1 1h1v1h-1zm4 2h1v1h-1zM6 7h1v1H6zm8 1h1v1h-1zM3 9h1v1H3zm20 0h1v1h-1zm1 0h1v1h-1zM3 10h1v1H3zm4 0h1v1H7zm5 0h1v1h-1zm3 0h1v1h-1zM3 11h1v1H3zm6 0h1v1H9zm16 0h1v1h-1zm-15 1h1v1h-1zm6 0h1v1h-1zm1 0h1v1h-1zm-1 1h1v1h-1zm2 2h1v1h-1zM7 17h1v1H7zm4 0h1v1h-1zm8 0h1v1h-1zm-4 1h1v1h-1zm15 0h1v1h-1zm-20 1h1v1h-1zm20 0h1v1h-1zm1 2h2v1h-2zm2 0h1v1h-1zm1 0h1v1h-1zm-5 1h1v1h-1zm1 0h1v1h-1zm1 0h1v1h-1zm-3 1h1v1h-1zm1 0h1v1h-1zm-19 1h1v1h-1zm17 0h1v1h-1zm1 0h1v1h-1zm-2 1h1v1h-1zm1 0h1v1h-1zm18 1h1v1h-1zm-22 1h1v1h-1zm1 0h1v1h-1zm0 1h1v1h-1zm18 0h1v1h-1zm-20 1h1v1h-1zm1 0h1v1h-1zm0 1h1v1h-1zm-13 1h1v1h-1zm12 0h1v1h-1zm23 0h1v1h-1zm-23 1h1v1h-1zm23 0h1v1h-1zm-24 1h1v1h-1zm24 0h1v1h-1zm-24 1h1v1h-1zm1 0h1v1h-1zm23 0h1v1h-1zm-34 1h1v1h-1zm-1 1h1v1h-1zm12 0h1v1h-1zm-10 1h1v1h-1zm29 0h1v1h-1zm4 3h1v1h-1zm-33 2h1v1h-1zm12 0h1v1h-1zm-5 1h1v1h-1zm25 0h1v1h-1zm2 0h1v1h-1zm-31 1h1v1h-1zm6 0h1v1h-1zm1 0h1v1h-1zm3 0h1v1h-1zm0 1h1v1h-1zm15 0h1v1h-1zm-24 1h1v1h-1zm1 0h1v1h-1zm20 0h1v1h-1zm6 0h1v1h-1zm-24 1h1v1h-1zm1 0h1v1h-1zm1 0h1v1h-1zm5 1h1v1h-1zm15 0h1v1h-1zm-6 1h1v1h-1zm1 0h1v1h-1zm7 0h1v1h-1zm-29 1h1v1h-1zm28 2h1v1h-1zm-1 1h1v1h-1zm-1 1h1v1h-1zm0 1h1v1h-1zm-19 3h1v1h-1zm10 1h1v1h-1zm7 0h1v1h-1zm-2 2h1v1h-1z" fill="#999"/><path d="M16 4h1v1h-1zm2 1h1v1h-1zm2 0h1v1h-1zm2 2h1v1h-1zm-9 4h1v1h-1zm6 0h1v1h-1zm-2 2h1v1h-1zm-1 1h1v1h-1zm24 6h1v1h-1zm4 1h1v1h-1zm1 0h1v1h-1zm-35 1h1v1h-1zm1 0h1v1h-1zm15 2h1v1h-1zm-1 1h1v1h-1zm-1 1h1v1h-1zm-1 2h1v1h-1zm-1 2h1v1h-1zm20 0h1v1h-1zm-4 4h1v1h-1zm-1 4h1v1h-1zm-24 2h1v1h-1zm32 1h1v1h-1zm-32 1h1v1h-1zm31 0h1v1h-1zm1 0h1v1h-1zm-33 1h1v1h-1zm3 0h1v1h-1zm31 1h1v1h-1zm-32 1h1v1h-1zm15 0h1v1h-1zm9 1h1v1h-1zm1 0h1v1h-1zm3 2h1v1h-1zm1 2h1v1h-1zm0 1h1v1h-1zm-32 2h1v1h-1zm5 1h1v1h-1zm-5 1h1v1h-1zm30 1h1v1h-1zm0 2h1v1h-1zm0 1h1v1h-1zm-8 1h1v1h-1zm4 1h1v1h-1z" fill="#777"/><path d="M12 6h1v1h-1zm4 1h1v1h-1zm-6 1h1v1h-1zm3 0h1v1h-1zm8 0h1v1h-1zm-11 2h1v1h-1zm6 0h1v1h-1zm10 0h1v1h-1zm1 0h1v1h-1zm1 0h1v1h-1zm9 1h1v1h-1zm1 0h1v1h-1zM4 12h1v1H4zm2 0h1v1H6zm5 0h1v1h-1zm10 0h1v1h-1zm9 0h1v1h-1zm1 0h1v1h-1zm-19 1h1v1h-1zm26 1h1v1h-1zm3 0h1v1h-1zm-1 1h1v1h-1zM7 16h1v1H7zm10 0h1v1h-1zM6 17h1v1H6zm2 0h1v1H8zm2 0h1v1h-1zm8 0h1v1h-1zm9 0h1v1h-1zm3 0h1v1h-1zM7 18h1v1H7zm13 0h1v1h-1zm9 0h1v1h-1zm-18 1h1v1h-1zm17 0h1v1h-1zm13 0h1v1h-1zm-22 1h1v1h-1zm18 1h1v1h-1zm1 0h1v1h-1zm5 1h1v1h-1zm-17 1h1v1h-1zM9 24h1v1H9zm34 0h1v2h-1zm4 0h1v1h-1zm-23 1h1v1h-1zm4 0h1v1h-1zm-1 1h1v1h-1zm16 0h1v1h-1zm4 0h1v1h-1zm1 0h1v1h-1zM9 27h1v1H9zm0 1h1v1H9zm35 0h1v1h-1zM9 29h1v1H9zm23 0h1v1h-1zm16 0h1v1h-1zm1 0h1v1h-1zm-25 1h1v1h-1zm24 0h1v2h-1zM8 31h1v1H8zm24 1h1v1h-1zm16 0h1v1h-1zm1 0h1v1h-1zM9 33h1v1H9zm2 0h1v1h-1zm37 0h1v1h-1zm1 0h1v1h-1zm-39 1h1v1h-1zm13 0h1v1h-1zm14 0h1v1h-1zm9 0h1v1h-1zm2 0h1v1h-1zm-38 1h1v1h-1zm13 0h1v1h-1zm20 1h1v1h-1zm-8 2h1v1h-1zm11 0h1v1h-1zm-7 2h1v1h-1zm1 0h1v1h-1zm1 0h1v1h-1zm5 0h1v1h-1zm-32 2h1v1h-1zm4 0h1v1h-1zm24 1h1v1h-1zm-23 1h1v1h-1zm9 0h1v1h-1zm-12 1h1v1h-1zm7 0h1v1h-1zm19 0h1v1h-1zm-16 1h1v1h-1zm2 0h1v1h-1zm1 0h1v1h-1zm16 0h1v1h-1zm-28 1h1v1h-1zm8 0h1v1h-1zm17 0h1v1h-1zm3 0h1v1h-1zm-24 1h1v1h-1zm21 2h1v1h-1zm2 0h1v1h-1zm-3 2h1v1h-1zm-1 1h1v1h-1zm-30 1h1v1h-1zm29 0h1v1h-1zm3 1h1v1h-1zm-7 2h1v1h-1zm5 0h1v1h-1zm-7 1h1v1h-1zm9 1h1v1h-1zm-1 1h1v1h-1zm-14 1h1v1h-1zm11 0h1v1h-1zm-8 1h1v1h-1zm7 0h1v1h-1z" fill="#eee"/><path d="M17 7h1v1h-1zm2 0h1v1h-1zm3 4h1v1h-1zM7 12h1v1H7zm5 2h1v1h-1zm20 16h1v1h-1zm0 1h1v1h-1zm4 7h1v1h-1zm-10 7h1v1h-1zm-13 7h1v1h-1zm0 3h1v1h-1zm-1 1h1v1h-1zm4 1h1v1h-1z" fill="#333"/><path d="M14 1h1v1h-1zm1 1h1v1h-1zm1 0h1v1h-1zm-3 2h2v1h-2zm2 0h1v1h-1zm-3 1h1v1h-1zm1 0h1v1h-1zm9 1h1v1h-1zM3 8h1v1H3zm4 0h1v1H7zm2 1h1v1H9zm2 0h1v1h-1zm4 2h1v1h-1zm16 0h1v1h-1zm-18 1h1v1h-1zm26 0h1v1h-1zM5 14h1v1H5zm8 0h1v1h-1zm2 0h1v1h-1zm3 0h1v1h-1zm-2 1h1v1h-1zm26 0h1v1h-1zm-13 2h1v1h-1zM9 18h1v1H9zm10 0h1v1h-1zm10 1h1v1h-1zm10 0h1v1h-1zm1 0h1v1h-1zm-26 1h1v1h-1zm4 0h1v1h-1zm26 0h1v1h-1zm-32 1h1v1h-1zm3 0h1v1h-1zm2 0h1v1h-1zm23 0h1v1h-1zm-25 1h1v1h-1zm1 0h1v1h-1zm-5 1h1v1h-1zm3 0h1v1h-1zm33 2h1v1h-1zm-3 1h1v1h-1zm-34 1h1v1h-1zm34 0h1v1h-1zm2 0h1v1h-1zm-36 1h1v1h-1zm0 1h1v1h-1zm36 0h1v2h-1zm-36 1h1v1h-1zm36 1h1v1h-1zM8 32h1v1H8zm15 0h1v1h-1zm16 1h1v1h-1zM8 34h1v1H8zm1 0h1v1H9zm2 0h1v1h-1zm28 0h1v1h-1zm-3 1h1v1h-1zm-1 2h1v1h-1zm3 0h1v1h-1zm-25 1h1v1h-1zm-1 1h1v1h-1zm27 0h1v1h-1zm2 0h1v1h-1zm3 0h1v1h-1zm-22 1h1v1h-1zm-5 2h1v1h-1zm6 0h1v1h-1zm2 0h1v1h-1zm-9 1h1v1h-1zm1 0h1v1h-1zm3 0h1v1h-1zm4 0h1v2h-1zm21 0h1v1h-1zm-33 1h1v1h-1zm2 0h1v1h-1zm6 0h1v1h-1zm23 0h1v1h-1zm-19 1h1v1h-1zm10 0h1v1h-1zm2 0h1v1h-1zm7 0h1v1h-1zm-13 1h1v1h-1zm-12 1h1v1h-1zm5 0h1v1h-1zm20 0h1v1h-1zm-21 1h1v1h-1zm10 0h1v1h-1zm2 0h2v1h-2zm2 0h1v1h-1zm3 0h1v1h-1zm-9 1h1v1h-1zm11 0h1v1h-1zm3 0h1v1h-1zm-32 1h1v1h-1zm30 1h1v1h-1zm-3 5h1v1h-1zm1 0h1v1h-1zm-15 3h1v1h-1zm5 0h1v1h-1zm3 0h1v1h-1zm-9 1h1v1h-1zm4 1h1v1h-1zm7 1h1v1h-1z" fill="#ccc"/><path d="M16 1h1v1h-1zm-3 1h1v1h-1zm8 3h1v1h-1zm-8 1h1v1h-1zm6 0h1v1h-1zM7 7h1v1H7zm2 1h1v1H9zm5 1h1v1h-1zm11 1h1v1h-1zm-13 1h1v1h-1zm12 0h1v1h-1zm12 0h1v1h-1zm-16 1h1v1h-1zM3 13h1v1H3zm34 0h1v1h-1zm1 0h1v1h-1zM8 14h1v1H8zm31 0h1v1h-1zM9 15h1v1H9zm8 0h1v1h-1zm-1 2h1v1h-1zm-4 1h1v1h-1zm32 0h1v1h-1zm1 1h1v1h-1zm-16 1h1v1h-1zm4 0h1v1h-1zm10 0h1v1h-1zm-13 1h1v1h-1zm11 0h1v1h-1zm-29 1h1v1h-1zm1 0h1v1h-1zm1 0h1v1h-1zm14 0h1v1h-1zm-15 1h1v1h-1zm32 1h1v1h-1zm-35 1h1v1h-1zm35 0h1v1h-1zm-20 1h1v1h-1zm1 0h1v1h-1zm-1 1h1v1h-1zm20 0h1v1h-1zm-2 1h1v1h-1zm-19 1h1v1h-1zm21 0h1v1h-1zm-22 2h1v1h-1zm-13 1h1v1h-1zm11 0h1v1h-1zM8 33h1v1H8zm33 1h1v1h-1zm-20 1h1v1h-1zm1 0h1v1h-1zm23 0h1v1h-1zm-8 2h1v1h-1zm-25 1h1v1h-1zm10 0h1v1h-1zm23 0h1v1h-1zm-23 1h1v1h-1zm1 0h1v1h-1zm-11 1h1v1h-1zm2 0h1v1h-1zm30 0h1v1h-1zm-32 1h1v1h-1zm11 0h1v1h-1zm-7 1h1v1h-1zm2 1h1v1h-1zm7 0h1v1h-1zm-8 1h1v1h-1zm6 0h1v1h-1zm18 0h1v1h-1zm-26 1h1v1h-1zm15 0h1v1h-1zm7 0h1v1h-1zm-19 1h1v1h-1zm13 0h1v1h-1zm1 0h2v1h-2zm2 0h1v1h-1zm1 0h1v1h-1zm-21 1h1v1h-1zm0 1h1v1h-1zm13 0h1v1h-1zm1 0h1v1h-1zm4 1h1v1h-1zm1 0h1v1h-1zm4 0h1v1h-1zm-26 3h1v1h-1zm26 4h1v1h-1zm-25 1h1v1h-1zm24 0h1v1h-1zm-5 1h1v1h-1zm-7 1h1v1h-1zm16 0h1v1h-1zm-13 1h1v1h-1zm10 0h1v1h-1zm2 0h1v1h-1zm1 0h1v1h-1zm-11 1h1v1h-1zm1 0h1v1h-1z" fill="#aaa"/><path d="M17 2h1v1h-1zM4 8h1v1H4zm18 2h1v1h-1zm2 0h1v1h-1zm11 2h1v1h-1zm1 0h1v1h-1zm-25 1h1v1h-1zm32 8h1v1h-1zm1 1h1v1h-1zM9 31h1v1H9zm31 4h1v1h-1zm-29 1h1v1h-1zm30 2h1v1h-1zm-28 1h1v1h-1zm24 0h1v1h-1zm-24 4h1v1h-1zm13 1h1v1h-1zm15 1h1v1h-1zm3 3h1v1h-1zm-30 3h1v1h-1zm28 2h1v1h-1zm-31 1h1v1h-1zm30 0h1v1h-1zm-3 2h1v1h-1zm-5 5h1v1h-1z" fill="#666"/><path d="M12 3h1v1h-1zm0 1h1v1h-1zm7 0h1v1h-1zm-6 3h1v1h-1zM5 8h1v1H5zm3 0h1v1H8zm9 0h1v1h-1zm5 0h1v1h-1zm-7 1h1v1h-1zm3 1h1v1h-1zM6 11h1v1H6zm20 0h2v1h-2zm2 0h1v1h-1zm1 0h1v1h-1zm1 0h1v1h-1zm-12 1h1v1h-1zm15 0h1v1h-1zm1 0h1v1h-1zM4 13h1v1H4zm3 0h1v1H7zm33 1h1v1h-1zm1 1h1v1h-1zm-31 1h1v1h-1zm32 0h1v1h-1zm1 0h1v1h-1zm0 1h1v1h-1zm1 0h1v1h-1zm-9 2h1v2h-1zm1 0h1v1h-1zm1 0h1v1h-1zm1 0h1v1h-1zm-6 1h1v1h-1zm-22 1h1v1h-1zm25 0h1v1h-1zm-23 2h1v1h-1zm18 0h1v1h-1zm14 0h1v1h-1zm0 2h1v1h-1zm-34 1h1v1h-1zm15 2h1v1h-1zm21 0h1v1h-1zm-25 3h1v1h-1zm25 1h1v1h-1zm-36 1h1v1h-1zm-1 2h1v1H9zm33 0h1v1h-1zm-21 1h1v1h-1zm1 1h1v1h-1zm23 0h1v1h-1zm-22 1h1v1h-1zm22 1h1v1h-1zm-22 1h1v1h-1zm-8 1h1v1h-1zm9 0h1v1h-1zm-11 3h1v1h-1zm14 0h1v1h-1zm18 0h1v1h-1zm-14 1h1v1h-1zm1 0h1v1h-1zm1 0h1v1h-1zm2 0h1v1h-1zm-20 1h1v1h-1zm21 0h1v1h-1zm-14 1h1v1h-1zm1 1h1v1h-1zm6 0h1v1h-1zm1 0h1v1h-1zm1 0h1v1h-1zm9 0h1v1h-1zm-27 1h1v1h-1zm1 0h1v1h-1zm17 0h1v1h-1zm7 0h2v1h-2zm2 0h1v1h-1zm-25 3h1v1h-1zm28 0h1v1h-1zm-1 2h1v1h-1zm-3 1h1v1h-1zm-28 1h1v1h-1zm27 1h1v1h-1zm-19 1h1v1h-1zm11 0h1v1h-1zm-8 1h1v1h-1zm15 0h1v1h-1zm-12 1h1v1h-1zm1 0h1v1h-1zm8 1h1v1h-1zm2 1h1v1h-1z" fill="#bbb"/><path d="M17 5h1v1h-1zm1 1h1v1h-1zm0 2h1v1h-1zm3 3h1v1h-1zM8 13h1v1H8zm2 0h1v1h-1zm3 2h1v1h-1zm30 14h1v1h-1zm-10 1h1v1h-1zm0 1h1v1h-1zm3 6h1v1h-1zm6 0h1v1h-1zm-3 1h1v1h-1zM13 50h1v1h-1zm2 4h1v1h-1zm-1 1h1v1h-1zm1 0h1v1h-1zm-2 1h1v1h-1zm5 1h1v1h-1zm19 0h1v1h-1z" fill="#111"/><path d="M17 6h1v1h-1zm1 1h1v1h-1zm1 1h1v1h-1zm0 1h1v1h-1zm1 0h1v2h-1zm1 1h1v1h-1zM7 11h1v1H7zm13 0h1v1h-1zM8 12h1v1H8zm1 1h1v1H9zm1 1h1v1h-1zm1 0h1v1h-1zm0 1h1v1h-1zm1 0h1v1h-1zm0 1h1v1h-1zm1 0h1v1h-1zm1 0h1v1h-1zm-1 1h1v1h-1zm1 0h1v1h-1zm1 0h1v1h-1zm-1 1h1v1h-1zm28 11h1v1h-1zm-1 6h1v1h-1zM13 51h1v1h-1zm3 4h1v1h-1zm-2 1h1v1h-1zm1 0h1v1h-1zm1 0h1v1h-1zm1 0h1v1h-1z"/><path d="M20 8h1v1h-1zm-1 2h1v1h-1zM8 11h1v1H8zm1 1h1v1H9zm0 2h1v1H9zm1 1h1v1h-1zm1 1h1v1h-1zm1 1h1v1h-1zm1 1h1v1h-1zm24 17h1v1h-1zm-1 1h1v1h-1zm3 0h1v1h-1zm1 0h1v1h-1zm2 0h1v1h-1zm-3 1h1v1h-1zm-1 2h1v1h-1zM14 52h1v1h-1zm0 1h1v1h-1zm0 1h1v1h-1zm3 3h1v1h-1zm15 2h1v1h-1z" fill="#222"/><path d="M23 8h1v1h-1zm-5 1h1v1h-1zm3 0h1v1h-1zm18 4h1v1h-1zm-24 3h1v1h-1zm4 0h1v1h-1zm-8 4h1v1h-1zm34 2h1v1h-1zm0 1h1v1h-1zm-5 11h1v1h-1zm-2 1h1v1h-1zm-1 1h1v1h-1zm1 0h1v1h-1zm2 2h1v1h-1zm2 0h1v1h-1zm-26 6h1v1h-1zm11 1h1v1h-1zm-15 8h1v1h-1zm0 1h1v1h-1zm6 2h1v1h-1zm-5 1h1v1h-1zm19 3h1v1h-1zm6 0h1v1h-1z" fill="#555"/><path d="M15 1h1v1h-1zm-1 1h1v1h-1zm4 0h1v1h-1zm1 1h1v1h-1zm1 1h1v1h-1zm-4 2h1v1h-1zM5 7h1v1H5zm5 2h1v1h-1zm1 1h1v1h-1zm5 1h1v1h-1zm7 0h1v1h-1zM3 12h1v1H3zm11 0h1v1h-1zm5 0h1v1h-1zm-4 1h1v1h-1zM4 14h1v1H4zm1 1h1v1H5zm9 0h1v1h-1zm5 0h1v1h-1zM6 16h1v1H6zm10 0h1v1h-1zm-8 2h1v1H8zm1 1h1v1H9zm4 0h1v1h-1zm-3 1h1v1h-1zm2 0h1v1h-1zm1 0h1v1h-1zm21 0h1v1h-1zm2 0h1v1h-1zm1 0h1v1h-1zm1 0h1v1h-1zm1 0h1v1h-1zm2 0h1v1h-1zm1 0h1v1h-1zm3 0h1v1h-1zm-3 1h1v1h-1zm4 1h1v1h-1zm-36 1h1v1h-1zm17 0h1v1h-1zm19 0h1v1h-1zm-1 5h1v1h-1zm-2 2h2v1h-2zm2 0h1v1h-1zM9 32h1v1H9zm13 1h1v1h-1zm23 3h1v1h-1zm-7 2h1v1h-1zm0 2h1v1h-1zm-24 1h1v1h-1zm30 0h1v1h-1zm-1 2h1v1h-1zm-1 1h1v1h-1zm-14 1h1v1h-1zm16 0h1v1h-1zm1 0h1v1h-1zm1 0h1v1h-1zm-32 1h1v1h-1zm26 0h1v1h-1zm4 1h1v1h-1zm-20 1h1v1h-1zm1 0h1v1h-1zm9 1h1v1h-1zm-17 6h1v1h-1zm2 2h1v1h-1zm22 0h1v1h-1zm-21 1h1v1h-1zm12 0h1v1h-1zm5 0h1v1h-1zm-6 3h1v1h-1z" fill="#888"/><path d="M16 5h1v1h-1zm-2 14h1v1h-1zm27 17h1v1h-1zm-1 1h1v1h-1zm-26 6h1v1h-1zm29 5h1v1h-1zm-31 3h1v1h-1zm0 1h1v1h-1zm1 1h1v1h-1zm2 0h1v1h-1zm-2 1h1v1h-1zm-1 1h1v1h-1zm29 0h1v1h-1zm-27 2h1v1h-1zm1 0h1v1h-1zm17 4h1v1h-1z" fill="#444"/></svg>