<svg xmlns="http://www.w3.org/2000/svg" width="302" height="240" baseProfile="tiny" viewBox="0 0 302 240"><g fill="#452"><path d="M0 0h28v12H0zm30 0h1v3h-1zm3 0h14v2H33zm18 0h178v1H51zm179 0h1v4h-1zm5 0h28v1h-28zm66 0h1v1h-1z"/><path d="M29 1h2v2h-2zm18 0h2v4h-2zm6 0h21v3H53zm23 0h153v1H76zm155 0h1v3h-1zm4 0h27v1h-27z"/><path d="M28 2h5v1h-5zm6 0h40v2H34zm41 0h24v3H75zm25 0h46v4h-46zm47 0h11v2h-11zm13 0h67v1h-67zm68 0h5v1h-5zm6 0h27v1h-27zm65 0h3v2h-3zM28 3h2v40h-2zm4 0h1v2h-1z"/><path d="M74 3h86v1H74zm87 0h67v1h-67zm71 0h20v1h-20zm25 0h4v1h-4zm39 0h6v1h-6zM30 4h1v39h-1zm3 0h1v110h-1zm3 0h13v1H36zm14 0h7v121h-7zm8 0h98v1H58zm99 0h42v2h-42zm43 0h28v7h-28zm32 0h19v3h-19zm26 0h2v1h-2zm11 0h3v1h-3zm7 0h2v1h-2zm24 0h2v5h-2zM31 5h1v206h-1zm5 0h12v1H36zm21 0h21v22H57zm23 0h5v8h-5zm6 0h68v1H86z"/><path d="M156 5h73v1h-73zm75 0h20v2h-20zm29 0h1v1h-1zm9 0h2v1h-2zm5 0h3v1h-3zm4 0h2v235h-2zM32 6h3v28h-3zm5 0h11v30H37zm12 0h89v2H49zm90 0h16v20h-16zm18 0h23v3h-23zm24 0h16v5h-16z"/><path d="M198 6h54v1h-54zm76 0h1v3h-1zm3 0h3v234h-3zm22 0h3v3h-3zM35 7h103v1H35zm120 0h1v201h-1zm25 0h61v1h-61zm62 0h9v2h-9z"/><path d="M275 7h6v233h-6zm22 0h5v2h-5zM35 8h60v1H35zm61 0h60v2H96zm101 0h42v1h-42zm44 0h10v1h-10zm27 0h2v2h-2z"/><path d="M273 8h8v1h-8zm20 0h1v1h-1zm2 0h7v1h-7zM35 9h50v4H35zm53 0h7v1h-7zm68 0h8v115h-8zm9 0h3v2h-3zm6 0h2v1h-2zm4 0h3v1h-3zm22 0h39v2h-39zm45 0h6v1h-6zm7 0h2v2h-2zm14 0h7v1h-7zm8 0h3v1h-3zm10 0h1v231h-1zm13 0h6v1h-6zm7 0h1v231h-1zM89 10h10v1H89zm11 0h32v3h-32z"/><path d="M134 10h30v16h-30zm46 0h67v1h-67zm71 0h1v2h-1zm13 0h5v1h-5zm7 0h2v1h-2zm20 0h6v1h-6zm7 0h4v230h-4zM90 11h42v2H90z"/><path d="M133 11h32v15h-32zm34 0h2v1h-2zm12 0h5v2h-5zm7 0h40v1h-40zm41 0h19v1h-19zm36 0h2v2h-2zm5 0h1v1h-1zm2 0h2v53h-2zm3 0h1v229h-1zm9 0h2v229h-2zm5 0h2v195h-2zm5 0h3v2h-3zm4 0h6v1h-6zM0 12h7v1H0zm8 0h78v1H8z"/><path d="M132 12h33v14h-33zm53 0h18v2h-18zm19 0h2v1h-2zm3 0h30v1h-30zm36 0h1v1h-1zm5 0h2v2h-2zm11 0h1v1h-1zm3 0h6v1h-6zm7 0h16v52h-16zm20 0h7v1h-7zm8 0h5v6h-5zM0 13h5v5H0zm6 0h76v1H6zm78 0h2v8h-2zm6 0h1v3h-1zm2 0h10v113H92z"/><path d="M103 13h62v13h-62zm64 0h1v110h-1zm13 0h23v1h-23zm27 0h28v2h-28zm37 0h1v1h-1zm6 0h1v15h-1zm10 0h2v227h-2zm6 0h2v173h-2zm23 0h2v227h-2zm3 0h2v227h-2zm4 0h6v4h-6zM5 14h76v1H5z"/><path d="M86 14h85v1H86zm93 0h1v1h-1zm3 0h3v1h-3zm4 0h15v1h-15zm18 0h32v1h-32zm45 0h3v3h-3zm13 0h40v3h-40zM9 15h79v1H9zm82 0h80v1H91zm91 0h1v1h-1zm4 0h14v1h-14zm16 0h19v1h-19zm20 0h16v7h-16zm30 0h1v4h-1z"/><path d="M257 15h45v1h-45zM5 16h4v2H5zm5 0h78v2H10zm79 0h1v5h-1zm2 0h11v110H91zm74 0h7v2h-7zm22 0h12v1h-12zm16 0h37v3h-37zm55 0h44v1h-44z"/><path d="M9 17h163v1H9zm178 0h3v1h-3zm4 0h7v5h-7zm11 0h41v2h-41zm49 0h2v2h-2zm6 0h7v1h-7zm8 0h31v1h-31zM0 18h2v71H0zm9 0h12v1H9zm13 0h149v1H22zm165 0h2v7h-2z"/><path d="M190 18h53v1h-53zm63 0h2v1h-2zm5 0h7v47h-7zm10 0h28v46h-28zM2 19h2v66H2zm6 0h12v22H8zm13 0h65v2H21zm67 0h83v2H88zm101 0h15v1h-15zm18 0h37v1h-37zm41 0h1v11h-1zm3 0h1v1h-1z"/><path d="M254 19h43v1h-43zM4 20h168v1H4zm185 0h12v1h-12zm19 0h36v1h-36zm37 0h6v1h-6zm20 0h37v44h-37zM4 21h80v1H4zm82 0h2v107h-2zm4 0h84v1H90zm94 0h14v1h-14zm25 0h10v1h-10zm11 0h21v1h-21zm22 0h1v1h-1zm2 0h2v1h-2z"/><path d="M247 21h55v1h-55zM4 22h79v1H4zm98 0h77v4h-77zm78 0h16v1h-16zm30 0h8v1h-8zm11 0h3v1h-3zm4 0h17v1h-17zm22 0h2v8h-2zm4 0h51v1h-51zM4 23h78v3H4zm81 0h3v105h-3z"/><path d="M89 23h105v1H89zm121 0h1v1h-1zm2 0h6v1h-6zm9 0h2v1h-2zm4 0h14v1h-14zm15 0h5v2h-5zm6 0h5v5h-5zm7 0h49v2h-49zM82 24h107v1H82zm129 0h5v1h-5zm6 0h2v1h-2zm3 0h1v1h-1zm3 0h2v1h-2z"/><path d="M227 24h75v1h-75zM82 25h105v1H82zm132 0h3v1h-3zm4 0h2v3h-2zm3 0h1v1h-1zm5 0h14v2h-14zm15 0h14v2h-14zm15 0h46v35h-46zM4 26h16v15H4zm17 0h67v1H21zm69 0h58v1H90zm59 0h35v1h-35z"/><path d="M216 26h4v1h-4zm24 0h62v1h-62zM20 27h49v3H20zm50 0h18v62H70zm20 0h54v2H90zm56 0h2v1h-2zm4 0h29v3h-29zm70 0h1v13h-1zm7 0h25v1h-25zm26 0h49v33h-49z"/><path d="M69 28h19v61H69zm150 0h6v11h-6zm8 0h23v2h-23zm24 0h51v32h-51zM88 29h55v76H88zm60 0h32v1h-32z"/><path d="M225 29h77v1h-77zM20 30h48v1H20zm123 0h5v77h-5zm8 0h30v92h-30zm74 0h23v1h-23zm24 0h53v30h-53zM20 31h47v2H20z"/><path d="M68 31h81v58H68zm82 0h33v91h-33zm68 0h28v3h-28zm30 0h54v29h-54z"/><path d="M149 32h35v90h-35zm98 0h55v28h-55zM20 33h46v1H20z"/><path d="M67 33h117v56H67zm179 0h56v27h-56zM20 34h12v9H20zm14 0h32v2H34zm150 0h1v187h-1zm34 0h26v1h-26z"/><path d="M245 34h57v26h-57zM32 35h154v1H32zm185 0h26v2h-26z"/><path d="M244 35h58v25h-58zM32 36h12v3H32zm13 0h20v3H45zm21 0h121v16H66z"/><path d="M243 36h59v24h-59zM44 37h21v2H44zm143 0h1v15h-1z"/><path d="M218 37h84v2h-84zM65 38h124v14H65zm-33 1h10v1H32zm11 0h21v1H43zm175 0h3v1h-3zm4 0h80v1h-80zM32 40h9v1h-9zm13 0h19v2H45zm144 0h1v200h-1zm29 0h1v1h-1zm3 0h2v1h-2zm4 0h77v5h-77zM4 41h14v6H4zm15 0h21v2H19zm22 0h3v171h-3z"/><path d="M64 41h127v11H64zm156 0h2v1h-2zm4 0h78v4h-78zM18 42h45v1H18zm200 0h3v1h-3z"/><path d="M223 42h79v3h-79zM18 43h11v6H18zm14 0h31v1H32zm159 0h1v85h-1zm26 0h3v1h-3z"/><path d="M222 43h80v2h-80zM32 44h30v16H32zm31 0h138v8H63zm155 0h1v1h-1z"/><path d="M221 44h81v1h-81zM29 45h173v7H29zm190 0h3v2h-3zm4 0h8v5h-8zm9 0h70v15h-70z"/><path d="M218 46h84v1h-84zM4 47h11v25H4zm13 0h186v2H17zm200 0h2v1h-2zm3 0h82v3h-82zM15 48h1v192h-1zm188 0h2v36h-2zm12 0h2v1h-2zm3 0h1v1h-1zM16 49h3v164h-3z"/><path d="M21 49h185v3H21zm198 0h83v1h-83zM19 50h1v190h-1zm187 0h5v23h-5zm13 0h6v1h-6zm7 0h76v1h-76z"/><path d="M20 51h192v1H20zm194 0h2v189h-2zm4 0h3v4h-3zm4 0h1v2h-1zm2 0h1v1h-1zm3 0h75v9h-75zM20 52h166v6H20z"/><path d="M188 52h33v3h-33zm35 0h1v2h-1zm3 0h76v8h-76z"/><path d="M186 53h35v2h-35zm35 1h1v7h-1zm-35 1h30v5h-30zm31 0h2v185h-2z"/><path d="M220 55h4v3h-4zm5 0h77v5h-77z"/><path d="M216 56h8v2h-8zM20 58h44v2H20zm45 0h155v2H65zm157 0h2v1h-2z"/><path d="M64 59h158v1H64zm160 0h78v1h-78zM20 60h12v17H20zm14 0h179v13H34zm182 0h6v1h-6zm7 0h16v2h-16zm17 0h16v10h-16zm17 0h45v4h-45z"/><path d="M32 61h189v12H32zm190 1h5v178h-5zm6 0h11v8h-11zm28 0h46v2h-46z"/><path d="M221 63h6v177h-6zm18 0h63v1h-63zm-12 1h44v1h-44zm45 0h30v142h-30zm-33 1h20v5h-20z"/><path d="M262 65h40v121h-40z"/><path d="M227 66h75v4h-75zm0 4h9v86h-9zm10 0h4v12h-4zm5 0h60v1h-60zm-1 1h3v169h-3zm4 0h57v4h-57zM4 72h10v8H4z"/><path d="M236 72h66v3h-66zM32 73h177v1H32z"/><path d="M210 73h92v2h-92zM14 74h193v3H14z"/><path d="M208 74h94v1h-94zm-1 1h49v3h-49zm50 0h45v13h-45z"/><path d="M256 76h46v12h-46zM14 77h7v136h-7z"/><path d="M23 77h279v1H23zm-2 1h189v3H21zm191 0h90v4h-90z"/><path d="M210 79h92v3h-92zM4 80h5v11H4z"/><path d="M10 80h292v1H10zm-1 1h197v1H9zm199 0h94v1h-94zM9 82h3v158H9zm4 0h224v2H13zm225 0h64v6h-64z"/><path d="M12 83h290v1H12zm0 1h190v5H12zm192 0h98v2h-98zM2 85h1v1H2z"/><path d="M202 85h100v1H202zM3 86h201v3H3zm202 0h97v2h-97z"/><path d="M2 87h300v1H2zm0 1h257v1H2zm-1 1h79v2H1zm80 0h122v1H81zm123 0h98v22h-98z"/><path d="M0 90h201v1H0zm202 0h100v21H202zM0 91h7v1H0z"/><path d="M8 91h294v4H8zm-8 1h4v2H0z"/><path d="M5 92h297v3H5z"/><path d="M2 94h300v1H2zm-2 1h36v12H0zm37 0h265v4H37z"/><path d="M36 97h266v2H36zm0 2h3v18h-3zm4 0h262v6H40z"/><path d="M39 100h263v5H39zm0 5h100v1H39zm102 0h161v2H141zm-102 1h97v1H39zm99 0h1v12h-1zM0 107h4v1H0zm5 0h130v5H5z"/><path d="M137 107h2v1h-2zm3 0h3v1h-3zm5 0h157v1H145zM0 108h3v132H0zm4 0h131v4H4zm137 0h2v132h-2zm6 0h155v2H147z"/><path d="M3 109h134v2H3zm136 0h1v131h-1zm4 0h159v1H143z"/><path d="M137 110h56v2h-56zm57 0h108v1H194zM3 111h132v1H3z"/><path d="M136 111h112v1H136zm113 0h53v35h-53zM3 112h125v2H3zm126 0h6v5h-6zm7 0h1v4h-1zm4 0h108v8H140z"/><path d="M135 113h113v3H135zM3 114h30v10H3z"/><path d="M34 114h268v2H34z"/><path d="M33 115h269v1H33zm0 1h103v1H33zm104 0h165v2H137zm-104 1h4v123h-4zm5 0h95v3H38z"/><path d="M134 117h168v1H134zm-97 1h96v2H37zm97 0h4v13h-4zm114 0h54v28h-54z"/><path d="M133 119h169v1H133zm-96 1h92v5H37zm93 0h66v2h-66zm67 0h105v2H197z"/><path d="M129 121h173v1H129zm0 1h39v1h-39zm40 0h2v1h-2zm7 0h1v1h-1zm3 0h2v1h-2zm4 0h17v6h-17zm18 0h101v24H201zm-72 1h36v1h-36zm44 0h3v98h-3z"/><path d="M180 123h122v5H180zM3 124h22v89H3zm23 0h133v1H26zm138 0h3v69h-3z"/><path d="M168 124h134v4H168zm-143 1h28v24H25zm29 0h104v1H54z"/><path d="M159 125h143v3H159zm-106 1h42v2H53z"/><path d="M97 126h205v2H97zm-44 2h27v2H53zm30 0h4v1h-4zm8 0h4v1h-4zm6 0h34v1H97zm35 0h59v3h-59zm60 0h110v17H192zm-110 1h3v1h-3zm11 0h2v1h-2zm5 0h33v1H98z"/><path d="M191 129h111v16H191zm-138 1h19v73H53zm21 0h2v2h-2zm3 0h3v1h-3zm5 0h2v1h-2zm16 0h32v1H98z"/><path d="M131 130h171v1H131zm-59 1h4v1h-4zm7 0h1v1h-1zm4 0h1v1h-1zm17 0h1v1h-1zm5 0h25v1h-25zm26 0h4v3h-4zm5 0h166v4H136zm-64 1h3v1h-3zm21 0h2v14h-2zm4 0h1v1h-1z"/><path d="M107 132h195v2H107zm-34 1h2v1h-2zm12 0h1v107h-1zm2 0h1v107h-1zm3 0h1v41h-1zm2 0h4v13h-4zm6 0h2v27h-2z"/><path d="M101 133h201v1H101zm-29 1h2v26h-2zm3 0h3v28h-3zm7 0h51v8H82zm52 0h168v1H134z"/><path d="M74 135h4v27h-4zm5 0h54v7H79zm55 0h48v24h-48zm49 0h119v2H183z"/><path d="M78 136h224v1H78zm0 1h105v5H78zm107 0h117v7H185z"/><path d="M183 138h119v6H183zm-105 4h31v4H78zm32 0h22v59h-22z"/><path d="M133 142h169v2H133z"/><path d="M109 143h193v1H109zm0 1h79v15h-79zm81 0h112v1H190zm-2 1h9v4h-9zm10 0h104v1H198zm-120 1h16v28H78z"/><path d="M95 146h154v3H95zm155 0h52v40h-52z"/><path d="M94 147h208v2H94zm-69 2h22v60H25zm25 0h138v10H50zm140 0h112v7H190z"/><path d="M48 150h254v6H48z"/><path d="M47 151h255v5H47zm0 5h180v3H47zm181 0h74v11h-74z"/><path d="M227 157h75v10h-75zm-180 2h124v1H47z"/><path d="M172 159h130v1H172zm-125 1h26v43H47zm47 0h5v80h-5zm6 0h81v2h-81zm83 0h119v7H183z"/><path d="M73 161h108v1H73zm109 0h120v6H182zm-109 1h2v55h-2zm3 0h95v2H76z"/><path d="M172 162h130v5H172z"/><path d="M75 163h227v1H75zm0 1h76v10H75zm77 0h150v3H152z"/><path d="M151 165h151v2H151zm0 2h84v1h-84zm85 0h66v19h-66zm-85 1h41v16h-41z"/><path d="M193 168h109v1H193zm0 1h38v18h-38zm39 0h70v17h-70z"/><path d="M192 170h110v16H192zm-117 4h15v11H75z"/><path d="M91 174h211v10H91z"/><path d="M90 175h212v2H90zm0 3h212v6H90zm0 6h72v4H90zm73 0h139v2H163zm-88 1h14v31H75z"/><path d="M89 186h178v1H89zm179 0h34v20h-34zm-179 1h117v1H89zm118 0h60v3h-60zm-118 1h15v17H89z"/><path d="M105 188h197v2H105z"/><path d="M104 189h198v1H104zm0 1h127v1H104zm128 0h70v2h-70zm-128 1h98v2h-98z"/><path d="M203 191h99v1h-99zm-1 1h25v15h-25zm26 0h10v48h-10zm11 0h5v48h-5zm6 0h57v14h-57zm-141 1h59v5h-59z"/><path d="M165 193h79v1h-79zm-2 1h6v27h-6zm7 0h132v3H170z"/><path d="M169 195h133v1H169zm1 2h24v5h-24zm25 0h107v9H195zm-91 1h29v3h-29z"/><path d="M136 198h166v1H136zm-3 1h3v41h-3zm5 0h164v1H138zm-2 1h1v40h-1zm4 0h21v8h-21zm22 0h140v2H162zm-58 1h18v2h-18z"/><path d="M124 201h14v2h-14z"/><path d="M123 202h15v1h-15zm38 0h16v18h-16zm17 0h124v2H178zm-131 1h15v23H47zm16 0h58v2H63zm60 0h3v3h-3zm4 0h11v7h-11z"/><path d="M177 203h125v1H177zm-115 1h129v1H62zm131 0h109v1H193zm-131 1h40v10H62zm41 0h88v1h-88zm-1 1h5v34h-5zm6 0h16v1h-16zm17 0h75v2h-75zm76 0h86v1h-86zm90 0h11v34h-11zm-184 1h14v1h-14z"/><path d="M123 207h78v1h-78zm80 0h84v1h-84zm85 0h14v33h-14zm-181 1h12v11h-12zm13 0h35v1h-35zm36 0h46v10h-46z"/><path d="M204 208h98v13h-98zm-179 1h15v2H25zm19 0h77v6H44z"/><path d="M123 209h179v1H123zm-83 1h88v2H40zm89 0h173v1H129zm-104 1h6v29h-6z"/><path d="M37 211h93v1H37zm95 0h170v7H132zm-101 1h12v2H31zm90 0h8v28h-8z"/><path d="M130 212h172v6H130zM3 213h13v27H3z"/><path d="M18 213h284v1H18zm-2 1h24v26H16zm26 0h260v1H42zm-1 1h30v3H41zm48 0h213v3H89z"/><path d="M40 216h31v2H40zm32 0h6v1h-6zm7 0h223v2H79zm-8 1h3v1h-3zm4 0h1v23h-1z"/><path d="M77 217h225v1H77zm-37 1h30v1H40zm32 0h110v1H72zm111 0h119v1H183zm-143 1h27v1H40zm28 0h1v2h-1zm3 0h40v1H71zm41 0h70v1h-70zm73 0h117v2H185zm-145 1h26v6H40z"/><path d="M67 220h2v1h-2zm4 0h37v2H71zm38 0h2v20h-2zm3 0h64v1h-64zm65 0h2v1h-2zm3 0h2v2h-2zm-114 1h2v19h-2z"/><path d="M70 221h94v1H70zm95 0h10v2h-10zm13 0h4v1h-4zm7 0h79v1h-79zm80 0h37v19h-37zm-197 1h16v1H68zm18 0h77v1H86zm97 0h1v1h-1zm2 0h78v1h-78z"/><path d="M264 222h38v18h-38zm-196 1h15v2H68zm16 0h78v17H84zm83 0h8v1h-8zm14 0h1v2h-1zm4 0h71v4h-71z"/><path d="M257 223h45v17h-45zm-174 1h79v16H83zm85 0h6v1h-6zm8 0h2v1h-2zm4 0h4v1h-4z"/><path d="M256 224h46v16h-46zm-188 1h8v15h-8zm9 0h85v5H77zm92 0h4v1h-4zm7 0h1v1h-1zm3 0h2v1h-2z"/><path d="M184 225h118v2H184zm-144 1h16v3H40zm17 0h6v4h-6zm7 0h99v4H64zm106 0h2v1h-2zm9 0h1v1h-1z"/><path d="M182 226h120v1H182zm-119 1h101v3H63zm108 0h1v1h-1zm11 0h64v4h-64zm65 0h55v5h-55z"/><path d="M56 228h108v2H56zm124 0h122v2H180z"/><path d="M41 229h123v1H41zm124 0h1v1h-1zm13 0h124v1H178zm-138 1h20v1H40zm21 0h18v10H61zm19 0h85v10H80zm88 0h12v1h-12zm78 0h56v2h-56zm-206 1h19v5H40z"/><path d="M60 231h105v9H60zm108 0h4v1h-4zm5 0h6v1h-6zm11 0h118v1H184z"/><path d="M59 232h106v8H59zm109 0h2v8h-2zm3 0h7v3h-7zm8 0h1v8h-1zm6 0h65v8h-65zm66 0h51v8h-51z"/><path d="M170 233h12v1h-12zm80 0h52v7h-52zm-85 1h1v6h-1zm13 0h3v6h-3z"/><path d="M184 234h118v6H184zm-18 1h6v5h-6zm7 0h8v5h-8zm-133 1h5v4h-5z"/><path d="M46 236h256v4H46z"/><path d="M45 237h257v3H45z"/></g><g fill="#fff"><path d="M28 0h2v1h-2zm3 0h2v2h-2zm16 0h4v1h-4zm182 0h1v2h-1zm2 0h4v1h-4zm32 0h38v2h-38zM28 1h1v1h-1zm21 0h4v1h-4zm25 0h2v1h-2zm158 0h3v1h-3z"/><path d="M262 1h40v1h-40zM33 2h1v2h-1zm41 0h1v1h-1zm25 0h1v1h-1zm47 0h1v1h-1zm12 0h2v1h-2zm69 0h1v1h-1zm6 0h1v1h-1zm28 0h38v1h-38zM30 3h2v1h-2zm130 0h1v1h-1zm68 0h2v2h-2zm24 0h5v12h-5zm9 0h35v1h-35zM31 4h1v1h-1zm3 0h2v2h-2zm15 0h1v2h-1zm8 0h1v1h-1zm99 0h1v1h-1zm43 0h1v1h-1zm31 0h2v1h-2z"/><path d="M251 4h7v2h-7zm9 0h9v1h-9zm12 0h4v1h-4zm6 0h22v1h-22zM32 5h1v1h-1zm16 0h2v1h-2zm30 0h2v1h-2zm7 0h1v1h-1zm69 0h2v1h-2zm75 0h2v1h-2zm29 0h2v7h-2zm3 0h8v3h-8zm10 0h3v3h-3zm6 0h1v1h-1zm3 0h20v1h-20zM35 6h2v1h-2zm13 0h1v1h-1zm90 0h1v2h-1zm17 0h2v1h-2zm25 0h1v1h-1zm17 0h1v1h-1z"/><path d="M257 6h17v2h-17zm18 0h2v1h-2zm5 0h19v1h-19zM156 7h1v2h-1zm85 0h1v1h-1z"/><path d="M251 7h23v1h-23zm30 0h16v1h-16zM95 8h1v2h-1zm85 0h1v2h-1zm59 0h2v2h-2zm12 0h17v1h-17zm19 0h3v1h-3zm11 0h12v1h-12zm13 0h1v1h-1zM85 9h3v3h-3zm79 0h1v2h-1zm4 0h3v2h-3zm5 0h2v12h-2z"/><path d="M178 9h3v1h-3zm58 0h6v1h-6zm12 0h1v3h-1zm3 0h12v1h-12zm19 0h1v2h-1zm4 0h1v3h-1zm8 0h12v1h-12zm18 0h1v1h-1zM88 10h1v4h-1zm11 0h1v1h-1zm33 0h2v1h-2zm39 0h9v1h-9z"/><path d="M247 10h2v2h-2zm10 0h7v1h-7zm12 0h2v1h-2zm4 0h2v1h-2zm9 0h9v1h-9zm15 0h1v1h-1zM89 11h1v3h-1zm43 0h1v1h-1zm33 0h2v3h-2zm4 0h10v3h-10zm15 0h2v1h-2zm42 0h1v1h-1z"/><path d="M246 11h5v1h-5zm11 0h6v1h-6zm8 0h3v1h-3zm4 0h1v1h-1zm3 0h1v1h-1zm12 0h3v1h-3zm5 0h3v1h-3zm6 0h1v1h-1zM7 12h1v1H7zm79 0h4v2h-4zm81 0h12v1h-12zm17 0h1v1h-1zm19 0h1v3h-1zm3 0h1v2h-1zm31 0h6v3h-6zm7 0h4v1h-4zm6 0h9v1h-9zm10 0h2v1h-2zm8 0h1v2h-1zm17 0h2v2h-2zm11 0h1v1h-1zM5 13h1v1H5zm77 0h2v2h-2zm9 0h1v1h-1zm11 0h1v1h-1zm66 0h12v1h-12z"/><path d="M204 13h3v1h-3zm31 0h9v1h-9zm10 0h3v7h-3zm6 0h9v1h-9zm11 0h4v1h-4zm29 0h1v1h-1zm3 0h2v1h-2zM81 14h3v1h-3zm90 0h8v2h-8zm9 0h2v8h-2zm5 0h1v7h-1zm16 0h3v1h-3z"/><path d="M236 14h13v1h-13zm21 0h3v1h-3zM5 15h4v1H5zm83 0h2v1h-2zm91 0h3v7h-3zm4 0h3v6h-3zm17 0h2v3h-2zm21 0h1v1h-1zm17 0h11v1h-11zm15 0h4v3h-4zM9 16h1v1H9zm79 0h1v1h-1zm2 0h1v1h-1zm12 0h1v1h-1z"/><path d="M172 16h15v5h-15zm27 0h4v1h-4zm41 0h9v1h-9zm17 0h1v1h-1zm-67 1h1v1h-1zm8 0h4v1h-4zm45 0h7v2h-7zm21 0h1v1h-1zm32 0h1v2h-1zM2 18h7v1H2zm19 0h1v1h-1z"/><path d="M171 18h16v2h-16zm18 0h1v1h-1zm66 0h3v1h-3zm10 0h1v1h-1zm32 0h1v2h-1zM4 19h4v1H4zm16 0h1v1h-1zm66 0h2v1h-2zm118 0h3v29h-3zm40 0h4v1h-4zm5 0h1v1h-1zm3 0h2v2h-2z"/><path d="M201 20h7v25h-7zm43 0h1v1h-1zm7 0h7v1h-7zM84 21h2v2h-2zm4 0h2v2h-2zm86 0h10v1h-10z"/><path d="M198 21h11v23h-11zm21 0h1v4h-1zm22 0h1v1h-1zm2 0h1v2h-1zm3 0h1v2h-1zM83 22h3v1h-3zm7 0h1v1h-1zm89 0h1v1h-1z"/><path d="M196 22h14v22h-14zm22 0h3v2h-3zm6 0h1v2h-1zm18 0h5v1h-5zm7 0h1v1h-1zM82 23h3v1h-3zm6 0h1v1h-1z"/><path d="M194 23h16v21h-16zm17 0h1v1h-1zm12 0h2v1h-2zm16 0h1v1h-1zm6 0h1v1h-1zm6 0h2v1h-2z"/><path d="M189 24h22v16h-22zm27 0h1v1h-1zm5 0h2v1h-2zm4 0h2v1h-2z"/><path d="M187 25h27v12h-27zm30 0h1v1h-1zm3 0h1v2h-1zm2 0h4v3h-4zm18 0h1v1h-1zm15 0h1v1h-1zM20 26h1v1h-1zm68 0h2v3h-2zm60 0h1v3h-1z"/><path d="M184 26h32v8h-32zm37 0h5v2h-5zM69 27h1v1h-1zm75 0h2v3h-2zm5 0h1v2h-1z"/><path d="M179 27h39v2h-39zm47 0h1v2h-1zm26 0h1v1h-1zm-106 1h4v1h-4zm72 0h1v3h-1z"/><path d="M225 28h2v1h-2zm25 0h1v1h-1zm-107 1h5v1h-5zm37 0h39v1h-39zM68 30h1v1h-1zm80 0h3v1h-3zm33 0h38v1h-38zm67 0h1v1h-1zM67 31h1v2h-1zm82 0h1v1h-1zm34 0h35v1h-35zm63 0h2v1h-2zm-30 1h2v3h-2zm30 0h1v1h-1zM66 33h1v2h-1zm-34 1h1v1h-1z"/><path d="M185 34h33v1h-33zm59 0h1v1h-1zm-58 1h31v1h-31zm57 0h1v1h-1zM44 36h1v1h-1zm21 0h1v2h-1zm149 0h3v12h-3z"/><path d="M188 37h30v1h-30zm23 1h7v5h-7zM42 39h1v2h-1zm22 0h1v2h-1zm157 0h1v1h-1z"/><path d="M41 40h4v1h-4zm149 0h28v1h-28zm29 0h2v1h-2zm4 0h2v1h-2zM18 41h1v1h-1zm22 0h1v1h-1zm4 0h1v1h-1zm147 0h29v1h-29zm31 0h2v1h-2zM63 42h1v2h-1zm128 0h27v1h-27zm30 0h2v1h-2zM29 43h2v2h-2zm163 0h25v1h-25zm28 0h2v1h-2zM62 44h1v1h-1zm146 0h10v3h-10zm11 0h2v1h-2z"/><path d="M202 45h17v1h-17zm20 0h1v1h-1zm9 0h1v1h-1zm-29 1h16v1h-16zM15 47h2v1h-2zm188 0h14v1h-14zm16 0h1v2h-1zM16 48h1v1h-1zm189 0h10v1h-10zm12 0h1v4h-1zM19 49h2v1h-2z"/><path d="M206 49h13v1h-13zM20 50h1v1h-1zm191 0h8v1h-8zm14 0h1v5h-1zm-13 1h2v1h-2zm4 0h2v1h-2zm5 0h1v3h-1zm2 0h1v1h-1zm3 0h1v1h-1zm-40 1h2v1h-2z"/><path d="M224 52h2v3h-2zm-2 1h1v2h-1z"/><path d="M223 54h3v1h-3zm-7 1h1v1h-1zm3 0h1v1h-1zm5 0h1v4h-1zM64 58h1v1h-1zm156 0h1v1h-1zm2 1h2v1h-2zM32 60h1v1h-1zm181 0h1v1h-1zm9 0h1v2h-1zm17 0h1v3h-1zm17 0h1v2h-1z"/><path d="M221 61h2v1h-2zm0 1h1v1h-1zm6 0h1v2h-1zm44 2h1v1h-1zm-44 1h1v1h-1zm32 0h1v1h-1zm-23 5h1v2h-1zm5 0h1v1h-1zm3 1h1v1h-1zM14 72h1v2h-1zm195 1h1v1h-1zm-2 1h1v1h-1zm49 1h1v1h-1zM21 77h2v1h-2zm189 1h2v1h-2zM9 80h1v1H9zm197 1h2v1h-2zM12 82h1v1h-1zm225 0h1v1h-1zm-35 2h2v1h-2zM3 85h1v1H3zm-1 1h1v1H2zm202 0h1v1h-1zm55 2h1v1h-1zM0 89h1v1H0zm80 0h1v1h-1zm123 0h1v1h-1zm-2 1h1v1h-1zM7 91h1v1H7zm-3 1h1v2H4zm-4 2h2v1H0zm36 1h1v2h-1zm3 4h1v1h-1zm100 6h2v2h-2zm-3 1h2v1h-2zM4 107h1v1H4zm131 0h2v2h-2zm4 0h1v2h-1zm4 0h2v2h-2zM3 108h1v1H3zm134 0h1v2h-1zm3 0h1v2h-1zm5 0h2v1h-2zm48 2h1v1h-1zm-58 1h1v2h-1zm113 0h1v3h-1zm-120 1h1v2h-1zm9 0h1v1h-1zm-104 2h1v1h-1zm103 2h1v1h-1zm-99 1h1v1h-1zm96 0h1v2h-1zm5 1h1v1h-1zm-9 2h1v1h-1zm67 0h1v1h-1zm-28 2h1v2h-1zm3 0h5v1h-5zm6 0h2v2h-2zm4 0h2v1h-2zm19 0h1v1h-1z"/><path d="M165 123h8v1h-8zm11 0h4v1h-4zm-151 1h1v1h-1zm134 0h5v1h-5zm8 0h1v1h-1zm-114 1h1v1h-1zm105 0h1v1h-1zm-63 1h2v7h-2zm-15 2h3v1h-3zm7 0h4v5h-4zm44 0h1v2h-1zm60 0h1v1h-1zm-111 1h2v6h-2z"/><path d="M85 129h8v4h-8zm12 0h1v3h-1zm-25 1h2v1h-2zm4 0h1v4h-1z"/><path d="M84 130h14v2H84zm46 0h1v2h-1zm-53 1h2v3h-2zm5 0h1v3h-1zm16 0h2v2h-2zm3 0h4v2h-4zm34 0h1v1h-1z"/><path d="M75 132h18v1H75zm25 0h7v1h-7zm-28 1h1v1h-1zm3 0h10v1H75zm11 0h1v1h-1zm2 0h2v1h-2zm3 0h1v1h-1zm5 0h2v1h-2zm4 0h1v1h-1zm-26 1h1v1h-1zm4 0h4v1h-4zm55 0h1v2h-1zm-55 1h1v1h-1zm104 0h1v1h-1zm1 2h1v1h-1zm-74 5h1v1h-1zm23 0h1v1h-1zm56 2h1v1h-1zm9 1h1v1h-1zm-103 1h1v1h-1zm155 0h1v1h-1zm-202 3h3v1h-3zm141 0h1v1h-1zm-141 1h1v1h-1zm180 6h1v1h-1zm-56 3h1v1h-1zm-98 1h1v1h-1zm26 0h1v1h-1zm82 0h2v1h-2zm0 1h1v1h-1zm-106 1h1v1h-1zm96 0h1v1h-1zm-20 2h1v1h-1zm84 3h1v1h-1zm-43 1h1v2h-1zm39 1h1v1h-1zm-141 5h1v1h-1zm0 3h1v1h-1zm72 7h1v2h-1zm-73 1h1v1h-1zm178 1h1v2h-1zm-61 1h1v1h-1zm-102 1h1v1h-1zm127 2h1v1h-1zm-29 1h1v1h-1zm25 1h1v1h-1zm11 0h1v1h-1zm6 0h1v2h-1zm-81 1h2v1h-2zm6 1h1v1h-1zm0 2h1v2h-1zm25 1h1v1h-1zm-61 1h3v1h-3zm3 1h2v1h-2zm1 1h2v1h-2zm24 0h1v2h-1zm-39 1h2v1h-2zm16 0h1v3h-1zm-16 1h1v2h-1zm55 0h1v1h-1zm-115 1h1v1h-1z"/><path d="M121 203h2v1h-2zm5 0h1v1h-1zm65 1h2v2h-2zm-89 1h1v1h-1zm91 0h2v1h-2zm-86 1h1v1h-1zm17 0h1v1h-1zm76 0h1v1h-1zm87 0h2v1h-2zm-166 1h2v1h-2zm80 0h2v1h-2zm86 0h1v1h-1zm-168 1h1v1h-1zm36 0h1v1h-1zm47 0h2v1h-2zm-162 1h1v1h-1zm81 0h2v1h-2zm7 1h1v1h-1zm-97 1h2v1h-2zm99 0h2v1h-2zm-87 1h1v1h-1zm86 0h1v1h-1zm-113 1h2v1h-2zm24 1h2v1h-2zm0 1h1v1h-1zm31 0h2v1h-2zm0 1h1v1h-1zm7 0h1v1h-1zm-4 1h1v1h-1zm2 0h1v1h-1zm-6 1h2v1h-2zm112 0h1v6h-1zm-115 1h1v1h-1zm2 0h2v2h-2zm42 0h1v2h-1zm72 0h1v3h-1zm-117 1h1v1h-1zm42 0h1v1h-1zm68 0h1v4h-1zm3 0h1v1h-1zm-111 1h2v1h-2zm96 0h1v9h-1z"/><path d="M175 221h3v3h-3zm9 0h1v4h-1zm80 0h1v1h-1zm-180 1h1v1h-1zm79 0h2v5h-2zm15 0h5v1h-5zm85 0h1v1h-1zm-180 1h1v1h-1z"/><path d="M162 223h5v3h-5zm16 0h3v1h-3zm5 0h2v1h-2zm73 0h1v1h-1zm-89 1h1v11h-1zm7 0h2v6h-2zm4 0h2v1h-2zm-102 1h1v1h-1zm92 0h1v5h-1z"/><path d="M173 225h3v5h-3zm4 0h2v4h-2zm4 0h3v1h-3zm-125 1h1v2h-1zm7 0h1v1h-1zm102 0h5v3h-5z"/><path d="M172 226h7v3h-7zm8 0h2v2h-2zm-10 1h1v3h-1z"/><path d="M179 227h3v1h-3zm67 0h1v1h-1zm-75 1h9v1h-9zm-131 1h1v1h-1zm126 0h12v1h-12zm-106 1h1v1h-1zm19 0h1v1h-1zm86 0h3v4h-3zm15 0h2v3h-2zm-121 1h1v1h-1zm113 0h1v1h-1z"/><path d="M179 231h5v1h-5zm-9 1h1v1h-1zm8 0h1v1h-1zm4 0h3v2h-3zm68 0h1v1h-1zm-84 2h2v1h-2zm4 0h1v1h-1zm11 0h3v2h-3zm-9 1h1v1h-1zm-127 1h1v1h-1z"/></g></svg>