<svg xmlns="http://www.w3.org/2000/svg" width="302" height="240" baseProfile="tiny" viewBox="0 0 302 240"><g fill="#a96"><path d="M0 0h4v1H0zm14 0h1v3h-1zm15 0h1v2h-1zm30 0h1v1h-1zm16 0h4v1h-4zm15 0h1v1h-1zm53 0h1v3h-1zm4 0h4v1h-4zm24 0h1v2h-1zm57 0h2v1h-2zm5 0h1v1h-1zm2 0h3v1h-3zm27 0h1v1h-1zm38 0h2v1h-2zM0 1h2v1H0zm3 0h1v1H3zm23 0h1v1h-1zm5 0h1v1h-1zm9 0h1v1h-1zm9 0h4v1h-4zm21 0h6v1h-6zm8 0h2v1h-2zm8 0h1v1h-1zm60 0h4v1h-4zm83 0h1v1h-1zm2 0h1v1h-1zm4 0h1v1h-1zM0 2h1v1H0zm12 0h1v1h-1zm16 0h1v1h-1zm2 0h1v1h-1zm2 0h2v1h-2zm19 0h2v1h-2zm9 0h1v4h-1zm11 0h5v1h-5zm7 0h1v1h-1zm21 0h1v2h-1zm45 0h5v1h-5zm13 0h4v1h-4zm13 0h1v1h-1zm58 0h1v1h-1zm4 0h1v1h-1zm2 0h1v1h-1zm19 0h1v1h-1zm3 0h1v1h-1zm42 0h4v2h-4zM31 3h2v1h-2zm3 0h1v1h-1zm24 0h1v1h-1zm86 0h2v1h-2zm8 0h2v1h-2zm7 0h3v1h-3zm40 0h2v3h-2zm5 0h1v2h-1zm10 0h1v2h-1zm13 0h1v1h-1zm3 0h1v1h-1zm3 0h1v1h-1zm18 0h1v1h-1zm4 0h1v1h-1zm2 0h1v1h-1zm3 0h2v1h-2z"/><path d="M294 3h8v1h-8zM25 4h2v1h-2zm5 0h1v1h-1zm2 0h2v1h-2zm3 0h2v1h-2zm13 0h2v1h-2zm8 0h2v1h-2zm79 0h2v1h-2zm15 0h1v1h-1zm5 0h2v1h-2zm6 0h1v1h-1zm8 0h3v1h-3zm10 0h2v1h-2zm17 0h6v1h-6zm17 0h2v1h-2zm15 0h1v2h-1zm30 0h1v1h-1zm2 0h1v3h-1zm9 0h4v1h-4zm6 0h4v2h-4zm15 0h6v1h-6zm7 0h2v1h-2zm3 0h2v2h-2zM31 5h1v1h-1zm2 0h1v2h-1zm7 0h2v1h-2zm17 0h1v1h-1zm2 0h2v1h-2zm19 0h2v1h-2zm18 0h1v2h-1zm37 0h2v1h-2zm3 0h3v1h-3zm7 0h1v1h-1zm11 0h1v2h-1zm2 0h1v4h-1zm13 0h1v1h-1zm28 0h4v1h-4zm34 0h1v1h-1zm20 0h1v2h-1z"/><path d="M259 5h2v1h-2zm3 0h1v2h-1zm6 0h4v1h-4zm5 0h7v1h-7zm13 0h5v1h-5zm12 0h4v1h-4zM27 6h1v1h-1zm2 0h2v1h-2zm3 0h3v1h-3zm4 0h4v1h-4zm13 0h1v1h-1zm10 0h1v2h-1zm35 0h3v1h-3zm8 0h1v2h-1zm35 0h2v1h-2zm14 0h1v3h-1zm17 0h1v3h-1zm6 0h7v2h-7zm20 0h6v1h-6zm9 0h1v2h-1zm2 0h1v1h-1zm24 0h2v1h-2zm34 0h1v1h-1zm4 0h1v1h-1zm7 0h1v1h-1zm3 0h4v1h-4zm21 0h3v1h-3zM20 7h2v1h-2zm5 0h1v2h-1zm4 0h1v1h-1zm7 0h3v1h-3zm59 0h1v2h-1zm34 0h1v2h-1zm5 0h1v2h-1zm4 0h2v2h-2zm17 0h2v1h-2z"/><path d="M173 7h8v1h-8zm21 0h5v2h-5zm47 0h1v3h-1zm32 0h1v7h-1zm2 0h2v1h-2zm3 0h3v1h-3zm12 0h2v1h-2zm5 0h1v4h-1zm2 0h3v2h-3zM4 8h2v1H4zm81 0h1v1h-1zm11 0h3v1h-3zm37 0h2v1h-2zm33 0h5v1h-5zm6 0h1v2h-1zm7 0h2v1h-2z"/><path d="M192 8h7v1h-7zm12 0h1v1h-1zm34 0h4v1h-4zm6 0h1v2h-1zm4 0h1v2h-1zm2 0h1v1h-1zm16 0h4v1h-4zm6 0h2v6h-2zm3 0h1v4h-1zm6 0h1v1h-1zm12 0h7v1h-7zm8 0h1v4h-1zM0 9h1v1H0zm4 0h1v1H4zm4 0h4v2H8zm44 0h1v1h-1zm35 0h1v1h-1zm9 0h1v1h-1zm3 0h2v1h-2zm33 0h2v1h-2zm31 0h1v1h-1zm2 0h1v3h-1zm6 0h2v1h-2zm3 0h1v1h-1zm2 0h2v1h-2zm4 0h1v1h-1zm14 0h2v1h-2zm3 0h1v3h-1zm38 0h1v2h-1z"/><path d="M243 9h2v1h-2zm8 0h1v1h-1zm12 0h3v1h-3zm5 0h8v1h-8zm21 0h3v1h-3zm4 0h4v2h-4zm5 0h4v1h-4zM1 10h2v1H1zm48 0h1v1h-1zm40 0h1v1h-1zm4 0h1v1h-1zm4 0h1v1h-1zm5 0h1v1h-1zm2 0h1v2h-1zm27 0h1v1h-1zm2 0h1v3h-1zm31 0h2v1h-2zm13 0h1v1h-1zm8 0h1v5h-1zm51 0h1v1h-1zm11 0h1v1h-1zm2 0h1v1h-1zm15 0h4v1h-4zm5 0h7v2h-7zm13 0h1v1h-1zm5 0h2v3h-2z"/><path d="M290 10h9v1h-9zm10 0h2v2h-2zM8 11h3v2H8zm28 0h1v2h-1zm47 0h1v1h-1zm2 0h1v2h-1zm13 0h2v1h-2zm70 0h1v1h-1zm11 0h1v4h-1zm17 0h2v1h-2zm29 0h1v1h-1zm19 0h2v1h-2zm7 0h1v1h-1zm11 0h4v1h-4zm6 0h8v1h-8zm10 0h1v3h-1zm5 0h1v1h-1zm2 0h8v1h-8zm9 0h1v3h-1z"/><path d="M296 11h6v1h-6zM4 12h8v1H4zm86 0h3v1h-3zm12 0h2v2h-2zm30 0h2v1h-2zm46 0h2v1h-2zm6 0h2v3h-2zm12 0h1v1h-1zm7 0h3v1h-3zm23 0h2v1h-2zm9 0h3v1h-3zm6 0h2v1h-2zm3 0h1v1h-1zm4 0h2v1h-2zm10 0h5v1h-5zm9 0h1v3h-1zm2 0h6v1h-6zm15 0h1v1h-1zm2 0h14v1h-14zM4 13h5v1H4zm6 0h1v5h-1zm14 0h1v1h-1zm11 0h1v1h-1zm49 0h1v2h-1zm6 0h1v1h-1zm2 0h1v1h-1zm69 0h2v2h-2zm4 0h1v1h-1zm2 0h1v1h-1zm2 0h1v1h-1zm12 0h1v2h-1zm22 0h1v2h-1zm40 0h1v1h-1zm5 0h1v1h-1zm2 0h1v1h-1zm9 0h3v1h-3z"/><path d="M265 13h4v1h-4zm20 0h2v3h-2zm3 0h5v1h-5zm7 0h3v1h-3zM5 14h6v1H5zm11 0h2v1h-2zm65 0h1v1h-1zm6 0h2v1h-2zm4 0h1v1h-1zm9 0h2v1h-2zm37 0h1v3h-1zm10 0h2v1h-2zm24 0h1v1h-1zm9 0h6v1h-6zm20 0h1v1h-1zm2 0h4v1h-4zm9 0h1v1h-1zm20 0h1v1h-1zm13 0h1v1h-1zm7 0h1v1h-1zm5 0h1v2h-1zm3 0h2v2h-2zm7 0h2v1h-2zm6 0h1v3h-1zm5 0h1v1h-1zm14 0h2v1h-2zM3 15h3v1H3zm4 0h5v1H7zm10 0h1v1h-1zm70 0h1v2h-1zm2 0h2v1h-2zm11 0h1v1h-1zm2 0h3v1h-3z"/><path d="M136 15h2v2h-2zm12 0h1v1h-1zm14 0h1v1h-1zm20 0h2v1h-2zm17 0h1v1h-1zm3 0h1v2h-1zm10 0h1v1h-1zm8 0h1v1h-1zm17 0h2v1h-2zm18 0h3v1h-3zm6 0h2v2h-2zm27 0h2v1h-2zM6 16h5v1H6zm80 0h2v1h-2zm3 0h1v1h-1zm2 0h1v1h-1zm11 0h2v1h-2zm68 0h2v1h-2zm16 0h1v1h-1zm12 0h1v1h-1zm23 0h1v1h-1zm8 0h1v1h-1zm11 0h2v1h-2zm10 0h1v3h-1zm3 0h1v4h-1zm2 0h1v1h-1zm3 0h1v7h-1z"/><path d="M260 16h4v1h-4zm6 0h2v1h-2zm19 0h1v2h-1zm7 0h1v4h-1zm3 0h2v3h-2zM1 17h7v1H1zm147 0h1v1h-1zm23 0h2v1h-2zm16 0h1v1h-1zm3 0h1v2h-1zm11 0h1v1h-1zm41 0h1v1h-1zm7 0h2v1h-2zm5 0h1v3h-1zm2 0h6v2h-6zm7 0h2v2h-2zm4 0h1v1h-1zm26 0h1v3h-1zm4 0h1v4h-1zM1 18h1v1H1zm6 0h2v2H7zm13 0h2v2h-2zm63 0h2v1h-2zm7 0h1v1h-1zm81 0h1v1h-1zm27 0h2v1h-2z"/><path d="M252 18h14v1h-14zm17 0h1v9h-1zm3 0h1v4h-1zm4 0h1v3h-1zm22 0h1v8h-1zm3 0h1v5h-1zM3 19h3v1H3zm24 0h1v2h-1zm8 0h1v3h-1zm51 0h1v1h-1zm101 0h1v1h-1zm16 0h1v1h-1zm3 0h1v1h-1zm37 0h1v1h-1zm4 0h3v1h-3zm4 0h10v1h-10zm12 0h1v1h-1zm3 0h2v5h-2z"/><path d="M270 19h10v1h-10zm26 0h3v1h-3zm4 0h2v2h-2zM20 20h1v1h-1zm2 0h1v1h-1zm12 0h3v1h-3zm53 0h2v1h-2zm84 0h1v1h-1zm15 0h1v1h-1zm14 0h1v1h-1zm8 0h1v1h-1zm32 0h1v1h-1zm4 0h3v3h-3zm4 0h4v1h-4zm9 0h5v3h-5zm8 0h14v1h-14zM2 21h1v1H2zm34 0h1v1h-1zm6 0h2v1h-2zm5 0h1v3h-1zm36 0h1v1h-1zm5 0h2v1h-2zm6 0h1v2h-1zm90 0h2v1h-2zm13 0h1v1h-1zm12 0h1v1h-1zm8 0h5v1h-5z"/><path d="M241 21h9v1h-9zm11 0h1v1h-1zm2 0h22v1h-22zm23 0h1v1h-1zm4 0h2v1h-2zM42 22h1v1h-1zm40 0h1v1h-1zm5 0h1v2h-1zm3 0h1v1h-1zm86 0h6v1h-6zm19 0h1v1h-1zm16 0h1v4h-1zm6 0h1v1h-1zm3 0h5v1h-5zm17 0h3v1h-3zm4 0h1v1h-1zm7 0h2v3h-2zm14 0h10v1h-10zm11 0h1v2h-1zm15 0h1v2h-1zM22 23h5v1h-5zm16 0h1v1h-1zm10 0h1v1h-1zm36 0h2v1h-2zm4 0h2v1h-2zm78 0h1v2h-1zm27 0h1v1h-1z"/><path d="M210 23h2v1h-2zm8 0h1v1h-1zm2 0h2v2h-2zm3 0h2v3h-2zm3 0h1v1h-1zm12 0h2v1h-2zm4 0h1v1h-1zm2 0h1v1h-1zm6 0h4v2h-4zm9 0h12v1h-12zm40 0h1v5h-1zM21 24h2v1h-2zm4 0h1v1h-1zm3 0h1v2h-1zm60 0h1v2h-1zm77 0h2v1h-2zm23 0h3v1h-3zm24 0h2v2h-2zm4 0h2v1h-2z"/><path d="M219 24h7v1h-7zm21 0h1v2h-1zm14 0h1v4h-1zm2 0h4v1h-4zm7 0h4v1h-4zm5 0h3v1h-3zm32 0h2v1h-2zM20 25h2v1h-2zm18 0h1v1h-1zm9 0h3v1h-3zm42 0h1v1h-1zm97 0h1v1h-1zm29 0h1v1h-1zm2 0h1v1h-1zm4 0h6v1h-6z"/><path d="M239 25h2v1h-2zm7 0h3v1h-3zm5 0h7v1h-7zm16 0h3v1h-3zm27 0h1v1h-1zM19 26h2v1h-2zm15 0h1v4h-1zm12 0h2v1h-2zm24 0h1v1h-1zm17 0h1v2h-1zm57 0h1v2h-1zm4 0h1v1h-1zm34 0h2v1h-2zm34 0h1v1h-1zm2 0h1v1h-1zm2 0h1v1h-1zm4 0h4v1h-4zm20 0h1v1h-1zm3 0h10v1h-10zm11 0h1v1h-1zM69 27h1v2h-1z"/><path d="M86 27h2v1h-2zm60 0h2v1h-2zm25 0h2v1h-2zm7 0h1v1h-1zm39 0h1v1h-1zm4 0h1v1h-1zm2 0h1v2h-1zm2 0h3v1h-3zm8 0h1v1h-1zm9 0h1v1h-1zm6 0h7v1h-7zM86 28h1v1h-1zm2 0h1v1h-1zm55 0h1v1h-1zm31 0h1v1h-1zm5 0h1v2h-1zm40 0h1v5h-1z"/><path d="M222 28h5v1h-5zm17 0h1v1h-1zm6 0h8v1h-8zm55 0h1v2h-1zM42 29h1v1h-1zm3 0h2v1h-2zm19 0h2v1h-2zm4 0h1v2h-1zm79 0h3v1h-3zm33 0h1v2h-1zm46 0h1v1h-1zm11 0h1v1h-1zm6 0h9v1h-9zm11 0h1v1h-1zm47 0h1v1h-1zM49 30h1v1h-1zm15 0h1v1h-1z"/><path d="M67 30h2v1h-2zm25 0h1v2h-1zm51 0h6v1h-6zm7 0h1v2h-1zm67 0h3v3h-3zm28 0h7v1h-7zm15 0h2v2h-2zM67 31h1v2h-1zm75 0h3v1h-3z"/><path d="M146 31h5v1h-5zm28 0h2v1h-2zm7 0h2v1h-2zm54 0h1v1h-1zm9 0h5v1h-5zm6 0h2v1h-2zm17 0h1v1h-1zm21 0h2v1h-2zm6 0h1v1h-1zM34 32h1v1h-1zm32 0h2v1h-2zm117 0h1v1h-1zm37 0h1v2h-1zm22 0h1v1h-1zm2 0h4v1h-4zm5 0h1v1h-1zm39 0h1v1h-1zm4 0h2v1h-2zm6 0h1v2h-1zM32 33h1v2h-1zm9 0h1v1h-1zm3 0h1v4h-1zm22 0h1v1h-1zm152 0h1v2h-1zm20 0h3v2h-3zm6 0h3v1h-3zm47 0h2v1h-2z"/><path d="M297 33h2v1h-2zM24 34h1v2h-1zm9 0h1v2h-1zm151 0h1v1h-1zm33 0h2v1h-2zm17 0h2v1h-2zm9 0h3v1h-3zm5 0h1v1h-1zm43 0h1v1h-1zm5 0h2v1h-2z"/><path d="M23 35h2v1h-2zm11 0h2v1h-2zm9 0h4v1h-4zm22 0h2v1h-2zm43 0h1v1h-1zm77 0h1v1h-1zm31 0h1v2h-1zm19 0h2v1h-2zm7 0h3v1h-3zm48 0h1v2h-1zm11 0h1v2h-1zM20 36h1v1h-1zm15 0h1v1h-1zm8 0h3v1h-3zm6 0h3v1h-3zm137 0h1v1h-1zm31 0h2v2h-2zm17 0h2v1h-2zm7 0h3v1h-3zm56 0h1v2h-1z"/><path d="M300 36h2v1h-2zM50 37h2v1h-2zm14 0h2v3h-2zm123 0h1v1h-1zm45 0h2v1h-2zm3 0h7v1h-7zm8 0h1v1h-1zm53 0h2v1h-2zm4 0h1v1h-1zM28 38h2v1h-2zm14 0h1v1h-1zm133 0h1v1h-1zm10 0h1v1h-1zm3 0h1v2h-1zm30 0h1v1h-1zm13 0h1v1h-1zm8 0h3v2h-3zm43 0h1v1h-1zm5 0h1v1h-1zm9 0h1v1h-1zM8 39h1v1H8zm3 0h1v2h-1zm16 0h2v1h-2zm14 0h1v1h-1zm2 0h1v1h-1zm177 0h3v1h-3zm10 0h1v3h-1zm54 0h1v1h-1zM18 40h1v4h-1zm19 0h1v1h-1zm3 0h1v2h-1zm2 0h1v2h-1zm2 0h1v2h-1zm145 0h1v1h-1zm29 0h2v1h-2zm3 0h4v1h-4z"/><path d="M229 40h2v2h-2zm9 0h2v2h-2zm48 0h1v1h-1zM1 41h1v1H1zm15 0h4v1h-4zm22 0h7v1h-7zm25 0h2v1h-2zm127 0h1v1h-1zm27 0h1v1h-1zm3 0h2v11h-2z"/><path d="M228 41h3v1h-3zm46 0h1v1h-1zm6 0h1v1h-1zm5 0h1v2h-1zM17 42h3v1h-3zm13 0h1v4h-1zm8 0h2v3h-2zm25 0h1v2h-1zm128 0h1v2h-1zm25 0h1v3h-1zm2 0h4v10h-4zm5 0h1v1h-1zm2 0h5v1h-5zm6 0h1v4h-1zm6 0h1v3h-1zm20 0h1v1h-1zM15 43h1v1h-1zm4 0h1v1h-1zm4 0h2v1h-2zm5 0h1v1h-1z"/><path d="M62 43h2v1h-2zm38 0h1v2h-1zm92 0h1v1h-1zm7 0h1v1h-1zm16 0h8v2h-8zm9 0h5v1h-5zm8 0h1v3h-1zm6 0h1v1h-1zm14 0h1v1h-1zm4 0h1v2h-1zm7 0h1v1h-1zm9 0h1v3h-1zm12 0h1v1h-1zM23 44h1v1h-1zm39 0h1v1h-1z"/><path d="M99 44h2v1h-2zm82 0h1v2h-1zm12 0h5v1h-5zm7 0h1v1h-1zm23 0h5v1h-5zm7 0h3v2h-3zm45 0h1v1h-1zm6 0h1v1h-1zM29 45h2v1h-2zm3 0h1v1h-1zm4 0h1v1h-1zm25 0h1v1h-1zm36 0h1v4h-1zm85 0h1v2h-1zm19 0h1v1h-1zm16 0h10v1h-10zm19 0h1v2h-1zm8 0h1v1h-1zm7 0h1v2h-1zm4 0h1v1h-1zm6 0h2v2h-2zm15 0h2v1h-2zm4 0h1v1h-1zM16 46h2v1h-2zm4 0h1v2h-1zm3 0h1v2h-1zm37 0h1v1h-1zm123 0h1v1h-1zm15 0h1v1h-1zm4 0h1v1h-1zm14 0h10v4h-10z"/><path d="M260 46h3v1h-3zm16 0h1v2h-1zm3 0h1v2h-1zM14 47h2v1h-2zm3 0h1v3h-1zm48 0h2v1h-2zm138 0h1v1h-1zm24 0h1v3h-1zm34 0h1v3h-1z"/><path d="M275 47h2v1h-2zm3 0h2v1h-2zm23 0h1v1h-1zM16 48h4v1h-4zm5 0h2v1h-2zm14 0h1v1h-1zm31 0h1v1h-1zm28 0h1v1h-1zm90 0h1v3h-1zm20 0h1v1h-1zm11 0h13v2h-13zm20 0h1v2h-1zm7 0h1v1h-1zm17 0h1v5h-1zm15 0h2v1h-2zm4 0h1v1h-1zm22 0h1v1h-1zM11 49h1v1h-1zm7 0h4v1h-4zm18 0h1v1h-1zm28 0h1v2h-1zm77 0h1v2h-1zm64 0h2v1h-2z"/><path d="M214 49h14v1h-14zm46 0h2v1h-2zm15 0h1v1h-1zm2 0h1v2h-1zm22 0h1v1h-1zM19 50h3v1h-3zm5 0h1v1h-1zm63 0h1v1h-1zm120 0h5v1h-5zm7 0h1v2h-1zm2 0h1v3h-1zm6 0h5v2h-5zm10 0h1v1h-1zm2 0h1v2h-1zm26 0h1v2h-1zm8 0h1v1h-1zm12 0h1v1h-1zm9 0h1v1h-1zm3 0h1v1h-1zm6 0h1v1h-1zM16 51h2v2h-2zm4 0h2v1h-2zm7 0h1v1h-1z"/><path d="M211 51h6v1h-6zm56 0h1v2h-1zm6 0h1v2h-1zm6 0h1v1h-1zm18 0h1v2h-1zM7 52h4v1H7zm179 0h5v1h-5zm31 0h4v7h-4zm5 0h3v8h-3zm4 0h1v6h-1zm5 0h1v3h-1zm27 0h2v1h-2z"/><path d="M266 52h2v1h-2zm6 0h2v1h-2zM26 53h1v2h-1zm17 0h1v2h-1zm26 0h1v1h-1zm26 0h1v4h-1zm126 0h8v2h-8zm14 0h2v1h-2zm30 0h2v2h-2zm31 0h1v1h-1z"/><path d="M42 54h2v1h-2zm174 0h16v1h-16zm19 0h1v2h-1zm24 0h1v1h-1zm16 0h1v1h-1zm12 0h1v1h-1zm12 0h1v1h-1zM8 55h1v1H8zm34 0h1v1h-1zm54 0h1v9h-1zm119 0h13v1h-13z"/><path d="M233 55h3v1h-3zm10 0h1v3h-1zm10 0h2v2h-2zm3 0h1v1h-1zm9 0h1v1h-1zm4 0h1v1h-1zm8 0h1v1h-1zm3 0h1v4h-1zm4 0h1v1h-1zm2 0h1v1h-1zM16 56h1v1h-1zm50 0h2v1h-2zm150 0h12v1h-12zm16 0h2v1h-2zm17 0h1v2h-1zm8 0h1v3h-1zm7 0h1v5h-1zm6 0h1v1h-1zm22 0h2v2h-2zM67 57h2v1h-2zm148 0h12v1h-12zm17 0h1v2h-1z"/><path d="M248 57h2v1h-2zm8 0h2v1h-2zm7 0h2v3h-2zm16 0h2v2h-2zm10 0h1v1h-1zm2 0h3v1h-3zM26 58h1v1h-1zm38 0h2v2h-2zm4 0h1v2h-1zm25 0h2v1h-2zm121 0h2v3h-2zm7 0h5v1h-5zm7 0h1v2h-1zm31 0h1v1h-1z"/><path d="M262 58h3v2h-3zm7 0h1v1h-1zm23 0h1v2h-1zM29 59h1v1h-1zm4 0h2v1h-2zm44 0h1v1h-1zm13 0h1v1h-1zm122 0h8v1h-8zm13 0h1v1h-1zm2 0h2v1h-2zm8 0h1v3h-1zm4 0h1v6h-1zm19 0h1v1h-1zm23 0h1v1h-1zm6 0h1v1h-1zm7 0h2v1h-2zM32 60h2v2h-2zm180 0h5v1h-5zm6 0h1v2h-1zm3 0h1v5h-1zm2 0h1v3h-1zm3 0h2v1h-2z"/><path d="M238 60h3v5h-3zm10 0h2v1h-2zm7 0h2v3h-2zm31 0h1v1h-1zm5 0h1v1h-1zm2 0h2v1h-2zM20 61h2v1h-2zm14 0h1v3h-1zm177 0h3v1h-3zm11 0h2v2h-2zm5 0h1v5h-1zm5 0h1v1h-1z"/><path d="M236 61h5v1h-5zm21 0h1v1h-1zm2 0h1v2h-1zm7 0h1v2h-1zm5 0h1v4h-1zm5 0h2v1h-2zm9 0h1v1h-1zm8 0h1v2h-1zM21 62h2v1h-2zm191 0h1v9h-1zm3 0h3v1h-3zm5 0h4v1h-4zm8 0h1v2h-1zm8 0h1v4h-1zm7 0h1v1h-1zm11 0h3v1h-3zm9 0h1v1h-1zm4 0h2v1h-2zm5 0h1v1h-1zm8 0h1v2h-1zm3 0h1v1h-1z"/><path d="M292 62h2v1h-2zM18 63h2v1h-2zm6 0h1v1h-1zm33 0h1v1h-1zm38 0h2v1h-2zm5 0h1v1h-1zm49 0h1v1h-1zm62 0h2v1h-2zm4 0h2v1h-2zm5 0h2v2h-2zm17 0h4v1h-4zm17 0h1v1h-1zm2 0h1v1h-1zm12 0h4v2h-4zM19 64h2v1h-2zm96 0h1v2h-1zm3 0h1v3h-1zm98 0h1v4h-1zm9 0h3v1h-3zm34 0h2v3h-2z"/><path d="M267 64h5v1h-5zm17 0h1v2h-1zM18 65h1v3h-1zm7 0h1v2h-1zm2 0h1v1h-1zm66 0h1v1h-1zm122 0h4v1h-4zm5 0h1v4h-1zm3 0h1v1h-1zm3 0h3v1h-3zm6 0h2v1h-2zm8 0h1v3h-1zm26 0h3v1h-3zm35 0h1v1h-1z"/><path d="M24 66h2v1h-2zm7 0h1v1h-1zm60 0h2v1h-2zm22 0h1v1h-1zm26 0h1v1h-1zm74 0h5v2h-5zm8 0h1v1h-1zm3 0h1v8h-1zm4 0h1v2h-1zm9 0h1v1h-1zm28 0h3v1h-3zM27 67h1v1h-1zm5 0h1v2h-1zm26 0h1v3h-1zm19 0h1v1h-1zm7 0h1v1h-1zm54 0h1v2h-1z"/><path d="M211 67h7v1h-7zm14 0h1v1h-1zm31 0h1v2h-1zm6 0h1v2h-1zm4 0h1v1h-1zm3 0h2v1h-2zm22 0h2v1h-2zm8 0h1v1h-1zM52 68h2v1h-2zm4 0h1v7h-1zm16 0h1v1h-1zm2 0h2v1h-2zm4 0h1v1h-1zm31 0h2v1h-2zm94 0h2v1h-2zm7 0h6v3h-6zm11 0h4v1h-4zm8 0h1v1h-1zm4 0h3v2h-3zm5 0h2v2h-2zm6 0h1v6h-1zm25 0h1v3h-1zm23 0h1v1h-1zM57 69h4v1h-4zm17 0h1v1h-1z"/><path d="M208 69h11v2h-11zm13 0h2v1h-2zm22 0h4v1h-4zm25 0h3v1h-3zM32 70h1v1h-1zm25 0h1v3h-1zm3 0h1v1h-1zm163 0h2v1h-2zm3 0h3v1h-3zm7 0h1v1h-1zm2 0h2v1h-2zm5 0h3v1h-3zm6 0h1v1h-1zm17 0h1v1h-1zm5 0h2v1h-2zm4 0h1v2h-1zm15 0h1v2h-1zM58 71h1v1h-1zm4 0h1v1h-1zm2 0h1v1h-1zm2 0h1v1h-1zm32 0h1v1h-1zm109 0h4v1h-4zm6 0h2v2h-2zm4 0h5v1h-5zm8 0h1v4h-1zm2 0h4v2h-4zm9 0h3v1h-3zm4 0h2v1h-2zm3 0h2v2h-2zm13 0h1v1h-1zm11 0h1v1h-1zm7 0h2v3h-2zM13 72h2v3h-2zm61 0h2v2h-2zm134 0h3v2h-3z"/><path d="M212 72h3v1h-3zm5 0h2v1h-2zm4 0h5v2h-5zm10 0h1v1h-1zm11 0h3v1h-3zm8 0h2v1h-2zm5 0h1v1h-1zm16 0h1v2h-1zm5 0h2v2h-2zm5 0h1v1h-1zM15 73h1v2h-1zm40 0h2v2h-2zm7 0h2v1h-2zm21 0h1v1h-1zm124 0h4v1h-4zm5 0h2v1h-2z"/><path d="M218 73h10v1h-10zm30 0h1v1h-1zm5 0h2v1h-2zm6 0h4v1h-4zm5 0h14v1h-14zm18 0h2v1h-2zm4 0h1v1h-1zM20 74h1v1h-1zm10 0h1v4h-1zm147 0h1v2h-1zm30 0h3v1h-3zm8 0h4v2h-4zm5 0h3v1h-3zm6 0h1v1h-1zm20 0h2v1h-2zm10 0h5v1h-5zm6 0h1v2h-1zm2 0h6v1h-6zm8 0h2v1h-2zm4 0h1v1h-1zm9 0h1v1h-1zm6 0h1v2h-1zM18 75h1v2h-1zm189 0h2v1h-2z"/><path d="M211 75h8v1h-8zm34 0h1v1h-1zm10 0h2v1h-2zm3 0h3v1h-3zm6 0h2v1h-2zm3 0h3v3h-3zm5 0h1v1h-1zM11 76h2v1h-2zm5 0h6v1h-6zm7 0h2v1h-2zm186 0h5v1h-5zm7 0h1v1h-1zm13 0h1v1h-1zm2 0h1v1h-1zm10 0h1v1h-1zm3 0h1v1h-1zm4 0h2v1h-2zm8 0h1v7h-1zm3 0h2v10h-2zm6 0h1v2h-1zm5 0h1v2h-1zm3 0h1v2h-1zm2 0h1v2h-1zm7 0h1v1h-1zM20 77h4v1h-4zm11 0h1v1h-1zm179 0h2v2h-2zm37 0h1v1h-1zm29 0h1v1h-1zM26 78h1v1h-1zm178 0h1v14h-1z"/><path d="M209 78h4v1h-4zm5 0h1v1h-1zm3 0h1v1h-1zm21 0h1v5h-1zm4 0h1v2h-1zm4 0h1v1h-1zm17 0h1v4h-1zm4 0h2v1h-2zm10 0h1v1h-1zM7 79h4v1H7zm59 0h1v1h-1zm139 0h1v11h-1zm5 0h1v2h-1zm35 0h1v1h-1zm21 0h1v2h-1zm2 0h1v2h-1zm6 0h1v1h-1zM8 80h3v1H8zm6 0h2v1h-2zm12 0h2v1h-2z"/><path d="M203 80h9v1h-9zm27 0h1v1h-1zm11 0h1v1h-1zm3 0h1v1h-1zm23 0h2v1h-2zM12 81h2v3h-2zm13 0h2v1h-2zm37 0h1v1h-1zm140 0h8v1h-8zm35 0h2v2h-2zm6 0h1v1h-1zm12 0h2v2h-2z"/><path d="M10 82h4v2h-4zm6 0h1v1h-1zm3 0h1v2h-1zm2 0h1v1h-1zm4 0h1v1h-1zm116 0h2v1h-2zm62 0h3v4h-3zm6 0h3v1h-3zm31 0h1v1h-1zM0 83h1v3H0zm17 0h1v1h-1zm3 0h1v1h-1zm31 0h1v1h-1zm149 0h2v2h-2zm8 0h3v1h-3zm4 0h1v2h-1zm17 0h1v2h-1zm8 0h1v1h-1zm18 0h1v8h-1zm12 0h1v1h-1zm9 0h1v2h-1zM3 84h2v3H3zm7 0h2v1h-2z"/><path d="M202 84h8v1h-8zm28 0h1v1h-1zm9 0h1v2h-1zm3 0h1v1h-1zm22 0h1v1h-1zm4 0h1v1h-1zM1 85h4v2H1zm21 0h2v1h-2zm110 0h1v1h-1zm70 0h7v1h-7zm69 0h1v1h-1zM5 86h2v2H5zm7 0h1v1h-1zm6 0h3v1h-3zm29 0h1v1h-1zm42 0h2v1h-2zm112 0h2v1h-2zm5 0h2v1h-2zm53 0h1v5h-1zm13 0h1v2h-1zM1 87h1v3H1zm6 0h4v1H7zm11 0h1v1h-1zm2 0h2v1h-2zm16 0h1v1h-1zm170 0h1v1h-1zm35 0h1v3h-1zm19 0h1v1h-1zm8 0h2v1h-2z"/><path d="M0 88h3v1H0zm7 0h2v5H7zm8 0h2v1h-2zm19 0h1v4h-1zm14 0h1v1h-1zm32 0h1v3h-1zm123 0h3v2h-3zm61 0h1v1h-1zm4 0h1v1h-1zm9 0h1v1h-1zM0 89h2v1H0zm10 0h2v1h-2zm48 0h1v1h-1z"/><path d="M79 89h2v2h-2zm14 0h1v1h-1zm108 0h5v1h-5zm7 0h1v1h-1zM0 90h1v8H0zm11 0h2v1h-2zm6 0h1v1h-1zm18 0h1v6h-1zm56 0h1v1h-1zm110 0h4v1h-4zm28 0h1v1h-1zm35 0h1v3h-1zM2 91h2v9H2zm4 0h4v2H6zm6 0h1v2h-1zm72 0h1v1h-1zm47 0h1v5h-1zm69 0h2v1h-2zm3 0h2v1h-2zm6 0h1v1h-1zm3 0h1v3h-1zm56 0h1v1h-1z"/><path d="M1 92h10v1H1zm12 0h1v3h-1zm15 0h2v2h-2zm61 0h1v2h-1zm74 0h1v3h-1zm29 0h1v2h-1zm11 0h1v1h-1zm3 0h1v1h-1zm5 0h2v1h-2zM1 93h6v2H1zm8 0h2v1H9zm5 0h3v1h-3zm42 0h2v1h-2z"/><path d="M162 93h2v2h-2zm38 0h1v1h-1zm5 0h1v1h-1zm9 0h1v1h-1zM14 94h2v1h-2zm15 0h1v4h-1zm2 0h1v1h-1zm5 0h1v7h-1zm8 0h2v1h-2zm13 0h1v1h-1zm29 0h1v1h-1zm6 0h1v1h-1zm13 0h1v2h-1zm29 0h1v2h-1zm54 0h2v1h-2zm14 0h1v1h-1zm7 0h1v1h-1zM1 95h5v1H1zm25 0h1v1h-1z"/><path d="M32 95h5v1h-5zm12 0h1v1h-1zm16 0h1v1h-1zm5 0h2v1h-2zm18 0h3v2h-3zm21 0h2v1h-2zm68 0h1v1h-1zm21 0h2v1h-2zm15 0h1v1h-1zm3 0h1v2h-1zM1 96h4v1H1zm9 0h2v1h-2zm6 0h1v1h-1zm7 0h2v1h-2zm5 0h2v2h-2zm5 0h2v1h-2zm25 0h1v3h-1zm7 0h1v3h-1zm3 0h1v2h-1zm18 0h2v1h-2zm4 0h1v1h-1zm14 0h1v1h-1zm22 0h1v1h-1zm60 0h2v1h-2zm3 0h1v2h-1zm3 0h2v2h-2zm5 0h1v1h-1zm9 0h2v1h-2zM1 97h3v1H1zm4 0h2v1H5zm7 0h2v1h-2zm13 0h1v2h-1zm12 0h1v4h-1zm7 0h1v1h-1zm25 0h1v2h-1zm11 0h2v1h-2zm4 0h1v1h-1zm47 0h2v1h-2zm65 0h1v1h-1zm4 0h2v1h-2zm6 0h1v1h-1zm4 0h1v2h-1zM6 98h1v1H6z"/><path d="M24 98h2v1h-2zm18 0h1v1h-1zm18 0h1v1h-1zm21 0h2v1h-2zm42 0h2v1h-2zm8 0h1v3h-1zm57 0h1v2h-1zm5 0h3v2h-3zm9 0h1v2h-1zm7 0h2v1h-2zM8 99h2v1H8zm18 0h3v1h-3zm12 0h3v1h-3zm6 0h1v2h-1zm38 0h1v1h-1zm4 0h1v1h-1zm8 0h1v2h-1zm31 0h3v1h-3zm38 0h1v1h-1zm18 0h1v1h-1z"/><path d="M201 99h2v1h-2zm6 0h2v1h-2zM2 100h1v2H2zm7 0h3v1H9zm26 0h3v1h-3zm8 0h2v1h-2zm79 0h1v1h-1zm8 0h2v1h-2zm34 0h1v3h-1zm26 0h1v3h-1zm2 0h2v1h-2zm9 0h1v1h-1z"/><path d="M1 101h2v1H1zm10 0h1v4h-1zm3 0h1v2h-1zm10 0h1v1h-1zm19 0h1v2h-1zm40 0h4v1h-4zm12 0h1v1h-1zm35 0h1v1h-1zm55 0h1v2h-1zm6 0h2v2h-2z"/><path d="M10 102h2v2h-2zm9 0h3v1h-3zm64 0h3v1h-3zm62 0h1v1h-1zm21 0h1v2h-1zm15 0h2v2h-2zm8 0h7v1h-7z"/><path d="M9 103h3v1H9zm26 0h2v1h-2zm4 0h2v2h-2zm48 0h1v2h-1zm6 0h1v2h-1zm60 0h1v1h-1zm7 0h2v1h-2zm29 0h1v1h-1zm7 0h2v1h-2zm6 0h1v1h-1zm-190 1h1v1h-1zm23 0h1v3h-1z"/><path d="M88 104h7v1h-7zm13 0h1v1h-1zm33 0h1v1h-1zm6 0h1v7h-1zm2 0h1v1h-1zm5 0h1v1h-1zm7 0h1v4h-1zm20 0h1v1h-1zm12 0h2v2h-2zm4 0h2v1h-2zm3 0h1v1h-1zm3 0h1v1h-1zm9 0h1v1h-1zm-195 1h1v1h-1zm23 0h3v2h-3zm48 0h1v2h-1zm7 0h3v1h-3zm32 0h1v2h-1zm17 0h1v1h-1z"/><path d="M139 105h3v5h-3zm6 0h1v1h-1zm10 0h1v1h-1zm20 0h1v1h-1zm13 0h2v1h-2zm16 0h1v1h-1zM3 106h2v3H3zm6 0h1v1H9zm11 0h1v1h-1zm16 0h1v2h-1zm52 0h2v1h-2zm47 0h2v1h-2z"/><path d="M138 106h4v4h-4zm6 0h1v8h-1zm29 0h2v1h-2zm13 0h1v2h-1zm7 0h1v1h-1zm3 0h1v1h-1zm-163 1h1v1h-1zm4 0h1v1h-1zm2 0h1v1h-1zm9 0h1v1h-1zm42 0h1v1h-1zm5 0h1v1h-1zm24 0h1v1h-1zm15 0h2v2h-2z"/><path d="M137 107h10v2h-10zm15 0h4v1h-4zm19 0h2v1h-2zm3 0h2v1h-2zm13 0h1v2h-1zm15 0h1v1h-1zm45 0h2v2h-2zm-237 1h1v1h-1zm33 0h1v2h-1zm4 0h1v1h-1z"/><path d="M136 108h12v1h-12zm15 0h1v1h-1zm21 0h3v1h-3zm4 0h1v6h-1zm15 0h1v2h-1zm3 0h2v1h-2zm4 0h2v1h-2zM3 109h1v1H3zm18 0h1v1h-1zm11 0h1v3h-1zm32 0h3v1h-3zm6 0h2v1h-2zm50 0h1v1h-1zm15 0h11v1h-11zm14 0h1v2h-1zm7 0h1v1h-1zm17 0h2v2h-2zm4 0h1v4h-1zm4 0h2v2h-2zm4 0h1v3h-1z"/><path d="M190 109h4v1h-4zm6 0h1v2h-1zm2 0h1v2h-1zm50 0h1v3h-1zm-225 1h1v1h-1zm8 0h4v1h-4zm23 0h1v1h-1zm11 0h1v1h-1zm67 0h1v5h-1zm3 0h6v1h-6zm8 0h3v1h-3zm7 0h1v2h-1zm2 0h1v1h-1zm18 0h10v1h-10zm13 0h4v1h-4zm5 0h1v3h-1zm5 0h1v1h-1z"/><path d="M195 110h2v1h-2zm11 0h1v3h-1zm43 0h1v2h-1zm-216 1h1v1h-1zm35 0h2v2h-2zm8 0h1v2h-1zm2 0h1v5h-1zm50 0h1v1h-1zm7 0h3v3h-3zm10 0h1v3h-1zm2 0h2v1h-2zm23 0h3v1h-3zm4 0h4v1h-4zm5 0h1v1h-1zm3 0h1v1h-1zm2 0h2v1h-2zm3 0h2v2h-2zm8 0h1v1h-1zm2 0h1v1h-1zm82 0h1v1h-1zm3 0h1v1h-1zm6 0h1v1h-1zm-270 1h1v1h-1zm17 0h2v1h-2zm3 0h3v1h-3z"/><path d="M77 112h2v4h-2zm50 0h1v2h-1zm2 0h1v1h-1zm2 0h2v3h-2zm7 0h1v3h-1zm8 0h1v1h-1zm28 0h1v6h-1zm6 0h2v1h-2zm20 0h1v3h-1zm5 0h2v1h-2zm6 0h1v1h-1zm60 0h1v2h-1zm2 0h6v1h-6zm-243 1h2v2h-2zm6 0h1v1h-1zm2 0h2v1h-2zm26 0h4v1h-4zm15 0h2v3h-2zm14 0h2v2h-2zm13 0h1v2h-1zm22 0h1v2h-1zm5 0h1v2h-1zm6 0h1v1h-1zm11 0h3v1h-3zm20 0h2v1h-2z"/><path d="M173 113h4v1h-4zm26 0h2v2h-2zm6 0h1v1h-1zm43 0h1v4h-1zm19 0h2v2h-2zm3 0h4v1h-4zm-253 1h3v1h-3zm11 0h7v1h-7zm33 0h2v3h-2zm3 0h1v1h-1zm12 0h5v2h-5zm16 0h3v1h-3zm42 0h1v1h-1zm2 0h1v1h-1zm14 0h2v1h-2zm20 0h1v1h-1zm5 0h1v4h-1zm15 0h3v1h-3zm6 0h1v1h-1zm5 0h2v2h-2zm3 0h1v1h-1zm10 0h1v2h-1zm5 0h1v1h-1zm20 0h2v1h-2zm25 0h2v1h-2zm6 0h1v1h-1zm17 0h1v2h-1zm3 0h1v4h-1zm2 0h1v2h-1zm-272 1h3v1h-3zm8 0h3v1h-3zm28 0h2v1h-2z"/><path d="M59 115h5v1h-5zm33 0h1v2h-1zm13 0h1v2h-1zm22 0h1v3h-1zm3 0h2v1h-2zm7 0h1v2h-1zm12 0h2v1h-2zm3 0h3v1h-3zm19 0h5v3h-5zm7 0h1v3h-1zm13 0h2v1h-2zm4 0h1v2h-1zm3 0h2v2h-2zm8 0h1v2h-1zm52 0h1v1h-1zm2 0h1v1h-1zm4 0h1v1h-1zm20 0h1v2h-1zm11 0h1v2h-1zm-274 1h1v1h-1zm9 0h1v1h-1zm7 0h2v2h-2zm23 0h3v1h-3zm20 0h4v1h-4z"/><path d="M91 116h3v1h-3zm5 0h1v2h-1zm32 0h1v2h-1zm7 0h3v1h-3zm17 0h2v1h-2zm15 0h1v1h-1zm9 0h5v2h-5zm24 0h1v1h-1zm5 0h2v1h-2zm39 0h1v3h-1zm2 0h3v1h-3zm8 0h2v1h-2zm13 0h1v2h-1zm26 0h1v4h-1zm3 0h1v2h-1zM2 117h1v1H2zm10 0h1v1h-1zm11 0h1v3h-1zm5 0h1v2h-1zm8 0h3v1h-3zm10 0h1v1h-1zm9 0h1v1h-1zm4 0h2v1h-2zm23 0h2v2h-2z"/><path d="M95 117h2v1h-2zm35 0h7v1h-7zm8 0h1v3h-1zm10 0h1v1h-1zm22 0h12v1h-12zm27 0h1v8h-1zm6 0h3v1h-3zm35 0h2v1h-2zm5 0h5v1h-5zm6 0h1v1h-1zm4 0h1v2h-1zm28 0h1v12h-1zm-259 1h5v1h-5zm14 0h2v1h-2zm28 0h1v1h-1zm12 0h1v1h-1zm9 0h1v4h-1zm45 0h4v1h-4z"/><path d="M137 118h2v2h-2zm34 0h3v2h-3zm5 0h2v1h-2zm3 0h1v1h-1zm15 0h1v1h-1zm5 0h1v7h-1zm2 0h1v7h-1zm4 0h1v5h-1zm29 0h3v1h-3zm4 0h1v2h-1zm5 0h2v1h-2zm9 0h2v1h-2zm18 0h1v1h-1zm-248 1h4v1h-4zm32 0h1v1h-1zm2 0h4v1h-4zm5 0h1v1h-1zm22 0h4v3h-4zm19 0h1v3h-1zm26 0h5v1h-5z"/><path d="M136 119h4v1h-4zm33 0h5v1h-5zm7 0h1v1h-1zm2 0h1v8h-1zm9 0h1v1h-1zm9 0h2v3h-2zm4 0h2v6h-2zm4 0h2v4h-2zm4 0h2v1h-2zm3 0h1v5h-1zm24 0h1v2h-1zm6 0h1v1h-1zm43 0h1v3h-1zm7 0h1v5h-1zm3 0h1v3h-1zm-259 1h1v1h-1zm12 0h1v1h-1zm2 0h1v1h-1zm9 0h2v1h-2zm5 0h1v2h-1zm12 0h4v2h-4zm18 0h1v5h-1zm10 0h1v1h-1zm23 0h6v1h-6zm7 0h1v1h-1zm4 0h1v1h-1zm28 0h7v7h-7zm10 0h1v17h-1zm7 0h4v3h-4z"/><path d="M195 120h14v1h-14zm15 0h4v1h-4zm5 0h3v1h-3zm19 0h2v1h-2zm11 0h1v2h-1zm8 0h1v1h-1zm2 0h1v1h-1zm33 0h1v1h-1zm7 0h1v2h-1zm-263 1h1v1h-1zm18 0h1v2h-1zm8 0h1v1h-1zm2 0h4v1h-4zm10 0h1v1h-1zm9 0h2v2h-2zm3 0h6v1h-6zm7 0h1v1h-1zm3 0h2v4h-2zm27 0h1v1h-1zm6 0h5v1h-5zm37 0h25v1h-25zm29 0h1v3h-1zm7 0h8v1h-8zm9 0h1v2h-1zm5 0h2v1h-2zm3 0h2v3h-2zm25 0h1v2h-1zm12 0h1v2h-1zm-234 1h1v1h-1zm10 0h2v1h-2z"/><path d="M48 122h4v1h-4zm14 0h1v1h-1zm14 0h2v1h-2zm6 0h3v1h-3zm12 0h1v3h-1zm31 0h2v2h-2zm27 0h1v1h-1zm6 0h2v11h-2zm3 0h25v1h-25zm29 0h2v2h-2zm8 0h5v3h-5zm8 0h2v1h-2zm6 0h1v1h-1zm8 0h1v2h-1zm7 0h3v1h-3zm12 0h2v1h-2zm5 0h1v1h-1zm7 0h2v1h-2zm7 0h1v1h-1zm8 0h1v1h-1zm21 0h1v4h-1zm-262 1h1v2h-1zm2 0h1v4h-1zm2 0h4v1h-4zm18 0h2v1h-2zm16 0h1v2h-1zm8 0h2v1h-2zm11 0h1v2h-1zm5 0h1v3h-1z"/><path d="M89 123h6v2h-6zm7 0h1v1h-1zm36 0h1v1h-1zm24 0h26v1h-26zm36 0h2v1h-2zm12 0h1v1h-1zm9 0h1v2h-1zm4 0h1v1h-1zm14 0h1v1h-1zm8 0h1v2h-1zm7 0h1v1h-1zm27 0h1v1h-1zm16 0h1v1h-1zm-265 1h2v1h-2zm8 0h1v1h-1zm21 0h3v2h-3zm12 0h1v1h-1zm7 0h1v1h-1zm11 0h2v1h-2zm46 0h2v1h-2zm9 0h1v11h-1zm17 0h25v3h-25zm35 0h1v1h-1zm3 0h10v1h-10zm21 0h2v1h-2zm10 0h2v1h-2zm30 0h1v2h-1zm-233 1h1v1h-1zm7 0h1v1h-1zm41 0h2v2h-2zm15 0h2v1h-2zm4 0h1v3h-1zm8 0h1v1h-1zm30 0h4v1h-4z"/><path d="M137 125h2v6h-2zm15 0h28v2h-28zm41 0h1v1h-1zm7 0h1v2h-1zm51 0h1v1h-1zm19 0h1v5h-1zm15 0h1v1h-1zm-217 1h3v1h-3zm16 0h1v1h-1zm10 0h1v4h-1zm3 0h1v2h-1zm6 0h1v3h-1zm23 0h3v3h-3zm7 0h1v2h-1zm6 0h4v4h-4z"/><path d="M146 126h35v1h-35zm38 0h1v2h-1zm7 0h1v3h-1zm7 0h1v1h-1zm4 0h1v1h-1zm5 0h1v1h-1zm14 0h2v1h-2zm45 0h1v3h-1zm7 0h1v2h-1zm-227 1h1v1h-1zm22 0h2v1h-2zm13 0h1v1h-1zm6 0h4v1h-4zm14 0h3v1h-3zm28 0h1v10h-1zm18 0h21v1h-21zm22 0h9v1h-9zm12 0h1v2h-1z"/><path d="M183 127h3v1h-3zm9 0h1v2h-1zm7 0h1v2h-1zm4 0h1v2h-1zm10 0h1v2h-1zm6 0h1v1h-1zm3 0h1v1h-1zm6 0h1v4h-1zm2 0h2v1h-2zm5 0h1v1h-1zm3 0h1v1h-1zm5 0h1v1h-1zm10 0h1v6h-1zm24 0h1v1h-1zm5 0h1v2h-1zm-235 1h3v1h-3zm21 0h1v1h-1zm14 0h1v11h-1zm4 0h1v1h-1zm4 0h2v1h-2zm12 0h3v1h-3zm28 0h3v1h-3zm6 0h8v2h-8zm9 0h22v1h-22zm27 0h6v1h-6zm8 0h2v1h-2z"/><path d="M202 128h3v1h-3zm12 0h1v1h-1zm11 0h1v2h-1zm5 0h1v5h-1zm22 0h2v4h-2zm-205 1h1v2h-1zm32 0h1v1h-1zm5 0h1v1h-1zm8 0h3v1h-3zm5 0h1v1h-1zm31 0h4v4h-4zm5 0h2v8h-2zm11 0h22v2h-22zm23 0h1v1h-1zm7 0h4v3h-4zm6 0h1v1h-1zm31 0h2v2h-2z"/><path d="M224 129h2v1h-2zm7 0h2v1h-2zm-161 1h8v1h-8zm31 0h1v16h-1zm2 0h2v1h-2zm24 0h5v2h-5zm8 0h5v1h-5zm6 0h25v1h-25zm30 0h9v1h-9zm20 0h1v1h-1zm3 0h1v1h-1zm30 0h1v1h-1zm7 0h1v1h-1zm20 0h3v2h-3zm11 0h2v2h-2zm7 0h1v3h-1zm7 0h1v2h-1zm-206 1h3v1h-3zm5 0h2v1h-2zm3 0h2v6h-2zm5 0h1v7h-1z"/><path d="M97 131h7v4h-7zm8 0h3v19h-3zm27 0h5v2h-5zm11 0h8v1h-8zm9 0h16v1h-16zm17 0h1v1h-1zm2 0h2v1h-2zm7 0h3v2h-3zm43 0h1v1h-1zm29 0h4v1h-4zm-179 1h2v3h-2zm3 0h1v4h-1z"/><path d="M76 132h32v3H76zm67 0h6v1h-6zm8 0h16v1h-16zm26 0h4v1h-4zm43 0h1v2h-1zm12 0h1v1h-1zm19 0h1v1h-1zm11 0h1v3h-1zm35 0h1v2h-1z"/><path d="M73 133h35v2H73zm55 0h2v1h-2zm4 0h4v4h-4zm8 0h1v1h-1zm2 0h5v1h-5zm8 0h9v6h-9zm11 0h3v10h-3zm15 0h1v1h-1zm18 0h2v1h-2zm65 0h1v1h-1zm7 0h1v4h-1zm-248 1h3v1h-3zm90 0h1v17h-1z"/><path d="M130 134h7v1h-7zm11 0h3v1h-3zm18 0h5v6h-5zm7 0h1v7h-1zm2 0h1v2h-1zm6 0h2v1h-2zm5 0h2v4h-2zm31 0h1v1h-1zm6 0h2v1h-2zm36 0h2v1h-2zm-181 1h1v2h-1zm6 0h11v1H77zm12 0h14v1H89zm15 0h5v13h-5zm26 0h6v2h-6zm10 0h3v1h-3z"/><path d="M147 135h20v2h-20zm34 0h3v2h-3zm48 0h1v1h-1zm3 0h1v2h-1zm33 0h2v2h-2zm36 0h1v1h-1zm-229 1h1v1h-1zm5 0h9v1h-9zm10 0h4v1h-4zm6 0h9v1h-9zm10 0h6v12h-6zm33 0h5v1h-5zm6 0h1v1h-1z"/><path d="M146 136h22v1h-22zm24 0h1v1h-1zm8 0h6v1h-6zm7 0h1v1h-1zm30 0h1v2h-1zm16 0h3v1h-3zm26 0h2v1h-2zm-194 1h1v2h-1zm14 0h1v4h-1zm2 0h5v1h-5zm8 0h2v1h-2zm6 0h3v8h-3zm4 0h12v6H97zm33 0h1v1h-1zm10 0h1v1h-1zm4 0h3v1h-3zm4 0h22v1h-22zm35 0h2v1h-2zm-145 1h2v1h-2zm35 0h1v2h-1z"/><path d="M76 138h2v2h-2zm4 0h3v1h-3zm4 0h1v4h-1zm3 0h1v10h-1zm5 0h18v5H92zm39 0h1v5h-1zm3 0h1v1h-1zm2 0h3v2h-3zm6 0h2v1h-2zm3 0h1v2h-1zm4 0h21v1h-21zm29 0h2v1h-2zm5 0h1v3h-1zm3 0h1v1h-1zm49 0h1v1h-1zm25 0h1v2h-1zm40 0h1v1h-1zm-269 1h1v1h-1z"/><path d="M72 139h6v1h-6zm13 0h1v4h-1zm3 0h1v9h-1zm2 0h20v4H90zm40 0h4v1h-4zm10 0h1v1h-1zm9 0h2v1h-2zm4 0h16v1h-16zm27 0h1v2h-1zm7 0h1v3h-1zm70 0h1v1h-1zm44 0h1v3h-1zm-284 1h1v1h-1zm61 0h1v1h-1z"/><path d="M86 140h24v3H86zm44 0h2v1h-2zm16 0h1v2h-1zm3 0h1v3h-1zm4 0h7v4h-7zm11 0h5v1h-5zm18 0h3v1h-3zm6 0h1v1h-1zm73 0h1v1h-1zm-247 1h2v1h-2zm59 0h1v6h-1zm59 0h1v3h-1zm6 0h5v1h-5z"/><path d="M147 141h19v1h-19zm25 0h2v1h-2zm10 0h1v1h-1zm77 0h1v1h-1zm-201 1h3v1h-3zm23 0h2v1h-2zm29 0h1v7h-1zm23 0h2v1h-2zm10 0h1v1h-1zm4 0h1v1h-1zm3 0h1v2h-1zm2 0h12v1h-12zm26 0h1v1h-1zm3 0h1v2h-1zm-129 1h1v2h-1zm6 0h1v1h-1zm14 0h3v1h-3zm14 0h10v2H86z"/><path d="M98 143h13v1H98zm44 0h1v3h-1zm18 0h2v1h-2zm29 0h2v1h-2zm43 0h1v1h-1zm-207 1h1v1h-1zm25 0h1v2h-1zm3 0h2v1h-2zm21 0h1v3h-1zm9 0h13v1H83zm16 0h12v2H99zm39 0h1v4h-1z"/><path d="M141 144h3v2h-3zm12 0h1v4h-1zm2 0h3v4h-3zm7 0h1v1h-1zm7 0h2v1h-2zm4 0h1v1h-1zm10 0h1v1h-1zm5 0h2v1h-2zm42 0h2v1h-2zm22 0h1v1h-1zm5 0h1v1h-1zM3 145h2v1H3zm46 0h2v1h-2zm6 0h1v1h-1zm4 0h2v1h-2zm24 0h9v1h-9zm10 0h2v1h-2zm40 0h3v2h-3zm11 0h1v1h-1zm6 0h1v1h-1z"/><path d="M154 145h8v2h-8zm14 0h1v1h-1zm16 0h1v1h-1zm2 0h3v1h-3zm8 0h5v1h-5zm35 0h1v1h-1zm-201 1h2v1h-2zm3 0h1v1h-1zm44 0h1v1h-1zm10 0h4v2h-4zm5 0h1v1h-1zm4 0h2v1h-2zm5 0h2v1h-2zm3 0h9v2h-9zm39 0h1v1h-1zm5 0h2v1h-2zm19 0h2v2h-2zm6 0h2v2h-2zm15 0h1v1h-1zm2 0h3v1h-3zm5 0h5v1h-5zm34 0h1v1h-1zm22 0h1v1h-1zm10 0h1v1h-1zM0 147h1v1H0zm22 0h1v1h-1zm33 0h2v2h-2zm10 0h2v1h-2zm4 0h2v1h-2zm20 0h1v2h-1zm3 0h1v1h-1zm3 0h1v1h-1zm4 0h1v1h-1zm12 0h1v2h-1zm9 0h1v2h-1zm14 0h1v1h-1zm2 0h4v1h-4zm12 0h1v1h-1zm2 0h9v1h-9z"/><path d="M164 147h3v1h-3zm9 0h1v1h-1zm10 0h1v1h-1zm6 0h2v1h-2zm-169 1h1v2h-1zm27 0h3v3h-3zm23 0h2v1h-2zm20 0h1v1h-1zm3 0h1v2h-1zm9 0h1v1h-1zm7 0h3v1h-3zm26 0h2v2h-2zm15 0h1v1h-1zm6 0h2v1h-2zm8 0h2v4h-2zm23 0h2v2h-2zm36 0h1v1h-1zm25 0h1v2h-1zm2 0h1v1h-1zm-198 1h2v1h-2zm39 0h1v1h-1zm3 0h1v1h-1zm15 0h1v2h-1zm33 0h2v2h-2zm5 0h1v2h-1zm8 0h2v1h-2z"/><path d="M161 149h5v1h-5zm34 0h1v1h-1zm52 0h2v1h-2zm-201 1h4v1h-4zm6 0h1v3h-1zm24 0h1v1h-1zm13 0h1v1h-1zm3 0h1v1h-1zm11 0h1v1h-1zm4 0h3v1h-3zm28 0h1v1h-1zm13 0h1v1h-1zm4 0h1v1h-1zm8 0h3v2h-3zm6 0h2v1h-2zm16 0h1v1h-1zm8 0h2v1h-2zm-179 1h1v1h-1z"/><path d="M51 151h3v2h-3zm20 0h2v1h-2zm31 0h1v1h-1zm61 0h4v1h-4zm6 0h1v1h-1zm21 0h1v1h-1zm4 0h1v2h-1zm-122 1h1v1h-1zm3 0h1v2h-1zm32 0h1v1h-1zm55 0h3v1h-3zm4 0h1v1h-1zm4 0h1v1h-1zm3 0h1v1h-1z"/><path d="M74 153h2v1h-2zm23 0h1v1h-1zm41 0h2v1h-2zm24 0h1v1h-1zm2 0h1v1h-1zm-95 1h1v1h-1zm4 0h2v1h-2zm74 0h1v1h-1zm-86 1h1v1h-1zm29 0h1v3h-1zm76 0h2v1h-2zm4 0h1v2h-1zm55 0h2v1h-2zm10 0h1v1h-1zm-162 1h1v1h-1zm9 0h1v3h-1zm2 0h1v1h-1z"/><path d="M89 156h2v2h-2zm62 0h1v1h-1zm16 0h2v1h-2zm47 0h3v1h-3zm12 0h3v1h-3zm-155 1h1v1h-1zm10 0h2v1h-2z"/><path d="M88 157h3v1h-3zm128 0h1v1h-1zm12 0h2v1h-2zm71 0h1v1h-1zm-281 1h1v1h-1zm56 0h2v1h-2zm9 0h1v2h-1zm5 0h2v2h-2zm69 0h1v1h-1zm15 0h1v5h-1zm2 0h1v1h-1zm18 0h1v1h-1zm26 0h1v1h-1zm15 0h1v2h-1zm17 0h1v1h-1zm34 0h1v2h-1zm14 0h1v1h-1zm-223 1h1v1h-1zm5 0h1v1h-1z"/><path d="M87 159h5v1h-5zm6 0h2v2h-2zm4 0h1v2h-1zm2 0h1v3h-1zm47 0h1v1h-1zm20 0h1v1h-1zm4 0h3v1h-3zm62 0h2v1h-2zm8 0h1v3h-1zm5 0h1v1h-1zm3 0h2v1h-2zm35 0h2v1h-2zm-236 1h1v1h-1zm25 0h3v2h-3zm14 0h2v2h-2z"/><path d="M91 160h5v1h-5zm7 0h4v1h-4zm55 0h1v2h-1zm9 0h1v1h-1zm19 0h2v2h-2zm44 0h1v1h-1zm11 0h1v3h-1zm44 0h1v2h-1zm19 0h2v1h-2zm-224 1h2v2h-2zm16 0h2v2h-2zm3 0h2v1h-2zm4 0h2v1h-2zm3 0h2v1h-2zm63 0h4v1h-4zm7 0h2v2h-2z"/><path d="M180 161h3v1h-3zm20 0h2v1h-2zm35 0h2v2h-2zm6 0h2v2h-2zm3 0h1v1h-1zm49 0h1v1h-1zm2 0h5v1h-5zm-218 1h1v1h-1zm8 0h2v1h-2zm13 0h1v2h-1zm2 0h2v2h-2zm12 0h1v1h-1zm47 0h1v1h-1zm2 0h1v2h-1zm2 0h2v2h-2zm7 0h3v1h-3zm4 0h1v1h-1zm7 0h1v1h-1zm19 0h1v1h-1z"/><path d="M234 162h3v1h-3zm47 0h2v1h-2zm10 0h2v1h-2zm-212 1h2v1h-2zm13 0h1v1h-1zm68 0h2v1h-2zm9 0h1v1h-1zm13 0h1v2h-1zm17 0h1v1h-1zm38 0h1v1h-1zm7 0h3v1h-3zm47 0h1v1h-1zm-250 1h1v1h-1zm39 0h1v1h-1zm66 0h2v1h-2zm3 0h1v1h-1zm2 0h2v1h-2zm4 0h1v2h-1zm20 0h1v2h-1zm4 0h1v2h-1zm4 0h1v1h-1zm10 0h1v6h-1zm4 0h2v1h-2zm48 0h3v1h-3zm-98 1h1v1h-1zm4 0h1v1h-1zm8 0h2v1h-2z"/><path d="M178 165h2v1h-2zm16 0h2v2h-2zm41 0h2v1h-2zm12 0h2v1h-2zm-229 1h1v1h-1zm64 0h1v1h-1zm76 0h1v1h-1zm20 0h1v1h-1zm3 0h1v1h-1zm4 0h1v1h-1z"/><path d="M192 166h4v1h-4zm42 0h2v2h-2zm4 0h1v2h-1zm10 0h2v2h-2zm-168 1h1v2h-1zm3 0h1v1h-1zm105 0h1v1h-1zm4 0h3v1h-3z"/><path d="M79 168h4v1h-4zm93 0h2v1h-2zm20 0h2v2h-2zm43 0h1v1h-1zm8 0h1v1h-1zm-164 1h1v1h-1zm80 0h2v1h-2zm3 0h1v1h-1zm3 0h1v1h-1zm9 0h1v2h-1zm46 0h1v3h-1zm-52 1h1v2h-1zm4 0h1v1h-1zm59 0h1v1h-1zm9 0h1v1h-1zm-173 1h1v1h-1zm4 0h1v2h-1zm4 0h2v1h-2zm96 0h1v1h-1zm5 0h1v1h-1zm69 0h1v1h-1zm38 0h1v2h-1zm-229 1h1v1h-1zm3 0h1v1h-1zm15 0h4v2h-4zm7 0h1v1h-1zm-37 1h1v1h-1zm48 0h1v5h-1zm-35 1h1v1h-1zm6 0h1v1h-1zm11 0h1v1h-1zm3 0h2v2h-2zm4 0h1v1h-1zm12 0h1v1h-1zm6 0h1v1h-1zm3 0h1v1h-1zm48 0h1v1h-1zm22 0h2v1h-2zm75 0h1v1h-1zm-189 1h1v1h-1zm7 0h2v1h-2z"/><path d="M86 175h5v1h-5zm7 0h3v1h-3zm6 0h1v2h-1zm71 0h1v1h-1zm-107 1h1v3h-1zm4 0h1v2h-1zm7 0h2v1h-2zm3 0h2v2h-2zm10 0h4v1h-4zm6 0h2v1h-2zm69 0h1v1h-1zm97 0h1v1h-1zm6 0h1v1h-1zm36 0h1v1h-1zm-256 1h1v2h-1zm23 0h1v1h-1zm24 0h2v2h-2zm10 0h1v1h-1zm65 0h1v1h-1zm113 0h1v1h-1zm-191 1h1v1h-1zm10 0h1v3h-1zm159 0h1v1h-1zm-167 1h2v1h-2z"/><path d="M97 179h4v1h-4zm33 0h1v2h-1zm115 0h1v1h-1zm-174 1h1v1h-1zm20 0h1v1h-1zm29 0h1v1h-1zm21 0h1v2h-1zm11 0h1v1h-1zm16 0h1v2h-1zm23 0h1v3h-1zm50 0h1v2h-1zm5 0h1v1h-1zm-178 1h1v2h-1zm8 0h1v2h-1zm42 0h1v3h-1z"/><path d="M167 181h2v1h-2zm81 0h2v1h-2zm10 0h3v1h-3zm-197 1h1v2h-1zm3 0h1v2h-1zm13 0h1v2h-1zm13 0h1v4h-1zm3 0h2v1h-2zm50 0h2v1h-2zm49 0h1v1h-1zm57 0h1v1h-1zm9 0h1v1h-1zm5 0h1v2h-1zm-198 1h1v2h-1zm21 0h1v2h-1zm13 0h3v1h-3zm4 0h1v2h-1zm41 0h1v1h-1zm19 0h1v1h-1zm2 0h1v1h-1zm13 0h1v2h-1zm66 0h2v1h-2zm13 0h1v2h-1z"/><path d="M262 183h2v1h-2zm4 0h2v2h-2zm-216 1h2v1h-2zm23 0h2v1h-2zm12 0h2v1h-2zm4 0h2v2h-2zm12 0h1v1h-1zm61 0h1v2h-1zm13 0h1v1h-1zm26 0h1v2h-1zm57 0h1v2h-1zm2 0h2v1h-2zm13 0h1v1h-1zm-202 1h3v1h-3zm23 0h3v1h-3z"/><path d="M161 185h2v1h-2zm4 0h2v2h-2zm7 0h1v1h-1zm28 0h2v1h-2zm59 0h2v1h-2zm-170 1h1v2h-1zm6 0h2v1h-2zm105 0h1v1h-1zm67 0h1v2h-1zm-182 1h1v1h-1z"/><path d="M88 187h2v1h-2zm118 0h2v2h-2zm30 0h1v1h-1zm35 0h1v1h-1zm16 0h1v1h-1zm-260 1h1v1h-1zm2 0h1v2h-1zm13 0h1v2h-1zm46 0h1v1h-1zm14 0h1v1h-1zm2 0h2v1h-2zm139 0h3v1h-3zm42 0h1v1h-1zm-181 1h1v2h-1zm57 0h1v1h-1zm69 0h1v2h-1zm8 0h2v1h-2zm-194 1h1v1h-1zm26 0h1v1h-1zm16 0h1v2h-1z"/><path d="M103 190h2v1h-2zm57 0h1v2h-1zm4 0h2v1h-2zm37 0h2v1h-2zm30 0h1v2h-1zm8 0h1v1h-1zm6 0h2v1h-2zm18 0h1v1h-1zm-197 1h3v1h-3zm5 0h1v1h-1zm37 0h1v1h-1zm48 0h1v1h-1zm5 0h1v1h-1zm38 0h1v1h-1zm3 0h2v1h-2zm9 0h1v1h-1zm21 0h1v1h-1zm15 0h1v1h-1zm12 0h1v1h-1zm-147 1h1v1h-1zm41 0h2v1h-2zm49 0h1v1h-1zm6 0h1v1h-1zm18 0h2v1h-2zm11 0h4v1h-4zm6 0h1v2h-1zm-90 1h1v1h-1zm10 0h1v1h-1zm74 0h2v1h-2zm7 0h1v1h-1zm-142 1h1v1h-1zm5 0h1v2h-1zm10 0h1v1h-1zm35 0h1v1h-1zm17 0h2v1h-2zm4 0h1v1h-1zm50 0h1v1h-1zm61 0h1v1h-1zm-189 1h3v1h-3z"/><path d="M106 195h2v1h-2zm5 0h1v2h-1zm65 0h2v1h-2zm20 0h1v1h-1zm5 0h1v2h-1zm29 0h1v1h-1zm50 0h1v1h-1zm11 0h1v1h-1zm8 0h1v1h-1zm-204 1h2v1h-2zm4 0h1v1h-1z"/><path d="M110 196h2v1h-2zm42 0h1v1h-1zm17 0h2v2h-2zm3 0h2v1h-2zm25 0h1v2h-1zm34 0h1v1h-1zm69 0h2v1h-2zm-198 1h1v1h-1zm8 0h1v2h-1zm18 0h6v10h-6zm22 0h2v2h-2zm4 0h1v1h-1z"/><path d="M168 197h3v1h-3zm7 0h2v1h-2zm17 0h4v1h-4zm29 0h2v1h-2zm78 0h1v2h-1zm2 0h1v3h-1zm-257 1h1v1h-1zm62 0h1v1h-1zm21 0h11v1h-11zm31 0h1v2h-1zm11 0h1v1h-1zm7 0h1v1h-1zm2 0h1v1h-1zm13 0h1v4h-1zm4 0h2v1h-2zm26 0h1v1h-1zm22 0h1v2h-1z"/><path d="M300 198h2v1h-2zm-196 1h1v1h-1zm10 0h1v2h-1zm11 0h12v8h-12zm13 0h1v5h-1zm12 0h1v1h-1zm22 0h2v1h-2zm18 0h2v2h-2zm6 0h1v3h-1zm16 0h1v1h-1zm11 0h1v2h-1zm12 0h1v1h-1zm7 0h2v1h-2zm-139 1h1v1h-1zm4 0h1v2h-1z"/><path d="M123 200h16v4h-16zm37 0h2v1h-2zm12 0h1v3h-1zm4 0h1v2h-1zm19 0h2v2h-2zm29 0h1v2h-1zm13 0h2v1h-2zm4 0h2v1h-2zm49 0h2v1h-2zm-234 1h2v1h-2z"/><path d="M119 201h20v3h-20zm33 0h1v2h-1zm31 0h1v1h-1zm3 0h1v2h-1zm95 0h1v1h-1zm-226 1h1v1h-1zm106 0h1v2h-1zm2 0h1v2h-1zm8 0h2v1h-2zm6 0h2v1h-2zm7 0h1v2h-1zm13 0h1v1h-1zm19 0h1v1h-1zm16 0h1v1h-1zm10 0h2v1h-2zm-180 1h2v4h-2zm43 0h3v11h-3z"/><path d="M111 203h28v1h-28zm32 0h9v4h-9zm19 0h4v1h-4zm9 0h1v2h-1zm3 0h1v1h-1zm3 0h1v1h-1zm8 0h1v1h-1zm30 0h1v1h-1zm10 0h1v1h-1zm21 0h1v1h-1zm41 0h2v1h-2zm-241 1h1v1h-1zm10 0h1v2h-1zm45 0h18v1h-18zm19 0h18v1h-18z"/><path d="M142 204h13v3h-13zm23 0h1v2h-1zm21 0h2v1h-2zm4 0h5v1h-5zm28 0h1v1h-1zm29 0h1v1h-1zm22 0h1v1h-1zm-170 1h19v2H99zm24 0h15v2h-15z"/><path d="M140 205h15v2h-15zm19 0h1v1h-1zm5 0h2v1h-2zm18 0h2v1h-2zm8 0h3v1h-3zm4 0h5v2h-5zm33 0h1v1h-1zm11 0h1v1h-1zm17 0h2v1h-2zm8 0h1v2h-1zm-247 1h2v2h-2zm28 0h4v1h-4z"/><path d="M122 206h34v1h-34zm35 0h1v1h-1zm10 0h3v1h-3zm17 0h2v4h-2zm9 0h10v1h-10zm61 0h1v1h-1zm32 0h3v1h-3zm-258 1h2v1h-2zm17 0h3v1h-3zm12 0h1v1h-1zm2 0h1v1h-1zm3 0h1v1h-1zm29 0h1v1h-1zm3 0h3v1h-3zm5 0h11v2H99zm12 0h6v1h-6zm8 0h13v3h-13zm14 0h15v1h-15zm16 0h8v2h-8zm18 0h2v1h-2zm3 0h2v3h-2zm6 0h1v1h-1zm10 0h1v1h-1zm9 0h9v1h-9zm33 0h1v1h-1zm2 0h1v1h-1zm23 0h1v1h-1zm32 0h3v1h-3zm10 0h2v1h-2zm-269 1h1v3h-1zm10 0h5v7h-5zm45 0h1v1h-1zm12 0h2v1h-2z"/><path d="M96 208h14v1H96zm17 0h20v1h-20zm22 0h3v1h-3zm4 0h18v1h-18zm28 0h1v1h-1zm2 0h4v2h-4zm10 0h1v7h-1zm11 0h2v1h-2zm7 0h8v1h-8zm43 0h1v1h-1zm20 0h1v1h-1zm25 0h1v1h-1zm-270 1h1v1h-1zm3 0h2v1h-2zm14 0h11v6H32zm23 0h1v1h-1zm24 0h1v1h-1zm15 0h1v1h-1zm3 0h1v6h-1zm2 0h9v5h-9zm10 0h1v14h-1zm4 0h2v4h-2zm19 0h2v4h-2zm7 0h9v1h-9zm10 0h7v1h-7zm24 0h1v4h-1z"/><path d="M177 209h3v6h-3zm13 0h1v1h-1zm9 0h6v1h-6zm18 0h1v1h-1zm39 0h1v1h-1zm-243 1h2v1h-2zm18 0h14v2H31zm45 0h2v1h-2zm32 0h2v6h-2zm4 0h4v3h-4zm6 0h5v1h-5zm7 0h22v1h-22zm24 0h1v1h-1zm3 0h4v1h-4zm15 0h1v1h-1z"/><path d="M171 210h9v3h-9zm29 0h1v1h-1zm3 0h3v1h-3zm10 0h2v2h-2zm21 0h1v1h-1zm10 0h1v1h-1zm46 0h1v1h-1zm7 0h1v1h-1zM5 211h1v1H5zm5 0h2v1h-2zm17 0h1v2h-1zm3 0h15v1H30zm23 0h2v1h-2zm22 0h2v1h-2zm8 0h1v2h-1zm4 0h1v4h-1zm5 0h3v3h-3zm6 0h19v2H98zm20 0h4v1h-4zm6 0h18v2h-18zm19 0h4v1h-4zm11 0h1v1h-1zm3 0h2v1h-2zm11 0h2v2h-2zm13 0h2v1h-2zm7 0h1v3h-1zm15 0h2v1h-2zm5 0h1v6h-1zm7 0h1v1h-1zm66 0h2v5h-2zM4 212h1v1H4zm14 0h2v3h-2zm10 0h16v1H28zm25 0h1v1h-1zm22 0h1v2h-1z"/><path d="M85 212h10v1H85zm11 0h21v1H96zm23 0h23v1h-23zm25 0h2v3h-2zm23 0h14v1h-14zm15 0h2v1h-2zm31 0h1v2h-1zm3 0h2v2h-2zm14 0h1v1h-1zm71 0h1v1h-1zM0 213h1v2H0zm10 0h2v1h-2zm6 0h11v2H16zm13 0h15v1H29zm45 0h2v1h-2zm5 0h3v1h-3zm10 0h24v1H89zm25 0h2v1h-2zm4 0h12v1h-12zm20 0h4v1h-4zm28 0h2v1h-2zm3 0h4v1h-4zm5 0h7v2h-7zm9 0h2v2h-2zm8 0h1v2h-1z"/><path d="M212 213h3v1h-3zm38 0h2v1h-2zM6 214h1v1H6zm9 0h28v1H15zm54 0h6v5h-6zm7 0h2v5h-2zm3 0h1v3h-1zm2 0h4v1h-4zm7 0h3v1h-3zm8 0h10v1H96zm14 0h3v7h-3zm4 0h1v6h-1zm4 0h1v4h-1zm2 0h9v1h-9zm19 0h7v1h-7zm31 0h11v1h-11zm15 0h1v5h-1zm7 0h3v1h-3zm4 0h1v1h-1zm13 0h1v1h-1zm2 0h2v2h-2zm3 0h2v1h-2zm37 0h1v1h-1zm2 0h1v1h-1zm27 0h3v2h-3zM2 215h3v1H2zm13 0h2v1h-2zm5 0h16v2H20zm18 0h4v1h-4zm19 0h3v1h-3z"/><path d="M75 215h5v2h-5zm6 0h2v1h-2zm18 0h7v1h-7zm14 0h2v4h-2zm3 0h1v8h-1zm5 0h7v1h-7zm10 0h1v2h-1zm9 0h5v1h-5zm18 0h1v2h-1zm11 0h5v21h-5zm6 0h3v1h-3zm5 0h1v22h-1zm3 0h1v1h-1zm6 0h2v1h-2zm4 0h2v1h-2zm21 0h1v1h-1zm16 0h1v1h-1zm3 0h1v1h-1zm8 0h1v1h-1zm-225 1h1v1h-1zm2 0h22v1H18zm33 0h1v1h-1zm7 0h1v1h-1zm4 0h2v2h-2zm20 0h3v1h-3zm4 0h1v4h-1zm9 0h2v1h-2zm5 0h3v1h-3zm5 0h1v4h-1zm2 0h1v1h-1z"/><path d="M115 216h5v2h-5zm6 0h5v1h-5zm21 0h1v2h-1zm4 0h1v1h-1zm22 0h6v15h-6zm8 0h2v1h-2zm3 0h2v1h-2zm5 0h2v3h-2zm5 0h1v1h-1zm3 0h2v2h-2zm77 0h1v1h-1zm2 0h1v2h-1zm9 0h2v1h-2zM0 217h3v3H0zm13 0h3v1h-3zm8 0h4v2h-4zm6 0h7v1h-7zm8 0h4v1h-4zm11 0h1v5h-1zm4 0h1v1h-1zm11 0h3v1h-3zm5 0h1v1h-1zm9 0h4v1h-4zm8 0h5v1h-5zm14 0h3v1h-3zm4 0h2v1h-2zm3 0h2v2h-2zm16 0h1v1h-1zm2 0h2v1h-2zm3 0h2v1h-2zm4 0h2v2h-2z"/><path d="M140 217h4v1h-4zm12 0h1v1h-1zm11 0h2v1h-2zm3 0h8v14h-8zm15 0h2v20h-2zm7 0h1v2h-1zm6 0h1v2h-1zm36 0h1v2h-1zm2 0h1v1h-1zm5 0h1v1h-1zm21 0h1v1h-1zm9 0h1v1h-1zm5 0h1v2h-1zm8 0h1v1h-1zM9 218h2v1H9zm5 0h12v1H14zm14 0h2v1h-2zm4 0h1v4h-1zm4 0h2v1h-2zm3 0h2v2h-2zm4 0h6v2h-6zm18 0h2v1h-2zm6 0h8v1h-8zm11 0h3v1h-3zm6 0h3v2h-3zm6 0h1v5h-1zm7 0h2v1h-2zm5 0h1v1h-1zm5 0h1v5h-1zm8 0h3v2h-3zm8 0h1v5h-1zm13 0h6v1h-6zm8 0h1v1h-1z"/><path d="M165 218h10v13h-10zm12 0h2v17h-2zm6 0h3v1h-3zm12 0h2v1h-2zm10 0h2v1h-2zm5 0h1v1h-1zm14 0h1v1h-1zm32 0h1v1h-1zm9 0h1v1h-1zm-252 1h2v1h-2zm3 0h3v1h-3zm6 0h1v4h-1zm6 0h1v1h-1zm5 0h3v2h-3zm8 0h1v2h-1zm25 0h6v4h-6zm15 0h6v1h-6zm7 0h4v3h-4zm6 0h1v2h-1zm14 0h5v2h-5zm10 0h6v1h-6zm10 0h1v1h-1zm8 0h3v1h-3zm4 0h2v2h-2z"/><path d="M175 219h10v13h-10zm82 0h1v1h-1zm14 0h1v1h-1zm3 0h2v2h-2zM0 220h2v1H0zm14 0h1v1h-1zm3 0h1v1h-1zm6 0h2v1h-2zm7 0h6v1h-6zm10 0h2v1h-2zm7 0h1v1h-1zm12 0h1v1h-1zm4 0h13v1H63zm15 0h1v4h-1zm3 0h5v1h-5zm6 0h10v1H87zm19 0h7v1h-7zm11 0h4v1h-4zm7 0h2v2h-2zm11 0h1v3h-1zm7 0h1v1h-1zm7 0h1v2h-1zm4 0h1v1h-1zm2 0h2v1h-2z"/><path d="M164 220h21v11h-21zm81 0h1v2h-1zm16 0h1v1h-1zm3 0h3v2h-3zm27 0h2v7h-2zm3 0h4v2h-4zM1 221h1v2H1zm18 0h2v1h-2zm4 0h1v5h-1zm3 0h1v1h-1zm4 0h4v1h-4zm10 0h1v1h-1zm2 0h2v2h-2zm22 0h10v1H64zm12 0h4v3h-4zm5 0h2v2h-2zm3 0h3v1h-3zm8 0h2v4h-2zm3 0h1v3h-1zm2 0h7v2h-7zm8 0h7v1h-7zm26 0h2v1h-2zm3 0h2v1h-2zm5 0h2v2h-2zm17 0h1v2h-1z"/><path d="M163 221h22v10h-22zm26 0h1v2h-1zm14 0h1v1h-1zm41 0h2v1h-2zm9 0h2v1h-2zm10 0h4v1h-4zm24 0h2v3h-2zm3 0h3v1h-3zm8 0h2v6h-2zM7 222h2v1H7zm8 0h1v3h-1zm5 0h1v3h-1zm10 0h2v1h-2zm4 0h1v1h-1zm3 0h2v1h-2zm20 0h1v2h-1zm8 0h9v1h-9zm18 0h3v1h-3zm6 0h5v1h-5zm7 0h15v1H96zm17 0h2v1h-2zm6 0h1v1h-1zm7 0h2v1h-2zm5 0h1v2h-1zm12 0h1v1h-1zm9 0h1v1h-1zm33 0h1v5h-1zm17 0h1v1h-1zm27 0h2v2h-2zm26 0h4v3h-4zm8 0h2v1h-2zm3 0h2v1h-2zm18 0h2v1h-2zm9 0h4v5h-4zM4 223h4v1H4zm7 0h3v2h-3zm5 0h1v1h-1z"/><path d="M19 223h2v1h-2zm11 0h1v1h-1zm7 0h1v2h-1zm5 0h1v1h-1zm23 0h1v2h-1zm3 0h5v1h-5zm7 0h5v1h-5zm7 0h3v1h-3zm4 0h2v2h-2zm5 0h3v1h-3zm5 0h1v1h-1zm3 0h8v1h-8zm11 0h2v3h-2zm7 0h2v1h-2zm3 0h1v3h-1zm7 0h1v1h-1zm3 0h2v1h-2zm3 0h1v1h-1zm3 0h1v2h-1zm5 0h1v1h-1zm12 0h1v1h-1zm9 0h24v4h-24zm26 0h1v1h-1zm4 0h1v1h-1zm35 0h1v1h-1zm14 0h1v1h-1zm11 0h12v1h-12zm31 0h1v2h-1zm2 0h4v1h-4zm5 0h10v3h-10zM4 224h2v1H4zm10 0h2v1h-2zm8 0h2v1h-2zm4 0h3v1h-3z"/><path d="M35 224h3v1h-3zm14 0h1v1h-1zm3 0h1v3h-1zm11 0h3v1h-3zm7 0h3v3h-3zm4 0h4v1h-4zm6 0h2v2h-2zm3 0h5v1h-5zm15 0h3v1h-3zm4 0h1v1h-1zm2 0h5v1h-5zm12 0h2v1h-2zm8 0h1v1h-1zm8 0h1v1h-1zm5 0h1v2h-1zm10 0h1v3h-1zm10 0h29v1h-29zm60 0h1v1h-1zm5 0h1v1h-1zm17 0h1v1h-1zm11 0h12v1h-12zm23 0h1v1h-1zm7 0h1v1h-1zm2 0h2v1h-2zm3 0h3v3h-3zm4 0h11v2h-11zm12 0h1v8h-1zM9 225h4v1H9zm5 0h1v1h-1zm21 0h1v1h-1z"/><path d="M51 225h3v2h-3zm4 0h2v1h-2zm6 0h4v1h-4zm8 0h4v2h-4zm6 0h2v2h-2zm4 0h6v1h-6zm10 0h1v1h-1zm8 0h3v2h-3zm4 0h1v2h-1zm5 0h3v2h-3zm8 0h1v1h-1zm3 0h1v2h-1zm2 0h2v1h-2zm16 0h1v5h-1zm22 0h1v3h-1zm3 0h26v2h-26zm27 0h1v1h-1zm11 0h1v2h-1zm49 0h3v1h-3zm5 0h3v1h-3zm4 0h1v1h-1zm2 0h2v1h-2zm23 0h2v1h-2zm3 0h18v1h-18zM0 226h2v1H0zm3 0h2v1H3zm6 0h3v1H9zm13 0h1v1h-1zm19 0h1v1h-1zm6 0h1v2h-1zm7 0h1v3h-1zm2 0h2v6h-2zm6 0h2v1h-2z"/><path d="M67 226h7v1h-7zm14 0h3v2h-3zm4 0h2v2h-2zm19 0h1v3h-1zm5 0h1v1h-1zm14 0h1v1h-1zm13 0h1v3h-1zm15 0h1v1h-1zm3 0h1v1h-1zm5 0h27v1h-27zm38 0h2v1h-2zm14 0h2v1h-2zm9 0h1v1h-1zm27 0h2v3h-2zm5 0h1v10h-1zm5 0h1v1h-1zm31 0h2v1h-2zm9 0h3v1h-3zM4 227h1v1H4zm5 0h2v1H9zm14 0h2v2h-2zm12 0h1v1h-1zm18 0h5v1h-5zm8 0h2v2h-2zm9 0h1v1h-1zm5 0h1v1h-1z"/><path d="M80 227h7v1h-7zm17 0h1v1h-1zm2 0h1v1h-1zm4 0h3v1h-3zm4 0h1v1h-1zm23 0h3v1h-3zm11 0h2v1h-2zm7 0h1v1h-1zm10 0h27v4h-27zm65 0h1v1h-1zm22 0h4v2h-4zm5 0h3v9h-3zm6 0h1v1h-1zm6 0h1v2h-1zm18 0h2v1h-2zm16 0h2v2h-2zm-281 1h1v1h-1zm25 0h1v5h-1zm2 0h2v1h-2zm13 0h3v3h-3zm14 0h1v2h-1zm10 0h2v3h-2zm4 0h2v1h-2zm15 0h1v2h-1zm7 0h1v1h-1zm29 0h3v1h-3zm7 0h1v1h-1zm13 0h2v1h-2zm31 0h2v1h-2zm18 0h1v2h-1z"/><path d="M244 228h9v1h-9zm13 0h1v1h-1zm4 0h2v1h-2zm6 0h1v1h-1zm32 0h1v2h-1zM8 229h1v1H8zm6 0h1v1h-1zm5 0h1v2h-1zm6 0h1v1h-1zm9 0h1v2h-1zm5 0h3v1h-3zm7 0h2v2h-2zm14 0h2v2h-2zm8 0h2v1h-2zm6 0h1v3h-1zm9 0h1v1h-1zm16 0h1v1h-1zm4 0h1v2h-1zm19 0h3v1h-3zm9 0h3v2h-3zm22 0h2v1h-2zm32 0h1v5h-1zm12 0h1v2h-1zm11 0h1v1h-1zm3 0h1v2h-1zm3 0h1v1h-1zm29 0h2v1h-2zm3 0h2v2h-2zm10 0h1v1h-1zm-246 1h1v1h-1z"/><path d="M17 230h4v1h-4zm22 0h2v1h-2zm15 0h8v1h-8zm13 0h1v5h-1zm6 0h2v1h-2zm33 0h1v1h-1zm9 0h1v1h-1zm7 0h2v1h-2zm4 0h2v1h-2zm22 0h1v1h-1zm94 0h2v1h-2zm6 0h5v6h-5zm38 0h1v1h-1zm-275 1h2v1h-2zm6 0h1v1h-1zm11 0h1v2h-1zm5 0h1v1h-1zm3 0h1v1h-1zm22 0h3v1h-3z"/><path d="M66 231h2v4h-2zm28 0h1v1h-1zm25 0h1v2h-1zm4 0h1v3h-1zm9 0h1v5h-1zm6 0h1v1h-1zm2 0h1v1h-1zm10 0h2v1h-2zm4 0h1v1h-1zm4 0h10v6h-10zm16 0h12v1h-12zm17 0h1v1h-1zm50 0h1v1h-1zm6 0h6v1h-6zm-236 1h1v1h-1zm2 0h1v1h-1zm18 0h2v2h-2zm27 0h2v1h-2z"/><path d="M65 232h3v3h-3zm12 0h1v2h-1zm6 0h1v1h-1zm12 0h1v1h-1zm3 0h1v1h-1zm6 0h1v1h-1zm8 0h1v1h-1zm10 0h3v2h-3zm11 0h1v1h-1zm17 0h1v1h-1zm24 0h2v1h-2zm5 0h7v2h-7zm32 0h3v1h-3zm16 0h1v2h-1zm13 0h1v1h-1zm14 0h1v1h-1zm5 0h1v1h-1zm33 0h1v1h-1zm-282 1h1v3h-1zm6 0h1v1h-1zm3 0h1v1h-1zm4 0h1v1h-1zm6 0h1v2h-1zm26 0h3v2h-3z"/><path d="M64 233h4v1h-4zm14 0h2v1h-2zm29 0h1v2h-1zm18 0h3v1h-3zm6 0h2v3h-2zm13 0h1v1h-1zm30 0h1v1h-1zm38 0h4v1h-4zm12 0h1v2h-1zm29 0h1v2h-1zm5 0h1v2h-1zm13 0h1v1h-1zM4 234h1v1H4zm5 0h2v1H9zm9 0h1v1h-1zm4 0h1v1h-1zm10 0h2v1h-2zm3 0h2v1h-2zm16 0h2v2h-2zm3 0h4v1h-4zm22 0h1v2h-1zm22 0h1v1h-1zm59 0h11v1h-11zm19 0h9v1h-9zm14 0h1v2h-1zm4 0h1v1h-1zm3 0h1v2h-1zm17 0h3v1h-3zm12 0h1v1h-1z"/><path d="M247 234h7v1h-7zm39 0h2v1h-2zm-265 1h1v1h-1zm17 0h1v1h-1zm7 0h2v2h-2zm8 0h1v1h-1zm11 0h3v1h-3zm55 0h2v1h-2zm11 0h3v1h-3zm45 0h2v4h-2zm8 0h1v1h-1zm15 0h2v1h-2zm49 0h6v1h-6zm38 0h1v2h-1zm4 0h1v2h-1zm6 0h1v1h-1zM0 236h1v2H0z"/><path d="M44 236h4v1h-4zm10 0h2v1h-2zm10 0h1v1h-1zm51 0h1v1h-1zm15 0h1v1h-1zm26 0h1v1h-1zm13 0h4v1h-4zm26 0h2v1h-2zm3 0h1v1h-1zm49 0h5v1h-5zm-233 1h1v1h-1zm32 0h1v1h-1zm77 0h1v1h-1zm3 0h2v2h-2zm19 0h1v1h-1zm13 0h7v1h-7zm8 0h2v1h-2zm4 0h7v2h-7zm8 0h1v1h-1zm33 0h1v1h-1zm37 0h4v2h-4zm26 0h1v1h-1zm7 0h1v1h-1zM3 238h2v1H3zm30 0h2v1h-2zm5 0h1v1h-1zm4 0h2v1h-2zm32 0h2v1h-2zm45 0h1v1h-1zm9 0h1v1h-1zm19 0h1v1h-1zm7 0h2v1h-2zm5 0h6v2h-6zm8 0h2v1h-2z"/><path d="M247 238h5v1h-5zm25 0h1v1h-1zm13 0h1v1h-1zM1 239h1v1H1zm5 0h1v1H6zm15 0h1v1h-1zm5 0h1v1h-1zm8 0h1v1h-1zm40 0h1v1h-1zm96 0h4v1h-4zm67 0h1v1h-1zm10 0h3v1h-3z"/></g><g fill="#351"><path d="M4 0h10v2H4zm11 0h13v1H15zm15 0h1v2h-1zm3 0h14v1H33zm18 0h8v1h-8zm9 0h15v1H60zm19 0h11v1H79zm12 0h52v2H91zm53 0h3v1h-3zm7 0h20v2h-20zm21 0h56v2h-56zm58 0h1v3h-1zm8 0h24v2h-24zM2 1h1v9H2zm13 0h11v3H15zm12 0h1v5h-1zm6 0h7v1h-7zm8 0h8v3h-8zm12 0h17v1H53zm23 0h2v58h-2zm4 0h6v4h-6z"/><path d="M87 1h56v1H87zm57 0h2v1h-2zm6 0h21v1h-21zm78 0h1v1h-1zm8 0h26v1h-26zM1 2h11v6H1zm12 0h1v70h-1zm13 0h2v2h-2zm3 0h1v4h-1zm2 0h1v1h-1zm3 0h17v1H34zm19 0h7v1h-7zm8 0h10v24H61zm18 0h20v3H79zm21 0h43v2h-43zm49 0h8v1h-8zm12 0h9v1h-9zm10 0h56v1h-56zm58 0h3v1h-3zm6 0h18v1h-18zm19 0h2v1h-2zm3 0h4v1h-4z"/><path d="M0 3h30v1H0zm35 0h23v1H35zm24 0h1v2h-1zm12 0h28v2H71zm72 0h1v2h-1zm3 0h6v1h-6zm8 0h5v1h-5zm8 0h37v1h-37zm39 0h3v1h-3zm4 0h9v1h-9zm10 0h12v8h-12zm16 0h2v1h-2zm3 0h17v4h-17zm24 0h2v1h-2zM0 4h25v3H0zm28 0h2v2h-2zm9 0h11v1H37zm13 0h6v5h-6z"/><path d="M58 4h2v1h-2zm41 0h36v1H99zm38 0h13v1h-13zm14 0h4v1h-4zm6 0h4v99h-4zm5 0h7v2h-7zm10 0h7v2h-7zm9 0h15v2h-15zm21 0h2v2h-2zm3 0h8v2h-8zm22 0h1v8h-1zm5 0h19v3h-19zm27 0h1v1h-1zM25 5h6v1h-6zm11 0h4v1h-4zm6 0h6v16h-6zm14 0h1v63h-1zm2 0h1v62h-1zm13 0h7v54h-7zm9 0h5v6h-5zm6 0h10v1H86zm11 0h36v1H97zm38 0h1v101h-1zm4 0h4v2h-4zm5 0h10v1h-10z"/><path d="M161 5h8v1h-8zm9 0h27v1h-27zm31 0h27v1h-27zM25 6h2v1h-2zm3 0h1v18h-1zm3 0h1v60h-1zm9 0h8v15h-8zm17 0h2v57h-2zm3 0h34v2H60zm37 0h5v2h-5zm6 0h34v1h-34zm40 0h8v8h-8zm9 0h2v97h-2zm9 0h7v2h-7zm8 0h5v1h-5zm12 0h13v2h-13zm19 0h3v8h-3zm4 0h1v2h-1zm2 0h23v5h-23zm25 0h20v1h-20zm70 0h1v2h-1zM0 7h20v1H0zm22 0h3v6h-3z"/><path d="M26 7h3v12h-3zm4 0h6v6h-6zm9 0h20v2H39zm55 0h1v14h-1zm2 0h6v1h-6zm7 0h26v3h-26zm27 0h4v1h-4zm6 0h2v7h-2zm4 0h11v7h-11zm14 0h1v97h-1zm15 0h4v1h-4zm30 0h4v7h-4zm6 0h36v1h-36zm37 0h9v1h-9zm32 0h1v2h-1zm3 0h1v7h-1zm23 0h2v1h-2zM0 8h4v1H0zm6 0h19v1H6z"/><path d="M29 8h56v1H29zm57 0h9v1h-9zm13 0h30v1H99zm31 0h3v1h-3zm25 0h1v97h-1zm6 0h5v1h-5zm10 0h1v1h-1zm2 0h6v1h-6zm8 0h11v2h-11zm22 0h1v4h-1zm2 0h33v1h-33zm37 0h2v1h-2zm3 0h3v2h-3zm4 0h1v2h-1zm27 0h5v3h-5zm24 0h1v1h-1zM1 9h3v1H1zm4 0h3v3H5zm7 0h40v1H12zm41 0h32v2H53zm35 0h7v1h-7zm9 0h2v1h-2zm4 0h31v1h-31z"/><path d="M134 9h29v4h-29zm32 0h2v2h-2zm9 0h1v1h-1zm17 0h2v14h-2zm4 0h1v2h-1zm2 0h37v2h-37zm44 0h1v3h-1zm8 0h1v2h-1zm16 0h2v1h-2zm15 0h1v12h-1zm16 0h1v1h-1zM0 10h1v73H0zm3 0h5v2H3zm9 0h37v1H12zm38 0h35v1H50zm40 0h3v2h-3zm5 0h2v43h-2zm3 0h1v1h-1zm2 0h2v4h-2zm3 0h1v2h-1zm2 0h26v25h-26zm58 0h1v82h-1zm17 0h5v1h-5z"/><path d="M186 10h11v1h-11zm51 0h10v1h-10zm14 0h1v1h-1zm17 0h1v1h-1zm31 0h1v1h-1zM1 11h7v1H1zm10 0h25v1H11zm26 0h46v2H37zm47 0h1v2h-1zm9 0h5v10h-5zm9 0h2v1h-2zm29 0h1v80h-1zm33 0h1v89h-1zm3 0h1v1h-1zm13 0h4v2h-4zm6 0h10v5h-10zm12 0h27v1h-27zm30 0h16v1h-16zm48 0h2v3h-2zm3 0h4v8h-4zm14 0h1v1h-1zM1 12h3v3H1zm11 0h24v1H12z"/><path d="M83 12h2v1h-2zm15 0h4v2h-4zm6 0h28v3h-28zm93 0h6v2h-6zm10 0h19v2h-19zm21 0h7v2h-7zm15 0h1v1h-1zm20 0h4v1h-4zm12 0h3v2h-3zm8 0h1v50h-1zm17 0h2v6h-2zM9 13h1v1H9zm2 0h13v1H11zm14 0h10v6H25zm11 0h46v1H36zm49 0h1v8h-1zm47 0h29v1h-29zm48 0h1v1h-1zm2 0h2v1h-2z"/><path d="M196 13h7v1h-7zm30 0h9v1h-9zm18 0h1v1h-1zm5 0h1v4h-1zm20 0h3v5h-3zm5 0h4v1h-4zm10 0h1v26h-1zm3 0h1v25h-1zm6 0h1v4h-1zm5 0h4v5h-4zM4 14h1v1H4zm7 0h5v1h-5zm7 0h63v4H18zm68 0h1v2h-1zm3 0h2v1h-2zm3 0h8v7h-8zm10 0h35v1h-35zm36 0h9v12h-9zm11 0h12v13h-12zm16 0h6v2h-6zm31 0h4v1h-4zm10 0h5v5h-5zm6 0h19v1h-19zm20 0h4v13h-4zm18 0h1v2h-1zm11 0h5v1h-5z"/><path d="M268 14h4v4h-4zm5 0h4v4h-4zm5 0h7v5h-7zm10 0h3v1h-3zm6 0h8v2h-8zM1 15h2v2H1zm11 0h5v26h-5zm69 0h6v1h-6zm10 0h9v1h-9zm10 0h1v89h-1zm31 0h4v70h-4zm15 0h1v12h-1zm14 0h1v88h-1zm35 0h3v1h-3zm7 0h9v4h-9zm10 0h7v6h-7zm9 0h15v1h-15zm29 0h2v3h-2zm7 0h1v1h-1z"/><path d="M263 15h9v1h-9zm14 0h8v4h-8zm13 0h12v1h-12zM3 16h3v1H3zm8 0h75v2H11zm89 0h2v27h-2zm4 0h32v19h-32zm44 0h22v1h-22zm39 0h11v1h-11zm25 0h9v5h-9zm10 0h7v6h-7zm8 0h10v6h-10zm29 0h1v1h-1zm5 0h2v1h-2zm22 0h6v6h-6zm8 0h1v9h-1zm3 0h5v1h-5zM8 17h2v1H8z"/><path d="M86 17h62v1H86zm76 0h9v6h-9zm26 0h2v1h-2zm3 0h7v4h-7zm11 0h40v2h-40zm60 0h1v1h-1zm3 0h2v1h-2zm7 0h13v1h-13zM9 18h11v8H9zm13 0h61v1H22zm64 0h4v1h-4z"/><path d="M91 18h80v3H91zm96 0h2v1h-2zm13 0h43v1h-43zm51 0h1v1h-1zm15 0h3v1h-3zm4 0h2v1h-2zm3 0h3v1h-3zm12 0h7v4h-7zm14 0h2v1h-2zM1 19h2v2H1zm21 0h5v1h-5zm7 0h6v1h-6zm7 0h50v1H36z"/><path d="M88 19h83v1H88zm100 0h15v1h-15zm19 0h36v1h-36zm43 0h1v1h-1zm11 0h2v1h-2zm3 0h2v1h-2zm4 0h1v1h-1zm12 0h12v2h-12zm15 0h1v40h-1zm4 0h1v4h-1zM3 20h17v6H3zm18 0h1v4h-1zm2 0h4v3h-4zm6 0h5v13h-5zm8 0h50v1H37zm52 0h82v1H89zm98 0h13v1h-13zm22 0h31v1h-31zm32 0h3v1h-3zm6 0h1v1h-1zm15 0h3v1h-3z"/><path d="M279 20h18v1h-18zM1 21h1v20H1zm19 0h15v2H20zm17 0h5v2h-5zm7 0h3v5h-3zm4 0h35v1H48zm38 0h2v1h-2zm4 0h4v1h-4zm7 0h77v2H97zm89 0h11v1h-11zm24 0h7v1h-7zm19 0h12v1h-12zm21 0h2v2h-2zm3 0h1v2h-1zm23 0h1v24h-1zm2 0h3v20h-3zm14 0h6v4h-6zm8 0h1v3h-1z"/><path d="M2 22h40v1H2zm41 0h4v4h-4zm5 0h34v1H48zm38 0h1v5h-1zm5 0h3v8h-3zm83 0h2v6h-2zm8 0h13v1h-13zm28 0h1v1h-1zm2 0h5v2h-5zm13 0h12v1h-12zm15 0h1v2h-1zm7 0h1v3h-1zm5 0h5v1h-5zm20 0h1v21h-1zm2 0h14v16h-14zm15 0h9v3h-9zM2 23h20v1H2zm25 0h11v1H27z"/><path d="M39 23h8v3h-8zm10 0h33v2H49zm41 0h76v1H90zm77 0h26v1h-26zm50 0h1v1h-1zm5 0h1v1h-1zm3 0h1v1h-1zm2 0h11v3h-11zm14 0h1v13h-1zm2 0h1v6h-1zm3 0h2v2h-2zm8 0h5v1h-5zm17 0h2v20h-2zm30 0h1v1h-1zM2 24h19v1H2zm21 0h2v10h-2zm3 0h2v15h-2z"/><path d="M34 24h54v1H34zm55 0h76v1H89zm78 0h21v1h-21zm47 0h2v1h-2zm4 0h1v2h-1zm20 0h2v1h-2zm4 0h6v1h-6zm13 0h1v1h-1zm5 0h3v6h-3zm7 0h1v1h-1zm6 0h25v1h-25zM2 25h18v1H2zm20 0h6v9h-6zm12 0h4v1h-4zm16 0h38v1H50zm40 0h96v1H90zm124 0h1v1h-1zm2 0h1v1h-1zm3 0h1v3h-1zm19 0h1v8h-1zm4 0h4v1h-4zm7 0h2v1h-2z"/><path d="M258 25h9v1h-9zm12 0h24v6h-24zm26 0h2v8h-2zm4 0h2v3h-2zM2 26h17v13H2zm19 0h13v7H21zm14 0h11v3H35zm13 0h22v1H48zm30 0h9v1h-9zm12 0h54v2H90zm55 0h3v1h-3zm17 0h20v1h-20zm55 0h1v1h-1zm11 0h16v1h-16zm17 0h2v2h-2zm12 0h1v16h-1zm2 0h10v4h-10z"/><path d="M294 26h5v5h-5zM19 27h15v6H19zm27 0h23v2H46zm24 0h16v32H70zm80 0h21v3h-21zm23 0h5v1h-5zm45 0h3v1h-3zm10 0h5v10h-5zm6 0h8v1h-8zm10 0h4v1h-4z"/><path d="M255 27h44v3h-44zM87 28h1v22h-1zm3 0h53v2H90zm81 0h3v67h-3zm4 0h4v3h-4zm45 0h2v4h-2zm7 0h12v1h-12zm13 0h5v1h-5z"/><path d="M253 28h47v1h-47zm48 0h1v1h-1zM35 29h7v4h-7zm8 0h2v4h-2zm4 0h17v1H47zm19 0h2v1h-2zm3 0h74v1H69zm105 0h5v2h-5zm48 0h4v10h-4zm5 0h10v2h-10zm12 0h4v3h-4zm13 0h2v14h-2zm47 0h1v20h-1z"/><path d="M34 30h15v2H34zm16 0h14v6H50zm15 0h2v2h-2zm4 0h23v20H69zm24 0h50v1H93zm58 0h29v1h-29zm75 0h19v1h-19zm28 0h6v12h-6zm8 0h40v1h-40z"/><path d="M49 31h18v1H49zm19 0h24v19H68zm25 0h49v4H93zm52 0h1v71h-1zm6 0h23v61h-23zm25 0h5v43h-5zm50 0h9v3h-9zm10 0h8v1h-8zm13 0h1v1h-1zm13 0h5v12h-5zm6 0h20v7h-20zm22 0h4v1h-4zm8 0h4v1h-4zM42 32h24v1H42z"/><path d="M92 32h91v3H92zm129 0h21v1h-21zm22 0h1v2h-1zm5 0h1v2h-1zm2 0h38v6h-38zm39 0h3v1h-3zm5 0h4v1h-4zm6 0h2v3h-2zM19 33h13v1H19zm14 0h8v1h-8zm9 0h2v2h-2zm3 0h21v2H45z"/><path d="M67 33h117v2H67zm152 0h1v7h-1zm2 0h17v1h-17zm21 0h2v1h-2zm5 0h44v1h-44zm46 0h4v1h-4zM19 34h5v1h-5zm6 0h7v4h-7zm9 0h10v1H34zm186 0h14v3h-14zm16 0h2v1h-2zm6 0h1v1h-1zm4 0h2v35h-2zm3 0h42v1h-42zm43 0h4v16h-4zm6 0h4v1h-4zM19 35h4v1h-4zm13 0h1v10h-1zm4 0h7v3h-7zm11 0h18v1H47zm20 0h41v8H67zm42 0h76v3h-76z"/><path d="M217 35h18v1h-18zm20 0h5v1h-5zm8 0h45v3h-45zm46 0h10v1h-10zM19 36h1v5h-1zm2 0h14v2H21zm25 0h3v50h-3zm6 0h13v1H52zm14 0h120v2H66zm170 0h5v1h-5z"/><path d="M244 36h46v2h-46zm47 0h6v1h-6zm7 0h2v13h-2zM20 37h30v1H20zm32 0h12v4H52zm134 0h1v15h-1zm34 0h12v1h-12zm14 0h1v13h-1zm8 0h1v11h-1zm48 0h6v13h-6zm11 0h1v10h-1zM20 38h8v1h-8zm10 0h12v1H30z"/><path d="M43 38h21v1H43zm23 0h109v5H66zm115 0h4v6h-4zm6 0h1v14h-1zm33 0h11v1h-11zm12 0h7v2h-7zm11 0h39v3h-39zm42 0h2v2h-2zm3 0h8v12h-8zm9 0h5v9h-5zM2 39h6v13H2zm7 0h2v13H9zm8 0h10v1H17zm12 0h12v1H29zm15 0h20v1H44z"/><path d="M175 39h13v5h-13zm43 0h2v1h-2zm5 0h7v1h-7zm8 0h8v1h-8zm51 0h2v23h-2zm5 0h15v8h-15zM8 40h3v12H8zm9 0h1v1h-1zm3 0h17v2H20zm18 0h2v1h-2zm7 0h19v1H45z"/><path d="M65 40h124v3H65zm160 0h4v1h-4zm6 0h7v2h-7zm9 0h46v1h-46zM11 41h5v2h-5zm26 0h1v56h-1zm8 0h18v2H45zm144 0h1v11h-1zm35 0h4v1h-4zm16 0h34v1h-34zm35 0h5v3h-5zm6 0h4v2h-4zm5 0h16v6h-16z"/><path d="M1 42h16v1H1zm19 0h10v1H20zm13 0h5v3h-5zm7 0h23v1H40zm24 0h127v1H64zm160 0h1v1h-1zm6 0h1v2h-1zm2 0h5v1h-5zm6 0h19v1h-19zm20 0h27v1h-27zM1 43h14v4H1zm15 0h2v3h-2zm4 0h3v3h-3zm5 0h3v8h-3zm15 0h22v2H40zm24 0h36v1H64zm38 0h89v1h-89zm121 0h1v1h-1z"/><path d="M229 43h2v1h-2zm4 0h4v2h-4zm6 0h13v2h-13zm14 0h3v2h-3zm4 0h6v2h-6zm7 0h8v7h-8zm9 0h11v1h-11zm12 0h17v4h-17zM15 44h8v2h-8zm9 0h5v6h-5zm39 0h36v1H63zm39 0h79v5h-79zm80 0h11v1h-11zm16 0h2v2h-2zm30 0h2v9h-2z"/><path d="M238 44h18v1h-18zm25 0h9v6h-9zm10 0h2v4h-2zm4 0h4v1h-4zm7 0h18v3h-18zM23 45h6v1h-6zm10 0h3v3h-3zm5 0h23v1H38zm24 0h35v2H62zm36 0h83v4H98zm85 0h18v1h-18zm44 0h3v2h-3zm6 0h3v3h-3zm4 0h7v3h-7zm8 0h6v11h-6zm7 0h3v10h-3zm4 0h5v1h-5zm19 0h1v2h-1zm3 0h2v1h-2z"/><path d="M281 45h21v2h-21zM15 46h1v1h-1zm3 0h2v2h-2zm3 0h2v2h-2zm8 0h31v2H29zm32 0h36v1H61zm120 0h1v53h-1zm3 0h14v2h-14zm15 0h3v37h-3zm27 0h10v1h-10zm18 0h7v10h-7zm11 0h5v2h-5zm17 0h4v1h-4zm5 0h2v1h-2z"/><path d="M280 46h22v1h-22zM1 47h13v2H1zm59 0h5v2h-5zm7 0h30v1H67zm115 0h21v1h-21zm44 0h1v1h-1zm4 0h31v1h-31zm32 0h13v1h-13zm15 0h1v2h-1zm3 0h21v1h-21zM14 48h2v24h-2zm6 0h1v1h-1zm3 0h12v2H23z"/><path d="M36 48h30v1H36zm31 0h27v2H67zm115 0h2v54h-2zm3 0h19v4h-19zm45 0h5v2h-5zm6 0h6v5h-6zm7 0h16v4h-16zm17 0h1v1h-1zm2 0h12v2h-12zm14 0h2v1h-2zm3 0h21v1h-21zm22 0h1v17h-1zM1 49h10v3H1zm11 0h5v2h-5zm10 0h14v1H22zm16 0h26v4H38z"/><path d="M65 49h76v1H65zm77 0h42v14h-42zm62 0h1v19h-1zm38 0h17v3h-17zm32 0h1v22h-1zm2 0h1v12h-1zm2 0h21v1h-21zm22 0h2v16h-2zM11 50h8v1h-8zm11 0h2v12h-2zm6 0h36v3H28zm37 0h22v3H65zm23 0h53v3H88zm117 0h2v29h-2zm22 0h5v2h-5zm6 0h1v5h-1z"/><path d="M235 50h24v2h-24zm26 0h7v1h-7zm8 0h8v1h-8zm9 0h2v1h-2zm3 0h8v4h-8zm9 0h2v7h-2zm3 0h5v1h-5zm6 0h3v4h-3zM11 51h5v21h-5zm7 0h2v12h-2zm6 0h3v2h-3zm40 0h147v1H64zm168 0h2v4h-2zm29 0h6v1h-6zm7 0h5v1h-5zm7 0h4v3h-4z"/><path d="M280 51h17v2h-17zm18 0h4v3h-4zM1 52h6v32H1zm19 0h166v1H20zm171 0h25v3h-25zm36 0h4v1h-4zm7 0h24v1h-24zm26 0h6v1h-6zm8 0h4v3h-4z"/><path d="M279 52h18v1h-18zM7 53h19v2H7zm20 0h16v1H27zm17 0h25v3H44zm42 0h9v5h-9zm10 0h121v1H96zm133 0h2v1h-2zm5 0h1v2h-1zm3 0h28v1h-28zm30 0h29v1h-29zm30 0h5v1h-5zM27 54h15v5H27z"/><path d="M69 54h26v4H69zm27 0h120v1H96zm140 0h23v1h-23zm24 0h5v2h-5zm7 0h8v1h-8zm10 0h10v1h-10zm11 0h11v2h-11zM7 55h1v24H7zm2 0h33v1H9z"/><path d="M43 55h52v1H43zm54 0h118v3H97zm131 0h5v1h-5zm8 0h7v4h-7zm15 0h2v17h-2zm4 0h1v5h-1zm2 0h8v1h-8zm9 0h3v6h-3zm4 0h7v1h-7zm8 0h2v2h-2zm3 0h3v4h-3zm4 0h1v6h-1zm2 0h15v1h-15zM8 56h8v16H8zm9 0h49v2H17zm51 0h27v1H68zm147 0h1v1h-1zm13 0h4v2h-4z"/><path d="M234 56h9v3h-9zm10 0h5v1h-5zm6 0h3v16h-3zm6 0h1v1h-1zm2 0h6v1h-6zm7 0h5v2h-5zm6 0h9v1h-9zm13 0h8v1h-8zm10 0h8v3h-8zM16 57h51v1H16zm79 0h1v6h-1zm132 0h5v1h-5z"/><path d="M233 57h10v2h-10zm11 0h4v11h-4zm9 0h3v3h-3zm5 0h5v1h-5zm12 0h9v4h-9zm14 0h5v2h-5zm6 0h1v57h-1zM16 58h10v3H16zm26 0h22v5H42zm24 0h2v13h-2zm3 0h24v1H69zm28 0h117v1H97zm119 0h1v1h-1zm10 0h2v1h-2zm3 0h3v10h-3z"/><path d="M243 58h14v2h-14zm15 0h1v1h-1zm2 0h2v6h-2zm5 0h4v3h-4zm24 0h3v2h-3zm4 0h9v1h-9zM26 59h3v6h-3zm4 0h3v1h-3zm5 0h29v4H35zm34 0h8v9h-8zm9 0h12v8H78zm13 0h5v4h-5zm6 0h115v2H97zm123 0h2v1h-2zm6 0h1v1h-1zm6 0h3v2h-3zm4 0h3v1h-3z"/><path d="M240 59h18v1h-18zm19 0h3v2h-3zm10 0h12v2h-12zm15 0h3v1h-3zm4 0h4v1h-4zm5 0h1v1h-1zm3 0h6v6h-6zM29 60h3v6h-3zm5 0h62v1H34zm183 0h1v2h-1zm2 0h2v2h-2zm5 0h2v4h-2zm4 0h7v1h-7zm8 0h2v1h-2zm5 0h7v2h-7zm12 0h2v2h-2z"/><path d="M257 60h7v1h-7zm24 0h5v1h-5zm6 0h4v10h-4zm5 0h1v2h-1zm3 0h7v5h-7zM16 61h4v2h-4zm8 0h8v2h-8zm40 0h32v2H64zm33 0h114v2H97zm117 0h4v1h-4zm12 0h1v3h-1zm2 0h4v1h-4zm5 0h2v4h-2zm15 0h7v1h-7zm10 0h1v13h-1zm4 0h4v1h-4zm5 0h4v1h-4zm5 0h4v1h-4zm6 0h7v1h-7z"/><path d="M286 61h7v1h-7zm8 0h8v4h-8zM20 62h1v2h-1zm3 0h11v1H23zm188 0h1v1h-1zm2 0h2v4h-2zm5 0h2v3h-2zm14 0h4v3h-4zm5 0h1v1h-1zm4 0h2v8h-2zm7 0h6v10h-6zm9 0h2v12h-2zm5 0h1v5h-1zm2 0h2v4h-2zm5 0h2v1h-2zm4 0h7v9h-7zm8 0h2v10h-2zm3 0h8v2h-8zM16 63h2v13h-2zm5 0h3v13h-3zm4 0h9v2h-9zm10 0h22v5H35zm24 0h36v2H59zm38 0h3v8h-3zm5 0h47v1h-47zm48 0h61v5h-61z"/><path d="M217 63h3v2h-3zm5 0h5v1h-5zm21 0h11v5h-11zm12 0h1v9h-1zm4 0h9v1h-9zm13 0h8v7h-8zm11 0h19v1h-19zM18 64h1v1h-1zm6 0h91v1H24zm92 0h2v130h-2zm3 0h93v2h-93zm96 0h1v1h-1zm7 0h3v1h-3zm6 0h8v1h-8zm9 0h1v2h-1z"/><path d="M254 64h5v3h-5zm7 0h6v1h-6zm19 0h4v8h-4zm5 0h17v1h-17zM19 65h6v1h-6zm7 0h1v13h-1zm2 0h65v1H28zm66 0h21v1H94zm125 0h1v6h-1zm2 0h2v1h-2zm3 0h2v1h-2zm10 0h2v3h-2zm4 0h2v3h-2zm23 0h5v1h-5z"/><path d="M269 65h15v2h-15zm16 0h16v2h-16zM19 66h5v8h-5zm8 0h4v1h-4zm5 0h59v1H32zm61 0h20v2H93zm21 0h4v128h-4zm5 0h20v1h-20zm21 0h72v1h-72zm78 0h2v3h-2zm4 0h2v2h-2zm3 0h3v1h-3zm7 0h5v2h-5zm29 0h4v1h-4z"/><path d="M268 66h34v1h-34zM24 67h3v9h-3zm4 0h4v7h-4zm5 0h25v1H33zm26 0h18v1H59zm19 0h6v1h-6zm7 0h53v1H85zm54 0h72v1h-72zm82 0h3v1h-3zm5 0h2v3h-2zm11 0h3v1h-3zm17 0h2v5h-2zm5 0h3v6h-3zm4 0h3v3h-3zm4 0h2v2h-2zm4 0h20v3h-20zm22 0h6v48h-6zm7 0h2v68h-2z"/><path d="M18 68h14v6H18zm15 0h19v15H33zm21 0h2v5h-2zm3 0h1v1h-1zm2 0h13v1H59zm14 0h1v62h-1zm3 0h2v43h-2zm3 0h30v3H79zm32 0h27v17h-27zm28 0h64v6h-64zm68 0h3v1h-3zm9 0h4v1h-4zm9 0h4v2h-4zm5 0h3v3h-3zm6 0h2v2h-2zm4 0h4v1h-4zm5 0h11v1h-11zm21 0h3v1h-3zm4 0h22v1h-22zm29 0h3v67h-3z"/><path d="M32 69h24v1H32zm29 0h13v2H61zm14 0h133v2H75zm145 0h1v2h-1zm3 0h1v1h-1zm6 0h4v2h-4zm11 0h3v1h-3zm7 0h21v1h-21zm44 0h11v5h-11zM52 70h4v3h-4zm6 0h2v1h-2z"/><path d="M74 70h134v1H74zm147 0h2v1h-2zm4 0h1v1h-1zm9 0h1v48h-1zm3 0h3v1h-3zm6 0h1v1h-1zm2 0h1v5h-1zm2 0h16v1h-16zm17 0h4v1h-4zm6 0h2v2h-2zm14 0h3v3h-3zm4 0h14v4h-14zM32 71h24v2H32zm27 0h3v24h-3zm4 0h1v2h-1zm2 0h1v24h-1zm2 0h31v1H67zm32 0h108v3H99zm112 0h2v1h-2zm4 0h2v3h-2zm7 0h2v1h-2zm4 0h1v2h-1z"/><path d="M231 71h5v1h-5zm8 0h1v13h-1zm3 0h1v1h-1zm4 0h10v1h-10zm16 0h5v2h-5zm6 0h4v1h-4zm5 0h1v2h-1zm3 0h11v1h-11zM8 72h5v4H8zm7 0h41v1H15zm43 0h16v1H58zm20 0h130v1H78zm133 0h1v3h-1zm8 0h2v1h-2z"/><path d="M232 72h10v4h-10zm14 0h4v1h-4zm6 0h3v1h-3zm4 0h15v1h-15zm16 0h2v1h-2zm6 0h3v39h-3zm4 0h20v1h-20zM32 73h23v10H32zm25 0h5v16h-5zm7 0h10v6H64zm14 0h5v15h-5zm6 0h123v1H84zm130 0h4v1h-4z"/><path d="M228 73h16v3h-16zm18 0h2v1h-2zm3 0h4v3h-4zm6 0h4v1h-4zm8 0h1v5h-1zm18 0h1v44h-1zm3 0h2v1h-2zm3 0h15v1h-15zM18 74h2v1h-2zm9 0h3v6h-3zm4 0h24v3H31zm31 0h115v5H62zm116 0h29v4h-29zm32 0h5v1h-5zm9 0h1v40h-1zm4 0h2v50h-2z"/><path d="M227 74h19v1h-19zm21 0h8v1h-8zm13 0h1v66h-1zm9 0h2v2h-2zm4 0h2v2h-2zm3 0h8v2h-8zm9 0h5v37h-5zm6 0h10v40h-10zM13 75h5v1h-5zm6 0h11v1H19zm36 0h122v4H55zm154 0h2v1h-2zm11 0h25v1h-25zm26 0h9v1h-9zm11 0h1v61h-1zm9 0h1v4h-1z"/><path d="M273 75h18v1h-18zM8 76h3v3H8zm5 0h3v4h-3zm9 0h1v1h-1zm3 0h5v2h-5zm152 0h32v2h-32zm37 0h2v2h-2zm3 0h12v2h-12zm13 0h1v4h-1zm2 0h9v2h-9zm10 0h2v2h-2zm3 0h3v1h-3zm5 0h6v5h-6zm8 0h1v39h-1zm4 0h3v2h-3zm9 0h2v9h-2zm3 0h1v3h-1zm2 0h6v1h-6zm7 0h19v35h-19z"/><path d="M11 77h9v3h-9zm13 0h6v1h-6zm185 0h1v1h-1zm3 0h35v1h-35zm36 0h8v4h-8zm29 0h25v1h-25zM20 78h6v3h-6zm10 0h174v1H30zm177 0h2v2h-2zm6 0h1v42h-1zm2 0h2v42h-2zm3 0h20v2h-20zm22 0h2v2h-2zm3 0h3v1h-3z"/><path d="M247 78h9v3h-9zm15 0h1v52h-1zm2 0h3v1h-3zm5 0h8v1h-8zm13 0h20v33h-20zM26 79h40v1H26zm41 0h137v1H67zm139 0h4v1h-4zm5 0h27v1h-27zm32 0h2v1h-2z"/><path d="M246 79h10v2h-10zm18 0h2v5h-2zm3 0h1v1h-1zm2 0h5v6h-5zm6 0h27v4h-27zM7 80h1v7H7zm4 0h3v1h-3zm5 0h10v1H16zm12 0h175v1H28zm184 0h18v3h-18zm19 0h7v1h-7zm9 0h1v2h-1zm2 0h2v1h-2z"/><path d="M245 80h11v1h-11zm29 0h28v3h-28zM8 81h4v1H8zm6 0h11v1H14zm13 0h35v2H27zm36 0h139v1H63zm147 0h27v1h-27zm31 0h2v3h-2zm3 0h11v26h-11z"/><path d="M266 81h36v2h-36zM8 82h2v5H8zm6 0h2v6h-2zm3 0h2v1h-2zm3 0h1v1h-1zm2 0h3v3h-3zm4 0h115v1H26zm117 0h60v1h-60zm63 0h3v1h-3zm24 0h7v2h-7zm13 0h12v25h-12z"/><path d="M263 82h39v1h-39zM16 83h1v5h-1zm2 0h1v3h-1zm3 0h30v2H21zm31 0h148v2H52zm150 0h1v1h-1zm4 0h2v1h-2zm5 0h1v9h-1zm3 0h15v10h-15zm24 0h17v1h-17zm18 0h3v32h-3zm7 0h4v1h-4zm5 0h8v1h-8zm9 0h25v5h-25zM1 84h2v1H1zm4 0h5v2H5z"/><path d="M12 84h188v1H12zm198 0h2v8h-2zm21 0h8v33h-8zm9 0h2v3h-2zm23 0h1v46h-1zm2 0h3v29h-3zm9 0h2v28h-2zM10 85h12v1H10zm14 0h108v1H24zm109 0h69v1h-69z"/><path d="M209 85h30v5h-30zm33 0h13v22h-13zm22 0h7v2h-7zm8 0h30v1h-30zM0 86h1v2H0zm10 0h2v1h-2zm3 0h5v2h-5zm8 0h26v1H21zm27 0h41v2H48zm43 0h110v3H91zm112 0h1v2h-1z"/><path d="M208 86h47v1h-47zm52 0h12v1h-12zm13 0h29v2h-29zM2 87h3v1H2zm9 0h7v1h-7zm8 0h1v15h-1zm3 0h14v1H22zm16 0h166v1H38zm169 0h34v2h-34zm57 0h4v1h-4zm6 0h2v25h-2zM3 88h4v3H3zm6 0h6v1H9z"/><path d="M17 88h17v2H17zm18 0h13v2H35zm14 0h31v1H49zm32 0h122v1H81zm125 0h35v1h-35zm54 0h4v27h-4zm9 0h8v24h-8zM2 89h5v2H2zm7 0h1v2H9z"/><path d="M12 89h22v1H12zm36 0h10v4H48zm14 0h17v6H62zm19 0h12v1H81zm13 0h107v2H94zm112 0h2v3h-2zm33 0h2v25h-2zm25 0h38v1h-38zM1 90h6v1H1zm9 0h1v2h-1zm3 0h4v2h-4zm5 0h16v2H18z"/><path d="M36 90h43v3H36zm45 0h10v1H81zm11 0h109v1H92zm113 0h24v1h-24zm25 0h25v17h-25zm38 0h34v1h-34zM1 91h1v1H1zm3 0h2v1H4zm7 0h1v5h-1zm6 0h17v1H17zm62 0h5v4h-5zm6 0h46v1H85zm47 0h68v1h-68zm70 0h1v3h-1zm3 0h4v1h-4z"/><path d="M229 91h35v16h-35zm48 0h25v20h-25zM14 92h14v1H14zm16 0h5v2h-5zm54 0h5v2h-5zm6 0h41v2H90zm42 0h31v1h-31zm33 0h27v2h-27zm28 0h10v1h-10zm11 0h2v1h-2zm3 0h4v2h-4z"/><path d="M268 92h34v19h-34zM7 93h2v6H7zm5 0h1v4h-1zm5 0h11v2H17zm19 0h20v1H36zm22 0h31v1H58zm74 0h30v1h-30zm61 0h7v2h-7zm8 0h4v1h-4zm5 0h6v1h-6z"/><path d="M217 93h85v14h-85zM9 94h4v2H9zm7 0h13v1H16zm14 0h1v19h-1zm2 0h3v1h-3zm6 0h6v4h-6zm8 0h11v13H46zm12 0h28v1H58zm29 0h5v2h-5zm6 0h12v1H93zm13 0h25v2h-25zm26 0h2v3h-2zm4 0h26v8h-26zm29 0h23v1h-23zm25 0h12v1h-12zm13 0h6v1h-6z"/><path d="M210 94h92v1h-92zM6 95h20v1H6zm21 0h2v1h-2zm4 0h1v15h-1zm14 0h15v1H45zm16 0h4v14h-4zm6 0h16v1H67zm19 0h18v1H86zm76 0h10v4h-10zm11 0h20v1h-20zm22 0h13v1h-13zm14 0h2v2h-2zm3 0h90v12h-90zM5 96h5v1H5zm8 0h3v1h-3zm4 0h6v6h-6zm8 0h3v1h-3zm7 0h1v13h-1zm3 0h1v4h-1zm9 0h14v1H44z"/><path d="M59 96h6v2h-6zm7 0h2v13h-2zm3 0h14v1H69zm19 0h2v8h-2zm3 0h13v3H91zm14 0h21v2h-21zm22 0h59v1h-59zm61 0h1v2h-1zm2 0h2v4h-2zm4 0h3v1h-3zm4 0h8v1h-8zm10 0h3v1h-3zM4 97h1v9H4zm5 0h3v2H9zm5 0h11v1H14zm12 0h2v2h-2zm7 0h3v3h-3zm12 0h13v10H45zm25 0h10v12H70zm12 0h2v1h-2z"/><path d="M85 97h46v1H85zm48 0h56v1h-56zm61 0h2v1h-2zm3 0h3v6h-3zm5 0h4v1h-4zm5 0h3v1h-3zm4 0h91v10h-91zM0 98h2v3H0zm5 0h1v113H5zm7 0h12v3H12zm16 0h8v1h-8zm10 0h4v1h-4zm5 0h15v1H43zm16 0h1v17h-1zm9 0h1v13h-1zm12 0h1v15h-1zm3 0h40v1H83zm42 0h6v1h-6zm7 0h56v1h-56zm57 0h4v2h-4z"/><path d="M196 98h6v1h-6zm7 0h6v1h-6zM6 99h2v115H6zm4 0h16v1H10zm19 0h7v1h-7zm12 0h3v1h-3zm17 0h24v6H58zm25 0h3v2h-3zm4 0h7v4h-7zm8 0h30v1H95zm33 0h3v1h-3zm4 0h31v3h-31zm33 0h16v3h-16zm19 0h4v2h-4zm12 0h5v4h-5zm7 0h4v5h-4zm6 0h93v8h-93z"/><path d="M3 100h6v6H3zm21 0h11v1H24zm14 0h5v3h-5zm44 0h12v1H82zm13 0h27v1H95zm28 0h7v11h-7zm40 0h1v21h-1zm18 0h9v1h-9zm10 0h1v1h-1zm3 0h7v2h-7zm8 0h100v3H202zM0 101h1v46H0zm9 0h2v1H9zm3 0h2v3h-2zm3 0h9v1h-9z"/><path d="M25 101h18v2H25zm19 0h39v4H44zm50 0h1v3h-1zm2 0h34v3H96zm35 0h33v1h-33zm50 0h4v1h-4zm5 0h4v1h-4zm7 0h109v1H193zM1 102h9v1H1zm14 0h4v10h-4z"/><path d="M22 102h21v1H22zm64 0h59v1H86zm60 0h18v1h-18zm19 0h1v18h-1zm2 0h14v2h-14zm16 0h2v8h-2zm3 0h3v2h-3zm15 0h101v1H201zM1 103h8v3H1zm13 0h21v2H14zm23 0h2v4h-2zm4 0h46v2H41zm49 0h3v1h-3zm5 0h58v1H95zm61 0h4v6h-4z"/><path d="M162 103h4v17h-4zm23 0h4v1h-4zm5 0h6v1h-6zm8 0h4v5h-4zm9 0h95v4h-95zM9 104h2v1H9zm4 0h22v1H13zm23 0h3v2h-3zm59 0h6v3h-6zm7 0h32v1h-32zm34 0h4v1h-4zm5 0h1v1h-1zm2 0h4v1h-4zm5 0h6v3h-6z"/><path d="M160 104h14v2h-14zm15 0h11v1h-11zm13 0h2v1h-2zm4 0h1v5h-1zm2 0h2v4h-2zm3 0h8v1h-8zm9 0h96v3h-96zM9 105h1v1H9zm2 0h22v1H11zm28 0h42v2H39zm43 0h6v11h-6zm9 0h29v2H91zm30 0h16v1h-16zm17 0h1v1h-1zm4 0h3v1h-3zm4 0h8v2h-8zm28 0h1v1h-1zm2 0h10v3h-10z"/><path d="M190 105h14v1h-14zm15 0h97v2h-97zM1 106h2v11H1zm7 0h1v116H8zm2 0h10v2H10zm11 0h12v3H21zm69 0h30v1H90zm31 0h14v1h-14zm21 0h2v1h-2zm3 0h9v1h-9zm10 0h18v1h-18zm20 0h11v1h-11zm12 0h6v1h-6z"/><path d="M197 106h105v1H197zM9 107h24v1H9zm25 0h2v3h-2zm4 0h1v5h-1zm2 0h8v1h-8zm9 0h41v2H49zm42 0h4v6h-4zm5 0h23v6H96zm24 0h14v2h-14zm27 0h5v1h-5zm13 0h11v3h-11zm13 0h1v1h-1zm15 0h14v1h-14zm15 0h44v3h-44zm46 0h53v3h-53zM9 108h1v110H9z"/><path d="M11 108h32v1H11zm33 0h3v9h-3zm4 0h86v1H48zm100 0h3v1h-3zm4 0h20v1h-20zm23 0h1v2h-1zm2 0h10v1h-10zm11 0h3v1h-3zm5 0h1v1h-1zm3 0h2v1h-2zm4 0h47v2h-47zM4 109h17v3H4zm18 0h10v1H22zm11 0h10v1H33zm14 0h17v1H47zm20 0h3v2h-3zm5 0h48v2H72zm49 0h14v1h-14zm25 0h3v2h-3zm4 0h6v1h-6zm7 0h16v1h-16zm21 0h3v1h-3zm8 0h4v1h-4zm8 0h2v1h-2zm3 0h1v2h-1z"/><path d="M199 109h49v1h-49zM3 110h20v2H3zm21 0h7v3h-7zm11 0h19v2H35zm20 0h10v3H55zm11 0h66v1H66zm67 0h2v3h-2zm8 0h2v16h-2zm10 0h1v3h-1zm2 0h17v5h-17zm27 0h1v2h-1zm7 0h1v1h-1zm2 0h4v4h-4zm5 0h1v8h-1zm5 0h7v2h-7zm8 0h41v2h-41zm43 0h52v1h-52z"/><path d="M23 111h9v2h-9zm11 0h34v1H34zm36 0h6v9h-6zm7 0h1v1h-1zm2 0h49v1H79zm50 0h3v1h-3zm9 0h6v1h-6zm8 0h1v1h-1zm3 0h1v4h-1zm3 0h18v2h-18zm21 0h1v2h-1zm5 0h1v4h-1zm3 0h1v1h-1zm2 0h1v9h-1zm3 0h1v10h-1zm7 0h2v7h-2zm3 0h1v3h-1zm2 0h8v1h-8zm52 0h29v1h-29zm30 0h2v6h-2zm3 0h5v3h-5zm6 0h13v3h-13zM3 112h15v2H3z"/><path d="M19 112h16v1H19zm18 0h1v4h-1zm4 0h27v1H41zm38 0h48v1H79zm51 0h1v3h-1zm9 0h5v1h-5zm8 0h27v1h-27zm28 0h1v1h-1zm4 0h1v4h-1zm3 0h5v8h-5zm13 0h5v1h-5zm6 0h4v2h-4zm6 0h4v7h-4zm5 0h36v2h-36zm37 0h22v1h-22zm23 0h1v1h-1zm7 0h23v2h-23zm-261 1h12v1H18zm14 0h4v1h-4zm8 0h24v1H40zm28 0h9v1h-9zm13 0h12v1H81zm14 0h11v2H95zm12 0h20v7h-20z"/><path d="M129 113h2v2h-2zm5 0h1v1h-1zm6 0h4v13h-4zm6 0h4v2h-4zm26 0h1v2h-1zm5 0h22v1h-22zm29 0h42v1h-42zm43 0h18v1h-18zm20 0h1v17h-1zm5 0h28v1h-28zM3 114h14v3H3zm17 0h8v1h-8zm15 0h26v1H35zm28 0h1v1h-1zm2 0h11v6H65zm16 0h11v2H81zm46 0h1v1h-1zm8 0h1v2h-1zm2 0h1v1h-1z"/><path d="M139 114h11v1h-11zm13 0h18v1h-18zm19 0h3v1h-3zm5 0h14v1h-14zm19 0h1v1h-1zm2 0h2v1h-2zm6 0h1v3h-1zm2 0h9v1h-9zm12 0h2v6h-2zm3 0h19v3h-19zm21 0h7v2h-7zm8 0h15v1h-15zm17 0h1v8h-1zm5 0h16v1h-16zm17 0h2v6h-2zm3 0h1v5h-1zm-274 1h3v7h-3zm6 0h5v2h-5zm8 0h25v1H31zm27 0h1v4h-1zm6 0h12v3H64zm29 0h12v1H93zm13 0h21v5h-21zm22 0h2v1h-2zm4 0h5v1h-5zm6 0h11v2h-11zm13 0h1v11h-1zm4 0h16v1h-16zm21 0h2v1h-2zm4 0h11v1h-11zm16 0h2v2h-2zm4 0h1v1h-1zm4 0h2v1h-2zm7 0h3v4h-3z"/><path d="M219 115h29v1h-29zm30 0h9v1h-9zm10 0h1v18h-1zm6 0h19v1h-19zm20 0h2v10h-2zm8 0h2v1h-2zm3 0h6v1h-6zm-276 1h1v18h-1zm2 0h8v1h-8zm9 0h6v1h-6zm8 0h21v1H39zm24 0h17v2H63zm21 0h7v2h-7zm10 0h2v1h-2zm3 0h8v3h-8zm32 0h6v1h-6zm20 0h3v10h-3zm5 0h13v4h-13zm14 0h3v1h-3zm13 0h14v1h-14zm20 0h4v1h-4zm13 0h30v1h-30zm31 0h1v1h-1zm4 0h5v1h-5z"/><path d="M256 116h11v6h-11zm12 0h16v1h-16zm19 0h3v4h-3zm5 0h1v46h-1zm2 0h1v3h-1zm3 0h5v16h-5zM1 117h1v100H1zm2 0h9v28H3zm10 0h10v1H13zm11 0h4v1h-4zm5 0h7v3h-7zm10 0h7v21h-7zm8 0h8v2h-8zm9 0h3v2h-3zm5 0h21v1H61zm30 0h4v3h-4zm14 0h22v3h-22zm24 0h1v2h-1zm8 0h1v1h-1zm2 0h9v2h-9zm13 0h18v2h-18zm35 0h10v1h-10zm11 0h5v1h-5zm8 0h32v1h-32zm34 0h3v2h-3zm8 0h1v31h-1zm2 0h3v1h-3z"/><path d="M254 117h13v3h-13zm14 0h13v1h-13zm14 0h8v2h-8zm13 0h1v3h-1zM2 118h20v4H2zm25 0h1v5h-1zm11 0h26v1H38zm39 0h5v2h-5zm7 0h1v1h-1zm2 0h44v1H86zm48 0h3v1h-3zm14 0h23v1h-23zm26 0h2v2h-2zm4 0h1v1h-1zm2 0h14v1h-14zm15 0h2v1h-2zm3 0h1v2h-1zm2 0h1v1h-1zm2 0h3v1h-3zm4 0h28v1h-28zm31 0h1v45h-1zm2 0h4v1h-4zm6 0h7v2h-7zm22 0h3v12h-3zm4 0h10v5h-10zm19 0h3v1h-3zm6 0h6v14h-6z"/><path d="M26 119h28v1H26zm29 0h1v5h-1zm5 0h1v2h-1zm2 0h21v1H62zm25 0h15v1H87zm16 0h25v1h-25zm30 0h3v1h-3zm11 0h25v1h-25zm33 0h1v2h-1zm2 0h8v1h-8zm9 0h8v1h-8zm14 0h2v1h-2zm4 0h2v1h-2zm4 0h1v1h-1zm2 0h23v1h-23zm24 0h2v41h-2zm3 0h2v2h-2zm3 0h39v1h-39zm40 0h2v8h-2zm8 0h1v81h-1zm-268 1h13v1H22zm14 0h11v7H36zm12 0h1v2h-1z"/><path d="M50 120h8v1h-8zm11 0h2v1h-2zm3 0h11v1H64zm15 0h4v1h-4zm8 0h6v1h-6zm7 0h8v2h-8zm10 0h22v1h-22zm28 0h1v3h-1zm2 0h3v8h-3zm4 0h27v1h-27zm34 0h3v1h-3zm4 0h2v1h-2zm3 0h3v1h-3zm8 0h8v1h-8zm22 0h1v94h-1zm5 0h1v4h-1zm4 0h16v2h-16zm20 0h7v1h-7zm8 0h7v1h-7zm8 0h1v4h-1zm16 0h11v3h-11zm17 0h1v2h-1zm2 0h2v3h-2zm4 0h1v41h-1zm-271 1h10v1H22zm11 0h17v1H33zm18 0h7v1h-7zm8 0h1v21h-1zm5 0h6v3h-6zm7 0h4v2h-4zm10 0h1v6h-1zm7 0h1v4h-1zm2 0h2v2h-2zm13 0h16v5h-16zm17 0h5v26h-5z"/><path d="M130 121h32v1h-32zm57 0h4v1h-4zm5 0h4v2h-4zm14 0h1v1h-1zm2 0h3v13h-3zm9 0h23v1h-23zm24 0h4v1h-4zm5 0h6v1h-6zm7 0h28v1h-28zm35 0h3v2h-3zM2 122h16v18H2zm17 0h9v1h-9zm11 0h18v1H30zm22 0h10v2H52zm11 0h13v1H63zm15 0h1v9h-1zm7 0h7v1h-7zm10 0h30v1H95zm32 0h25v1h-25zm26 0h5v1h-5zm7 0h1v1h-1zm26 0h4v16h-4zm10 0h1v2h-1zm7 0h1v5h-1zm10 0h2v1h-2zm4 0h3v1h-3zm4 0h6v2h-6zm9 0h9v1h-9zm11 0h3v5h-3zm4 0h6v1h-6zm8 0h5v2h-5zm7 0h6v8h-6zm24 0h3v3h-3zm10 0h8v10h-8zm-276 1h7v1h-7zm8 0h1v85h-1zm2 0h1v2h-1zm5 0h14v4H33z"/><path d="M49 123h14v1H49zm21 0h1v2h-1zm4 0h8v4h-8zm9 0h4v1h-4zm12 0h1v3h-1zm2 0h28v3H97zm30 0h5v1h-5zm6 0h23v1h-23zm49 0h8v3h-8zm12 0h3v1h-3zm11 0h6v3h-6zm7 0h1v6h-1zm6 0h2v4h-2zm9 0h4v4h-4zm5 0h7v4h-7zm8 0h6v4h-6zm7 0h26v1h-26zm27 0h7v4h-7zm14 0h1v80h-1zm-270 1h6v1h-6zm11 0h3v15h-3zm18 0h6v4h-6zm9 0h7v18h-7zm8 0h1v51h-1z"/><path d="M66 124h6v1h-6zm19 0h2v1h-2zm11 0h33v1H96zm35 0h7v1h-7zm8 0h16v1h-16zm41 0h10v2h-10zm11 0h2v2h-2zm13 0h9v2h-9zm12 0h8v2h-8zm10 0h13v3h-13zm20 0h8v1h-8zm9 0h26v1h-26zm34 0h13v8h-13zm-271 1h3v9h-3zm4 0h5v19h-5zm10 0h21v2H32zm31 0h6v1h-6zm8 0h13v2H71zm15 0h1v3h-1zm3 0h7v1h-7zm36 0h1v74h-1zm5 0h7v1h-7zm9 0h13v1h-13z"/><path d="M190 125h3v1h-3zm4 0h6v1h-6zm7 0h50v1h-50zm51 0h2v2h-2zm3 0h15v1h-15zm16 0h10v1h-10zm13 0h1v33h-1zm2 0h1v81h-1zm-265 1h6v18h-6zm7 0h40v1H28zm57 0h3v1h-3zm4 0h5v1h-5zm9 0h5v1h-5zm6 0h22v2h-22zm25 0h4v1h-4zm14 0h3v2h-3zm38 0h3v1h-3zm4 0h6v1h-6zm7 0h6v1h-6zm7 0h1v1h-1zm2 0h1v35h-1zm3 0h3v2h-3zm7 0h10v1h-10z"/><path d="M223 126h43v1h-43zm48 0h2v61h-2zm14 0h17v6h-17zm-258 1h19v11H27zm26 0h15v10H53zm17 0h11v1H70zm12 0h5v1h-5zm9 0h3v1h-3zm7 0h3v4h-3zm32 0h3v1h-3zm16 0h1v1h-1zm22 0h1v7h-1zm10 0h3v1h-3zm4 0h1v8h-1zm8 0h1v16h-1zm3 0h6v3h-6zm7 0h3v1h-3zm7 0h6v2h-6zm7 0h5v1h-5zm6 0h2v4h-2zm3 0h5v1h-5zm6 0h1v8h-1zm3 0h3v2h-3zm7 0h4v32h-4zm5 0h9v1h-9zm10 0h12v3h-12zm20 0h3v3h-3zm4 0h3v33h-3z"/><path d="M283 127h19v5h-19zm-237 1h1v22h-1zm4 0h18v9H50zm19 0h11v1H69zm14 0h3v1h-3zm9 0h2v1h-2zm5 0h5v1h-5zm8 0h21v3h-21zm28 0h3v1h-3zm11 0h1v1h-1zm23 0h5v1h-5zm11 0h2v2h-2zm5 0h8v7h-8zm17 0h2v33h-2zm5 0h8v1h-8zm10 0h10v1h-10zm11 0h2v18h-2zm5 0h21v1h-21zm42 0h8v2h-8z"/><path d="M48 129h31v1H48zm35 0h1v2h-1zm18 0h27v1h-27zm31 0h1v2h-1zm3 0h1v1h-1zm31 0h1v2h-1zm3 0h5v1h-5zm12 0h30v1h-30zm32 0h11v2h-11zm20 0h19v1h-19zm33 0h4v1h-4zm15 0h21v3h-21zm-233 1h22v7H48zm31 0h1v1h-1zm23 0h1v1h-1zm24 0h1v69h-1zm14 0h1v3h-1zm27 0h4v1h-4zm13 0h11v1h-11zm12 0h2v16h-2zm3 0h16v3h-16zm30 0h3v16h-3zm7 0h19v1h-19zm22 0h8v3h-8zm10 0h5v3h-5zm6 0h6v54h-6z"/><path d="M277 130h25v2h-25zm-230 1h23v6H47zm26 0h2v1h-2zm35 0h19v3h-19zm29 0h1v5h-1zm2 0h4v2h-4zm12 0h1v1h-1zm19 0h1v5h-1zm3 0h1v10h-1zm8 0h40v1h-40zm41 0h8v4h-8zm9 0h19v1h-19zm-161 1h1v15h-1zm3 0h1v1h-1zm54 0h1v66h-1zm22 0h2v1h-2z"/><path d="M167 132h8v2h-8zm9 0h1v1h-1zm5 0h39v1h-39zm40 0h9v3h-9zm10 0h1v4h-1zm2 0h18v4h-18zm19 0h1v2h-1zm11 0h6v1h-6zm13 0h21v26h-21zm22 0h4v3h-4zm-168 1h2v1h-2zm6 0h2v1h-2zm3 0h1v3h-1zm2 0h1v1h-1zm6 0h3v2h-3zm12 0h2v1h-2z"/><path d="M164 133h11v1h-11zm13 0h17v1h-17zm19 0h24v1h-24zm34 0h29v1h-29zm30 0h2v5h-2zm3 0h3v2h-3zm4 0h30v25h-30zm-158 1h20v4h-20zm31 0h1v1h-1zm4 0h6v1h-6zm20 0h2v1h-2zm3 0h1v2h-1zm2 0h5v2h-5zm7 0h3v2h-3zm5 0h29v1h-29zm30 0h5v2h-5zm7 0h34v1h-34z"/><path d="M254 134h8v2h-8zm43 0h5v1h-5zm-279 1h53v2H18zm54 0h2v1h-2zm3 0h2v3h-2zm13 0h1v1h-1zm15 0h1v1h-1zm33 0h4v1h-4zm7 0h4v1h-4zm31 0h1v23h-1zm10 0h45v1h-45zm46 0h2v1h-2z"/><path d="M251 135h14v1h-14zm46 0h4v3h-4zm-224 1h4v2h-4zm13 0h1v4h-1zm5 0h2v2h-2zm11 0h1v1h-1zm39 0h1v5h-1zm2 0h3v1h-3zm25 0h2v1h-2zm3 0h4v5h-4zm5 0h2v35h-2zm8 0h1v1h-1zm7 0h24v9h-24zm25 0h15v8h-15zm18 0h23v2h-23zm25 0h6v2h-6zm42 0h1v3h-1zm-283 1h45v1H18z"/><path d="M65 137h12v1H65zm13 0h1v3h-1zm6 0h3v1h-3zm5 0h4v1h-4zm7 0h1v1h-1zm33 0h1v60h-1zm2 0h9v1h-9zm11 0h2v1h-2zm5 0h1v4h-1zm23 0h9v1h-9zm11 0h2v3h-2zm4 0h30v1h-30zm46 0h71v1h-71zm-213 1h20v1H18zm22 0h23v4H40zm25 0h8v1h-8zm9 0h2v1h-2zm5 0h1v25h-1zm4 0h1v6h-1zm2 0h2v1h-2zm3 0h4v1h-4z"/><path d="M110 138h21v1h-21zm22 0h2v1h-2zm3 0h1v7h-1zm4 0h3v1h-3zm5 0h1v7h-1zm2 0h3v2h-3zm24 0h8v3h-8zm10 0h3v1h-3zm4 0h2v2h-2zm3 0h48v1h-48zm51 0h22v1h-22zm24 0h38v19h-38zm-244 1h13v5H18zm14 0h40v3H32zm48 0h4v3h-4zm9 0h1v1h-1zm21 0h20v3h-20z"/><path d="M134 139h2v3h-2zm5 0h1v2h-1zm3 0h3v2h-3zm9 0h2v2h-2zm18 0h11v2h-11zm17 0h1v6h-1zm2 0h69v1h-69zm70 0h2v2h-2zm42 0h1v21h-1zM2 140h15v1H2zm29 0h46v1H31z"/><path d="M132 140h14v1h-14zm16 0h1v1h-1zm2 0h3v1h-3zm10 0h1v1h-1zm21 0h1v2h-1zm4 0h2v5h-2zm4 0h72v1h-72zM2 141h12v4H2zm14 0h57v1H16zm58 0h10v1H74zm56 0h1v38h-1zm3 0h5v1h-5zm10 0h3v1h-3zm23 0h6v3h-6z"/><path d="M175 141h7v1h-7zm8 0h4v3h-4zm5 0h71v2h-71zm72 0h41v16h-41zm-246 1h44v1H14zm47 0h12v1H61zm13 0h7v1h-7zm10 0h1v2h-1zm27 0h20v5h-20zm25 0h7v1h-7zm9 0h2v4h-2zm3 0h1v5h-1zm3 0h1v5h-1zm13 0h14v2h-14zm15 0h2v19h-2z"/><path d="M182 142h120v1H182zm-168 1h38v1H14zm39 0h5v1h-5zm6 0h13v2H59zm16 0h11v1H75zm21 0h2v10h-2zm35 0h1v54h-1zm2 0h9v1h-9zm10 0h7v1h-7zm9 0h1v4h-1zm10 0h19v1h-19zm20 0h7v1h-7zm33 0h17v1h-17zm18 0h69v1h-69zm-219 1h11v3H14zm13 0h23v1H27zm24 0h1v7h-1z"/><path d="M55 144h18v1H55zm20 0h8v2h-8zm23 0h1v16h-1zm34 0h6v1h-6zm7 0h2v3h-2zm8 0h6v1h-6zm7 0h1v1h-1zm4 0h4v1h-4zm5 0h6v1h-6zm8 0h2v2h-2zm4 0h8v6h-8zm9 0h4v1h-4zm6 0h40v1h-40zm42 0h20v2h-20zm21 0h4v61h-4zm5 0h44v2h-44zM2 145h1v70H2zm8 0h39v1H10zm42 0h3v4h-3zm4 0h3v2h-3zm5 0h12v2H61zm31 0h1v2h-1z"/><path d="M95 145h4v1h-4zm37 0h1v52h-1zm4 0h2v2h-2zm11 0h3v1h-3zm15 0h6v1h-6zm7 0h15v1h-15zm16 0h1v21h-1zm4 0h5v1h-5zm10 0h30v1h-30zm31 0h72v1h-72zM3 146h25v1H3zm27 0h1v65h-1zm2 0h41v1H32zm44 0h9v4h-9zm13 0h1v1h-1zm2 0h3v1h-3zm10 0h1v14h-1zm41 0h4v3h-4zm7 0h4v1h-4zm13 0h3v1h-3zm5 0h4v4h-4z"/><path d="M173 146h13v1h-13zm14 0h1v2h-1zm4 0h2v4h-2zm7 0h29v2h-29zm30 0h21v2h-21zm22 0h9v2h-9zm51 0h1v30h-1zM3 147h19v1H3zm20 0h32v1H23zm34 0h8v8h-8zm10 0h2v24h-2zm4 0h14v1H71zm19 0h2v1h-2zm3 0h2v1h-2zm7 0h2v13h-2zm12 0h8v15h-8zm9 0h13v32h-13zm14 0h1v1h-1zm5 0h8v2h-8zm9 0h1v17h-1zm10 0h5v2h-5z"/><path d="M184 147h5v1h-5zm9 0h109v1H193zM0 148h20v3H0zm21 0h26v2H21zm29 0h5v1h-5zm15 0h5v6h-5zm7 0h17v2H72zm19 0h2v1h-2zm3 0h8v1h-8zm9 0h2v2h-2zm31 0h1v50h-1zm3 0h13v1h-13zm14 0h5v1h-5zm7 0h6v1h-6zm8 0h21v2h-21zm23 0h34v1h-34zm35 0h24v1h-24zm25 0h1v11h-1zm2 0h51v9h-51zm-201 1h2v2h-2z"/><path d="M54 149h37v1H54zm38 0h1v1h-1zm3 0h10v1H95zm15 0h25v13h-25zm27 0h5v4h-5zm7 0h3v10h-3zm4 0h7v1h-7zm9 0h4v1h-4zm32 0h6v1h-6zm7 0h51v6h-51zm54 0h52v8h-52zm-230 1h26v14H20zm33 0h23v1H53zm24 0h12v6H77zm13 0h2v5h-2zm3 0h10v1H93zm11 0h3v38h-3z"/><path d="M136 150h6v3h-6zm14 0h2v6h-2zm3 0h7v8h-7zm10 0h1v1h-1zm5 0h14v1h-14zm15 0h7v14h-7zm9 0h110v1H192zM0 151h11v60H0zm12 0h39v7H12zm42 0h17v3H54zm19 0h29v1H73z"/><path d="M103 151h57v1h-57zm64 0h2v4h-2zm3 0h20v1h-20zm21 0h3v7h-3zm4 0h107v4H195zm-184 1h40v6H11zm60 0h1v5h-1zm2 0h2v1h-2zm3 0h31v1H76zm32 0h54v1h-54zm57 0h1v9h-1zm4 0h1v11h-1zm2 0h2v6h-2z"/><path d="M175 152h19v6h-19zm-124 1h23v1H51zm25 0h21v2H76zm23 0h39v6H99zm41 0h22v1h-22zm23 0h1v9h-1z"/><path d="M166 153h136v2H166zm-115 1h18v1H51zm19 0h3v3h-3zm5 0h72v1H75z"/><path d="M148 154h154v1H148zm-97 1h10v17H51zm11 0h28v1H62zm29 0h75v1H91zm77 0h2v1h-2zm5 0h52v1h-52zm54 0h8v1h-8zm11 0h64v2h-64zm-177 1h12v1H61zm13 0h8v1h-8zm9 0h1v2h-1zm2 0h4v1h-4zm6 0h60v3H91zm61 0h15v2h-15zm21 0h41v2h-41zm44 0h9v2h-9z"/><path d="M229 156h73v1h-73zm-168 1h10v14H61zm11 0h9v1h-9zm12 0h4v2h-4zm67 0h65v1h-65zm75 0h2v35h-2zm4 0h69v1h-69zm-219 1h7v48h-7z"/><path d="M19 158h55v2H19zm57 0h6v1h-6zm14 0h67v1H90zm68 0h14v1h-14zm15 0h1v10h-1zm2 0h17v2h-17zm18 0h25v3h-25zm26 0h14v1h-14zm15 0h16v1h-16zm17 0h33v1h-33zm34 0h13v3h-13zm14 0h3v2h-3z"/><path d="M18 159h57v1H18zm58 0h4v2h-4zm5 0h2v7h-2zm3 0h3v1h-3zm8 0h1v1h-1zm3 0h2v1h-2zm7 0h44v2h-44zm45 0h19v1h-19zm20 0h3v2h-3zm7 0h58v1h-58zm60 0h6v1h-6zm7 0h4v2h-4zm5 0h2v4h-2zm4 0h33v1h-33zm48 0h4v1h-4zm-280 1h29v4H18zm30 0h24v11H48z"/><path d="M75 160h11v1H75zm13 0h3v13h-3zm8 0h1v25h-1zm50 0h7v4h-7zm8 0h8v2h-8zm10 0h8v1h-8zm10 0h7v1h-7zm16 0h35v1h-35zm38 0h8v1h-8zm10 0h2v6h-2zm7 0h35v3h-35zm36 0h18v1h-18zm-234 1h25v10H47zm30 0h9v1h-9zm16 0h1v14h-1zm4 0h1v13h-1zm3 0h1v1h-1z"/><path d="M103 161h50v1h-50zm59 0h2v1h-2zm6 0h3v1h-3zm6 0h6v1h-6zm16 0h10v2h-10zm12 0h33v1h-33zm41 0h1v7h-1zm38 0h12v1h-12zm13 0h1v59h-1zm6 0h2v15h-2zm-228 1h3v10h-3zm6 0h7v1h-7zm9 0h4v11h-4zm7 0h4v12h-4zm5 0h1v13h-1zm3 0h10v15h-10zm11 0h46v2h-46zm47 0h1v1h-1zm2 0h1v7h-1zm3 0h5v1h-5zm10 0h6v2h-6z"/><path d="M182 162h18v1h-18zm19 0h33v7h-33zm39 0h1v8h-1zm4 0h37v1h-37zm39 0h8v9h-8zm10 0h9v14h-9zm-218 1h4v8h-4zm8 0h9v4h-9zm29 0h48v1h-48zm53 0h4v6h-4zm5 0h12v1h-12zm20 0h9v1h-9z"/><path d="M200 163h37v2h-37zm41 0h3v5h-3zm6 0h44v1h-44zm45 0h10v13h-10zm-274 1h23v2H18zm24 0h38v4H42zm50 0h54v10H92zm56 0h1v10h-1zm2 0h1v33h-1zm3 0h2v28h-2zm3 0h19v1h-19zm22 0h1v1h-1zm2 0h2v2h-2zm4 0h9v2h-9zm10 0h3v1h-3z"/><path d="M199 164h46v1h-46zm49 0h54v1h-54zm-207 1h106v1H41zm108 0h2v32h-2zm3 0h3v15h-3zm4 0h3v1h-3zm5 0h14v3h-14zm21 0h11v1h-11zm14 0h39v1h-39zm41 0h10v1h-10zm12 0h53v1h-53zm-230 1h63v1H19z"/><path d="M146 166h12v8h-12zm13 0h19v2h-19zm20 0h2v42h-2zm3 0h3v35h-3zm4 0h6v1h-6zm10 0h38v3h-38zm40 0h2v21h-2zm3 0h9v2h-9zm11 0h52v5h-52zm-232 1h62v1H18zm63 0h2v1h-2z"/><path d="M84 167h104v1H84zm105 0h3v13h-3zm6 0h39v2h-39zm-177 1h61v3H18zm65 0h89v1H83z"/><path d="M174 168h18v1h-18zm20 0h41v1h-41zm44 0h5v2h-5zm6 0h58v3h-58zm-164 1h79v4H80zm81 0h1v16h-1zm2 0h2v14h-2zm3 0h8v1h-8zm9 0h17v2h-17zm19 0h26v15h-26zm27 0h10v20h-10z"/><path d="M232 169h70v1h-70zm-153 1h89v2H79zm90 0h3v1h-3zm4 0h1v24h-1zm19 0h28v12h-28zm40 0h8v17h-8zm9 0h61v1h-61zm-223 1h49v1H18zm50 0h3v6h-3z"/><path d="M77 171h91v1H77zm92 0h2v3h-2zm3 0h4v13h-4zm5 0h43v9h-43zm54 0h14v9h-14zm15 0h37v5h-37zm38 0h18v5h-18zm-266 1h36v1H18zm37 0h2v2h-2zm3 0h13v2H58zm18 0h3v2h-3z"/><path d="M159 172h124v2H159zm-141 1h24v15H18zm25 0h29v1H43zm36 0h11v1H79z"/><path d="M91 173h211v1H91zm-49 1h13v3H42zm14 0h5v1h-5zm6 0h10v1H62zm11 0h2v2h-2zm4 0h2v2h-2zm3 0h10v1H80zm12 0h5v1h-5zm6 0h2v1h-2zm3 0h47v3h-47zm50 0h19v2h-19zm25 0h69v6h-69zm107 0h19v2h-19zm-228 1h1v27h-1zm2 0h6v7h-6z"/><path d="M65 175h10v1H65zm14 0h7v9h-7zm12 0h2v2h-2zm6 0h2v4h-2zm3 0h70v1h-70zm71 0h131v1H171zm-115 1h7v6h-7zm8 0h3v6h-3zm7 0h3v4h-3zm5 0h1v5h-1zm10 0h1v7h-1z"/><path d="M95 176h4v3h-4zm5 0h62v1h-62zm65 0h94v1h-94zm95 0h5v5h-5zm6 0h35v1h-35zm-224 1h3v11h-3zm4 0h17v5H46zm23 0h8v3h-8zm18 0h3v1h-3zm4 0h1v2h-1z"/><path d="M94 177h8v1h-8zm9 0h64v2h-64zm65 0h112v1H168zm113 0h21v10h-21zm-214 1h22v2H67zm23 0h2v1h-2zm4 0h5v1h-5z"/><path d="M100 178h158v1H100zm159 0h43v3h-43zm-214 1h46v1H45zm48 0h4v3h-4zm8 0h29v1h-29zm32 0h112v1H133z"/><path d="M246 179h56v1h-56zm-201 1h26v1H45zm27 0h19v1H72zm20 0h7v2h-7zm8 0h20v1h-20zm21 0h9v17h-9zm12 0h8v17h-8zm9 0h10v2h-10zm13 0h13v1h-13zm14 0h22v3h-22zm51 0h21v7h-21zm22 0h4v3h-4zm5 0h55v1h-55zm-202 1h23v1H45zm24 0h7v3h-7z"/><path d="M77 181h41v1H77zm42 0h22v16h-22zm33 0h15v2h-15zm94 0h2v9h-2zm4 0h8v2h-8zm11 0h41v1h-41zm-216 1h16v2H45zm17 0h2v21h-2zm3 0h3v1h-3zm13 0h12v1H78zm13 0h2v25h-2zm4 0h23v1H95zm46 0h2v22h-2z"/><path d="M145 182h46v1h-46zm48 0h56v1h-56zm66 0h4v1h-4zm5 0h38v1h-38zm-198 1h11v1H66zm12 0h8v1h-8zm9 0h3v1h-3zm6 0h6v2h-6zm9 0h1v5h-1zm5 0h11v8h-11zm36 0h1v20h-1zm2 0h18v1h-18zm19 0h1v7h-1zm2 0h12v1h-12zm15 0h63v1h-63zm67 0h9v22h-9zm10 0h4v1h-4zm6 0h2v35h-2zm4 0h34v1h-34zm-223 1h5v20h-5zm7 0h13v17H52zm14 0h7v1h-7zm9 0h10v24H75zm12 0h2v3h-2zm12 0h2v12h-2z"/><path d="M118 184h44v1h-44zm45 0h12v1h-12zm13 0h2v11h-2zm5 0h20v1h-20zm21 0h55v3h-55zm57 0h1v1h-1zm3 0h4v6h-4zm6 0h5v3h-5zm6 0h28v3h-28zm-224 1h21v5H50zm24 0h15v2H74zm19 0h1v23h-1zm4 0h64v3H97zm66 0h2v5h-2zm4 0h5v9h-5z"/><path d="M174 185h26v6h-26zm83 0h1v34h-1zm4 0h41v1h-41zm-190 1h18v1H71zm19 0h5v21h-5zm71 0h4v3h-4z"/><path d="M172 186h28v5h-28zm29 0h66v1h-66zm72 0h29v1h-29zm-202 1h14v4H71zm15 0h2v3h-2z"/><path d="M95 187h111v1H95zm113 0h28v2h-28zm29 0h30v1h-30zm31 0h3v17h-3zm4 0h15v1h-15zm17 0h13v8h-13zm-271 1h9v20h-9zm10 0h1v19h-1zm3 0h11v20H31zm12 0h45v2H43zm46 0h13v7H89zm14 0h1v2h-1zm3 0h100v1H106zm130 0h7v1h-7z"/><path d="M258 188h27v2h-27zm29 0h15v7h-15zm-260 1h2v18h-2zm61 0h16v1H88zm17 0h56v1h-56zm57 0h68v1h-68zm69 0h7v1h-7z"/><path d="M240 189h62v1h-62zm-211 1h15v17H29zm21 0h20v1H50zm35 0h1v22h-1zm2 0h16v4H87zm18 0h55v1h-55zm56 0h3v1h-3zm5 0h35v1h-35zm37 0h27v1h-27zm29 0h7v1h-7zm8 0h5v2h-5zm7 0h16v1h-16zm19 0h36v4h-36zm-222 1h22v7H44zm25 0h2v23h-2z"/><path d="M72 191h14v17H72zm31 0h5v3h-5zm6 0h47v1h-47zm48 0h3v7h-3zm5 0h37v2h-37zm38 0h2v4h-2zm4 0h7v1h-7zm8 0h19v1h-19zm21 0h14v1h-14zm25 0h1v26h-1zm2 0h42v3h-42z"/><path d="M66 192h46v2H66zm47 0h40v2h-40zm42 0h47v1h-47zm48 0h5v15h-5zm7 0h16v2h-16zm18 0h9v3h-9zm13 0h2v7h-2zm4 0h57v2h-57z"/><path d="M112 193h41v1h-41zm42 0h9v4h-9zm11 0h72v1h-72zm74 0h4v6h-4zm-173 1h36v1H66zm37 0h4v1h-4zm5 0h9v1h-9zm10 0h34v3h-34z"/><path d="M153 194h16v3h-16zm18 0h2v2h-2zm3 0h49v1h-49zm50 0h60v1h-60zm61 0h17v1h-17zm-219 1h29v12H66zm32 0h8v1h-8zm10 0h3v1h-3z"/><path d="M112 195h64v1h-64zm66 0h18v2h-18zm19 0h4v1h-4zm5 0h28v2h-28zm29 0h49v1h-49zm50 0h10v5h-10zm11 0h7v12h-7zm8 0h2v1h-2zm-203 1h2v12h-2zm3 0h10v1h-10zm12 0h40v1h-40zm59 0h1v6h-1z"/><path d="M174 196h23v1h-23zm24 0h3v9h-3zm32 0h1v11h-1zm2 0h68v1h-68zm-137 1h7v7h-7zm8 0h7v1h-7zm8 0h17v1h-17zm24 0h15v1h-15zm17 0h2v4h-2zm3 0h13v1h-13zm17 0h3v2h-3zm5 0h15v1h-15zm19 0h1v1h-1zm5 0h20v2h-20z"/><path d="M223 197h76v1h-76zm77 0h1v1h-1zm-250 1h56v1H50zm57 0h3v2h-3zm4 0h16v1h-16zm27 0h12v1h-12zm16 0h4v6h-4zm5 0h10v2h-10zm11 0h6v1h-6zm7 0h1v4h-1zm4 0h10v1h-10zm11 0h3v6h-3zm5 0h24v1h-24zm25 0h21v1h-21zm22 0h55v2h-55zm-200 1h60v1H44z"/><path d="M105 199h9v1h-9zm10 0h10v1h-10zm24 0h11v4h-11zm12 0h7v2h-7zm18 0h3v3h-3zm5 0h16v1h-16zm21 0h1v1h-1zm2 0h15v3h-15zm16 0h10v3h-10zm11 0h11v1h-11zm12 0h6v1h-6zm63 0h2v22h-2zm-255 1h59v1H44zm60 0h3v3h-3zm4 0h6v3h-6zm7 0h8v1h-8z"/><path d="M150 200h10v1h-10zm12 0h10v2h-10zm11 0h3v3h-3zm5 0h12v1h-12zm34 0h11v2h-11zm13 0h12v2h-12zm14 0h2v8h-2zm4 0h47v1h-47zm58 0h1v12h-1zm-257 1h12v1H44zm14 0h49v2H58zm56 0h5v2h-5zm36 0h2v2h-2zm3 0h8v3h-8zm25 0h5v1h-5zm6 0h2v1h-2zm3 0h4v3h-4zm36 0h1v26h-1z"/><path d="M237 201h44v1h-44zm45 0h20v2h-20zm-238 1h11v2H44zm12 0h63v1H56zm106 0h1v1h-1zm2 0h7v1h-7zm12 0h1v5h-1zm5 0h3v3h-3zm4 0h1v1h-1zm6 0h6v2h-6zm10 0h15v1h-15zm16 0h15v1h-15zm16 0h9v3h-9z"/><path d="M244 202h58v1h-58zm-189 1h7v1h-7zm9 0h41v1H64zm44 0h3v1h-3zm31 0h4v1h-4zm13 0h9v1h-9zm14 0h5v3h-5zm6 0h2v5h-2zm3 0h2v4h-2zm3 0h6v2h-6zm8 0h29v1h-29zm30 0h9v1h-9zm10 0h20v2h-20zm21 0h40v1h-40zm42 0h13v4h-13zm-245 1h2v2h-2zm3 0h9v2h-9zm10 0h5v3h-5zm7 0h37v1H64zm55 0h1v3h-1zm19 0h4v1h-4zm17 0h10v1h-10z"/><path d="M174 204h12v1h-12zm14 0h2v7h-2zm7 0h23v1h-23zm24 0h28v1h-28zm40 0h10v1h-10zm11 0h32v2h-32zm-224 1h10v1H46zm18 0h35v2H64zm54 0h5v1h-5zm20 0h2v1h-2zm17 0h4v1h-4zm5 0h4v12h-4zm11 0h11v2h-11z"/><path d="M184 205h6v1h-6zm15 0h28v1h-28zm29 0h10v2h-10zm13 0h14v1h-14zm18 0h4v3h-4zm7 0h36v1h-36zm-255 1h5v3h-5zm37 0h14v1H48zm70 0h4v1h-4zm38 0h1v1h-1zm2 0h9v5h-9zm12 0h14v1h-14zm16 0h7v1h-7z"/><path d="M208 206h46v1h-46zm47 0h8v2h-8zm11 0h20v1h-20zm-239 1h1v4h-1zm15 0h3v2h-3zm6 0h9v2h-9zm10 0h1v8h-1zm2 0h2v10h-2zm3 0h28v1H63zm29 0h2v1h-2zm18 0h1v4h-1zm7 0h2v1h-2zm15 0h1v1h-1zm16 0h1v1h-1zm9 0h10v4h-10zm12 0h1v1h-1zm5 0h2v3h-2zm3 0h7v1h-7zm10 0h8v1h-8zm17 0h24v1h-24zm25 0h1v15h-1zm2 0h22v1h-22z"/><path d="M254 207h31v1h-31zm34 0h7v3h-7zm9 0h5v3h-5zm-281 1h10v1H16zm12 0h8v1h-8zm13 0h40v1H41zm41 0h11v3H82zm13 0h1v5h-1zm16 0h2v2h-2zm22 0h2v1h-2zm5 0h1v2h-1zm30 0h1v3h-1zm5 0h6v1h-6zm7 0h4v3h-4zm6 0h4v3h-4zm6 0h5v6h-5zm13 0h35v1h-35zm36 0h19v1h-19zm20 0h24v3h-24z"/><path d="M286 208h16v2h-16zm-275 1h4v1h-4zm5 0h2v4h-2zm4 0h6v4h-6zm8 0h4v1h-4zm15 0h12v1H43zm13 0h23v1H56zm24 0h14v2H80zm16 0h1v3h-1zm2 0h1v2h-1zm10 0h1v1h-1zm7 0h4v1h-4zm19 0h5v1h-5zm14 0h1v18h-1zm8 0h13v1h-13zm20 0h1v1h-1zm15 0h8v4h-8zm14 0h12v1h-12zm13 0h38v1h-38z"/><path d="M259 209h43v1h-43zm-248 1h2v1h-2zm4 0h11v2H15zm13 0h3v1h-3zm17 0h31v1H45zm33 0h19v1H78zm33 0h1v1h-1zm5 0h2v1h-2zm7 0h2v1h-2zm24 0h2v14h-2zm3 0h2v16h-2zm6 0h11v1h-11zm13 0h2v1h-2zm15 0h16v1h-16zm17 0h2v12h-2zm5 0h7v1h-7zm9 0h19v1h-19zm20 0h9v5h-9zm10 0h45v1h-45zm46 0h6v10h-6zm7 0h4v2h-4zM0 211h5v1H0z"/><path d="M12 211h15v1H12zm16 0h2v1h-2zm17 0h8v5h-8zm10 0h20v2H55zm22 0h6v2h-6zm7 0h3v1h-3zm4 0h4v1h-4zm29 0h1v5h-1zm5 0h2v1h-2zm20 0h1v3h-1zm7 0h5v6h-5zm6 0h2v9h-2zm4 0h9v1h-9zm11 0h1v1h-1zm10 0h1v1h-1zm3 0h5v1h-5zm6 0h14v2h-14zm16 0h3v7h-3zm5 0h3v2h-3zm6 0h65v1h-65zm67 0h19v1h-19zM0 212h4v1H0zm5 0h13v1H5zm21 0h1v1h-1z"/><path d="M44 212h9v4h-9zm10 0h21v1H54zm22 0h7v1h-7zm8 0h1v2h-1zm34 0h1v1h-1zm25 0h1v2h-1zm3 0h21v1h-21zm35 0h1v5h-1zm3 0h4v1h-4zm19 0h5v6h-5zm11 0h2v1h-2zm4 0h12v6h-12zm13 0h50v1h-50zm52 0h18v8h-18zM3 213h7v1H3zm9 0h4v1h-4zm15 0h2v1h-2zm26 0h21v1H53zm23 0h3v1h-3z"/><path d="M82 213h5v1h-5zm6 0h1v1h-1zm25 0h1v2h-1zm3 0h2v2h-2zm14 0h8v2h-8zm16 0h20v2h-20zm22 0h1v3h-1zm5 0h1v1h-1zm9 0h1v4h-1zm3 0h3v1h-3zm4 0h2v2h-2zm8 0h11v5h-11zm13 0h2v1h-2zm5 0h1v1h-1zm15 0h20v2h-20zm22 0h29v1h-29zm49 0h1v11h-1zM3 214h3v1H3zm4 0h8v3H7zm36 0h26v1H43zm32 0h1v1h-1zm3 0h1v1h-1zm2 0h1v4h-1zm5 0h2v2h-2zm6 0h5v2h-5zm15 0h2v2h-2z"/><path d="M115 214h3v1h-3zm4 0h1v2h-1zm10 0h10v1h-10zm37 0h4v1h-4zm20 0h5v1h-5zm9 0h1v4h-1zm15 0h1v4h-1zm3 0h1v18h-1zm3 0h35v1h-35zm36 0h1v9h-1zm2 0h26v2h-26zM0 215h2v2H0zm5 0h10v2H5zm12 0h3v1h-3zm19 0h2v1h-2zm6 0h15v1H42zm20 0h7v1h-7zm21 0h16v1H83zm32 0h1v1h-1zm5 0h1v2h-1zm8 0h3v2h-3zm4 0h8v3h-8zm13 0h13v1h-13zm14 0h10v1h-10zm15 0h1v3h-1zm4 0h2v1h-2zm6 0h1v1h-1zm2 0h3v2h-3zm5 0h2v1h-2zm5 0h12v3h-12z"/><path d="M209 215h2v3h-2zm6 0h15v3h-15zm16 0h2v2h-2zm3 0h7v2h-7zm8 0h38v1h-38zM2 216h14v1H2zm15 0h1v2h-1zm23 0h11v1H40zm12 0h6v6h-6zm7 0h3v1h-3zm5 0h5v1h-5zm17 0h1v3h-1zm4 0h1v1h-1zm2 0h8v1h-8zm10 0h3v1h-3zm6 0h2v1h-2zm3 0h1v4h-1zm2 0h1v3h-1zm18 0h5v1h-5zm14 0h2v1h-2zm3 0h3v1h-3zm11 0h4v4h-4zm5 0h9v1h-9zm16 0h1v3h-1zm3 0h1v2h-1zm5 0h1v2h-1zm7 0h2v15h-2zm4 0h14v1h-14z"/><path d="M211 216h58v1h-58zm59 0h1v24h-1zm2 0h8v1h-8zm10 0h20v4h-20zM3 217h10v1H3zm13 0h5v1h-5zm9 0h2v1h-2zm9 0h1v2h-1zm5 0h7v1h-7zm8 0h3v1h-3zm4 0h10v3H51zm13 0h2v3h-2zm3 0h2v1h-2zm12 0h4v1h-4zm9 0h9v1h-9zm12 0h1v4h-1zm3 0h1v4h-1zm4 0h2v1h-2zm14 0h1v2h-1zm3 0h1v3h-1zm3 0h2v2h-2zm4 0h9v1h-9zm13 0h8v1h-8zm9 0h10v3h-10zm12 0h1v1h-1zm11 0h4v1h-4zm10 0h2v8h-2zm3 0h3v4h-3zm19 0h22v1h-22zm23 0h1v23h-1zm2 0h4v23h-4zm5 0h20v1h-20zm21 0h8v1h-8z"/><path d="M268 217h3v23h-3zm5 0h7v2h-7zm8 0h21v3h-21zM3 218h6v4H3zm8 0h3v1h-3zm15 0h2v3h-2zm4 0h2v2h-2zm3 0h3v1h-3zm5 0h1v4h-1zm3 0h2v1h-2zm8 0h12v2H49zm14 0h4v1h-4zm12 0h1v2h-1zm7 0h2v1h-2zm5 0h3v1h-3zm4 0h6v1h-6zm8 0h3v3h-3zm19 0h5v1h-5zm7 0h4v1h-4zm6 0h5v2h-5zm11 0h2v2h-2zm3 0h20v2h-20zm31 0h1v1h-1zm3 0h1v1h-1zm13 0h2v5h-2zm5 0h8v3h-8zm10 0h3v11h-3zm4 0h13v6h-13zm14 0h5v4h-5zm7 0h24v2h-24zm26 0h7v2h-7z"/><path d="M266 218h6v1h-6zm14 0h22v2h-22zM9 219h4v4H9zm6 0h1v3h-1zm4 0h3v2h-3zm4 0h5v1h-5zm6 0h3v1h-3zm7 0h3v3h-3zm6 0h1v2h-1zm19 0h5v1h-5zm11 0h9v1h-9zm15 0h1v1h-1zm5 0h2v1h-2zm3 0h10v1H95zm18 0h1v3h-1zm12 0h3v1h-3zm4 0h7v1h-7zm10 0h1v2h-1zm5 0h21v1h-21zm41 0h72v1h-72zm80 0h6v1h-6zm7 0h2v5h-2z"/><path d="M276 219h26v1h-26zM2 220h12v2H2zm14 0h1v3h-1zm2 0h4v1h-4zm7 0h5v1h-5zm14 0h1v9h-1zm4 0h3v1h-3zm5 0h11v2H48zm12 0h3v5h-3zm16 0h2v1h-2zm3 0h2v1h-2zm7 0h1v1h-1zm11 0h9v1h-9zm17 0h2v2h-2zm7 0h2v9h-2zm5 0h9v1h-9zm10 0h4v1h-4zm7 0h6v2h-6zm9 0h1v2h-1zm2 0h1v6h-1zm3 0h7v1h-7zm28 0h60v1h-60zm61 0h15v1h-15zm16 0h2v1h-2zm5 0h7v2h-7zm9 0h15v1h-15zm17 0h1v2h-1zm5 0h4v1h-4zM0 221h1v5H0z"/><path d="M14 221h5v1h-5zm7 0h1v14h-1zm3 0h2v6h-2zm3 0h3v3h-3zm7 0h6v1h-6zm7 0h1v5h-1zm3 0h2v14h-2zm3 0h17v1H47zm27 0h2v2h-2zm6 0h1v3h-1zm3 0h1v1h-1zm4 0h1v2h-1zm7 0h1v10h-1zm2 0h1v1h-1zm8 0h1v1h-1zm8 0h4v1h-4zm5 0h6v1h-6zm9 0h5v1h-5zm7 0h1v2h-1zm3 0h3v2h-3zm5 0h8v1h-8zm12 0h3v2h-3zm4 0h6v2h-6zm28 0h4v1h-4zm9 0h9v1h-9zm10 0h40v1h-40zm42 0h7v2h-7zm9 0h8v1h-8zm19 0h13v1h-13zm15 0h1v3h-1zm11 0h2v3h-2zM2 222h5v1H2zm11 0h2v1h-2zm4 0h3v1h-3z"/><path d="M26 222h4v2h-4zm6 0h2v9h-2zm3 0h2v2h-2zm5 0h2v4h-2zm6 0h11v2H46zm12 0h7v2h-7zm28 0h3v1h-3zm25 0h2v1h-2zm4 0h1v8h-1zm2 0h2v1h-2zm3 0h3v1h-3zm4 0h2v2h-2zm4 0h3v1h-3zm4 0h3v1h-3zm9 0h2v1h-2zm3 0h8v2h-8zm44 0h1v1h-1zm6 0h8v3h-8zm9 0h26v1h-26zm29 0h23v1h-23zm27 0h4v1h-4zm6 0h1v18h-1zm6 0h13v1h-13zm15 0h1v1h-1zm4 0h1v1h-1zm7 0h1v1h-1zM1 223h3v3H1zm7 0h3v2H8zm6 0h1v1h-1zm3 0h2v7h-2zm5 0h1v1h-1z"/><path d="M31 223h6v1h-6zm7 0h4v3h-4zm5 0h14v1H43zm23 0h2v3h-2zm7 0h2v1h-2zm8 0h1v1h-1zm4 0h1v1h-1zm3 0h3v2h-3zm9 0h2v1h-2zm10 0h3v1h-3zm5 0h5v1h-5zm7 0h1v2h-1zm4 0h4v1h-4zm5 0h2v15h-2zm4 0h1v1h-1zm2 0h2v2h-2zm3 0h4v1h-4zm5 0h11v1h-11zm13 0h7v1h-7zm34 0h3v8h-3zm4 0h34v1h-34zm35 0h1v17h-1zm4 0h9v1h-9zm10 0h10v1h-10zm22 0h19v1h-19zm20 0h1v2h-1zM6 224h5v1H6zm10 0h4v5h-4zm13 0h6v5h-6zm13 0h7v2h-7zm8 0h2v1h-2zm3 0h10v1H53zm15 0h2v1h-2zm5 0h1v2h-1zm5 0h2v1h-2zm4 0h1v1h-1zm9 0h1v16h-1zm4 0h3v1h-3zm6 0h1v1h-1zm2 0h1v3h-1zm6 0h1v2h-1zm3 0h4v1h-4z"/><path d="M118 224h2v1h-2zm5 0h1v2h-1zm2 0h7v3h-7zm8 0h3v1h-3zm5 0h9v3h-9zm11 0h8v2h-8zm39 0h29v1h-29zm30 0h4v2h-4zm6 0h15v8h-15zm16 0h10v1h-10zm22 0h11v3h-11zm12 0h6v13h-6zm7 0h1v1h-1zm7 0h1v1h-1zm12 0h1v1h-1zM4 225h5v1H4zm9 0h1v7h-1zm2 0h8v1h-8zm11 0h9v4h-9zm10 0h15v1H36zm18 0h1v1h-1zm3 0h4v1h-4zm8 0h4v1h-4zm9 0h1v4h-1zm3 0h2v7h-2zm8 0h4v1h-4zm5 0h7v6h-7zm10 0h1v15h-1zm2 0h4v1h-4zm10 0h2v7h-2zm4 0h1v15h-1zm2 0h1v15h-1z"/><path d="M124 225h11v2h-11zm12 0h1v1h-1zm22 0h2v1h-2zm28 0h1v3h-1zm2 0h10v1h-10zm11 0h48v1h-48zm51 0h2v2h-2zm5 0h1v15h-1zm2 0h1v1h-1zm3 0h21v2h-21zm23 0h1v15h-1zM2 226h1v14H2zm3 0h4v3H5zm7 0h10v2H12zm11 0h18v1H23zm19 0h5v2h-5zm6 0h3v14h-3zm7 0h1v1h-1zm3 0h4v1h-4zm6 0h3v5h-3zm15 0h2v1h-2zm5 0h1v1h-1zm3 0h10v5H87zm15 0h2v1h-2zm3 0h1v1h-1zm5 0h7v4h-7zm9 0h4v3h-4zm18 0h10v1h-10zm12 0h2v5h-2zm3 0h2v3h-2zm3 0h2v2h-2zm3 0h1v1h-1zm29 0h10v5h-10zm12 0h12v2h-12zm15 0h6v3h-6zm7 0h26v1h-26z"/><path d="M249 226h3v1h-3zm4 0h4v1h-4zm5 0h27v1h-27zm32 0h1v14h-1zm10 0h1v14h-1zM0 227h4v9H0zm11 0h12v1H11zm14 0h10v2H25zm11 0h11v1H36zm15 0h2v7h-2zm7 0h3v2h-3zm5 0h7v1h-7zm8 0h4v2h-4zm5 0h4v1h-4zm22 0h1v1h-1zm3 0h2v13h-2zm5 0h1v3h-1zm2 0h22v2h-22zm25 0h2v1h-2zm4 0h4v4h-4zm6 0h5v6h-5zm8 0h6v1h-6zm34 0h38v1h-38zm54 0h6v1h-6zm10 0h1v1h-1zm4 0h3v5h-3zm4 0h5v1h-5zm6 0h17v1h-17z"/><path d="M282 227h14v3h-14zm16 0h3v1h-3zM4 228h11v1H4zm16 0h3v2h-3zm15 0h5v1h-5zm6 0h1v1h-1zm5 0h8v1h-8zm17 0h6v1h-6zm7 0h9v1h-9zm11 0h2v12h-2zm4 0h13v3H85zm14 0h5v1h-5zm8 0h27v1h-27zm35 0h12v1h-12zm14 0h2v6h-2zm41 0h6v1h-6zm7 0h40v1h-40zm52 0h1v1h-1zm2 0h3v4h-3zm5 0h4v12h-4z"/><path d="M271 228h25v2h-25zm27 0h1v12h-1zM4 229h4v5H4zm5 0h5v1H9zm6 0h4v1h-4zm8 0h2v4h-2zm3 0h8v2h-8zm9 0h4v2h-4zm7 0h4v6h-4zm11 0h2v1h-2zm5 0h2v1h-2zm4 0h6v1h-6zm8 0h4v1h-4zm5 0h4v3h-4zm9 0h14v2H84zm20 0h18v1h-18zm21 0h6v1h-6zm9 0h1v11h-1zm2 0h17v1h-17zm19 0h3v5h-3zm31 0h11v2h-11zm12 0h5v6h-5zm6 0h4v11h-4zm5 0h2v11h-2zm3 0h2v3h-2zm3 0h28v1h-28zm30 0h1v11h-1zm3 0h2v1h-2z"/><path d="M257 229h42v1h-42zM8 230h2v4H8zm3 0h6v1h-6zm11 0h12v1H22zm19 0h5v5h-5zm12 0h1v5h-1zm9 0h5v1h-5zm6 0h5v10h-5zm15 0h20v1H83zm21 0h2v2h-2zm3 0h8v2h-8zm10 0h5v1h-5zm7 0h2v2h-2zm6 0h1v5h-1zm5 0h13v1h-13zm16 0h7v1h-7zm52 0h8v10h-8zm11 0h28v1h-28zm30 0h2v10h-2zm12 0h30v2h-30zm31 0h14v2h-14zm-277 1h1v2h-1zm4 0h3v2h-3zm4 0h10v2H18zm11 0h4v1h-4zm5 0h2v3h-2zm3 0h3v4h-3z"/><path d="M46 231h10v2H46zm15 0h5v1h-5zm12 0h1v9h-1zm6 0h15v1H79zm16 0h24v1H95zm25 0h3v1h-3zm6 0h6v2h-6zm7 0h5v1h-5zm6 0h1v9h-1zm2 0h9v2h-9zm11 0h2v9h-2zm16 0h1v7h-1zm18 0h5v3h-5zm6 0h49v1h-49zm50 0h5v9h-5zm44 0h15v1h-15zm-274 1h1v8h-1zm5 0h11v1H17zm12 0h2v1h-2zm4 0h7v2h-7zm23 0h2v1h-2zm4 0h5v1h-5zm14 0h3v2h-3zm4 0h5v1h-5zm6 0h11v8H84zm12 0h2v8h-2zm3 0h5v8h-5zm6 0h7v1h-7zm8 0h6v4h-6zm7 0h2v3h-2z"/><path d="M125 232h7v1h-7zm10 0h15v1h-15zm16 0h7v2h-7zm25 0h1v2h-1zm15 0h20v2h-20zm23 0h13v1h-13zm15 0h11v7h-11zm12 0h7v2h-7zm12 0h1v1h-1zm3 0h3v1h-3zm4 0h32v1h-32zm33 0h9v3h-9zm-282 1h5v4h-5zm6 0h2v1h-2zm3 0h3v1h-3zm4 0h5v6h-5zm6 0h1v7h-1zm10 0h15v1H40zm18 0h6v7h-6zm22 0h27v1H80zm28 0h14v2h-14zm25 0h11v7h-11z"/><path d="M145 233h13v1h-13zm30 0h2v1h-2zm36 0h1v4h-1zm5 0h8v1h-8zm9 0h2v1h-2zm15 0h8v1h-8zm14 0h4v7h-4zm5 0h12v7h-12zm13 0h30v1h-30zM5 234h4v5H5zm11 0h2v6h-2zm3 0h3v1h-3zm4 0h6v5h-6zm8 0h1v6h-1zm3 0h1v4h-1zm6 0h11v1H40zm24 0h1v1h-1zm10 0h2v4h-2zm3 0h21v6H77zm27 0h3v6h-3zm18 0h9v1h-9zm22 0h13v2h-13zm30 0h2v1h-2zm11 0h5v6h-5zm6 0h3v6h-3zm4 0h2v2h-2zm17 0h2v6h-2zm5 0h7v6h-7zm8 0h1v6h-1zm2 0h20v5h-20zm44 0h15v1h-15zm17 0h14v1h-14z"/><path d="M4 235h6v3H4zm14 0h3v5h-3zm4 0h16v3H22zm17 0h6v1h-6zm8 0h4v1h-4zm7 0h10v1H54zm13 0h9v3h-9zm31 0h21v1H98zm23 0h9v2h-9zm36 0h1v5h-1zm17 0h1v2h-1zm3 0h3v2h-3zm7 0h6v5h-6zm10 0h3v1h-3zm6 0h47v2h-47zm53 0h32v2h-32zm33 0h3v5h-3zm5 0h4v5h-4zm5 0h6v5h-6z"/><path d="M1 236h43v1H1zm50 0h3v4h-3zm5 0h8v4h-8zm9 0h50v2H65zm52 0h13v1h-13zm14 0h25v1h-25zm42 0h2v1h-2zm10 0h12v4h-12zm14 0h1v4h-1zm2 0h48v1h-48zm53 0h33v1h-33zm43 0h7v4h-7zM1 237h13v1H1zm14 0h31v1H15z"/><path d="M47 237h76v1H47zm77 0h2v3h-2zm6 0h15v3h-15zm16 0h12v1h-12zm19 0h1v3h-1zm4 0h1v3h-1zm8 0h1v3h-1zm2 0h32v3h-32zm35 0h34v1h-34zm38 0h22v1h-22zm23 0h6v3h-6zm7 0h20v1h-20zM0 238h3v1H0zm9 0h24v1H9zm26 0h3v2h-3zm4 0h3v2h-3zm5 0h30v2H44zm32 0h43v2H76z"/><path d="M120 238h6v2h-6zm9 0h18v2h-18zm19 0h6v2h-6zm8 0h3v2h-3zm10 0h1v2h-1zm12 0h69v1h-69zm74 0h20v2h-20zm21 0h12v2h-12zm16 0h13v2h-13zM0 239h1v1H0zm3 0h3v1H3zm4 0h14v1H7zm15 0h4v1h-4zm5 0h7v1h-7zm11 0h36v1H38z"/><path d="M75 239h84v1H75zm92 0h3v1h-3zm7 0h63v1h-63zm64 0h9v1h-9zm12 0h52v1h-52z"/></g><g fill="#fff"><path d="M28 0h1v2h-1zm3 0h2v1h-2zm16 0h4v1h-4zm184 0h2v1h-2zm3 0h1v2h-1zm29 0h37v2h-37zM32 1h1v1h-1z"/><path d="M232 1h3v1h-3zm30 0h40v1h-40zm-35 1h1v1h-1zm6 0h1v1h-1zm28 0h37v1h-37zM30 3h1v1h-1zm3 0h1v1h-1zm195 0h2v1h-2zm24 0h3v12h-3zm4 0h1v11h-1zm6 0h32v1h-32zM31 4h1v1h-1zm3 0h1v2h-1zm195 0h3v1h-3z"/><path d="M251 4h7v1h-7zm10 0h8v1h-8zm12 0h2v1h-2zm6 0h11v1h-11zm17 0h1v4h-1zm3 0h1v1h-1zM32 5h1v1h-1zm3 0h1v2h-1zm13 0h2v1h-2zm37 0h1v1h-1zm70 0h1v2h-1zm74 0h2v1h-2zm26 0h4v7h-4zm6 0h1v7h-1zm2 0h5v1h-5zm9 0h1v3h-1zm8 0h6v1h-6z"/><path d="M291 5h7v2h-7zM48 6h1v1h-1zm211 0h1v6h-1zm5 0h3v2h-3zm4 0h6v1h-6zm7 0h2v1h-2z"/><path d="M281 6h17v1h-17zm-30 1h22v1h-22zm30 0h9v1h-9zm11 0h3v1h-3zm-41 1h15v1h-15zm19 0h2v1h-2zm12 0h11v1h-11zM85 9h2v2h-2zm10 0h1v1h-1zm69 0h1v1h-1zm4 0h3v2h-3zm5 0h1v12h-1zm5 0h2v2h-2zm58 0h5v1h-5zm24 0h3v2h-3zm22 0h7v1h-7zm10 0h1v1h-1zM87 10h2v4h-2zm12 0h1v1h-1zm33 0h1v2h-1z"/><path d="M171 10h6v4h-6zm77 0h1v2h-1zm15 0h1v1h-1zm20 0h4v1h-4zm6 0h1v1h-1zM86 11h4v3h-4zm80 0h1v3h-1z"/><path d="M169 11h10v1h-10zm15 0h1v1h-1zm42 0h1v1h-1zm20 0h5v1h-5zm14 0h2v1h-2zm6 0h2v1h-2zm18 0h1v1h-1zm11 0h1v1h-1zm-130 1h13v1h-13zm41 0h1v2h-1zm32 0h3v3h-3zm7 0h3v7h-3zm5 0h8v1h-8zm18 0h1v1h-1zm17 0h1v1h-1zM82 13h2v2h-2zm9 0h1v1h-1zm77 0h1v1h-1zm2 0h9v1h-9z"/><path d="M204 13h3v1h-3zm31 0h8v1h-8zm16 0h8v1h-8zm11 0h3v1h-3zm-90 1h7v3h-7zm29 0h1v3h-1zm35 0h8v1h-8zm12 0h1v5h-1zm7 0h1v1h-1zm2 0h2v1h-2zM6 15h1v1H6zm82 0h1v2h-1z"/><path d="M171 15h11v1h-11zm13 0h2v6h-2zm16 0h2v2h-2zm21 0h1v1h-1zm18 0h10v1h-10zm14 0h2v1h-2zM90 16h1v1h-1z"/><path d="M179 16h7v5h-7zm20 0h3v1h-3zm43 0h7v1h-7zm12 0h1v1h-1zm2 0h2v1h-2z"/><path d="M174 17h13v3h-13zm24 0h3v1h-3zm45 0h6v2h-6zm12 0h1v1h-1zM2 18h5v1H2z"/><path d="M172 18h15v2h-15zm17 0h1v1h-1zm60 0h1v1h-1zM6 19h1v1H6zm81 0h1v1h-1z"/><path d="M171 19h16v1h-16zm33 0h2v29h-2zm40 0h3v1h-3zm-72 1h14v1h-14z"/><path d="M201 20h7v25h-7zm51 0h5v1h-5zM84 21h2v2h-2zm90 0h10v1h-10z"/><path d="M198 21h11v22h-11zM83 22h3v1h-3zm5 0h2v1h-2z"/><path d="M196 22h14v21h-14zm22 0h2v1h-2zm24 0h2v1h-2zM82 23h2v1h-2z"/><path d="M194 23h16v20h-16zm25 0h1v1h-1zm26 0h1v1h-1z"/><path d="M191 24h20v18h-20zm35 0h1v1h-1z"/><path d="M187 25h24v12h-24zm33 0h1v1h-1zM88 26h2v2h-2z"/><path d="M184 26h32v8h-32zm37 0h3v1h-3zm-76 1h1v3h-1zm3 0h2v2h-2z"/><path d="M179 27h38v1h-38zm43 0h1v1h-1zm2 0h1v1h-1zM89 28h1v1h-1zm55 0h6v1h-6zm36 0h39v1h-39zm-37 1h4v1h-4zm38 0h38v1h-38zm-32 1h1v1h-1zm32 0h36v1h-36zm2 1h34v1h-34zm33 1h1v3h-1zm1 1h1v1h-1zM66 34h1v1h-1z"/><path d="M185 34h32v1h-32zm1 1h30v1h-30zM65 36h1v1h-1zm146 0h5v7h-5z"/><path d="M188 37h29v1h-29zm1 1h29v2h-29zM42 39h1v1h-1zm-1 1h1v1h-1zm2 0h1v1h-1zm21 0h1v1h-1zm126 0h28v1h-28zm30 0h1v1h-1zm-4 1h1v1h-1zm2 0h2v1h-2zm4 0h2v1h-2zm-30 1h24v1h-24zm25 0h1v1h-1zm5 0h1v1h-1zM29 43h1v2h-1zm164 0h6v1h-6zm7 0h15v1h-15zm8 1h7v5h-7z"/><path d="M202 45h15v1h-15zm1 1h13v1h-13zM16 47h1v1h-1zm190 0h10v1h-10zm-1 1h10v1h-10zm2 1h7v1h-7zm5 1h2v1h-2zm3 0h1v1h-1zm2 0h1v2h-1zm4 2h1v1h-1zm4 0h1v1h-1zm-3 8h1v1h-1zm-85 46h1v1h-1zm-1 1h1v1h-1zm-8 5h1v1h-1zm120 0h1v1h-1zM95 126h2v6h-2zm-15 2h2v4h-2zm7 0h3v4h-3z"/><path d="M85 129h7v3h-7z"/><path d="M84 130h14v1H84zm-7 1h1v1h-1zm7 0h13v1H84zm20 0h1v1h-1zm-29 1h1v1h-1zm156 37h1v1h-1zm13 23h1v1h-1zm-80 1h1v1h-1zm-27 6h1v1h-1zm24 2h1v1h-1zm32 4h1v1h-1z"/></g></svg>