<svg xmlns="http://www.w3.org/2000/svg" width="192" height="192" baseProfile="tiny" version="1.2"><g fill="#443"><path d="M83 3h5v1h-5zm-1 1h1v1h-1zm6 0h1v1h-1zM21 5h7v2h-7zm19 0h7v2h-7zm38 0h1v6h-1zm3 0h1v1h-1zm8 0h1v1h-1zm3 0h1v6h-1zm61 0h1v9h-1zm2 0h2v2h-2zm5 0h2v2h-2zm3 0h1v9h-1z"/><path d="M152 6h2v4h-2zm12 0h1v4h-1zM20 7h1v2h-1zm6 0h1v2h-1zm6 0h4v3h-4zm9 0h1v2h-1zm6 0h1v2h-1zm33 0h1v1h-1zm10 0h1v1h-1zm51 0h1v9h-1zm15 0h1v9h-1zm4 0h1v9h-1zm15 0h1v9h-1zm-33 1h1v5h-1z"/><path d="M151 8h3v2h-3zm4 0h2v2h-2zm6 0h1v2h-1zm4 0h1v4h-1zm9 0h2v5h-2zM19 9h1v9h-1zm6 0h1v4h-1zm6 0h6v1h-6zm11 0h1v4h-1zm6 0h1v9h-1zm31 0h1v1h-1zm12 0h2v1h-2zm-61 1h1v2h-1zm7 0h1v2h-1zm113 0h2v2h-2zm16 0h1v4h-1z"/><path d="M21 12h5v1h-5zm7 0h1v1h-1zm11 0h1v1h-1zm4 0h4v1h-4zm101 0h2v2h-2zm5 0h2v2h-2zm18 0h1v4h-1zm4 0h2v2h-2zM21 13h1v3h-1zm8 0h1v5h-1zm9 0h1v5h-1zm8 0h1v3h-1zm97 1h1v2h-1zm2 0h1v15h-1zm3 0h2v2h-2zm7 0h2v2h-2zm6 0h1v2h-1zm7 0h1v5h-1zm3 0h1v15h-1zm2 0h1v2h-1zm-98 1h3v1h-3zm18 0h3v1h-3zm57 0h2v1h-2z"/><path d="M153 15h4v1h-4zm9 0h2v3h-2zm3 0h4v1h-4zm-92 1h2v1h-2zm4 0h1v1h-1zm16 0h1v1h-1zm3 0h2v1h-2zm37 0h1v2h-1zm9 0h1v2h-1zm5 0h2v3h-2zm6 0h2v2h-2zm16 0h1v3h-1zm5 0h1v2h-1zm9 0h1v2h-1zM28 17h2v1h-2zm11 0h1v3h-1zm32 0h2v1h-2zm7 0h1v3h-1zm14 0h1v3h-1zm6 0h2v1h-2zm36 0h1v2h-1z"/><path d="M150 17h5v1h-5zm14 0h3v1h-3zm18 0h2v1h-2zM28 18h1v2h-1zm2 0h1v3h-1zm7 0h1v3h-1zm32 0h2v1h-2zm31 0h2v1h-2zm41 0h1v2h-1zm9 0h1v5h-1zm4 0h1v3h-1zm8 0h1v3h-1zm4 0h1v5h-1zm9 0h1v2h-1zm7 0h1v1h-1z"/><path d="M27 19h2v1h-2zm13 0h1v1h-1zm27 0h2v1h-2zm35 0h2v1h-2zm33 0h1v1h-1zm46 0h1v1h-1zM31 20h7v1h-7zm36 0h1v4h-1zm12 0h1v4h-1zm4 0h5v3h-5zm8 0h1v4h-1zm12 0h1v4h-1zm37 0h1v3h-1zm7 0h2v1h-2zm5 0h3v1h-3zm11 0h2v1h-2zm5 0h2v1h-2zm8 0h1v3h-1zM32 21h1v1h-1zm3 0h1v1h-1zm112 0h1v5h-1zm4 0h1v1h-1zm14 0h2v1h-2zm4 0h1v5h-1z"/><path d="M78 22h2v2h-2zm14 0h1v2h-1zm47 0h2v1h-2zm13 0h13v1h-13zm25 0h1v2h-1zM19 23h1v1h-1zm29 0h1v1h-1z"/><path d="M68 23h16v1H68zm19 0h17v1H87zm52 0h1v1h-1zm12 0h1v1h-1zm5 0h1v3h-1zm4 0h1v3h-1zm5 0h1v1h-1zM18 24h1v1h-1zm2 0h1v1h-1zm27 0h1v1h-1zm2 0h1v1h-1zm26 0h3v1h-3zm7 0h2v1h-2zm5 0h2v1h-2zm6 0h3v1h-3zm45 0h1v2h-1zm10 0h1v2h-1zm2 0h1v5h-1zm16 0h1v5h-1zm2 0h2v2h-2zm10 0h1v2h-1zM17 25h1v1h-1zm4 0h1v1h-1zm25 0h1v1h-1zm4 0h1v1h-1zm25 0h2v1h-2zm3 0h5v1h-5zm10 0h5v1h-5zm6 0h2v1h-2z"/><path d="M137 25h2v1h-2zm18 0h7v1h-7zm24 0h1v11h-1zM16 26h1v1h-1zm6 0h2v1h-2zm22 0h2v1h-2zm7 0h1v1h-1zm28 0h1v4h-1zm2 0h2v4h-2zm7 0h2v4h-2zm3 0h1v4h-1zm46 0h1v10h-1zm17 0h1v1h-1zm8 0h1v1h-1zM15 27h1v1h-1zm8 0h2v10h-2zm20 0h2v10h-2zm9 0h1v1h-1zm31 0h1v2h-1z"/><path d="M87 27h3v2h-3zm66 0h1v1h-1zm10 0h1v1h-1zM14 28h1v1h-1zm39 0h1v1h-1zm93 0h7v1h-7zm18 0h8v1h-8zM13 29h1v1h-1zm41 0h1v1h-1zm26 0h3v1h-3zm10 0h2v1h-2zm61 0h2v1h-2zm13 0h2v1h-2zM12 30h1v1h-1zm43 0h1v1h-1zm96 0h1v5h-1zm14 0h1v5h-1zM11 31h1v1h-1zm11 0h3v1h-3zm23 0h1v1h-1zm11 0h1v1h-1zm44 0h4v1h-4zm17 0h4v1h-4zM10 32h1v1h-1zm11 0h1v1h-1zm25 0h1v1h-1zm11 0h1v1h-1zm52 0h3v1h-3zM9 33h1v1H9zm11 0h1v1h-1zm27 0h1v1h-1zm11 0h1v1h-1zm49 0h1v1h-1zm2 0h1v1h-1zm2 0h1v1h-1zm2 0h1v1h-1zM8 34h1v18H8zm11 0h1v1h-1zm29 0h1v1h-1zm11 0h1v18h-1zm-41 1h1v1h-1zm31 0h1v1h-1zm96 0h1v9h-1zm7 0h1v3h-1zm12 0h1v3h-1zm7 0h1v9h-1zM17 36h1v1h-1zm33 0h1v1h-1zm55 0h1v4h-1zm10 0h1v4h-1zm23 0h1v2h-1zm8 0h2v1h-2zm3 0h1v10h-1z"/><path d="M151 36h2v2h-2zm14 0h1v3h-1zm2 0h1v10h-1zm2 0h3v1h-3zm9 0h1v2h-1zM16 37h1v1h-1zm6 0h2v1h-2zm22 0h2v1h-2zm7 0h1v1h-1zm95 0h1v7h-1zm7 0h1v2h-1z"/><path d="M163 37h3v1h-3zm7 0h2v7h-2zM15 38h1v1h-1zm6 0h2v1h-2zm24 0h2v1h-2zm7 0h1v1h-1zm87 0h1v2h-1zm12 0h1v1h-1zm3 0h1v2h-1zm8 0h2v1h-2zm15 0h1v2h-1zM14 39h1v1h-1zm6 0h2v1h-2zm26 0h2v1h-2zm7 0h1v1h-1zm54 0h2v1h-2zm5 0h2v1h-2zm38 0h1v1h-1zm2 0h1v1h-1zm3 0h8v1h-8zm9 0h1v1h-1zm2 0h2v1h-2zM13 40h1v1h-1zm6 0h2v1h-2zm28 0h2v1h-2zm7 0h1v1h-1zm86 0h1v1h-1zm11 0h1v5h-1zm2 0h1v1h-1zm2 0h1v2h-1zm6 0h1v2h-1zm2 0h1v1h-1zm2 0h1v5h-1zm11 0h1v1h-1zM12 41h1v1h-1zm7 0h1v15h-1zm29 0h1v15h-1zm7 0h1v1h-1zm97 0h1v2h-1z"/><path d="M154 41h9v1h-9zm10 0h2v2h-2zM11 42h1v1h-1zm7 0h2v1h-2zm12 0h8v1h-8zm19 0h1v1h-1zm7 0h1v1h-1zm85 0h1v1h-1zm34 0h1v1h-1zM10 43h1v1h-1zm7 0h1v1h-1zm11 0h2v1h-2zm10 0h2v1h-2zm12 0h1v1h-1zm7 0h1v1h-1zm90 0h1v1h-1zm22 0h3v1h-3zM9 44h1v1H9zm7 0h1v1h-1zm11 0h2v1h-2zm12 0h2v1h-2zm12 0h1v1h-1zm7 0h2v1h-2zm84 0h1v1h-1zm12 0h1v2h-1zm3 0h1v1h-1zm2 0h1v1h-1zm3 0h1v2h-1zm12 0h1v1h-1zM15 45h1v1h-1zm11 0h2v1h-2zm14 0h2v1h-2zm12 0h1v1h-1zm93 0h6v1h-6zm11 0h1v5h-1zm2 0h1v6h-1zm2 0h1v5h-1zm6 0h6v1h-6zM14 46h1v1h-1zm6 0h3v2h-3zm4 0h3v2h-3zm17 0h3v2h-3zm4 0h4v2h-4zm8 0h1v1h-1zm43 0h2v1h-2zm27 0h2v1h-2zm18 0h1v3h-1zm4 0h1v4h-1zm5 0h1v1h-1zm2 0h2v1h-2zm11 0h2v1h-2zm3 0h1v1h-1zm5 0h1v4h-1zm4 0h1v3h-1zM13 47h1v1h-1zm41 0h1v1h-1zm40 0h2v1h-2zm31 0h2v1h-2zm24 0h1v2h-1z"/><path d="M154 47h3v3h-3zm7 0h2v3h-2zm6 0h1v2h-1zM12 48h1v1h-1zm8 0h1v1h-1zm3 0h1v7h-1zm2 0h2v1h-2zm16 0h2v1h-2zm3 0h1v7h-1zm3 0h2v1h-2zm8 0h1v1h-1zm37 0h2v1h-2zm35 0h2v1h-2zm17 0h2v2h-2zm7 0h2v1h-2zm13 0h2v1h-2zm8 0h1v7h-1zM11 49h1v1h-1zm15 0h2v2h-2zm14 0h2v2h-2zm16 0h1v1h-1zm36 0h1v4h-1zm36 0h1v4h-1zm20 0h1v2h-1zm4 0h1v2h-1zm12 0h1v2h-1zm4 0h1v2h-1zM10 50h1v1h-1zm47 0h1v1h-1zm47 0h1v3h-1zm4 0h5v2h-5zm8 0h1v3h-1zm28 0h1v5h-1zM9 51h1v1H9zm18 0h2v2h-2zm12 0h2v2h-2zm19 0h2v1h-2z"/><path d="M103 51h2v2h-2zm14 0h1v2h-1zm30 0h1v2h-1zm22 0h1v2h-1z"/><path d="M93 52h16v1H93zm19 0h17v1h-17zm-85 1h1v1h-1zm2 0h1v4h-1zm9 0h1v4h-1zm2 0h1v1h-1zm60 0h3v2h-3zm7 0h2v1h-2zm5 0h2v1h-2zm6 0h3v2h-3zm28 0h1v1h-1zm24 0h1v1h-1zM24 54h3v1h-3zm17 0h4v1h-4zm62 0h5v1h-5z"/><path d="M113 54h8v1h-8zm32 0h1v1h-1zm26 0h2v1h-2zm-71 1h1v1h-1zm4 0h1v4h-1zm2 0h2v4h-2zm7 0h2v4h-2zm3 0h1v4h-1zm4 0h1v1h-1zm-12 1h1v2h-1z"/><path d="M112 56h3v2h-3zm32 0h2v1h-2zm27 0h2v1h-2zM19 57h2v1h-2zm8 0h2v1h-2zm12 0h2v1h-2zm8 0h2v1h-2z"/><path d="M109 57h6v1h-6zm35 0h1v1h-1zm28 0h1v1h-1zm-67 1h3v1h-3zm10 0h2v1h-2zm53 6h6v2h-6zm-83 1h4v1h-4zm19 0h4v1h-4z"/><path d="M167 65h8v1h-8zm-82 1h2v1h-2zm21 0h2v1h-2zm60 0h1v2h-1zm9 0h1v2h-1zm-89 1h1v8h-1zm7 0h7v2h-7zm13 0h1v8h-1zm-89 1h3v1h-3zm33 0h3v1h-3zm115 0h1v14h-1zm11 0h1v14h-1zM16 69h1v1h-1zm4 0h1v1h-1zm29 0h1v1h-1zm4 0h1v1h-1zm43 0h1v2h-1zm-81 1h1v1h-1zm6 0h1v1h-1zm27 0h1v1h-1zm6 0h1v1h-1zm37 0h2v3h-2zm9 0h2v3h-2zm40 0h5v1h-5z"/><path d="M90 71h3v2h-3zm12 0h1v8h-1zm36 0h2v1h-2zm7 0h2v1h-2zm-99 1h2v3h-2zm9 0h2v3h-2zm83 0h1v10h-1zm8 0h1v10h-1zm17 0h3v1h-3zm14 0h2v1h-2z"/><path d="M45 73h3v2h-3zm12 0h1v2h-1zm33 0h1v6h-1zm2 0h1v4h-1zm8 0h1v4h-1zm63 0h1v8h-1zm15 0h1v8h-1zm-96 1h5v1h-5z"/><path d="M91 74h2v3h-2zm10 0h2v4h-2zm6 0h4v1h-4zm61 0h1v1h-1zm2 0h2v1h-2zm3 0h1v1h-1zM47 75h1v8h-1zm8 0h1v8h-1zm27 0h1v5h-1zm28 0h1v5h-1zm-99 1h2v5h-2zm13 0h2v5h-2zm113 0h2v1h-2zm10 0h1v1h-1zM16 77h1v3h-1zm4 0h1v3h-1zm29 0h1v3h-1zm4 0h1v3h-1zm36 0h3v1h-3zm14 0h1v3h-1zm-15 1h3v1h-3zm16 0h1v3h-1zm63 0h1v1h-1zm7 0h1v1h-1zM8 79h2v1H8zm19 0h2v1h-2zm60 0h3v1h-3zm18 0h1v3h-1zM8 80h1v3H8zm6 0h1v6h-1zm8 0h1v6h-1zm6 0h1v3h-1zm53 0h1v1h-1zm5 0h3v1h-3zm20 0h1v3h-1zm5 0h1v1h-1zm53 0h2v2h-2zm13 0h2v1h-2zM9 81h1v1H9z"/><path d="M27 81h2v1h-2zm56 0h5v1h-5zm24 0h3v1h-3zm33 0h5v1h-5zm20 0h1v25h-1zm17 0h1v1h-1zm4 0h1v25h-1zm-98 1h1v1h-1zm2 0h2v1h-2zm22 0h1v1h-1zm2 0h1v1h-1zm55 1h1v5h-1zm13 0h1v5h-1zM6 85h1v3H6zm24 0h1v3h-1zm9 0h1v3h-1zm8 0h2v1h-2zm7 0h2v1h-2zm9 0h1v3h-1zm11 1h1v1h-1zm44 0h1v1h-1zm17 0h2v1h-2zm13 0h2v1h-2zM13 87h1v1h-1zm10 0h1v1h-1zm23 0h2v1h-2zm9 0h2v1h-2zm18 0h1v5h-1zm46 0h1v5h-1zm46 0h1v1h-1z"/><path d="M176 87h2v1h-2zM11 88h1v2h-1zm14 0h1v2h-1zm19 0h1v2h-1zm2 0h1v5h-1zm2 0h1v1h-1zm2 0h3v1h-3zm4 0h1v1h-1zm2 0h1v5h-1zm2 0h1v2h-1zm-46 1h1v1h-1z"/><path d="M24 89h2v1h-2zm21 0h2v1h-2zm12 0h2v1h-2zm23 2h3v2h-3zm4 0h4v1h-4zm21 0h4v1h-4zm5 0h3v2h-3zm-36 1h1v13h-1z"/><path d="M79 92h4v1h-4zm5 0h1v3h-1zm2 0h2v1h-2zm19 0h2v1h-2zm3 0h1v3h-1zm5 0h1v2h-1zm5 0h1v13h-1zm-89 1h2v1h-2zm7 0h2v1h-2zm43 0h1v1h-1zm2 0h2v2h-2zm6 0h2v2h-2zm17 0h2v2h-2zm6 0h2v2h-2zm-82 1h1v1h-1zm2 0h1v12h-1zm6 0h1v12h-1zm2 0h1v1h-1zm40 0h1v2h-1zm36 0h1v2h-1zm-87 1h1v1h-1zm12 0h1v1h-1zm40 0h1v10h-1zm10 0h1v4h-1zm14 0h1v4h-1z"/><path d="M113 95h2v1h-2zm-36 1h1v26h-1zm11 0h2v1h-2zm16 0h1v1h-1zm9 0h1v9h-1zm2 0h1v26h-1zm-83 1h3v1h-3zm58 0h1v4h-1zm12 0h2v2h-2zm33 0h3v2h-3zm12 0h3v2h-3zM27 98h1v1h-1zm4 0h1v1h-1zm4 0h2v1h-2zm4 0h1v1h-1z"/><path d="M75 98h3v1h-3zm41 0h3v1h-3zm-40 1h2v12h-2zm15 0h1v4h-1zm10 0h2v2h-2zm15 0h1v12h-1zm19 0h1v3h-1zm2 0h1v7h-1zm10 0h1v7h-1zm2 0h1v3h-1z"/><path d="M81 100h11v1H81zm22 0h9v1h-9zm33 0h3v1h-3zm10 0h4v1h-4zm-119 1h1v1h-1zm12 0h1v1h-1zm50 0h1v18h-1zm3 0h1v3h-1zm8 0h2v2h-2zm3 0h1v18h-1zm33 0h2v1h-2zm12 0h2v1h-2zm-73 2h3v2h-3zm25 0h1v1h-1zm17 0h2v2h-2z"/><path d="M73 104h5v1h-5zm7 0h1v2h-1zm13 0h1v1h-1zm6 0h1v1h-1zm13 0h2v1h-2zm7 0h1v4h-1zm-92 1h1v1h-1zm12 0h1v1h-1zm34 0h1v3h-1zm39 0h1v1h-1zm-84 1h1v1h-1zm3 0h1v3h-1zm4 0h1v3h-1zm3 0h1v1h-1zm43 0h1v2h-1zm13 0h5v1h-5zm17 0h1v2h-1zm24 0h1v7h-1zm14 0h1v7h-1zm13 0h3v8h-3zm15 0h3v8h-3zm-103 1h1v2h-1zm20 0h1v6h-1zm4 0h1v6h-1z"/><path d="M118 107h2v1h-2zm43 0h4v6h-4zm19 0h1v6h-1zm-157 1h3v1h-3zm18 0h3v1h-3zm34 0h3v2h-3zm7 0h1v2h-1zm28 0h1v2h-1zm7 0h2v1h-2zm-94 1h1v3h-1zm2 0h1v1h-1zm2 0h1v1h-1zm2 0h1v7h-1zm8 0h1v7h-1zm2 0h1v1h-1zm2 0h1v1h-1zm2 0h1v3h-1zm74 0h1v1h-1zm-93 1h1v1h-1z"/><path d="M42 110h2v1h-2zm41 0h1v2h-1zm7 0h5v1h-5zm9 0h5v1h-5zm10 0h1v2h-1zm56 2h1v2h-1zm11 0h5v1h-5zm-10 1h14v1h-14zm-149 1h1v5h-1zm32 0h1v5h-1zm34 0h1v1h-1zm26 0h1v1h-1zm52 0h2v2h-2zm3 0h1v8h-1zm4 0h1v8h-1zm5 0h1v8h-1zm4 0h1v8h-1zm2 0h2v2h-2zm-151 2h1v1h-1zm10 0h1v1h-1zm44 0h1v1h-1zm28 0h1v1h-1zm51 0h1v6h-1zm19 0h1v6h-1zm-18 1h1v2h-1z"/><path d="M179 117h2v2h-2zm-98 1h1v1h-1zm30 0h1v1h-1zm-31 2h1v1h-1zm32 0h1v1h-1zm50 0h1v3h-1zm17 0h2v2h-2zm-101 1h2v1h-2zm35 0h3v1h-3zm66 1h1v1h-1zm-85 3h6v2h-6zm-62 3h3v1h-3zm-1 1h1v1h-1zm4 0h1v1h-1zm58 0h1v2h-1zm7 0h1v2h-1zm-70 1h1v1h-1zm6 0h1v1h-1zm-7 1h1v1h-1zm8 0h1v1h-1zm-9 1h1v1h-1zm10 0h1v1h-1zm54 0h1v1h-1zm9 0h1v1h-1zm-74 1h1v1h-1zm12 0h1v1h-1zm-13 1h1v4h-1zm3 0h1v8h-1zm8 0h1v8h-1zm3 0h1v4h-1zm48 0h1v1h-1zm17 0h1v1h-1zm1 1h1v2h-1zm49 1h7v1h-7z"/><path d="M24 137h3v1h-3zm17 0h2v2h-2zm101 0h2v1h-2zm31 0h2v1h-2zm-149 1h2v1h-2zm62 0h1v1h-1zm21 0h1v1h-1zm36 0h1v5h-1zm30 0h1v5h-1zm-149 1h1v3h-1zm2 0h1v3h-1zm4 0h8v1h-8zm10 0h1v3h-1zm2 0h1v3h-1zm98 0h1v2h-1zm36 0h1v2h-1z"/><path d="M25 140h2v2h-2zm5 0h1v2h-1zm6 0h2v2h-2zm5 0h2v2h-2zm44 0h1v1h-1zm23 0h1v1h-1z"/><path d="M27 141h4v1h-4zm11 0h5v1h-5zm101 0h1v3h-1zm38 0h1v3h-1zm-93 1h1v1h-1zm25 0h1v1h-1zm41 0h1v2h-1zm16 0h1v2h-1zm-56 1h1v3h-1z"/><path d="M148 143h5v1h-5zm16 0h5v1h-5zm-81 2h1v1h-1zm-67 1h1v6h-1zm13 0h1v6h-1zm8 0h1v6h-1zm13 0h1v6h-1zm32 0h1v6h-1zm29 0h1v6h-1zm27 0h1v13h-1zm40 0h1v13h-1z"/><path d="M81 147h2v5h-2zm31 1h1v5h-1zm41 0h1v6h-1zm10 0h1v6h-1zm-69 1h6v1h-6zm42 0h1v8h-1zm14 0h1v5h-1zm16 0h1v5h-1zm14 0h1v8h-1zm-157 1h1v1h-1zm20 0h1v1h-1zm51 0h1v3h-1zm5 0h1v3h-1zm58 0h3v1h-3zm-74 1h1v8h-1z"/><path d="M110 151h3v1h-3zm25 0h2v6h-2zm7 0h3v1h-3zm30 0h3v1h-3zm9 0h1v7h-1zm-101 1h2v1h-2zm30 0h1v7h-1zm3 0h1v2h-1zm30 0h1v1h-1zm30 0h1v1h-1zm-143 1h1v1h-1zm6 0h1v1h-1zm44 0h1v1h-1zm13 0h1v1h-1zm7 0h1v1h-1zm-11 1h3v1h-3zm13 0h3v1h-3zm53 0h1v11h-1zm6 0h1v11h-1zm-73 1h1v1h-1zm2 0h2v6h-2zm12 0h2v6h-2zm3 0h1v1h-1z"/><path d="M134 155h3v2h-3zm16 0h1v3h-1zm3 0h1v3h-1zm10 0h1v3h-1zm3 0h1v3h-1zm16 0h1v3h-1zm-103 1h1v13h-1zm8 0h1v1h-1zm19 0h1v1h-1zm8 0h1v13h-1zm19 1h3v1h-3z"/><path d="M147 157h7v1h-7zm17 0h6v1h-6zm19 0h1v7h-1zm-99 1h2v1h-2zm24 0h3v1h-3zm25 0h1v6h-1zm7 0h1v7h-1zm2 0h1v4h-1zm32 0h1v4h-1zm2 0h1v7h-1zm-92 1h1v1h-1zm25 0h1v1h-1zm26 0h2v4h-2zm11 0h4v1h-4zm5 0h3v2h-3zm12 0h3v2h-3zm4 0h4v1h-4zm13 0h2v4h-2zm-91 1h3v1h-3zm15 0h1v3h-1zm34 0h1v6h-1zm8 0h1v3h-1zm3 0h1v3h-1zm18 0h1v3h-1zm3 0h1v3h-1zm8 0h1v6h-1zm-100 1h2v8h-2zm10 0h3v1h-3z"/><path d="M103 161h3v1h-3zm12 0h1v9h-1zm38 0h1v6h-1zm10 0h1v6h-1zm-92 1h1v20h-1zm16 0h3v1h-3zm18 0h2v2h-2zm17 0h1v20h-1zm25 0h5v1h-5zm18 0h6v1h-6zm-79 1h3v1h-3zm21 0h1v3h-1zm28 0h1v10h-1zm7 0h1v1h-1zm32 0h1v1h-1zm7 0h1v10h-1z"/><path d="M70 164h2v17h-2zm15 0h3v1h-3zm21 0h3v1h-3zm17 0h1v17h-1zm13 0h1v5h-1zm8 0h10v1h-10zm12 0h1v5h-1zm4 0h2v1h-2zm4 0h9v1h-9zm16 0h2v5h-2zm-96 1h3v1h-3zm24 0h2v2h-2zm31 0h1v1h-1zm5 0h1v2h-1zm5 0h1v2h-1zm5 0h1v13h-1zm6 0h1v4h-1zm2 0h2v2h-2zm5 0h1v2h-1zm5 0h1v2h-1zm5 0h2v1h-2zm-162 1h2v2h-2zm35 0h2v2h-2zm26 0h1v1h-1zm7 0h3v1h-3zm27 0h1v2h-1zm7 0h1v1h-1z"/><path d="M133 166h4v3h-4zm49 0h2v7h-2zm-165 1h1v9h-1zm32 0h3v1h-3zm20 0h3v13h-3zm6 0h1v1h-1zm5 0h1v1h-1zm2 0h3v1h-3zm27 0h3v1h-3zm4 0h3v1h-3zm5 0h1v1h-1zm6 0h1v13h-1zm15 0h1v5h-1zm23 0h1v11h-1zm15 0h1v5h-1zm-162 1h1v8h-1zm14 0h1v6h-1zm8 0h1v6h-1zm12 0h1v8h-1zm2 0h1v8h-1zm23 0h1v1h-1zm7 0h2v1h-2zm30 0h2v1h-2zm8 0h1v1h-1zm25 0h1v5h-1zm5 0h1v7h-1zm4 0h2v3h-2zm4 0h4v1h-4zm6 0h1v3h-1zm4 0h1v7h-1zm5 0h1v5h-1zm-99 1h1v12h-1zm5 0h1v1h-1zm2 0h2v1h-2zm32 0h2v1h-2zm8 0h1v12h-1zm13 0h3v4h-3zm3 1h1v3h-1z"/><path d="M150 170h5v1h-5zm14 0h4v1h-4zm16 0h4v3h-4zm-153 1h3v1h-3zm11 0h2v1h-2zm54 0h1v4h-1zm9 0h1v4h-1zm37 0h2v1h-2zm40 0h1v1h-1z"/><path d="M91 172h2v3h-2zm11 0h1v3h-1zm43 0h5v1h-5zm23 0h5v1h-5z"/><path d="M90 173h3v2h-3zm13 0h1v2h-1zm35 0h2v1h-2zm39 0h2v1h-2zm-161 1h2v2h-2zm34 0h2v2h-2z"/><path d="M89 174h4v1h-4zm15 0h1v1h-1zm29 0h4v2h-4zm5 0h1v5h-1zm40 0h1v5h-1zm2 0h4v2h-4zm-93 1h1v1h-1zm19 0h1v1h-1zm1 1h1v1h-1zm33 0h1v7h-1zm2 0h2v2h-2zm31 0h2v2h-2zm3 0h1v7h-1zm-153 1h4v2h-4zm7 0h1v2h-1zm6 0h1v2h-1zm4 0h4v2h-4zm68 0h1v1h-1z"/><path d="M20 178h11v1H20zm17 0h10v1H37zm105 0h1v3h-1zm32 0h1v3h-1zm-154 1h1v5h-1zm2 0h2v3h-2zm21 0h2v3h-2zm3 0h1v5h-1zm93 0h2v2h-2zm38 0h1v2h-1zm-153 1h7v1h-7z"/><path d="M36 180h9v1h-9zm38 0h3v1h-3zm43 0h4v1h-4zm26 0h1v1h-1zm30 0h2v1h-2zm-149 1h5v1h-5zm6 0h2v2h-2zm5 0h2v2h-2zm3 0h7v1h-7zm117 0h7v1h-7zm-128 1h2v1h-2zm11 0h2v1h-2zm104 0h2v1h-2zm31 0h2v1h-2z"/></g><g fill="#ccb"><path d="M83 6h2v1h-2zm3 0h2v1h-2zm-4 1h2v1h-2zm5 0h2v1h-2zm-5 1h1v5h-1zm6 0h1v5h-1z"/><path d="M81 11h2v2h-2zm3 0h3v1h-3zm5 0h1v4h-1zm-6 1h1v1h-1z"/><path d="M87 12h3v1h-3zm-6 1h1v2h-1zm3 0h3v1h-3zm-1 1h2v1h-2zm3 0h2v1h-2zm-4 1h1v1h-1zm2 0h3v1h-3zm4 0h1v1h-1zm-7 1h1v4h-1zm2 0h1v2h-1zm4 0h1v2h-1zm2 0h1v4h-1zm-15 1h2v1h-2z"/><path d="M84 17h4v1h-4zm11 0h2v1h-2zm-72 1h1v1h-1zm21 0h1v1h-1zm28 0h1v3h-1zm3 0h1v1h-1zm7 0h1v3h-1zm2 0h3v1h-3zm4 0h2v2h-2zm7 0h1v1h-1zm3 0h1v3h-1z"/><path d="M70 19h3v2h-3zm29 0h2v2h-2zm-74 1h1v1h-1zm17 0h1v1h-1z"/><path d="M69 20h4v1h-4zm19 0h1v1h-1zm13 0h1v1h-1zm-75 1h1v1h-1zm15 0h1v1h-1zm-17 1h2v4h-2zm3 0h1v9h-1zm13 0h1v9h-1zm2 0h2v4h-2zm100 0h2v8h-2zm31 0h2v8h-2z"/><path d="M26 23h2v8h-2zm15 0h3v3h-3zm-13 1h1v4h-1zm4 0h4v2h-4z"/><path d="M39 24h5v2h-5zm-10 1h1v3h-1zm2 0h6v1h-6z"/><path d="M38 25h6v1h-6zm-13 1h5v1h-5zm6 0h1v2h-1zm5 0h1v2h-1zm2 0h5v1h-5zm118 0h5v3h-5zM19 27h1v3h-1zm14 0h2v3h-2zm5 0h4v1h-4zm10 0h1v3h-1z"/><path d="M155 27h7v2h-7zM18 28h3v1h-3zm12 0h1v1h-1zm2 0h4v2h-4zm5 0h1v1h-1zm4 0h1v3h-1zm6 0h3v1h-3zm-30 1h3v1h-3zm12 0h1v9h-1z"/><path d="M31 29h6v1h-6zm7 0h1v9h-1zm11 0h2v2h-2zm-33 1h3v1h-3zm15 0h1v8h-1zm5 0h1v8h-1zm15 0h1v3h-1zm101 0h2v5h-2zm11 0h2v5h-2zM15 31h3v1h-3zm13 0h2v6h-2zm11 0h1v6h-1z"/><path d="M50 31h3v1h-3zm-36 1h3v1h-3zm38 0h2v2h-2zm-39 1h3v1h-3zm41 0h1v3h-1zm86 0h1v3h-1zm3 0h6v1h-6zm25 0h6v1h-6zm8 0h1v3h-1zM12 34h3v1h-3z"/><path d="M53 34h3v1h-3zm90 0h1v8h-1zm13 0h5v1h-5zm17 0h1v8h-1zM11 35h3v1h-3zm44 0h2v1h-2zm47 0h1v13h-1zm16 0h1v13h-1zM11 36h1v2h-1zm9 0h1v1h-1zm27 0h1v1h-1zm9 0h1v2h-1zm99 0h7v1h-7zM19 37h1v1h-1zm13 0h5v1h-5zm16 0h1v1h-1zm107 0h1v2h-1zm6 0h1v2h-1zM18 38h1v1h-1zm10 0h1v5h-1zm2 0h1v1h-1zm7 0h1v1h-1zm2 0h1v5h-1zm10 0h1v1h-1z"/><path d="M141 38h3v2h-3zm33 0h2v2h-2zM17 39h1v1h-1zm12 0h1v2h-1zm2 0h6v1h-6zm7 0h2v2h-2zm12 0h1v1h-1zm-34 1h1v1h-1zm16 0h4v1h-4zm19 0h1v1h-1zm91 0h2v2h-2zm32 0h1v2h-1zM15 41h1v1h-1zm37 0h1v1h-1zm55 0h3v1h-3zm4 0h3v1h-3zm-97 1h1v1h-1zm39 0h1v1h-1zm56 0h1v5h-1zm2 0h1v5h-1zm-98 1h1v1h-1zm11 0h3v1h-3zm6 0h1v8h-1zm7 0h1v8h-1zm4 0h3v1h-3zm13 0h1v1h-1zm52 0h1v1h-1zm8 0h1v1h-1zM12 44h1v1h-1zm6 0h1v1h-1zm4 0h2v1h-2zm22 0h2v1h-2zm5 0h1v1h-1zm6 0h1v1h-1zm48 0h3v2h-3z"/><path d="M107 44h3v1h-3zm5 0h2v1h-2zm3 0h4v2h-4zM11 45h1v1h-1zm6 0h1v1h-1zm3 0h2v1h-2zm26 0h2v1h-2zm4 0h1v1h-1zm6 0h1v1h-1zm50 0h2v3h-2z"/><path d="M113 45h6v1h-6zm-97 1h1v1h-1zm35 0h1v1h-1zm62 0h2v2h-2zm-98 1h1v1h-1zm37 0h1v1h-1zm-38 1h1v1h-1zm39 0h1v1h-1zm42 0h2v2h-2zm6 0h1v2h-1zm2 0h1v2h-1zm5 0h5v1h-5zm9 0h1v2h-1zm2 0h1v2h-1zm5 0h2v2h-2zM13 49h1v1h-1zm41 0h1v1h-1z"/><path d="M94 49h3v1h-3zm8 0h2v1h-2zm16 0h2v1h-2zm8 0h1v1h-1zM12 50h1v1h-1zm43 0h1v1h-1zm-44 1h1v1h-1zm45 0h1v1h-1zm-46 1h1v1h-1zm47 0h1v1h-1zM9 53h1v2H9zm49 0h1v2h-1zM8 55h1v2H8zm51 0h1v2h-1zM6 57h2v1H6zm54 0h2v1h-2zm109 11h1v7h-1zm3 0h1v7h-1zm-88 2h1v3h-1zm24 0h1v3h-1zm-91 1h1v1h-1zm2 0h1v1h-1zm31 0h1v1h-1zm2 0h1v1h-1zm-34 1h1v5h-1zm33 0h1v5h-1zm42 1h1v1h-1zm6 0h1v1h-1zm42 0h3v1h-3zm0 1h1v6h-1zm2 0h1v6h-1zm-97 1h1v10h-1zm10 0h1v10h-1zm112 0h1v6h-1zm2 0h2v8h-2zm3 0h1v6h-1zm-84 1h1v1h-1zm14 0h1v1h-1zm-15 1h1v1h-1zm16 0h1v1h-1zm33 0h1v9h-1zm10 0h1v9h-1zm-60 1h1v1h-1zm5 0h1v6h-1zm8 0h1v6h-1zm5 0h1v1h-1zm-19 1h1v1h-1z"/><path d="M91 79h2v5h-2zm3 0h5v3h-5zm7 0h1v6h-1zm5 0h1v1h-1zm61 0h2v2h-2zm7 0h1v2h-1zM17 80h1v5h-1zm2 0h1v5h-1zm31 0h1v8h-1zm2 0h1v8h-1zm30 0h4v1h-4z"/><path d="M90 80h3v4h-3zm12 0h1v5h-1zm5 0h4v1h-4z"/><path d="M89 81h4v3h-4zm14 0h1v5h-1zm-91 1h1v2h-1zm12 0h1v2h-1zm52 0h1v5h-1zm19 0h3v1h-3zm21 0h1v5h-1zm23 0h2v4h-2zm3 0h1v4h-1zm2 0h2v4h-2zm19 0h1v8h-1zm4 0h1v8h-1zm2 0h4v1h-4zm5 0h1v8h-1zm4 0h1v8h-1z"/><path d="M11 83h2v1h-2zm14 0h1v1h-1zm24 0h2v2h-2zm4 0h1v2h-1zm113 0h2v4h-2zm3 0h1v3h-1zm3 0h1v3h-1zm3 0h1v4h-1zM7 84h1v3H7zm22 0h1v3h-1zm11 0h1v3h-1zm22 0h1v3h-1zm13 0h2v3h-2zm14 0h3v1h-3zm6 0h3v18h-3zm22 0h1v14h-1z"/><path d="M170 84h3v2h-3zM18 85h1v1h-1zm33 0h2v1h-2zm38 0h1v1h-1zm5 0h5v15h-5zM9 86h1v1H9zm8 0h1v3h-1zm2 0h1v3h-1zm8 0h1v1h-1zm15 0h1v1h-1zm18 0h1v1h-1zm17 0h2v1h-2zm37 0h4v1h-4zm-39 1h1v11h-1zm14 0h1v1h-1zm14 0h1v1h-1zm34 0h1v9h-1zm3 0h5v2h-5zm7 0h1v9h-1zm22 0h4v6h-4z"/><path d="M18 88h2v1h-2zm70 0h1v1h-1zm16 0h1v1h-1zm60 0h1v2h-1zm13 0h2v2h-2zm-90 1h1v1h-1zm18 0h1v1h-1zm-54 1h1v4h-1zm29 0h7v1h-7zm26 0h7v1h-7zm33 0h3v1h-3zm4 0h3v1h-3zm23 0h1v1h-1zm9 0h1v1h-1zm-96 1h1v1h-1zm34 0h1v1h-1zm27 0h2v1h-2zm3 0h2v1h-2zm20 0h2v8h-2zm4 0h1v10h-1zm7 0h1v10h-1zm3 0h2v8h-2zm-35 1h1v1h-1zm-64 1h1v1h-1zm15 0h7v7h-7zm21 0h1v1h-1zm27 0h1v9h-1zm2 0h1v9h-1zm22 1h1v5h-1zm3 0h1v7h-1z"/><path d="M173 94h2v7h-2zm3 0h3v5h-3zm-99 1h1v1h-1zm38 0h1v1h-1zm55 0h2v6h-2zm-94 2h1v1h-1zm40 0h2v1h-2zm47 2h1v6h-1zm15 0h1v6h-1zm-146 1h1v1h-1zm2 0h1v1h-1zm59 0h1v1h-1zm6 0h1v1h-1zm-66 1h1v5h-1zm136 0h1v1h-1zm3 0h1v1h-1zm-91 1h7v2h-7zm15 0h1v1h-1zm9 0h7v2h-7zm37 0h1v1h-1zm25 0h2v6h-2zm3 0h2v7h-2zm3 0h2v6h-2zm-32 1h1v2h-1zm2 0h1v2h-1zm-61 1h6v2h-6zm23 0h6v2h-6zm-22 2h5v1h-5zm22 0h5v1h-5zm36 0h3v3h-3zm-58 1h2v1h-2zm25 0h2v1h-2zm30 0h2v2h-2zm7 0h2v2h-2zm-61 1h1v2h-1zm2 0h2v6h-2zm19 0h2v6h-2zm3 0h1v2h-1zm59 0h1v1h-1zm7 0h1v1h-1zm-142 1h1v5h-1zm2 0h1v5h-1zm103 0h1v1h-1zm10 0h1v1h-1zm-9 1h2v3h-2zm3 0h3v3h-3zm4 0h2v3h-2zm-118 1h1v2h-1zm12 0h1v2h-1z"/><path d="M26 112h2v1h-2zm14 0h1v1h-1zm-7 2h1v1h-1zm54 0h1v2h-1zm18 0h1v2h-1zm65 0h2v2h-2zm-138 1h1v2h-1zm2 0h1v2h-1zm-14 1h1v1h-1zm26 0h1v1h-1zm120 0h2v1h-2zm8 0h2v1h-2zm-150 1h4v1h-4zm7 0h1v5h-1zm2 0h1v5h-1zm2 0h1v5h-1zm4 0h4v1h-4zm131 0h2v2h-2zm-4 2h2v1h-2zm8 0h2v1h-2zm-4 1h2v3h-2zm-76 11h6v1h-6zm-63 2h2v1h-2zm3 0h2v1h-2zm-4 1h2v2h-2zm3 0h1v5h-1zm2 0h2v2h-2z"/><path d="M30 137h7v2h-7zm63 2h8v1h-8zm-61 1h1v2h-1zm2 0h1v2h-1zm123 0h3v5h-3zm-61 1h2v2h-2z"/><path d="M156 141h5v4h-5zm-67 1h1v1h-1zm4 0h8v1h-8zm11 0h1v1h-1zm-82 1h4v1h-4zm10 0h1v10h-1zm2 0h1v10h-1zm7 0h4v1h-4zm52 0h2v2h-2zm6 0h2v2h-2zm-10 1h1v1h-1z"/><path d="M92 144h3v1h-3zm4 0h2v4h-2zm5 0h1v1h-1zm3 0h1v1h-1zm-15 2h1v8h-1z"/><path d="M92 146h10v2H92zm12 0h1v8h-1zm52 0h5v4h-5zm-138 1h5v1h-5zm6 0h3v1h-3zm16 0h3v1h-3zm4 0h5v1h-5zm-26 1h2v3h-2zm4 0h3v1h-3zm4 0h1v3h-1zm14 0h1v3h-1zm2 0h3v1h-3zm5 0h2v3h-2zm45 0h3v1h-3zm7 0h3v1h-3zm-78 1h2v1h-2zm3 0h1v1h-1zm18 0h1v1h-1zm2 0h2v1h-2zm48 0h2v3h-2zm8 0h2v3h-2zm-80 1h2v1h-2z"/><path d="M25 150h2v1h-2zm16 0h1v1h-1zm4 0h4v1h-4zm111 0h1v3h-1zm4 0h1v3h-1zm-78 2h1v4h-1zm29 0h1v4h-1zm-79 2h1v3h-1zm2 0h1v3h-1zm111 0h4v1h-4zm6 0h1v1h-1zm14 0h1v1h-1zm3 0h4v1h-4zm-11 1h3v9h-3zm-68 1h1v1h-1zm15 0h1v1h-1zm-22 1h1v2h-1zm6 0h1v3h-1zm17 0h1v3h-1zm6 0h1v2h-1zm-79 1h1v7h-1zm2 0h1v7h-1z"/><path d="M87 158h2v2h-2zm19 0h1v3h-1zm-84 1h4v2h-4zm19 0h4v2h-4z"/><path d="M86 159h3v1h-3zm21 0h1v2h-1zm-22 1h3v1h-3zm9 0h1v4h-1zm5 0h1v4h-1zm9 0h1v2h-1zm-23 1h1v1h-1z"/><path d="M93 161h8v3h-8zm-2 1h1v2h-1zm11 0h1v2h-1z"/><path d="M90 163h14v1H90zm0 1h1v1h-1zm5 0h4v3h-4zm8 0h1v1h-1zm55 0h1v3h-1zm-134 1h2v1h-2zm17 0h2v1h-2zm47 0h1v2h-1zm3 0h1v2h-1zm2 0h1v4h-1zm7 0h1v4h-1zm2 0h1v2h-1zm3 0h1v2h-1zm-73 1h1v8h-1zm2 0h1v8h-1z"/><path d="M87 166h2v1h-2zm3 0h2v1h-2zm13 0h1v3h-1zm3 0h1v2h-1zm-19 1h1v1h-1zm3 0h1v2h-1zm56 0h2v1h-2zm4 0h3v1h-3zm14 0h3v1h-3zm5 0h2v1h-2zm-81 1h1v3h-1zm6 0h7v1h-7zm11 0h1v3h-1zm-85 1h3v1h-3zm6 0h1v2h-1zm14 0h1v2h-1zm4 0h3v1h-3z"/><path d="M87 169h2v2h-2zm8 0h4v1h-4zm11 0h1v2h-1zm-86 1h1v3h-1zm2 0h5v1h-5zm19 0h4v1h-4zm5 0h1v3h-1zm34 0h1v1h-1zm33 0h1v1h-1zm43 0h5v1h-5zm-135 1h2v3h-2z"/><path d="M44 171h3v2h-3zm112 0h2v7h-2zm3 0h2v7h-2zm-79 1h1v1h-1zm33 0h1v1h-1zm-88 1h2v1h-2zm15 0h2v1h-2zm4 0h2v1h-2zm36 1h1v1h-1zm33 0h1v1h-1zm-81 1h1v6h-1zm2 0h1v6h-1zm46 1h1v3h-1zm3 0h1v1h-1zm27 0h1v1h-1zm3 0h1v3h-1z"/><path d="M158 176h3v2h-3zm-77 1h1v2h-1zm31 0h2v2h-2z"/><path d="M77 178h6v1h-6zm34 0h6v1h-6zm-16 2h4v1h-4zm-19 3h1v1h-1zm41 0h1v1h-1z"/></g><g fill="#611"><path d="M26 15h3v2h-3zm13 0h3v2h-3zm34 13h4v1h-4zm21 0h4v1h-4zm-16 2h6v1h-6zm9 0h6v1h-6zm13 2h4v1h-4zm17 0h4v1h-4zm-95 7h1v2h-1zm23 0h1v2h-1z"/><path d="M21 40h2v1h-2zm25 0h1v2h-1zm-25 1h1v1h-1zm1 1h1v2h-1zm23 0h1v2h-1z"/><path d="M21 43h2v1h-2zm25 0h1v2h-1zm-25 1h1v1h-1zm77 13h4v1h-4zm21 0h4v1h-4zm-16 2h6v1h-6zm9 0h6v1h-6zM11 75h2v1h-2zm13 0h2v1h-2zm59 40h1v6h-1zm26 0h1v6h-1z"/><path d="M82 118h2v3h-2zm28 0h1v4h-1z"/><path d="M81 120h3v1h-3zm30 0h1v2h-1zm-31 1h3v1h-3zm32 0h1v1h-1zm37 10h5v1h-5zm14 0h5v1h-5zm-14 1h2v1h-2zm4 0h1v16h-1zm10 0h1v16h-1zm3 0h2v1h-2zm-18 1h1v2h-1zm2 0h1v9h-1zm16 0h1v9h-1zm2 0h1v2h-1zm-21 2h1v2h-1zm22 0h1v2h-1zm-23 2h1v2h-1zm24 0h1v2h-1zm-25 2h1v2h-1zm26 0h1v2h-1zm-24 4h1v9h-1zm22 0h1v9h-1zm-29 6h1v5h-1zm8 0h2v1h-2z"/><path d="M167 149h3v1h-3zm9 0h1v5h-1zm-37 1h2v4h-2zm38 0h1v7h-1zm-36 1h1v1h-1zm4 0h3v1h-3zm25 0h2v1h-2z"/><path d="M175 151h3v1h-3zm-32 2h1v1h-1zm30 0h1v1h-1zm-34 1h1v3h-1zm1 1h1v3h-1zm3 0h1v3h-1zm30 0h1v3h-1zm3 0h2v2h-2z"/><path d="M141 157h6v1h-6zm29 0h7v1h-7zm-29 7h3v1h-3zm32 0h3v1h-3zm-33 1h1v2h-1zm36 0h1v2h-1zm-36 3h1v8h-1zm36 0h1v8h-1zm-23 3h1v5h-1zm10 0h1v5h-1zm-22 3h1v2h-1z"/><path d="M175 174h2v2h-2zm-33 1h12v1h-12z"/><path d="M164 175h13v1h-13zm-81 5h7v1h-7zm21 0h7v1h-7zm-21 1h1v1h-1zm6 0h1v1h-1zm15 0h1v1h-1zm6 0h1v1h-1zm-26 1h5v1h-5zm21 0h5v1h-5z"/></g><g fill="#222"><path d="M22 4h7v1h-7zm17 0h7v1h-7zm100 0h2v4h-2zm13 0h6v1h-6zm7 0h6v1h-6zm17 0h2v4h-2zM28 5h1v7h-1zm11 0h1v7h-1zm38 0h1v10h-1zm16 0h1v10h-1zm48 0h1v2h-1zm11 0h1v1h-1zm2 0h1v10h-1zm3 0h1v12h-1zm2 0h1v12h-1zm3 0h1v10h-1zm2 0h1v1h-1z"/><path d="M175 5h3v2h-3zm-33 1h1v2h-1zm9 0h1v2h-1zm14 0h1v2h-1z"/><path d="M174 6h4v1h-4zm-31 1h1v7h-1zm30 0h2v1h-2zM31 8h1v1h-1zm5 0h1v1h-1zm103 0h1v14h-1zm11 0h1v2h-1zm16 0h1v2h-1zm7 0h1v6h-1zm4 0h1v14h-1zm-37 1h1v2h-1z"/><path d="M176 9h2v2h-2zM18 10h1v11h-1zm31 0h1v11h-1zm100 0h1v2h-1zm18 0h1v2h-1z"/><path d="M17 11h2v10h-2zm21 0h2v1h-2zm12 0h1v11h-1zm-21 1h1v1h-1zm9 0h1v1h-1zm102 0h1v2h-1zm8 0h1v2h-1zm20 0h1v2h-1zm8 0h2v2h-2zm-34 1h2v1h-2zm32 0h1v3h-1zM72 14h1v3h-1zm26 0h1v3h-1zm44 0h1v2h-1zm5 0h1v2h-1zm5 0h3v1h-3zm11 0h2v1h-2zm6 0h1v2h-1zm-37 1h3v1h-3zm8 0h1v5h-1zm12 0h1v2h-1zm12 0h1v2h-1zm12 0h2v5h-2zm6 0h3v1h-3zM68 16h1v3h-1zm34 0h1v3h-1zm30 0h1v2h-1zm2 0h1v1h-1zm7 0h1v2h-1zm5 0h1v12h-1z"/><path d="M149 16h4v1h-4zm6 0h3v1h-3zm5 0h2v1h-2zm5 0h3v1h-3zm5 0h1v12h-1zm5 0h3v2h-3zm7 0h1v1h-1zm2 0h1v2h-1zm-49 1h1v2h-1zm14 0h1v11h-1zm6 0h1v5h-1zm6 0h1v5h-1zm6 0h1v11h-1zm14 0h1v2h-1zm-48 1h1v2h-1zm50 0h1v2h-1zm-49 1h1v3h-1zm2 0h1v7h-1z"/><path d="M147 19h3v1h-3zm21 0h3v1h-3zm12 0h1v7h-1zm2 0h2v1h-2zm-45 1h1v5h-1zm19 0h2v2h-2zm3 0h3v2h-3z"/><path d="M179 20h2v5h-2zm3 0h1v2h-1zM17 21h1v1h-1zm118 0h5v1h-5zm17 0h13v1h-13z"/><path d="M178 21h5v1h-5zm-43 1h4v2h-4zm16 0h1v1h-1zm14 0h1v1h-1zm13 0h4v2h-4zm-28 1h1v1h-1zm16 0h2v1h-2zm-93 1h2v4h-2zm23 0h2v4h-2zm-19 1h1v1h-1zm16 0h1v1h-1zm-18 1h2v2h-2zm3 0h1v4h-1zm14 0h1v4h-1z"/><path d="M94 26h4v2h-4zm53 0h3v2h-3zm21 0h3v2h-3zm-84 2h3v1h-3zm-1 1h1v1h-1zm4 0h1v1h-1zm21 3h1v1h-1zm4 0h1v1h-1zm-13 1h1v1h-1zm22 0h1v1h-1zm-23 1h1v14h-1zm8 0h1v1h-1zm8 0h1v1h-1zm8 0h1v14h-1zm24 1h6v1h-6zm19 0h6v1h-6zm-17 1h1v9h-1zm2 0h1v3h-1zm16 0h1v3h-1zm2 0h1v9h-1zm-34 3h5v3h-5zm17 0h1v1h-1zm14 0h1v1h-1zm13 0h5v3h-5zM24 40h3v1h-3zm17 0h3v1h-3zm64 0h1v2h-1zm10 0h1v2h-1z"/><path d="M133 40h7v1h-7zm19 0h1v1h-1zm12 0h1v1h-1zm13 0h7v1h-7zM22 41h2v1h-2zm22 0h2v1h-2zm95 0h2v8h-2zm14 0h1v5h-1zm10 0h1v5h-1zm13 0h7v1h-7zM21 42h1v1h-1zm8 0h1v1h-1zm9 0h1v1h-1zm8 0h1v1h-1zm53 0h1v1h-1zm22 0h2v1h-2z"/><path d="M154 42h10v2h-10zm22 0h2v7h-2zM20 43h1v1h-1zm27 0h1v1h-1zm53 0h1v1h-1zm20 0h1v1h-1zm21 0h1v3h-1z"/><path d="M152 43h13v1h-13zm23 0h3v3h-3zm-30 1h4v1h-4zm7 0h2v2h-2zm12 0h1v2h-1zm5 0h3v1h-3zm-27 1h1v7h-1z"/><path d="M151 45h3v1h-3zm6 0h1v8h-1zm2 0h1v8h-1zm6 0h1v3h-1zm9 0h4v1h-4zM17 46h1v11h-1zm6 0h1v2h-1zm21 0h1v2h-1zm6 0h1v11h-1zm93 0h1v13h-1zm8 0h1v2h-1zm22 0h2v6h-2zm-74 1h1v2h-1zm22 0h2v1h-2zm17 0h3v2h-3z"/><path d="M150 47h4v1h-4zm13 0h4v1h-4zm15 0h1v3h-1zm-78 1h1v1h-1zm20 0h2v1h-2zm17 0h4v1h-4zm13 0h1v1h-1zm3 0h1v4h-1zm10 0h1v4h-1zm3 0h1v1h-1zm13 0h1v3h-1zm-43 1h3v1h-3zm5 0h3v2h-3zm8 0h1v2h-1zm18 0h1v2h-1zm8 0h1v2h-1zm5 0h1v1h-1zm-43 1h1v1h-1zm17 0h4v3h-4z"/><path d="M160 50h4v2h-4zm-12 1h1v2h-1z"/><path d="M158 51h6v1h-6zm10 0h1v2h-1zM33 52h2v2h-2zm125 0h5v1h-5zm15 0h1v7h-1zM28 53h1v1h-1zm11 0h1v1h-1zm59 0h2v4h-2zm23 0h2v4h-2zm26 0h1v2h-1zm22 0h1v2h-1zM27 54h1v1h-1zm3 0h1v3h-1zm7 0h1v3h-1zm3 0h1v1h-1z"/><path d="M146 54h2v1h-2zm24 0h1v3h-1zm-69 1h1v2h-1zm2 0h1v4h-1zm14 0h1v4h-1zm2 0h1v2h-1zm25 0h3v1h-3zm27 0h3v1h-3zM18 56h1v1h-1zm31 0h2v1h-2z"/><path d="M100 56h2v1h-2zm20 0h3v1h-3zm26 0h1v1h-1zm-1 1h1v2h-1zm26 0h1v2h-1zm-63 1h1v1h-1zm4 0h1v1h-1z"/><path d="M144 58h2v1h-2zm28 0h2v1h-2zm-32 11h5v1h-5zm-1 1h1v1h-1zm6 0h1v1h-1zm-34 7h1v3h-1zm23 6h1v20h-1zm16 0h1v20h-1z"/><path d="M133 84h2v4h-2zm18 0h1v4h-1zm-77 1h1v1h-1zm44 0h1v1h-1zm-45 1h1v1h-1zm46 0h1v1h-1zm-47 1h1v5h-1zm48 0h1v5h-1zm-37 4h1v5h-1zm26 0h1v5h-1z"/><path d="M80 95h9v1h-9zm24 0h9v1h-9zm-24 1h1v8h-1zm32 0h1v8h-1zm21 2h2v4h-2zm18 0h1v4h-1zm-16 4h2v1h-2zm13 0h3v1h-3zm-55 1h1v1h-1zm6 0h1v1h-1zm-27 1h1v4h-1zm9 0h1v2h-1zm30 0h1v2h-1zm9 0h1v4h-1zm-26 1h5v1h-5zm-12 1h1v2h-1zm28 0h1v2h-1zm-37 2h1v1h-1zm10 0h1v2h-1zm26 0h1v2h-1zm10 0h1v1h-1zm-45 1h1v1h-1zm44 0h1v1h-1zm-43 1h1v1h-1zm9 0h1v2h-1zm24 0h1v4h-1zm9 0h1v1h-1zm-41 1h1v12h-1zm40 0h1v12h-1zm-33 1h1v2h-1zm26 0h1v2h-1zm-15 1h5v1h-5zm-17 9h3v1h-3z"/><path d="M113 122h4v1h-4zm29 8h2v7h-2zm31 0h2v7h-2z"/><path d="M141 136h4v1h-4zm31 0h4v1h-4zm-145 1h1v1h-1zm12 0h1v1h-1zm52 0h1v7h-1zm11 0h1v7h-1zm38 0h2v2h-2zm4 0h1v4h-1zm28 0h1v4h-1zm3 0h2v2h-2zm-152 1h1v4h-1zm5 0h1v1h-1zm10 0h1v1h-1zm5 0h1v4h-1z"/><path d="M90 138h2v6h-2zm13 0h1v16h-1zm33 0h1v2h-1zm44 0h1v2h-1zm-43 1h1v2h-1zm2 0h1v2h-1zm2 0h1v8h-1zm34 0h1v8h-1zm2 0h1v2h-1z"/><path d="M179 139h2v1h-2zm-41 1h2v1h-2zm16 0h1v25h-1zm8 0h1v25h-1zm16 0h2v1h-2zm-40 1h1v5h-1zm40 0h1v5h-1zm-88 3h1v10h-1zm49 0h3v1h-3z"/><path d="M176 144h3v1h-3zm-85 1h1v9h-1zm11 0h2v9h-2zm37 0h1v5h-1zm38 0h2v1h-2zm-147 1h1v6h-1zm6 0h1v6h-1zm101 0h1v33h-1zm40 0h1v4h-1zm2 0h1v33h-1zm-67 1h1v1h-1z"/><path d="M136 147h2v2h-2zm44 0h1v2h-1zm-49 2h1v2h-1zm4 0h1v2h-1zm46 0h1v2h-1zm4 0h1v2h-1zm-105 1h1v2h-1zm33 0h1v2h-1zm19 0h1v2h-1z"/><path d="M184 150h2v1h-2zm-51 1h2v3h-2zm49 0h3v1h-3zm0 1h2v3h-2zm-90 1h1v7h-1zm9 0h3v1h-3zm-22 1h1v2h-1zm22 0h1v6h-1zm13 0h1v2h-1zm20 0h1v1h-1zm-1 1h1v2h-1zm50 0h1v2h-1zm-51 2h1v7h-1zm7 0h1v3h-1zm38 0h1v3h-1zm7 0h1v7h-1zm-50 1h4v1h-4zm7 0h1v6h-1zm3 0h11v1h-11zm19 0h10v1h-10zm12 0h1v6h-1zm5 0h3v1h-3zm-102 1h1v2h-1zm37 0h1v2h-1zm19 0h1v7h-1z"/><path d="M138 159h2v1h-2zm6 0h2v5h-2zm6 0h1v3h-1zm16 0h1v3h-1zm5 0h2v5h-2zm7 0h2v1h-2zm4 0h1v7h-1zm-31 2h2v1h-2z"/><path d="M164 161h3v1h-3zm-22 1h4v1h-4zm10 0h1v2h-1zm12 0h1v2h-1zm9 0h3v1h-3z"/><path d="M146 163h7v1h-7zm19 0h8v1h-8zm-96 1h1v2h-1zm8 0h1v6h-1zm39 0h1v6h-1zm8 0h1v2h-1zm9 0h2v2h-2zm50 0h1v2h-1z"/><path d="M132 165h3v1h-3zm52 0h1v12h-1zm-52 1h1v11h-1zm6 0h2v1h-2zm39 0h3v1h-3zm-163 1h1v9h-1zm38 0h1v9h-1zm-22 1h1v6h-1zm6 0h1v6h-1zm102 4h2v1h-2zm39 0h3v1h-3zm-44 1h5v1h-5z"/><path d="M180 173h5v1h-5zm-92 2h5v2h-5zm13 0h5v2h-5z"/><path d="M86 176h7v1h-7zm20 0h1v4h-1zm27 0h5v1h-5zm8 0h1v10h-1zm3 0h10v1h-10zm19 0h10v1h-10zm12 0h1v10h-1zm5 0h5v1h-5zm-95 1h7v3h-7z"/><path d="M102 177h6v3h-6zm42 0h4v2h-4zm7 0h3v2h-3zm12 0h3v2h-3zm6 0h4v2h-4zm-150 1h1v6h-1zm28 0h1v6h-1zm36 0h9v2h-9zm25 0h3v2h-3zm46 0h1v1h-1z"/><path d="M162 178h4v1h-4zm-68 1h1v1h-1zm5 0h1v1h-1zm39 0h1v2h-1zm6 0h3v2h-3zm26 0h3v2h-3zm8 0h1v2h-1zm-146 2h1v1h-1zm2 0h1v1h-1zm105 0h1v2h-1zm3 0h3v1h-3zm30 0h4v1h-4zm5 0h1v2h-1zm-33 1h1v4h-1zm28 0h1v4h-1zm-32 1h2v2h-2zm36 0h1v2h-1z"/><path d="M142 185h3v1h-3zm31 0h3v1h-3z"/></g><g fill="#554"><path d="M83 4h5v1h-5zm2 1h1v1h-1zm-4 1h1v1h-1zm8 0h1v1h-1zM21 7h5v2h-5zm6 0h1v7h-1zm13 0h1v7h-1zm2 0h5v2h-5zm113 0h1v1h-1zm6 0h1v1h-1zM80 8h1v2h-1zm10 0h1v2h-1zM20 9h5v2h-5z"/><path d="M26 9h2v5h-2zm15 0h1v5h-1zm2 0h5v2h-5zm-12 1h1v1h-1zm5 0h1v1h-1zm43 0h1v2h-1zm12 0h1v2h-1zm61 0h1v4h-1zm3 0h1v4h-1zm6 0h1v4h-1zm3 0h1v4h-1zM20 11h1v1h-1zm27 0h1v1h-1z"/><path d="M78 11h2v1h-2zm14 0h1v6h-1zm-14 1h1v5h-1zm73 0h2v2h-2zm14 0h1v3h-1zM22 13h7v1h-7zm9 0h1v3h-1zm2 0h2v4h-2zm3 0h1v3h-1zm3 0h7v1h-7zm-17 1h1v3h-1z"/><path d="M30 14h2v2h-2zm7 0h1v4h-1zm8 0h1v3h-1zm34 0h1v2h-1zm12 0h2v2h-2zm59 0h2v1h-2zm16 0h1v1h-1zM20 15h1v9h-1zm3 0h3v2h-3z"/><path d="M42 15h4v2h-4zm5 0h1v9h-1zm33 0h2v1h-2zm9 0h4v1h-4zm-68 1h5v1h-5zm9 0h1v2h-1zm2 0h4v1h-4z"/><path d="M46 16h2v2h-2zm-25 1h1v1h-1zm11 0h1v3h-1zm3 0h1v3h-1zm-16 1h2v5h-2z"/><path d="M31 18h2v2h-2zm5 0h1v2h-1zm12 0h1v5h-1zm104 0h2v2h-2zm11 0h2v2h-2zM23 19h4v1h-4z"/><path d="M33 19h4v1h-4zm8 0h4v1h-4zm32 0h5v1h-5zm6 0h1v1h-1zm4 0h5v1h-5zm8 0h1v1h-1zm2 0h5v1h-5zm58 0h3v1h-3zm14 0h1v2h-1zM23 20h1v6h-1zm21 0h1v6h-1zm29 0h1v3h-1zm24 0h1v3h-1zm44 0h4v1h-4zm10 0h1v1h-1zm21 0h4v1h-4zM18 21h3v2h-3zm31 0h1v3h-1z"/><path d="M68 21h6v1h-6zm12 0h1v2h-1zm10 0h1v2h-1zm8 0h5v1h-5zm50 0h1v3h-1zm20 0h1v3h-1zM32 22h1v2h-1zm3 0h1v2h-1zm46 0h1v1h-1z"/><path d="M89 22h2v1h-2zm-71 1h1v1h-1zm66 0h3v5h-3zm56 0h1v9h-1zm12 0h4v1h-4zm5 0h3v1h-3zm4 0h4v1h-4zm15 0h1v9h-1zM19 24h1v1h-1zm29 0h1v1h-1zm30 0h4v1h-4zm11 0h4v1h-4zm62 0h2v1h-2zm4 0h1v1h-1zm2 0h1v1h-1zm2 0h1v1h-1zm2 0h1v1h-1zm3 0h2v1h-2zM18 25h1v1h-1zm2 0h1v1h-1zm27 0h1v1h-1zm2 0h1v1h-1z"/><path d="M83 25h5v2h-5zm68 0h1v3h-1zm14 0h1v3h-1zM17 26h1v1h-1zm4 0h1v1h-1zm25 0h1v1h-1zm4 0h1v1h-1zm30 0h1v3h-1zm10 0h1v3h-1zm48 0h1v10h-1zm15 0h1v1h-1zm10 0h1v1h-1zm15 0h1v10h-1zM16 27h1v1h-1zm6 0h1v4h-1zm23 0h1v4h-1zm6 0h1v1h-1zm101 0h1v1h-1zm2 0h1v1h-1zm8 0h1v1h-1z"/><path d="M164 27h2v1h-2zM15 28h1v1h-1zm13 0h2v1h-2zm10 0h2v1h-2zm14 0h1v1h-1zm101 0h1v1h-1zm10 0h1v1h-1zM14 29h1v1h-1zm14 0h1v2h-1zm11 0h1v2h-1zm14 0h1v1h-1zm-40 1h1v1h-1zm8 0h2v1h-2zm11 0h4v1h-4zm14 0h1v2h-1zm8 0h1v1h-1zm-42 1h1v1h-1zm8 0h2v1h-2zm5 0h3v2h-3zm7 0h1v2h-1zm3 0h1v2h-1zm5 0h3v2h-3zm7 0h1v2h-1zm8 0h1v1h-1zm86 0h10v1h-10zm25 0h11v1h-11zM11 32h1v1h-1zm8 0h2v1h-2zm3 0h1v5h-1zm23 0h1v5h-1zm3 0h1v2h-1zm8 0h1v1h-1zm86 0h1v6h-1zm32 0h1v6h-1zM6 33h1v24H6zm4 0h1v1h-1zm8 0h2v1h-2z"/><path d="M21 33h2v1h-2zm4 0h1v4h-1zm2 0h1v10h-1zm13 0h1v10h-1zm2 0h1v4h-1zm4 0h1v1h-1zm3 0h1v2h-1zm8 0h1v1h-1zm4 0h1v24h-1zm39 0h4v1h-4zm8 0h1v2h-1zm2 0h1v2h-1zm2 0h1v2h-1zm4 0h5v1h-5zM9 34h1v10H9zm8 0h2v1h-2zm3 0h1v1h-1zm12 0h1v3h-1zm3 0h1v3h-1zm12 0h1v1h-1zm3 0h1v2h-1zm8 0h1v10h-1zm41 0h2v8h-2z"/><path d="M107 34h7v1h-7zm9 0h1v10h-1zm4 0h2v8h-2zM16 35h2v1h-2zm3 0h1v1h-1zm29 0h1v1h-1zm3 0h1v2h-1zm55 0h2v1h-2zm7 0h2v1h-2zm40 0h2v1h-2zm9 0h2v1h-2zM15 36h2v1h-2zm3 0h1v1h-1zm15 0h3v1h-3zm16 0h1v1h-1zm3 0h1v2h-1zm54 0h1v2h-1zm8 0h1v2h-1zm39 0h1v1h-1zm10 0h1v1h-1zM14 37h2v1h-2zm3 0h1v1h-1zm4 0h1v1h-1zm3 0h1v3h-1zm4 0h1v1h-1zm11 0h2v1h-2zm4 0h1v3h-1zm3 0h1v1h-1zm4 0h1v1h-1zm3 0h1v2h-1zm51 0h1v7h-1zm35 0h4v1h-4zm8 0h1v5h-1zm7 0h1v1h-1zm8 0h1v1h-1zm7 0h1v5h-1zm6 0h3v1h-3zM13 38h2v1h-2zm3 0h1v1h-1zm4 0h1v1h-1z"/><path d="M23 38h2v2h-2zm6 0h1v1h-1zm9 0h1v1h-1zm6 0h1v3h-1zm3 0h1v1h-1zm4 0h1v1h-1zm3 0h1v2h-1zm55 0h3v1h-3zm43 0h1v1h-1zm12 0h1v1h-1zM12 39h2v1h-2zm3 0h1v1h-1zm4 0h1v1h-1zm6 0h3v1h-3z"/><path d="M41 39h4v1h-4zm7 0h1v1h-1zm4 0h1v1h-1zm3 0h1v2h-1zm51 0h1v2h-1zm8 0h1v2h-1zm39 0h1v1h-1zm10 0h1v1h-1zM11 40h2v1h-2zm3 0h1v1h-1zm4 0h1v2h-1zm5 0h1v1h-1zm26 0h1v2h-1zm4 0h1v1h-1zm3 0h1v2h-1zm51 0h2v1h-2z"/><path d="M112 40h3v1h-3zm38 0h1v5h-1zm4 0h1v1h-1zm2 0h5v1h-5zm6 0h1v1h-1zm4 0h1v5h-1zM10 41h2v1h-2zm3 0h1v1h-1zm4 0h2v1h-2zm3 0h1v2h-1zm4 0h4v1h-4zm17 0h3v1h-3zm6 0h1v2h-1zm3 0h1v2h-1zm4 0h1v1h-1zm3 0h2v2h-2zm-47 1h1v1h-1zm2 0h1v1h-1zm4 0h2v1h-2zm7 0h2v1h-2zm20 0h2v1h-2zm8 0h1v2h-1zm4 0h1v1h-1zm45 0h1v1h-1zm20 0h1v1h-1zM11 43h1v1h-1zm4 0h2v1h-2zm8 0h1v1h-1zm9 0h1v7h-1zm3 0h1v7h-1zm9 0h1v1h-1zm8 0h1v2h-1zm4 0h1v1h-1zm43 0h1v4h-1zm2 0h1v1h-1zm2 0h2v1h-2zm14 0h1v1h-1zm2 0h1v1h-1zm2 0h1v4h-1zM10 44h1v1h-1zm4 0h2v1h-2zm6 0h1v1h-1zm9 0h1v2h-1zm9 0h1v2h-1zm9 0h1v1h-1zm6 0h1v2h-1zm4 0h1v1h-1zm43 0h1v4h-1z"/><path d="M120 44h2v3h-2zm35 0h2v1h-2zm3 0h1v1h-1zm2 0h2v1h-2zM9 45h1v6H9zm4 0h2v1h-2zm5 0h1v11h-1zm10 0h2v1h-2zm11 0h1v1h-1zm10 0h1v11h-1zm5 0h1v2h-1zm4 0h1v6h-1zm97 0h1v2h-1zm6 0h1v2h-1zM12 46h2v1h-2zm15 0h1v3h-1zm13 0h1v3h-1zm15 0h1v2h-1zm48 0h3v1h-3zm12 0h3v1h-3zm31 0h4v1h-4z"/><path d="M154 46h2v1h-2zm8 0h1v1h-1zm5 0h4v1h-4zM11 47h2v1h-2zm45 0h1v2h-1zm48 0h1v1h-1zm12 0h1v1h-1zm4 0h1v1h-1zm26 0h3v2h-3zm22 0h3v2h-3zM10 48h2v1h-2zm11 0h2v9h-2zm3 0h1v6h-1zm19 0h1v6h-1zm2 0h2v9h-2zm12 0h2v2h-2zm41 0h1v4h-1zm7 0h1v4h-1zm10 0h1v4h-1zm7 0h1v4h-1zM10 49h1v1h-1z"/><path d="M20 49h3v7h-3zm5 0h1v5h-1zm3 0h1v2h-1zm5 0h3v1h-3zm6 0h1v2h-1zm3 0h2v5h-2zm5 0h1v7h-1zm52 0h2v1h-2zm7 0h10v1h-10zm14 0h3v1h-3zm26 0h2v2h-2zm23 0h2v2h-2zM29 50h1v3h-1zm4 0h2v2h-2z"/><path d="M38 50h2v1h-2zm55 0h7v1h-7zm28 0h7v1h-7zm24 0h3v1h-3zm26 0h1v4h-1zM26 51h1v3h-1zm5 0h1v3h-1zm5 0h1v3h-1zm2 0h1v2h-1zm3 0h3v3h-3zm58 0h1v1h-1zm7 0h1v1h-1zm8 0h2v1h-2zm7 0h2v1h-2zm24 0h2v2h-2z"/><path d="M170 51h2v2h-2zM32 52h1v2h-1zm3 0h2v2h-2zm74 0h3v5h-3zm-6 1h4v1h-4zm11 0h4v1h-4zm31 0h1v1h-1zM28 54h1v2h-1zm11 0h1v2h-1z"/><path d="M108 54h5v2h-5zm-85 1h6v1h-6zm17 0h8v1h-8zm65 0h1v3h-1zm10 0h1v3h-1zm-96 1h1v1h-1zm4 0h4v1h-4zm18 0h6v1h-6zm7 0h1v1h-1zm-27 2h6v1h-6zm20 0h6v1h-6zm48 7h1v11h-1zm14 0h1v11h-1z"/><path d="M87 66h3v1h-3zm17 0h2v1h-2zm63 0h1v1h-1zm7 0h1v1h-1zm-90 1h2v2h-2zm3 0h1v9h-1zm18 0h1v9h-1zm2 0h2v2h-2zm59 1h1v15h-1zm9 0h1v15h-1zM17 69h3v2h-3zm33 0h3v2h-3zm33 0h1v1h-1zm10 0h3v2h-3zm4 0h3v2h-3zm12 0h1v1h-1zm-94 2h2v6h-2zm5 0h2v6h-2zm28 0h2v6h-2zm5 0h2v6h-2zm43 0h1v1h-1zm43 1h1v10h-1zm6 0h1v10h-1zm-63 1h1v1h-1zm28 0h1v1h-1zm54 0h1v7h-1zm13 0h1v7h-1zM44 74h1v7h-1zm14 0h1v7h-1z"/><path d="M14 75h3v2h-3zm69 0h5v1h-5zm23 0h4v1h-4zm-84 1h1v4h-1zm61 0h1v4h-1zm10 0h7v1h-7zm16 0h1v4h-1zm26 0h1v10h-1zm14 0h1v10h-1zM14 77h1v3h-1zm79 0h1v1h-1zm6 0h1v1h-1zM9 78h1v1H9zm18 0h1v1h-1zM9 80h1v1H9zm4 0h1v7h-1zm10 0h1v7h-1zm4 0h1v1h-1zm50 0h1v6h-1zm38 0h1v6h-1zm25 0h6v1h-6zM10 81h2v1h-2zm5 0h1v7h-1zm6 0h1v7h-1zm4 0h2v1h-2zm23 0h1v2h-1zm6 0h1v2h-1zm27 0h2v2h-2zm29 0h2v2h-2zm51 0h3v1h-3zm17 0h3v1h-3zM9 82h2v1H9zm17 0h2v1h-2zm16 0h3v1h-3zm16 0h3v1h-3zm103 0h1v24h-1zm3 0h3v1h-3zm12 0h2v1h-2zm4 0h1v24h-1zM7 83h2v1H7zm3 0h1v2h-1zm16 0h1v2h-1zm2 0h2v1h-2zm12 0h2v1h-2zm3 0h2v2h-2zm15 0h2v2h-2zm3 0h2v1h-2zm25 0h1v7h-1zm20 0h1v7h-1zm59 0h1v4h-1zm11 0h1v4h-1zM8 84h1v4H8z"/><path d="M11 84h3v1h-3zm5 0h1v1h-1zm4 0h2v1h-2zm4 0h3v1h-3zm4 0h1v4h-1zm13 0h1v4h-1zm20 0h1v4h-1zm-17 1h3v1h-3zm12 0h3v1h-3zm22 0h9v1h-9zm29 0h9v1h-9zm-93 1h2v1h-2zm8 0h2v1h-2zm24 0h3v1h-3zm8 0h3v1h-3zm25 0h1v2h-1zm34 0h1v2h-1zm56 0h4v1h-4zM7 87h6v1H7z"/><path d="M24 87h6v1h-6zm16 0h6v1h-6zm8 0h1v1h-1zm6 0h1v1h-1zm3 0h6v1h-6zm17 0h1v5h-1zm2 0h4v1h-4zm38 0h3v1h-3zm4 0h1v5h-1zm17 0h1v10h-1zm14 0h1v10h-1zM12 88h1v1h-1zm4 0h1v1h-1zm4 0h1v1h-1zm4 0h1v1h-1zm21 0h1v1h-1zm2 0h1v6h-1zm2 0h1v7h-1zm4 0h1v7h-1zm2 0h1v6h-1zm2 0h1v1h-1zm19 0h1v9h-1zm13 0h1v2h-1zm14 0h1v2h-1zm13 0h1v9h-1z"/><path d="M88 89h2v1h-2zm16 0h1v4h-1zm-17 1h2v1h-2zm18 0h1v1h-1zm57 0h4v1h-4zm14 0h5v1h-5zm-88 1h1v2h-1zm-3 1h1v3h-1zm4 0h1v3h-1z"/><path d="M103 92h2v1h-2zm4 0h1v3h-1zm-59 1h2v1h-2zm6 0h2v1h-2zm26 0h1v2h-1zm6 0h1v2h-1zm17 0h1v2h-1z"/><path d="M106 93h2v2h-2zm6 0h1v2h-1zm27 0h2v1h-2zm5 0h2v1h-2zM29 94h1v15h-1zm8 0h1v15h-1zm13 0h4v1h-4zm29 0h2v1h-2zm34 0h1v1h-1zm26 0h1v4h-1zm6 0h1v4h-1z"/><path d="M28 95h2v1h-2zm10 0h1v1h-1zm52 0h1v2h-1zm12 0h1v2h-1zm-75 1h1v2h-1zm12 0h1v2h-1zm39 0h1v25h-1zm3 0h7v1h-7zm24 0h7v1h-7zm9 0h1v25h-1zm22 0h4v1h-4zm10 0h4v1h-4zm-65 1h1v3h-1zm10 0h1v2h-1zm10 0h1v2h-1zm10 0h1v3h-1zm27 0h2v1h-2zm8 0h1v3h-1zM32 98h3v2h-3zm106 0h1v2h-1zM27 99h1v2h-1zm12 0h1v2h-1zm36 0h1v4h-1zm17 0h1v2h-1zm8 0h1v2h-1zm17 0h1v4h-1zm19 0h1v1h-1zm12 0h1v1h-1zm16 0h3v1h-3zm11 0h3v1h-3zm-144 1h1v6h-1zm4 0h1v6h-1zm104 0h1v1h-1zm6 0h1v1h-1zm19 0h2v6h-2zm12 0h2v6h-2zm-86 1h1v9h-1zm12 0h1v9h-1zm36 0h1v5h-1zm2 0h1v2h-1zm4 0h1v2h-1zm2 0h1v5h-1zm21 0h1v1h-1zm7 0h1v1h-1zm-147 1h1v3h-1zm12 0h1v3h-1zm-11 1h2v3h-2z"/><path d="M38 103h2v2h-2zm53 0h1v1h-1zm10 0h2v1h-2zm-9 1h1v1h-1zm8 0h1v1h-1zm66 0h1v1h-1zm9 0h3v1h-3zm-137 1h1v1h-1zm36 0h2v1h-2zm5 0h1v16h-1zm14 0h1v1h-1zm6 0h1v1h-1zm14 0h2v16h-2zm4 0h2v1h-2zm22 0h8v1h-8zm23 0h4v1h-4zm16 0h3v1h-3zm-104 1h1v1h-1zm6 0h1v14h-1z"/><path d="M112 106h3v14h-3zm6 0h1v1h-1zm18 0h1v3h-1zm4 0h1v6h-1zm4 0h1v6h-1zm4 0h1v3h-1zm17 0h1v6h-1zm11 0h1v6h-1zm-152 1h1v1h-1zm18 0h1v1h-1zm33 0h1v1h-1zm10 0h4v1h-4zm10 0h3v6h-3zm9 0h4v1h-4zm13 0h1v1h-1zm-36 1h1v10h-1zm4 0h1v6h-1zm22 0h1v6h-1z"/><path d="M111 108h4v10h-4zm-87 1h1v1h-1zm4 0h1v7h-1zm10 0h1v7h-1zm4 0h1v1h-1zm-17 1h2v1h-2zm5 0h1v6h-1zm6 0h1v6h-1zm4 0h2v1h-2zm42 0h1v6h-1z"/><path d="M110 110h5v6h-5zm26 0h1v3h-1zm12 0h1v3h-1zm21 0h1v2h-1zm3 0h1v2h-1zm-148 1h2v1h-2zm17 0h2v1h-2zm49 0h4v1h-4zm9 0h4v1h-4z"/><path d="M166 111h4v1h-4zm7 0h4v1h-4zm-151 1h2v1h-2zm3 0h1v2h-1zm16 0h1v2h-1zm2 0h2v1h-2zm47 0h1v8h-1zm3 0h1v8h-1zm6 0h1v8h-1zm3 0h1v8h-1zm-83 1h2v1h-2zm4 0h1v6h-1zm3 0h3v1h-3zm5 0h1v1h-1zm4 0h2v1h-2z"/><path d="M39 113h3v1h-3zm4 0h1v6h-1zm3 0h2v1h-2zm-28 1h1v5h-1zm30 0h1v5h-1zm38 0h1v2h-1zm20 0h1v2h-1zm57 0h1v2h-1zm2 0h1v2h-1zm11 0h1v2h-1zm2 0h1v2h-1zm-154 2h4v1h-4zm5 0h1v3h-1zm8 0h1v2h-1z"/><path d="M39 116h5v1h-5zm48 0h1v2h-1zm18 0h1v2h-1zm57 0h1v1h-1zm17 0h1v1h-1zm-16 1h1v2h-1zm2 0h1v2h-1zm11 0h1v2h-1zm2 0h1v2h-1zm-159 1h11v1H19zm19 0h11v1H38zm50 0h1v2h-1zm16 0h1v2h-1zm-76 1h1v3h-1zm2 0h1v3h-1zm6 0h1v3h-1zm2 0h1v3h-1zm51 0h5v1h-5z"/><path d="M100 119h5v1h-5zm62 0h1v1h-1zm17 0h1v1h-1zm-16 1h1v3h-1zm2 0h1v3h-1zm11 0h1v3h-1zm2 0h1v3h-1zm-85 7h8v2h-8zm-61 2h3v2h-3zm62 0h6v2h-6z"/><path d="M31 130h5v1h-5zm-1 1h1v1h-1zm6 0h1v1h-1zm-7 1h1v2h-1zm8 0h1v2h-1zm56 0h3v1h-3zm5 0h3v1h-3z"/><path d="M28 133h2v1h-2zm10 0h1v1h-1zm54 0h3v1h-3zm7 0h3v1h-3zm-72 1h1v3h-1zm12 0h1v3h-1zm50 0h1v1h-1zm3 0h2v1h-2zm8 0h2v1h-2zm4 0h1v1h-1zm-16 1h1v2h-1zm4 0h1v1h-1zm9 0h1v1h-1zm4 0h1v2h-1zm-77 1h1v2h-1z"/><path d="M38 136h2v1h-2zm49 0h2v1h-2zm-49 1h1v1h-1zm49 0h1v4h-1zm19 0h1v4h-1zm49 0h7v2h-7zm-128 1h1v3h-1zm12 0h1v3h-1zm103 0h1v7h-1zm32 0h1v7h-1zm-149 1h1v1h-1zm3 0h1v2h-1z"/><path d="M38 139h2v2h-2zm3 0h1v1h-1zm45 0h2v2h-2zm21 0h1v4h-1zm-22 2h2v2h-2zm23 0h1v10h-1zm32 0h1v2h-1zm36 0h1v2h-1zm-145 1h1v1h-1zm4 0h1v1h-1zm49 1h2v8h-2zm25 0h1v15h-1z"/><path d="M83 144h3v1h-3zm65 0h5v1h-5zm16 0h5v1h-5zm-24 1h1v4h-1zm8 0h1v4h-1zm4 0h1v9h-1zm12 0h1v9h-1zm4 0h1v4h-1zm8 0h1v4h-1zm-93 1h3v5h-3zm27 0h1v5h-1zm39 2h2v1h-2z"/><path d="M166 148h3v1h-3zm-18 2h2v3h-2zm19 0h2v3h-2zm-83 1h1v7h-1zm73 0h1v3h-1zm2 0h1v3h-1z"/><path d="M144 152h6v1h-6zm25 0h4v1h-4zm-138 1h1v1h-1zm4 0h1v1h-1zm50 0h2v5h-2zm22 0h3v5h-3zm37 0h1v1h-1zm5 0h1v1h-1zm7 0h2v1h-2zm4 0h1v1h-1zm7 0h1v1h-1zm5 0h1v1h-1zm-92 1h1v13h-1zm7 0h2v1h-2z"/><path d="M105 154h5v1h-5zm8 0h1v13h-1zm37 0h1v1h-1zm3 0h1v1h-1zm10 0h1v1h-1zm3 0h1v1h-1zm-79 1h1v1h-1zm19 0h4v1h-4zm38 0h1v2h-1zm5 0h1v2h-1zm3 0h1v2h-1zm12 0h1v2h-1zm3 0h1v2h-1zm5 0h1v2h-1z"/><path d="M145 156h5v1h-5zm23 0h5v1h-5zm-25 2h1v2h-1zm30 0h1v2h-1zm-100 2h1v9h-1zm47 0h1v9h-1zm19 0h1v5h-1zm8 0h2v2h-2zm21 0h2v2h-2zm9 0h1v5h-1z"/><path d="M72 161h2v8h-2zm49 0h1v22h-1zm22 0h1v1h-1zm30 0h1v1h-1zm-30 2h1v1h-1zm30 0h1v1h-1zm-82 1h4v1h-4zm8 0h4v1h-4zm-68 1h1v1h-1zm4 0h1v1h-1zm55 0h1v1h-1zm4 0h1v3h-1zm5 0h1v3h-1zm4 0h1v1h-1zm42 0h4v1h-4zm5 0h3v1h-3zm14 0h3v1h-3zm4 0h4v1h-4zm-79 1h1v1h-1zm15 0h1v1h-1zm41 0h1v1h-1zm3 0h1v1h-1zm2 0h1v1h-1zm2 0h1v1h-1zm12 0h1v1h-1zm2 0h1v1h-1zm2 0h1v1h-1zm3 0h1v1h-1zm-83 1h1v1h-1z"/><path d="M95 167h5v1h-5zm10 0h1v1h-1zm33 0h1v4h-1zm6 0h1v1h-1zm5 0h1v1h-1zm4 0h1v1h-1zm10 0h1v1h-1zm4 0h1v1h-1zm5 0h1v1h-1zm6 0h1v4h-1zm-162 1h1v6h-1zm2 0h1v6h-1zm30 0h1v6h-1zm2 0h1v6h-1zm33 0h1v1h-1zm4 0h1v1h-1zm19 0h1v1h-1zm4 0h1v1h-1zm35 0h1v4h-1zm3 0h1v4h-1zm2 0h1v2h-1zm2 0h1v2h-1zm12 0h1v2h-1zm2 0h1v2h-1zm2 0h1v4h-1zm3 0h1v4h-1zm-99 1h1v14h-1zm2 0h1v11h-1zm5 0h1v1h-1zm3 0h1v9h-1zm4 0h1v1h-1zm21 0h1v1h-1zm4 0h1v9h-1zm3 0h1v1h-1zm5 0h1v11h-1z"/><path d="M151 169h2v1h-2zm14 0h2v1h-2zm-84 1h2v7h-2zm4 0h1v1h-1zm7 0h1v1h-1zm9 0h1v1h-1zm7 0h1v1h-1zm4 0h1v7h-1zm-89 1h4v1h-4zm17 0h4v1h-4zm44 0h1v1h-1zm7 0h1v1h-1zm2 0h2v4h-2zm6 0h2v4h-2zm3 0h1v1h-1zm7 0h1v1h-1zm37 0h3v1h-3zm23 0h3v1h-3zm-146 1h1v2h-1zm20 0h1v2h-1zm40 0h1v1h-1zm7 0h1v1h-1z"/><path d="M95 172h6v2h-6zm8 0h1v1h-1zm7 0h3v1h-3zm-21 1h1v1h-1zm15 0h1v1h-1zm-73 1h1v1h-1zm4 0h1v1h-1zm53 0h1v1h-1zm17 0h1v1h-1zm34 0h1v5h-1zm38 0h1v5h-1zm-94 1h1v1h-1zm10 0h1v3h-1zm7 0h1v3h-1zm10 0h3v1h-3zm-26 1h2v1h-2zm24 0h2v1h-2zm-25 1h2v1h-2zm26 0h3v1h-3zm34 1h1v2h-1zm30 0h1v2h-1zm-152 1h1v5h-1zm3 0h1v1h-1zm2 0h5v1h-5zm10 0h5v1h-5zm6 0h1v1h-1zm3 0h1v5h-1zm110 0h7v2h-7zm-86 1h1v1h-1zm55 0h1v1h-1zm-95 1h1v3h-1zm8 0h1v3h-1zm33 0h1v1h-1zm3 0h1v2h-1zm47 0h2v2h-2zm3 0h1v1h-1zm-101 1h5v2h-5z"/><path d="M40 182h6v2h-6zm31 0h3v1h-3zm51 0h1v1h-1zm-95 1h4v1h-4z"/><path d="M36 183h10v1H36zm39 0h1v1h-1zm43 0h1v1h-1zm24 0h2v2h-2zm31 0h2v2h-2z"/></g><g fill="#7ab"><path d="M170 67h2v1h-2zm-28 5h1v1h-1zm-46 2h1v1h-1zm-78 5h1v1h-1zm33 0h1v1h-1zm-18 29h1v1h-1zm104 5h2v1h-2zm3 0h5v1h-5zm6 0h2v1h-2zm18 10h3v1h-3zm4 0h2v1h-2zm4 0h2v1h-2zm3 0h3v1h-3zm-143 9h3v1h-3zm-11 11h1v2h-1zm5 0h1v2h-1zm14 0h1v2h-1zm5 0h1v2h-1z"/><path d="M22 144h5v1h-5zm19 0h5v1h-5zm-20 9h6v2h-6zm19 0h6v2h-6zm55 2h4v1h-4zm-1 2h6v1h-6zm-73 1h6v1h-6zm19 0h6v1h-6zm-19 1h1v3h-1zm5 0h2v2h-2zm13 0h2v2h-2zm6 0h1v3h-1zm-23 2h5v1h-5z"/><path d="M40 161h6v1h-6zm-19 4h3v2h-3zm5 0h2v2h-2zm13 0h2v2h-2zm4 0h3v2h-3z"/><path d="M24 166h4v1h-4zm17 0h5v1h-5zm92 11h1v1h-1zm50 0h1v1h-1zm-48 1h2v1h-2zm13 0h3v1h-3zm18 0h3v1h-3zm14 0h2v1h-2z"/></g><g fill="#a44"><path d="M152 133h1v10h-1zm12 0h1v10h-1zm-16 4h1v5h-1zm20 0h1v5h-1z"/><path d="M147 139h2v3h-2zm22 0h1v3h-1z"/><path d="M146 141h3v1h-3zm24 0h1v1h-1zm-26 2h2v7h-2zm27 0h2v7h-2z"/><path d="M143 145h3v5h-3zm30 0h1v5h-1z"/><path d="M142 147h4v3h-4zm32 0h1v3h-1zm-34 7h4v1h-4zm33 0h4v1h-4zm-31 12h2v9h-2zm31 0h2v9h-2z"/><path d="M140 167h4v1h-4zm35 0h2v1h-2zm-31 7h4v1h-4zm25 0h6v1h-6z"/></g><g fill="#786"><path d="M82 5h3v1h-3zm4 0h3v1h-3zm-4 1h1v1h-1zm3 0h1v1h-1zm3 0h1v1h-1zm-7 1h1v4h-1zm8 0h1v4h-1z"/><path d="M80 10h2v1h-2zm10 0h1v5h-1zm-69 1h4v1h-4zm22 0h4v1h-4zm37 0h1v4h-1zm-60 1h1v3h-1zm12 0h4v1h-4zm15 0h1v3h-1z"/><path d="M79 12h2v2h-2zm12 0h1v2h-1zm-59 1h1v3h-1zm3 0h1v3h-1zm-12 1h6v1h-6zm16 0h6v1h-6zm105 0h1v6h-1zm28 0h1v6h-1zm-89 1h1v1h-1zm4 0h1v1h-1zm-56 1h1v2h-1zm5 0h1v2h-1zm39 0h2v1h-2zm4 0h2v3h-2zm5 0h3v1h-3zm6 0h2v3h-2zm4 0h2v1h-2z"/><path d="M143 16h2v4h-2zm30 0h1v4h-1zM33 17h2v2h-2zm40 0h1v2h-1zm3 0h2v2h-2zm17 0h2v2h-2zm4 0h1v2h-1zm-75 1h1v8h-1zm2 0h4v1h-4zm5 0h1v6h-1zm9 0h1v6h-1zm2 0h4v1h-4zm5 0h1v8h-1zm26 0h1v1h-1zm3 0h1v1h-1z"/><path d="M96 18h2v1h-2zm3 0h1v1h-1zm43 0h3v2h-3zm32 0h1v2h-1zM69 19h1v1h-1zm11 0h1v2h-1zm10 0h1v2h-1zm11 0h1v1h-1zm-77 1h1v2h-1zm2 0h4v1h-4zm13 0h3v1h-3zm4 0h1v2h-1zm25 0h1v1h-1zm6 0h5v2h-5zm7 0h1v2h-1z"/><path d="M89 20h2v1h-2zm3 0h5v2h-5zm10 0h1v1h-1zm-77 1h1v1h-1zm2 0h5v1h-5zm6 0h2v3h-2zm3 0h5v1h-5zm6 0h2v1h-2zm40 0h1v2h-1zm6 0h2v1h-2zm53 0h4v1h-4zm31 0h4v1h-4zM17 22h1v3h-1zm9 0h1v1h-1zm2 0h4v1h-4zm8 0h4v1h-4zm5 0h1v1h-1zm9 0h1v3h-1zm18 0h5v1h-5zm6 0h4v1h-4zm14 0h1v1h-1zm5 0h4v1h-4zm5 0h5v1h-5zm43 0h1v9h-1zm3 0h1v9h-1zm28 0h1v9h-1zm3 0h1v9h-1z"/><path d="M16 23h2v2h-2zm14 0h2v1h-2zm6 0h3v1h-3zm15 0h1v3h-1z"/><path d="M15 24h3v1h-3zm37 0h1v3h-1zm87 0h1v13h-1zm14 0h2v2h-2zm5 0h1v1h-1zm4 0h2v2h-2zm15 0h1v13h-1zM14 25h3v1h-3zm5 0h1v2h-1zm29 0h1v2h-1zm5 0h1v3h-1z"/><path d="M152 25h3v1h-3zm12 0h1v2h-1zM13 26h3v1h-3zm5 0h3v1h-3zm6 0h1v1h-1zm8 0h4v1h-4zm11 0h1v1h-1zm4 0h3v1h-3zm7 0h1v3h-1zm98 0h1v1h-1zm3 0h1v1h-1zm6 0h1v1h-1zM12 27h3v1h-3zm5 0h2v1h-2zm3 0h2v1h-2zm5 0h1v4h-1zm7 0h1v1h-1zm3 0h1v1h-1zm7 0h1v4h-1zm4 0h2v1h-2zm3 0h2v1h-2zm6 0h1v3h-1zm-44 1h3v1h-3zm5 0h2v1h-2zm5 0h1v2h-1zm10 0h1v1h-1zm5 0h1v1h-1zm10 0h1v2h-1zm4 0h2v1h-2zm6 0h1v3h-1zm98 0h1v2h-1zm8 0h1v2h-1zM10 29h3v1h-3zm5 0h2v1h-2z"/><path d="M20 29h2v1h-2zm27 0h1v2h-1zm4 0h2v1h-2zm6 0h1v3h-1zm88 0h6v2h-6zm8 0h2v1h-2zm10 0h1v1h-1zm3 0h7v2h-7zM9 30h3v1H9zm5 0h2v1h-2zm5 0h2v1h-2zm29 0h1v2h-1zm4 0h2v1h-2zm6 0h1v3h-1z"/><path d="M142 30h9v1h-9zm13 0h7v1h-7zm18 0h3v1h-3zM8 31h3v1H8zm5 0h2v1h-2zm5 0h2v1h-2zm15 0h2v5h-2zm16 0h1v2h-1zm4 0h2v1h-2zm6 0h1v3h-1zm96 0h1v4h-1zm6 0h1v4h-1zM7 32h3v1H7zm5 0h2v1h-2zm5 0h2v1h-2zm33 0h1v2h-1zm4 0h2v1h-2zm6 0h1v25h-1zm80 0h2v1h-2zm3 0h8v1h-8zm23 0h8v1h-8zm9 0h3v1h-3zM7 33h2v1H7zm4 0h2v1h-2zm5 0h2v1h-2zm10 0h1v6h-1z"/><path d="M32 33h4v1h-4zm9 0h1v6h-1zm10 0h1v2h-1zm4 0h2v1h-2zm86 0h1v4h-1zm8 0h2v2h-2zm17 0h2v2h-2zm9 0h1v4h-1zM7 34h1v23H7zm3 0h2v1h-2zm5 0h2v1h-2zm6 0h1v3h-1zm25 0h1v3h-1zm6 0h1v2h-1zm4 0h2v1h-2zm45 0h3v1h-3zm16 0h3v1h-3z"/><path d="M144 34h7v1h-7zm24 0h5v1h-5zM10 35h1v6h-1zm4 0h2v1h-2zm6 0h2v1h-2zm27 0h1v1h-1zm6 0h1v2h-1zm4 0h1v6h-1zm44 0h1v8h-1zm2 0h1v8h-1zm5 0h5v1h-5zm9 0h1v8h-1zm2 0h1v8h-1zm25 0h1v13h-1zm28 0h1v13h-1zM12 36h3v1h-3zm7 0h1v1h-1zm29 0h1v1h-1zm6 0h2v2h-2zm53 0h2v1h-2zm5 0h2v1h-2zm28 0h2v1h-2zm14 0h1v1h-1zm8 0h1v1h-1zm14 0h2v1h-2zM12 37h2v1h-2zm6 0h1v1h-1zm2 0h1v1h-1zm5 0h2v2h-2zm17 0h1v2h-1zm5 0h1v1h-1zm2 0h1v1h-1zm58 0h1v2h-1zm6 0h1v2h-1zm43 0h5v2h-5zM11 38h2v1h-2zm6 0h1v1h-1zm2 0h1v1h-1zm12 0h6v1h-6zm17 0h1v1h-1zm2 0h1v1h-1z"/><path d="M55 38h3v1h-3zm51 0h2v1h-2zm8 0h1v1h-1zm24 0h1v1h-1zm2 0h1v2h-1zm36 0h1v2h-1zm2 0h1v1h-1zM11 39h1v1h-1zm5 0h1v1h-1zm2 0h1v1h-1zm31 0h1v1h-1zm2 0h1v1h-1zm5 0h2v1h-2zm53 0h3v2h-3zm-94 1h1v1h-1zm2 0h1v1h-1zm33 0h1v1h-1zm2 0h1v1h-1zm89 0h1v2h-1zm34 0h1v2h-1zM14 41h1v1h-1zm2 0h1v1h-1zm35 0h1v1h-1zm2 0h1v1h-1zm53 0h1v2h-1zm4 0h1v7h-1zm4 0h1v2h-1zM13 42h1v1h-1zm2 0h1v1h-1zm10 0h2v1h-2zm16 0h2v1h-2zm11 0h1v1h-1zm2 0h1v1h-1z"/><path d="M105 42h4v1h-4zm7 0h4v1h-4zm30 0h3v2h-3zm31 0h2v2h-2zM12 43h1v1h-1zm2 0h1v1h-1zm4 0h1v1h-1zm9 0h1v1h-1zm4 0h1v8h-1zm2 0h2v6h-2zm3 0h1v8h-1zm4 0h1v1h-1zm9 0h1v1h-1zm4 0h1v1h-1zm2 0h1v1h-1zm50 0h1v1h-1zm10 0h1v1h-1zM11 44h1v1h-1zm2 0h1v1h-1zm4 0h1v1h-1zm7 0h3v1h-3zm17 0h3v1h-3zm9 0h1v1h-1zm4 0h1v1h-1zm2 0h1v1h-1zm45 0h1v4h-1zm18 0h1v4h-1zm24 0h2v2h-2zm30 0h1v2h-1zM10 45h1v3h-1zm2 0h1v1h-1zm4 0h1v1h-1zm6 0h4v1h-4zm20 0h4v1h-4zm9 0h1v1h-1zm4 0h1v1h-1zm2 0h1v3h-1zm51 0h1v3h-1zm4 0h1v3h-1zM11 46h1v1h-1zm4 0h1v1h-1zm13 0h2v3h-2zm10 0h2v3h-2zm14 0h1v1h-1z"/><path d="M56 46h2v1h-2zm-42 1h1v1h-1zm39 0h1v1h-1zm43 0h2v1h-2zm7 0h1v1h-1zm2 0h1v1h-1zm4 0h4v1h-4zm6 0h1v1h-1zm2 0h1v1h-1zm6 0h2v1h-2zM13 48h1v1h-1zm41 0h1v1h-1zm40 0h1v1h-1zm3 0h1v2h-1zm7 0h1v2h-1zm12 0h1v2h-1zm7 0h1v2h-1zm3 0h1v1h-1zM12 49h1v1h-1zm17 0h1v1h-1zm9 0h1v1h-1zm17 0h1v1h-1zm38 0h1v1h-1zm34 0h1v1h-1zM11 50h1v1h-1zm21 0h1v2h-1zm3 0h2v1h-2zm21 0h1v1h-1zm44 0h4v1h-4zm6 0h2v1h-2zm7 0h2v1h-2zm4 0h4v1h-4zM10 51h1v1h-1zm20 0h1v3h-1zm5 0h1v1h-1zm2 0h1v3h-1zm20 0h1v1h-1zm36 0h5v1h-5zm7 0h3v1h-3zm7 0h1v1h-1zm6 0h1v1h-1zm5 0h3v1h-3zm5 0h5v1h-5zM8 52h2v1H8zm50 0h3v1h-3zM8 53h1v2H8zm51 0h2v2h-2zm-39 3h1v1h-1zm7 0h2v1h-2zm12 0h2v1h-2zm8 0h1v1h-1zm-26 1h6v1h-6zm20 0h6v1h-6zm127 9h1v1h-1zm5 0h1v1h-1zm-85 1h1v10h-1zm16 0h1v10h-1zm63 0h1v1h-1zm7 0h1v1h-1zm-4 1h2v6h-2zm-86 1h2v1h-2zm23 0h2v1h-2zm-91 1h1v1h-1zm4 0h1v1h-1zm29 0h1v1h-1zm4 0h1v1h-1zm30 0h1v4h-1zm2 0h1v4h-1zm22 0h1v4h-1zm2 0h1v4h-1zm58 0h2v4h-2zm6 0h2v4h-2zM18 71h1v1h-1zm33 0h1v1h-1zm42 0h3v1h-3zm4 0h3v1h-3zm43 0h1v1h-1zm4 0h1v1h-1zM17 72h1v5h-1zm2 0h1v5h-1zm31 0h1v5h-1zm2 0h1v5h-1zm41 0h2v1h-2zm5 0h2v1h-2z"/><path d="M84 73h2v1h-2zm24 0h2v1h-2zm32 1h1v6h-1zm2 0h1v6h-1zm2 0h1v6h-1zm23 0h1v4h-1zm7 0h1v4h-1zM45 75h1v10h-1zm12 0h1v10h-1zm112 0h1v7h-1zm3 0h1v7h-1zm-88 1h5v1h-5zm21 0h4v2h-4zm31 0h1v10h-1zm12 0h1v10h-1zM15 77h1v4h-1zm6 0h1v4h-1zm27 0h1v4h-1zm6 0h1v4h-1zm25 0h2v8h-2zm5 0h4v1h-4zm8 0h1v1h-1zm2 0h5v2h-5zm6 0h1v1h-1zm12 0h2v8h-2z"/><path d="M78 78h3v7h-3zm6 0h3v1h-3zm7 0h1v1h-1zm2 0h7v1h-7zm8 0h1v1h-1zm5 0h3v1h-3zm8 0h1v7h-1zm-30 1h2v1h-2zm6 0h1v1h-1zm3 0h1v1h-1zm6 0h1v1h-1zm3 0h1v1h-1zm5 0h2v1h-2zm-18 1h1v1h-1zm14 0h1v1h-1zm-91 1h1v1h-1zm4 0h1v3h-1zm4 0h1v3h-1zm4 0h1v1h-1zm25 0h1v2h-1zm4 0h1v2h-1zm35 0h1v7h-1zm16 0h1v7h-1zm63 0h3v1h-3zm6 0h2v1h-2zM11 82h1v1h-1zm14 0h1v1h-1z"/><path d="M87 82h2v6h-2zm18 0h1v7h-1zm36 0h1v5h-1zm2 0h1v5h-1zm19 0h1v8h-1zm6 0h1v11h-1zm5 0h1v11h-1zm6 0h1v8h-1zM9 83h1v3H9zm18 0h1v3h-1zm15 0h1v3h-1zm5 0h2v2h-2zm7 0h2v2h-2zm6 0h1v3h-1zm21 0h5v2h-5zm26 0h8v2h-8zm-97 2h3v2h-3zm6 0h2v1h-2zm3 0h2v1h-2z"/><path d="M24 85h4v1h-4zm19 0h1v2h-1zm6 0h1v3h-1zm4 0h1v3h-1zm6 0h2v1h-2zm31 0h1v1h-1zm2 0h1v14h-1zm8 0h1v14h-1zm2 0h1v1h-1zm-86 1h1v2h-1zm4 0h1v2h-1zm4 0h3v1h-3zm20 0h2v1h-2zm13 0h3v1h-3zm23 0h6v4h-6zm9 0h1v1h-1z"/><path d="M91 86h2v11h-2zm10 0h1v11h-1zm2 0h3v1h-3zm4 0h6v4h-6zm30 0h11v1h-11z"/><path d="M90 87h3v8h-3zm12 0h1v8h-1zm34 0h1v9h-1zm3 0h1v3h-1zm6 0h1v3h-1zm3 0h1v9h-1zm-71 1h9v2h-9zm10 0h1v1h-1zm26 0h3v3h-3zm52 0h1v2h-1zm11 0h1v2h-1zM48 89h1v4h-1zm2 0h3v1h-3zm4 0h1v4h-1z"/><path d="M140 89h6v1h-6zm-90 1h1v4h-1zm2 0h1v4h-1zm25 0h3v1h-3zm12 0h4v2h-4zm14 0h1v2h-1zm39 0h1v2h-1zm25 0h2v1h-2zm7 0h1v1h-1zm-97 1h2v2h-2zm37 0h2v2h-2zm48 0h1v14h-1zm3 0h1v3h-1zm11 0h1v3h-1zm3 0h1v14h-1zM77 93h1v2h-1zm38 0h1v2h-1zm27 0h1v9h-1zm27 0h4v1h-4zm-29 1h1v7h-1zm4 0h1v7h-1zm22 0h1v5h-1zm9 0h1v5h-1zM28 96h1v7h-1zm10 0h1v7h-1zm44 1h7v3h-7zm22 0h7v3h-7z"/><path d="M139 98h2v2h-2zm6 0h1v2h-1zM31 99h1v1h-1zm4 0h1v1h-1zm54 0h1v1h-1zm14 0h8v1h-8zm-70 1h1v1h-1zm61 0h1v5h-1zm4 0h1v5h-1zm68 0h1v4h-1zm9 0h1v4h-1zm-143 1h1v5h-1zm2 0h1v5h-1zm47 0h8v1h-8z"/><path d="M93 101h2v2h-2zm6 0h1v2h-1zm5 0h8v1h-8zm35 0h1v4h-1zm6 0h1v4h-1zm23 0h1v1h-1zm2 0h2v1h-2zm3 0h1v1h-1zm-85 1h1v5h-1zm7 0h1v3h-1z"/><path d="M97 102h3v1h-3zm7 0h1v5h-1zm37 0h1v1h-1zm2 0h1v1h-1zm-47 1h3v2h-3zm44 0h1v2h-1zm2 0h1v2h-1zm2 0h2v2h-2zm-53 1h1v6h-1zm10 0h1v6h-1zm-9 1h1v5h-1z"/><path d="M100 105h2v5h-2zm66 0h1v6h-1zm9 0h1v6h-1zm-145 1h1v4h-1zm6 0h1v4h-1zm57 0h1v4h-1z"/><path d="M99 106h3v4h-3zm38 0h3v1h-3zm8 0h3v1h-3zm-8 1h1v2h-1zm10 0h1v2h-1zm-59 1h1v10h-1zm16 0h1v10h-1zm32 1h1v1h-1zm12 0h1v1h-1zm-121 1h1v1h-1zm4 0h1v3h-1zm4 0h1v3h-1zm4 0h1v1h-1zm98 0h1v3h-1zm10 0h1v3h-1zm20 0h2v1h-2zm3 0h2v3h-2zm3 0h3v1h-3zm-147 1h1v1h-1zm14 0h1v1h-1zm-16 1h1v4h-1zm18 0h1v4h-1zm49 0h2v7h-2zm9 0h2v7h-2z"/><path d="M166 112h10v1h-10zm-144 1h1v5h-1zm22 0h1v5h-1z"/><path d="M19 114h4v2h-4zm6 0h3v2h-3zm6 0h2v1h-2zm3 0h2v1h-2zm5 0h4v2h-4zm6 0h3v2h-3zm121 0h2v2h-2zm3 0h1v9h-1zm3 0h1v9h-1zm2 0h2v2h-2zm-143 1h1v2h-1zm4 0h1v2h-1zm-16 1h1v2h-1zm2 0h2v2h-2z"/><path d="M30 116h2v1h-2zm6 0h1v3h-1zm9 0h1v2h-1zm2 0h1v2h-1zm116 0h1v1h-1zm2 0h1v1h-1zm11 0h1v1h-1zm2 0h1v1h-1zm-158 1h3v1h-3zm8 0h1v1h-1zm2 0h1v2h-1zm8 0h1v1h-1z"/><path d="M46 117h2v1h-2zm120 0h2v2h-2zm8 0h2v2h-2zm-137 1h1v4h-1zm-8 1h1v3h-1zm134 0h1v1h-1zm2 0h1v1h-1zm11 0h1v1h-1zm2 0h1v1h-1zm-12 1h2v3h-2zm8 0h2v3h-2zm-144 2h7v1h-7zm63 9h1v1h-1zm7 0h1v1h-1zm-70 1h1v1h-1zm6 0h1v1h-1zm60 0h2v7h-2zm-63 1h1v1h-1z"/><path d="M95 133h4v6h-4zm-67 1h1v2h-1zm4 0h1v3h-1zm2 0h1v3h-1zm4 0h1v2h-1z"/><path d="M94 134h6v5h-6zm-7 1h1v1h-1zm2 0h1v7h-1z"/><path d="M93 135h8v4h-8zm11 0h1v7h-1zm-74 1h3v1h-3zm5 0h2v1h-2z"/><path d="M92 136h10v3H92zm-6 1h1v1h-1zm2 0h2v5h-2zm17 0h1v17h-1zm-20 2h1v1h-1zm7 0h1v5h-1zm9 0h1v5h-1zm53 0h9v1h-9zm-123 1h1v2h-1zm4 0h1v2h-1z"/><path d="M93 140h9v1h-9zm62 0h2v1h-2zm5 0h2v1h-2zm-76 1h1v1h-1zm3 0h3v1h-3zm6 0h3v1h-3zm5 0h4v1h-4zm8 0h1v13h-1zm49 0h1v13h-1zm6 0h1v13h-1zm-129 1h3v1h-3zm55 0h2v12h-2zm-56 1h1v10h-1zm2 0h1v11h-1zm2 0h1v10h-1zm48 0h1v1h-1z"/><path d="M86 143h4v1h-4zm9 0h4v1h-4zm9 0h4v1h-4zm-18 1h3v9h-3zm9 0h1v2h-1zm3 0h1v2h-1zm9 0h1v9h-1zm-18 1h1v1h-1z"/><path d="M92 145h4v1h-4zm7 0h3v1h-3zm5 0h4v1h-4zm45 0h3v3h-3zm16 0h3v3h-3zm-148 1h6v1h-6zm7 0h5v1h-5zm14 0h5v1h-5zm6 0h6v1h-6zm-27 1h1v5h-1zm6 0h1v1h-1zm4 0h2v5h-2zm11 0h2v5h-2zm5 0h1v1h-1zm6 0h1v5h-1zm102 1h1v6h-1zm14 0h1v6h-1zm-142 1h1v1h-1zm20 0h1v1h-1zm-21 1h1v2h-1zm2 0h1v2h-1zm18 0h1v2h-1zm2 0h1v2h-1z"/><path d="M18 151h5v1h-5zm7 0h4v1h-4zm15 0h3v1h-3zm5 0h5v1h-5zm40 0h4v2h-4zm23 0h1v2h-1zm50 0h1v4h-1zm-126 2h3v1h-3zm49 0h1v15h-1zm31 0h1v15h-1zm33 0h4v1h-4zm23 0h4v1h-4zm-24 1h1v1h-1zm5 0h1v1h-1zm3 0h1v1h-1z"/><path d="M156 154h5v1h-5zm8 0h1v1h-1zm3 0h1v1h-1zm5 0h1v1h-1zm-83 1h1v1h-1zm15 0h1v1h-1zm41 0h4v1h-4zm6 0h1v2h-1zm5 0h1v9h-1zm4 0h1v9h-1zm5 0h1v2h-1zm3 0h4v1h-4zm-86 1h1v1h-1zm6 0h1v1h-1zm17 0h1v1h-1zm6 0h2v1h-2zm-79 1h3v1h-3zm43 0h2v9h-2zm12 0h1v1h-1zm19 0h1v1h-1zm11 0h2v9h-2z"/><path d="M74 158h3v8h-3zm12 0h1v1h-1zm21 0h1v1h-1zm12 0h1v10h-1zm-37 1h2v6h-2zm3 0h1v1h-1zm8 0h8v1h-8zm15 0h1v1h-1zm2 0h3v6h-3zm-26 1h1v4h-1zm8 0h1v3h-1zm9 0h1v3h-1z"/><path d="M109 160h4v4h-4zm-78 1h1v4h-1zm4 0h1v4h-1zm51 0h1v1h-1zm5 0h2v1h-2zm11 0h1v1h-1zm5 0h1v1h-1zm-22 1h1v1h-1zm5 0h1v1h-1zm13 0h1v1h-1z"/><path d="M108 162h5v1h-5zm-19 1h1v3h-1zm15 0h1v3h-1z"/><path d="M88 164h2v1h-2zm17 0h1v1h-1zm52 0h1v4h-1zm2 0h1v4h-1zm-127 1h3v1h-3zm50 0h1v1h-1zm5 0h1v1h-1zm19 0h1v1h-1zm5 0h2v1h-2zm44 0h1v14h-1zm6 0h1v14h-1zm-130 1h1v8h-1zm2 0h1v9h-1zm2 0h1v8h-1zm39 0h2v1h-2zm12 0h1v3h-1zm21 0h1v3h-1zm11 0h2v1h-2zm28 0h2v1h-2zm5 0h1v1h-1zm14 0h1v1h-1zm4 0h2v1h-2zm-95 1h1v1h-1zm2 0h1v13h-1z"/><path d="M85 167h2v2h-2zm4 0h1v3h-1zm15 0h1v3h-1zm4 0h1v3h-1zm9 0h1v13h-1zm28 0h1v1h-1zm3 0h1v1h-1zm10 0h2v1h-2zm10 0h1v1h-1zm3 0h1v1h-1zm-152 1h10v1H19zm19 0h10v1H38zm37 0h2v12h-2zm5 0h1v1h-1z"/><path d="M84 168h3v1h-3zm25 0h1v3h-1zm4 0h1v1h-1zm5 0h1v12h-1zm28 0h2v3h-2zm5 0h1v1h-1zm14 0h1v1h-1zm4 0h2v3h-2zm-150 1h1v5h-1zm8 0h2v2h-2zm11 0h2v2h-2zm9 0h1v5h-1zm36 0h3v1h-3zm8 0h2v1h-2zm10 0h2v1h-2zm9 0h1v3h-1zm46 0h6v1h-6zm-79 1h3v8h-3zm6 0h2v1h-2zm3 0h1v3h-1zm4 0h2v1h-2zm3 0h2v1h-2zm6 0h2v1h-2zm3 0h2v1h-2zm5 0h1v3h-1z"/><path d="M114 170h5v8h-5zm-34 1h1v1h-1zm3 0h1v1h-1zm2 0h3v1h-3zm4 0h2v1h-2zm6 0h4v1h-4zm8 0h2v1h-2zm3 0h3v1h-3z"/><path d="M113 171h6v1h-6zm-89 1h5v1h-5zm14 0h5v1h-5zm46 0h3v1h-3zm4 0h2v1h-2zm16 0h2v1h-2zm4 0h2v2h-2zm-88 1h1v1h-1zm4 0h1v1h-1zm3 0h2v1h-2zm11 0h2v1h-2zm4 0h1v1h-1zm4 0h2v1h-2zm34 0h1v1h-1zm3 0h3v1h-3zm4 0h2v1h-2zm18 0h2v1h-2zm5 0h1v2h-1zm3 0h6v1h-6zm-81 1h3v1h-3zm51 0h2v1h-2zm3 0h2v1h-2zm9 0h4v6h-4zm11 0h2v1h-2z"/><path d="M109 174h2v1h-2zm-78 1h1v6h-1zm4 0h1v6h-1zm45 0h1v1h-1zm5 0h2v1h-2zm9 0h6v4h-6zm13 0h2v1h-2zm6 0h6v1h-6zm43 3h6v1h-6zm-82 3h3v2h-3zm43 0h3v2h-3zm-45 2h3v1h-3zm47 0h3v1h-3z"/></g><g fill="#245"><path d="M84 7h3v2h-3z"/><path d="M83 8h5v1h-5zm0 1h1v3h-1zm4 0h1v3h-1zm-55 1h4v1h-4zm-1 1h1v1h-1zm5 0h1v1h-1zm73 25h3v1h-3zm-1 1h1v2h-1zm4 0h1v2h-1zm38 12h2v2h-2zm15 0h2v2h-2zm-16 2h1v1h-1zm2 0h1v4h-1zm14 0h1v4h-1zm2 0h1v1h-1zm-11 2h1v2h-1zm4 0h1v2h-1z"/><path d="M150 54h2v1h-2zm7 0h4v1h-4zm9 0h1v3h-1zm-16 1h1v2h-1z"/><path d="M147 56h4v1h-4zm20 0h3v1h-3zm2 10h4v1h-4zm-1 1h1v1h-1zm5 0h1v1h-1zm-6 1h1v2h-1zm7 0h1v2h-1zm-33 3h3v1h-3zm-46 1h3v1h-3zm45 0h1v2h-1zm4 0h1v2h-1zm-50 1h2v1h-2zm3 0h2v1h-2zm-4 1h1v2h-1zm6 0h1v2h-1zm-5 1h1v1h-1z"/><path d="M98 75h2v1h-2zm-81 2h3v1h-3zm33 0h3v1h-3zm-33 1h1v1h-1zm2 0h1v1h-1zm31 0h1v1h-1zm2 0h1v1h-1zm-36 2h1v1h-1zm4 0h1v1h-1zm29 0h1v1h-1zm4 0h1v1h-1zm20 12h1v12h-1zm46 0h1v12h-1z"/><path d="M72 93h2v2h-2zm48 0h1v2h-1z"/><path d="M71 94h3v1h-3zm50 0h1v8h-1zm-50 1h1v7h-1zm1 6h2v2h-2z"/><path d="M120 101h2v1h-2zm0 1h1v1h-1zm-88 4h3v1h-3zm0 1h1v1h-1zm2 0h1v1h-1zm-3 2h1v1h-1zm4 0h1v1h-1zm-4 22h5v1h-5zm-11 11h11v1H20zm16 0h11v1H36zm-17 1h2v1h-2zm11 0h1v3h-1zm6 0h1v3h-1zm10 0h2v1h-2zm-27 1h1v2h-1zm28 0h1v2h-1zm-24 2h1v1h-1zm20 0h1v1h-1zm-20 5h1v2h-1zm20 0h1v2h-1z"/><path d="M19 152h12v1H19zm17 0h12v1H36zm59 0h4v1h-4zm-76 1h1v3h-1zm28 0h1v3h-1zm-17 1h2v7h-2zm5 0h2v7h-2zm58 0h8v1h-8zm-73 1h1v3h-1z"/><path d="M46 155h2v1h-2zm-25 1h11v1H21zm16 0h10v1H37zm56 0h8v1h-8zm-74 1h2v1h-2zm27 0h2v1h-2zm-27 1h1v5h-1zm28 0h1v5h-1zm46 0h8v1h-8zm-63 3h1v7h-1zm6 0h1v7h-1zm-16 1h1v3h-1z"/><path d="M46 162h2v1h-2zm-25 1h10v1H21zm16 0h10v1H37zm-18 1h2v1h-2zm27 0h2v1h-2zm-27 1h1v3h-1zm28 0h1v3h-1zm-27 2h11v1H20z"/><path d="M37 167h11v1H37zm-18 7h12v1H19zm17 0h12v1H36zm-17 1h1v1h-1zm9 0h3v2h-3zm8 0h3v2h-3zm11 0h1v1h-1z"/><path d="M20 176h11v1H20zm19 0h8v1h-8z"/></g><path fill="#5ef" d="M140 8h1v1h-1zm36 0h1v1h-1zm-92 2h3v1h-3zm56 1h1v1h-1zm36 0h1v1h-1zm-36 3h1v1h-1zm36 0h1v1h-1zm-25 4h1v1h-1zm14 0h1v1h-1zm-30 2h1v1h-1zm46 0h1v1h-1zm-34 22h1v1h-1zm22 0h1v1h-1zm-20 11h2v1h-2zm9 0h1v1h-1zm8 0h2v1h-2zm-17 1h1v1h-1zm18 0h1v1h-1zM91 73h1v1h-1zm10 0h1v1h-1zm-17 9h1v1h-1zm24 0h1v1h-1zM6 84h1v1H6zm24 0h1v1h-1zm9 0h1v1h-1zm24 0h1v1h-1zm12 22h1v1h-1zm42 0h1v1h-1zm-96 7h1v1h-1zm24 0h1v1h-1zm94 0h1v1h-1zm6 0h1v1h-1zm22 10h1v1h-1zm3 0h2v1h-2zm4 0h1v1h-1zM26 138h1v1h-1zm14 0h1v1h-1zm100 5h1v1h-1zm36 0h1v1h-1zm-85 1h1v1h-1zm11 0h1v1h-1zm34 13h1v1h-1zm44 0h1v1h-1zm-37 3h1v1h-1zm30 0h1v1h-1zm-37 3h1v1h-1zm44 0h1v1h-1zm-111 3h1v1h-1zm55 0h1v1h-1zm12 3h1v1h-1zm44 0h1v1h-1zm-46 8h3v1h-3zm14 0h3v1h-3zm18 0h3v1h-3zm14 0h3v1h-3zm-155 2h1v1h-1zm16 0h1v1h-1z"/><g fill="#479"><path d="M84 9h3v1h-3zm-52 2h4v1h-4zm-2 1h2v1h-2zm6 0h2v1h-2zm-6 1h1v1h-1zm7 0h1v1h-1zm72 24h3v1h-3zm41 14h1v2h-1zm16 0h1v2h-1z"/><path d="M149 52h2v1h-2zm18 0h1v1h-1zm-19 1h1v3h-1zm9 0h1v1h-1zm2 0h1v1h-1zm9 0h1v3h-1z"/><path d="M147 55h3v1h-3zm20 0h3v1h-3zm2 12h1v1h-1zm3 0h1v1h-1zm-4 1h1v2h-1zm5 0h1v2h-1zm-32 4h1v1h-1zm2 0h1v1h-1zm-47 1h1v1h-1zm-2 1h2v1h-2zm3 0h2v1h-2zm-2 1h3v1h-3zm-77 3h1v1h-1zm33 0h1v1h-1zm-34 1h1v1h-1zm2 0h1v1h-1zm31 0h1v1h-1zm2 0h1v1h-1zm20 16h1v6h-1zm48 0h1v6h-1zm-87 12h1v1h-1zm-1 1h1v1h-1zm2 0h1v1h-1zm106 4h1v1h-1zm4 0h1v1h-1zm-8 1h1v1h-1zm12 0h1v1h-1zm16 9h1v1h-1zm4 0h1v1h-1zm5 0h1v1h-1zm4 0h1v1h-1zm-14 1h1v1h-1zm15 0h1v1h-1zm-147 9h1v1h-1zm4 0h1v1h-1zm-5 1h1v1h-1zm6 0h1v1h-1zm-9 10h3v3h-3zm10 0h3v3h-3zm-17 1h1v2h-1zm26 0h1v2h-1z"/><path d="M21 145h9v1h-9zm19 0h7v1h-7zm55 5h4v2h-4zm-75 3h1v2h-1zm7 0h3v3h-3zm10 0h3v3h-3zm9 0h1v2h-1zm48 0h6v1h-6z"/><path d="M21 155h9v1h-9zm19 0h6v1h-6zm53 0h2v1h-2zm6 0h2v1h-2zm-78 2h9v1h-9zm16 0h9v1h-9zm56 0h1v1h-1zm7 0h1v1h-1zm-80 1h1v4h-1zm7 0h3v1h-3zm10 0h3v1h-3zm9 0h1v4h-1zm-18 1h2v4h-2zm9 0h2v4h-2z"/><path d="M27 161h3v2h-3zm12 0h1v2h-1z"/><path d="M21 162h9v1h-9zm19 0h6v1h-6zm-19 2h9v1h-9zm16 0h9v1h-9zm-17 1h1v2h-1zm8 0h2v2h-2zm9 0h2v2h-2zm9 0h1v2h-1zm-26 10h8v1h-8zm19 0h8v1h-8zm145 2h1v1h-1zm-50 1h1v1h-1zm48 0h2v1h-2zm-47 1h3v1h-3zm13 0h3v1h-3zm18 0h3v1h-3zm13 0h4v1h-4z"/></g><g fill="#fff"><path d="M84 12h3v1h-3zm-2 1h2v1h-2zm5 0h2v1h-2zm-5 1h1v1h-1zm3 0h1v1h-1zm3 0h1v1h-1zm-6 2h1v2h-1zm6 0h1v2h-1zm-5 2h1v1h-1zm4 0h1v1h-1zm-59 5h1v1h-1zm11 0h1v1h-1zm-10 1h3v1h-3zm7 0h3v1h-3zm-6 1h1v3h-1zm7 0h1v3h-1zm-7 4h1v9h-1zm7 0h1v9h-1zm118 0h7v1h-7zm-1 1h1v5h-1zm8 0h1v5h-1zm-6 1h5v3h-5zm-1 4h7v1h-7zM30 39h1v3h-1zm7 0h1v3h-1zm-6 1h1v2h-1z"/><path d="M36 40h2v2h-2z"/><path d="M29 41h10v1H29zm78 2h2v1h-2zm5 0h2v1h-2zm-6 1h1v1h-1zm8 0h1v1h-1zm-12 4h1v1h-1zm4 0h2v1h-2zm7 0h2v1h-2zm5 0h1v1h-1zM18 80h1v5h-1zm33 0h1v5h-1zm42 0h1v13h-1zm6 0h1v13h-1zm-5 2h1v3h-1z"/><path d="M98 82h2v3h-2zm40 0h1v4h-1zm8 0h1v4h-1z"/><path d="M95 83h5v1h-5zm75 0h2v1h-2zm-78 1h3v1h-3zm8 0h1v1h-1zm-9 1h1v1h-1zm10 0h1v1h-1zm-83 1h1v2h-1zm33 0h1v2h-1zm39 0h1v1h-1zm12 0h1v1h-1zm36 1h1v9h-1zm8 0h1v9h-1zm20 0h1v3h-1zm9 0h1v3h-1zm-36 4h1v2h-1z"/><path d="M145 91h2v2h-2zm21 0h1v3h-1zm9 0h1v3h-1zm-35 1h2v1h-2z"/><path d="M143 92h4v1h-4zm25 1h1v1h-1zm5 0h1v1h-1zm-4 1h4v1h-4zm0 1h1v6h-1zm3 0h1v6h-1zm-3 7h1v8h-1zm3 0h1v8h-1z"/><path d="M168 108h2v2h-2zm5 0h1v2h-1zm-140 1h1v5h-1zm105 0h2v1h-2zm3 0h3v1h-3zm4 0h2v1h-2z"/><path d="M167 109h8v1h-8zm-134 6h1v2h-1zm137 1h2v1h-2zm-138 1h1v5h-1zm2 0h1v5h-1zm136 2h2v1h-2zM33 140h1v2h-1zm123 5h5v1h-5zm-136 3h2v1h-2zm5 0h1v2h-1zm16 0h1v2h-1zm4 0h2v1h-2zm50 0h4v1h-4zm-75 1h1v1h-1zm26 0h1v1h-1zm46 3h2v1h-2zm8 0h2v1h-2zm-67 2h1v3h-1zm56 3h1v3h-1zm15 0h1v3h-1zm-71 1h1v7h-1zm55 2h1v1h-1zm5 0h1v1h-1zm2 0h4v1h-4zm5 0h1v1h-1zm5 0h1v1h-1zm-18 1h1v1h-1zm19 0h1v1h-1zm-20 1h1v1h-1zm21 0h1v1h-1zm-22 1h1v1h-1zm23 0h1v1h-1zm-24 1h1v1h-1zm25 0h1v1h-1zm-26 1h1v1h-1zm9 0h1v4h-1zm9 0h1v4h-1zm9 0h1v1h-1zm-28 1h1v1h-1zm29 0h1v1h-1z"/><path d="M91 167h2v2h-2zm11 0h1v2h-1zm-79 2h3v1h-3zm18 0h3v1h-3zm49 0h1v1h-1zm3 0h2v1h-2zm6 0h2v1h-2zm4 0h1v1h-1zm-82 1h1v1h-1zm24 0h1v1h-1zm44 0h1v1h-1zm6 0h4v1h-4zm9 0h1v1h-1zm-16 1h1v1h-1zm17 0h1v1h-1zm53 0h1v5h-1zm-71 1h1v1h-1zm19 0h1v1h-1zm-20 1h1v1h-1zm21 0h1v1h-1zm-22 1h1v1h-1zm23 0h1v1h-1zm-75 1h1v6h-1zm51 0h1v1h-1zm25 0h1v1h-1z"/></g><g fill="#732"><path d="M22 17h6v1h-6zm18 0h6v1h-6zm-19 1h1v7h-1zm25 0h1v7h-1zm28 11h3v1h-3zm20 0h3v1h-3zm-15 2h5v1h-5zm8 0h5v1h-5zm12 27h3v1h-3zm20 0h3v1h-3zm-15 2h5v1h-5zm8 0h5v1h-5zM9 77h1v1H9zm18 0h1v1h-1zM14 87h1v1h-1zm8 0h1v1h-1zm24 6h1v1h-1zm10 0h1v1h-1zm-9 1h2v1h-2zm7 0h2v1h-2zm-30 12h1v1h-1zm18 0h1v1h-1zm40 11h1v1h-1zm28 0h1v1h-1zm-29 2h1v1h-1zm30 0h1v1h-1zm-82 3h1v1h-1zm8 0h1v1h-1zm-7 1h2v1h-2zm5 0h2v1h-2zm116 9h2v1h-2zm13 0h2v1h-2zm-15 1h1v10h-1zm2 0h1v10h-1zm14 0h1v10h-1zm2 0h1v10h-1z"/><path d="M148 135h2v2h-2zm20 0h1v2h-1zm-21 2h1v2h-1zm22 0h1v2h-1zm-23 2h1v2h-1zm24 0h1v2h-1zm-26 2h2v2h-2zm27 0h2v2h-2zm-25 1h4v1h-4z"/><path d="M168 142h5v1h-5zm-25 1h1v2h-1zm3 0h1v8h-1zm24 0h1v8h-1zm3 0h1v2h-1zm-31 2h1v2h-1zm32 0h1v2h-1zm-33 2h1v4h-1zm34 0h1v4h-1z"/><path d="M142 150h5v1h-5zm29 0h5v1h-5zm-30 2h2v2h-2zm33 0h2v2h-2zm-33 3h2v2h-2zm33 0h2v2h-2zm-33 10h3v1h-3zm32 0h3v1h-3zm-32 1h1v1h-1zm34 0h1v1h-1zm-34 2h1v6h-1zm34 0h1v6h-1zm-25 3h3v4h-3zm14 0h3v4h-3zm-20 2h5v1h-5zm24 0h5v1h-5zm-20 1h1v1h-1zm20 0h1v1h-1zm-153 2h2v1h-2zm35 0h2v1h-2zm34 5h5v1h-5zm21 0h5v1h-5zm-85 3h10v1H20zm17 0h10v1H37z"/></g><path fill="red" d="M15 88h1v1h-1zm6 0h1v1h-1zm28 7h5v1h-5zm-17 28h3v1h-3z"/></svg>